<?xml version="1.0" encoding="UTF-8" standalone="no"?>
<!-- Generator: Gravit.io -->
<svg xmlns="http://www.w3.org/2000/svg" xmlns:xlink="http://www.w3.org/1999/xlink" style="isolation:isolate" viewBox="0 0 600 900" width="600" height="900"><defs><clipPath id="_clipPath_db7PC9apUJJTePE4T9ouhGt6iPllYqls"><rect width="600" height="900"/></clipPath></defs><g clip-path="url(#_clipPath_db7PC9apUJJTePE4T9ouhGt6iPllYqls)"><rect width="600" height="900" style="fill:rgb(250,250,250)"/><g><g><g><path d=" M 494.836 619.891 C 495.757 620.03 496.581 620.528 497.13 621.273 C 497.683 622.017 497.916 622.952 497.776 623.873 C 497.642 624.79 497.144 625.613 496.399 626.167 C 495.65 626.716 494.715 626.949 493.799 626.809 C 484.41 625.399 475.044 623.813 465.716 622.054 C 458.416 620.682 451.139 619.184 443.89 617.564 C 438.879 616.443 433.883 615.252 428.904 613.982 C 426.378 613.335 423.856 612.665 421.339 611.967 C 421.125 611.907 420.907 611.846 420.688 611.791 C 409.461 608.957 398.365 605.635 387.427 601.839 C 377.051 598.238 366.834 594.195 356.808 589.723 C 338.188 581.423 320.281 571.62 303.252 560.417 C 287.843 550.269 273.206 539.001 259.453 526.704 C 247.151 515.706 235.58 503.916 224.81 491.414 C 215.463 480.579 206.748 469.208 198.709 457.367 C 195.219 452.23 191.869 447.001 188.664 441.683 C 185.821 436.979 183.109 432.201 180.517 427.353 C 178.298 423.203 176.19 418.992 174.199 414.726 C 172.566 411.241 171.035 407.705 169.616 404.127 C 169.034 402.657 168.481 401.178 167.95 399.689 C 167.504 398.423 167.08 397.148 166.69 395.869 C 166.369 394.813 166.075 393.752 165.82 392.682 C 165.61 391.821 165.443 390.951 165.326 390.072 C 165.201 389.155 165.447 388.22 166.01 387.485 C 166.573 386.745 167.406 386.261 168.323 386.136 C 169.244 386.015 170.174 386.257 170.909 386.82 C 171.649 387.383 172.133 388.215 172.259 389.137 C 172.347 389.774 172.463 390.407 172.617 391.03 C 172.845 391.97 173.096 392.896 173.38 393.817 C 173.743 395.004 174.129 396.181 174.543 397.348 C 175.046 398.758 175.571 400.159 176.12 401.55 C 177.488 404.997 178.958 408.403 180.536 411.762 C 182.476 415.912 184.528 420.016 186.691 424.054 C 189.222 428.795 191.874 433.466 194.652 438.068 C 197.797 443.279 201.077 448.401 204.496 453.435 C 212.387 465.057 220.939 476.21 230.109 486.85 C 240.68 499.119 252.041 510.69 264.115 521.489 L 307.1 554.573 L 359.655 583.335 C 369.505 587.727 379.536 591.696 389.72 595.232 C 400.477 598.963 411.387 602.225 422.428 605.012 C 422.698 605.082 422.968 605.156 423.237 605.235 C 425.694 605.914 428.16 606.57 430.635 607.203 C 435.544 608.455 440.471 609.632 445.416 610.734 C 452.591 612.34 459.788 613.819 467.009 615.182 C 476.258 616.922 485.536 618.495 494.836 619.891 Z " fill="rgb(74,134,232)"/><path d=" M 111.909 314.078 C 104.475 323.508 91.115 333.855 70.322 333.855 Q 110.475 350.885 109.519 365.703" fill="rgb(74,134,232)"/><polygon points="161.613,384.106,114.551,374.319,99.496,328.669,131.503,292.806,178.565,302.593,193.62,348.243" fill="rgb(74,134,232)"/><circle vector-effect="non-scaling-stroke" cx="145.34687728290206" cy="338.4562575499124" r="14.11848888768597" fill="rgb(100,160,250)"/><path d=" M 138.677 379.326 C 150.628 379.565 160.688 387.964 174.878 410.158 C 169.528 373.076 173.715 373.541 179.786 363.791" fill="rgb(74,134,232)"/><path d=" M 177.616 367.376 C 184.94 355.022 195.983 352.085 206.758 353.991 Q 192.215 346.821 187.674 328.669" fill="rgb(74,134,232)"/><path d=" M 106.172 354.167 C 111.909 366.181 108.362 383.457 101.744 392.17 Q 122.524 377.052 138.082 379.213" fill="rgb(74,134,232)"/><path d=" M 188.152 330.33 C 183.849 320.053 186.085 296.199 193.62 288.265 Q 170.26 301.556 155.034 297.7" fill="rgb(74,134,232)"/><path d=" M 167.836 300.215 C 146.7 299.263 127.047 281.867 125.356 271.057 Q 121.469 303.561 111.431 314.556" fill="rgb(74,134,232)"/><path d=" M 189.841 353.972 L 189.138 353.991 L 189.11 352.591 L 189.808 352.577 C 190.646 352.558 191.488 352.549 192.325 352.549 C 197.006 352.535 201.682 352.842 206.32 353.465 C 208.423 353.754 210.508 354.117 212.578 354.563 C 214.499 354.977 216.402 355.471 218.282 356.048 C 220.017 356.578 221.725 357.187 223.395 357.881 C 224.931 358.518 226.429 359.239 227.88 360.039 C 229.202 360.77 230.476 361.589 231.691 362.496 C 232.793 363.315 233.831 364.227 234.785 365.218 L 235.269 365.72 L 234.259 366.693 L 233.775 366.19 C 232.873 365.25 231.895 364.39 230.853 363.617 C 229.69 362.752 228.471 361.966 227.201 361.263 C 225.796 360.486 224.349 359.788 222.86 359.174 C 221.227 358.499 219.566 357.899 217.873 357.383 C 216.03 356.82 214.169 356.336 212.285 355.931 C 210.247 355.494 208.195 355.136 206.134 354.852 C 201.556 354.238 196.945 353.935 192.325 353.949 C 191.497 353.949 190.669 353.959 189.841 353.972 Z " fill="rgb(74,134,232)"/><path d=" M 236.743 347.924 L 237.32 347.519 L 238.121 348.664 L 237.548 349.069 C 236.232 349.995 234.822 350.781 233.338 351.414 C 231.7 352.121 230.007 352.698 228.28 353.144 C 226.415 353.628 224.521 353.986 222.609 354.219 C 220.608 354.466 218.594 354.591 216.579 354.591 C 214.29 354.591 212.001 354.433 209.74 354.107 C 207.483 353.786 205.259 353.284 203.087 352.595 C 200.965 351.93 198.913 351.051 196.969 349.971 C 195.07 348.92 193.307 347.631 191.734 346.133 L 191.227 345.654 L 192.19 344.639 L 192.697 345.119 C 194.186 346.533 195.852 347.752 197.648 348.748 C 199.514 349.781 201.477 350.623 203.51 351.26 C 205.608 351.925 207.758 352.414 209.935 352.721 C 212.136 353.037 214.355 353.196 216.579 353.191 C 218.538 353.191 220.497 353.07 222.441 352.833 C 224.293 352.605 226.126 352.256 227.931 351.79 C 229.588 351.362 231.212 350.809 232.784 350.129 C 234.18 349.529 235.506 348.794 236.743 347.924 Z " fill="rgb(74,134,232)"/><path d=" M 211.633 245.958 L 211.396 245.298 L 212.718 244.828 L 212.95 245.488 C 213.29 246.442 213.532 247.424 213.676 248.424 C 213.843 249.555 213.927 250.695 213.918 251.839 C 213.913 253.542 213.769 255.245 213.49 256.924 C 213.183 258.818 212.745 260.684 212.182 262.517 C 211.564 264.531 210.819 266.509 209.949 268.43 C 209.014 270.505 207.949 272.52 206.758 274.46 C 204.129 278.74 200.947 282.653 197.294 286.096 C 193.167 289.981 188.506 293.256 183.448 295.82 L 182.825 296.136 L 182.192 294.889 L 182.815 294.573 C 187.752 292.07 192.302 288.874 196.336 285.077 C 199.9 281.718 203.003 277.903 205.562 273.729 C 206.725 271.84 207.763 269.877 208.674 267.853 C 209.521 265.988 210.242 264.066 210.843 262.107 C 211.387 260.335 211.81 258.529 212.108 256.696 C 212.378 255.087 212.513 253.463 212.522 251.83 C 212.527 250.76 212.448 249.685 212.294 248.624 C 212.159 247.717 211.941 246.824 211.633 245.958 Z " fill="rgb(74,134,232)"/><path d=" M 185.737 306.986 L 185.658 307.684 L 184.272 307.521 L 184.351 306.828 C 184.565 304.958 184.984 303.115 185.593 301.338 C 186.24 299.458 187.068 297.644 188.073 295.932 C 189.138 294.103 190.371 292.377 191.753 290.772 C 193.237 289.05 194.861 287.459 196.61 286.012 C 198.499 284.458 200.509 283.053 202.621 281.82 C 204.906 280.48 207.288 279.322 209.749 278.345 C 212.429 277.284 215.179 276.414 217.98 275.749 C 221.041 275.018 224.149 274.497 227.28 274.185 L 227.978 274.116 L 228.113 275.507 L 227.42 275.577 C 224.349 275.884 221.302 276.391 218.305 277.107 C 215.57 277.759 212.88 278.61 210.266 279.643 C 207.87 280.597 205.553 281.727 203.329 283.025 C 201.281 284.226 199.332 285.584 197.504 287.092 C 195.81 288.487 194.242 290.023 192.814 291.684 C 191.488 293.224 190.306 294.88 189.278 296.634 C 188.324 298.272 187.533 299.998 186.914 301.789 C 186.337 303.473 185.942 305.218 185.737 306.986 Z " fill="rgb(74,134,232)"/><path d=" M 113.464 381.353 L 114.064 380.995 L 114.781 382.195 L 114.181 382.558 C 113.143 383.177 112.129 383.823 111.133 384.507 C 110.217 385.131 109.323 385.796 108.458 386.489 C 107.662 387.131 106.899 387.815 106.173 388.532 C 105.503 389.197 104.871 389.904 104.289 390.649 C 103.74 391.347 103.247 392.086 102.81 392.859 C 102.391 393.603 102.033 394.38 101.744 395.185 C 101.163 396.832 100.87 398.572 100.874 400.321 C 100.879 401.21 100.944 402.099 101.07 402.978 C 101.209 403.941 101.405 404.9 101.66 405.839 C 101.944 406.891 102.279 407.919 102.665 408.933 C 103.098 410.064 103.573 411.181 104.098 412.269 C 104.685 413.493 105.308 414.693 105.973 415.87 C 106.718 417.182 107.495 418.471 108.304 419.741 C 109.207 421.151 110.142 422.538 111.105 423.905 C 112.166 425.418 113.259 426.906 114.376 428.377 L 114.799 428.935 L 113.687 429.782 L 113.264 429.223 C 112.133 427.739 111.035 426.236 109.961 424.71 C 108.984 423.329 108.039 421.923 107.127 420.495 C 106.304 419.206 105.513 417.89 104.759 416.559 C 104.075 415.354 103.438 414.126 102.838 412.879 C 102.298 411.748 101.805 410.599 101.358 409.431 C 100.953 408.375 100.604 407.3 100.307 406.207 C 100.041 405.211 99.832 404.197 99.683 403.178 C 99.548 402.234 99.478 401.28 99.478 400.326 C 99.469 398.414 99.79 396.516 100.428 394.715 C 100.744 393.836 101.135 392.984 101.591 392.17 C 102.065 391.337 102.596 390.537 103.186 389.783 C 103.805 388.992 104.475 388.243 105.192 387.536 C 105.95 386.787 106.75 386.071 107.583 385.401 C 108.476 384.68 109.398 383.996 110.342 383.349 C 111.361 382.651 112.403 381.986 113.464 381.353 Z " fill="rgb(74,134,232)"/><path d=" M 100.213 406.086 L 100.227 405.384 L 101.623 405.407 L 101.614 406.105 C 101.586 407.952 101.391 409.794 101.032 411.604 C 100.674 413.405 100.176 415.173 99.544 416.889 C 98.311 420.244 96.603 423.403 94.468 426.269 C 93.467 427.618 92.369 428.893 91.178 430.075 C 90.066 431.187 88.861 432.196 87.577 433.099 C 86.395 433.932 85.125 434.634 83.795 435.193 C 82.571 435.709 81.277 436.044 79.956 436.188 L 79.263 436.263 L 79.109 434.872 L 79.807 434.797 C 80.994 434.667 82.152 434.364 83.25 433.904 C 84.492 433.383 85.67 432.731 86.772 431.954 C 87.991 431.098 89.136 430.14 90.192 429.084 C 91.332 427.949 92.388 426.73 93.346 425.436 C 95.398 422.677 97.045 419.634 98.231 416.41 C 98.841 414.758 99.316 413.06 99.66 411.329 C 99.999 409.603 100.186 407.845 100.213 406.086 Z " fill="rgb(74,134,232)"/><path d=" M 28.587 331.631 L 28.005 331.245 L 28.773 330.077 L 29.359 330.463 C 30.532 331.235 31.755 331.929 33.021 332.533 C 34.119 333.059 35.254 333.501 36.422 333.855 C 38.474 334.46 40.6 334.767 42.74 334.757 C 44.215 334.748 45.685 334.641 47.146 334.432 C 48.658 334.222 50.166 333.976 51.664 333.697 C 53.446 333.362 55.232 333.078 57.028 332.831 C 58.996 332.571 60.978 332.436 62.97 332.426 C 65.617 332.431 68.264 332.696 70.86 333.222 C 72.363 333.529 73.847 333.911 75.313 334.367 C 76.955 334.878 78.57 335.469 80.152 336.139 L 80.798 336.409 L 80.254 337.698 L 79.612 337.428 C 78.067 336.777 76.495 336.204 74.894 335.702 C 73.48 335.26 72.037 334.892 70.586 334.594 C 68.078 334.087 65.529 333.827 62.97 333.827 C 61.043 333.836 59.122 333.966 57.214 334.218 C 55.442 334.46 53.678 334.743 51.92 335.069 C 50.398 335.353 48.872 335.604 47.342 335.818 C 45.82 336.032 44.285 336.144 42.749 336.158 C 40.47 336.162 38.204 335.841 36.022 335.195 C 34.784 334.822 33.579 334.353 32.416 333.799 C 31.09 333.162 29.815 332.44 28.587 331.631 Z " fill="rgb(74,134,232)"/><path d=" M 54.283 333.496 L 54.702 333.469 L 54.753 334.306 L 54.334 334.334 C 54.158 334.348 53.976 334.353 53.795 334.353 C 52.673 334.353 51.566 334.106 50.557 333.617 C 50.077 333.385 49.621 333.11 49.193 332.789 C 48.765 332.464 48.36 332.11 47.984 331.729 C 47.211 330.933 46.509 330.068 45.89 329.142 C 45.257 328.206 44.648 327.248 44.066 326.28 C 43.559 325.434 43.033 324.596 42.484 323.773 C 41.991 323.028 41.442 322.321 40.837 321.665 C 40.563 321.372 40.27 321.102 39.953 320.851 C 39.665 320.613 39.353 320.409 39.023 320.237 C 38.376 319.897 37.655 319.716 36.924 319.716 C 36.138 319.73 35.361 319.892 34.635 320.199 L 34.249 320.362 L 33.919 319.59 L 34.31 319.427 C 35.133 319.078 36.022 318.892 36.92 318.873 C 37.79 318.878 38.646 319.087 39.414 319.492 C 39.79 319.692 40.149 319.93 40.479 320.195 C 40.823 320.469 41.149 320.772 41.451 321.093 C 42.089 321.786 42.666 322.526 43.187 323.312 C 43.74 324.145 44.276 324.987 44.787 325.848 C 45.364 326.806 45.964 327.751 46.588 328.676 C 47.179 329.556 47.844 330.379 48.584 331.142 C 48.928 331.496 49.305 331.822 49.7 332.115 C 50.082 332.403 50.491 332.654 50.919 332.864 C 51.817 333.292 52.799 333.515 53.795 333.51 C 53.958 333.51 54.12 333.506 54.283 333.496 Z " fill="rgb(74,134,232)"/><path d=" M 123.714 234.652 L 124.03 234.024 L 125.277 234.657 L 124.961 235.281 C 123.886 237.411 123.076 239.668 122.56 241.999 C 122.095 244.139 121.862 246.326 121.871 248.512 C 121.871 249.876 121.95 251.239 122.099 252.588 C 122.248 253.923 122.444 255.249 122.695 256.566 C 122.941 257.864 123.221 259.153 123.532 260.437 C 123.83 261.689 124.146 262.935 124.467 264.182 C 124.733 265.215 124.993 266.248 125.244 267.286 C 125.491 268.281 125.714 269.282 125.914 270.287 C 126.11 271.245 126.263 272.213 126.384 273.185 C 126.501 274.111 126.556 275.041 126.561 275.977 C 126.566 276.595 126.533 277.21 126.468 277.824 L 126.394 278.517 L 124.961 278.517 Q 125.021 277.954 124.531 277.499 Q 124.803 272.457 124.531 271.162 C 124.47 270.111 124.128 268.593 123.886 267.616 C 123.635 266.588 123.379 265.56 123.113 264.531 C 122.788 263.28 122.471 262.024 122.169 260.763 C 121.857 259.46 121.573 258.148 121.322 256.831 C 121.062 255.477 120.857 254.114 120.708 252.742 C 120.555 251.341 120.475 249.931 120.471 248.517 C 120.466 246.223 120.703 243.939 121.192 241.696 C 121.736 239.254 122.583 236.886 123.714 234.652 Z " fill="rgb(74,134,232)"/><path d=" M 128.543 279.578 L 128.864 280.197 L 127.622 280.843 L 127.301 280.224 C 126.822 279.299 126.408 277.88 126.063 276.898 Q 125.64 275.711 125.356 273.729 Q 123.956 267.821 123.956 264.82 C 123.951 263.042 124.086 261.265 124.356 259.506 C 124.635 257.683 125.077 255.891 125.686 254.147 C 126.319 252.342 127.152 250.606 128.162 248.978 C 129.236 247.256 130.52 245.674 131.977 244.265 L 132.479 243.776 L 133.452 244.781 L 132.949 245.27 C 131.572 246.6 130.362 248.094 129.348 249.722 C 128.394 251.257 127.608 252.9 127.008 254.607 C 126.426 256.268 126.003 257.98 125.738 259.721 C 125.482 261.405 125.351 263.112 125.356 264.82 C 125.356 267.714 125.691 270.594 126.361 273.408 C 126.635 274.59 126.975 275.758 127.385 276.898 C 127.706 277.819 128.092 278.712 128.543 279.578 Z " fill="rgb(74,134,232)"/><path d="M 185.201 400.847 L 208.879 445.572 C 210.986 449.551 209.465 454.492 205.486 456.598 L 198.783 460.147 C 194.803 462.254 189.863 460.734 187.756 456.755 L 164.078 412.029 C 161.971 408.05 163.492 403.109 167.471 401.003 L 174.174 397.454 C 178.154 395.347 183.094 396.867 185.201 400.847 Z" style="stroke:none;fill:#F08C00;stroke-miterlimit:10;opacity:0.6;"/><path d="M 225.506 468.002 L 259.694 505.314 C 262.735 508.634 262.51 513.798 259.19 516.84 L 253.597 521.964 C 250.278 525.006 245.113 524.78 242.072 521.461 L 207.884 484.148 C 204.842 480.829 205.068 475.664 208.387 472.623 L 213.98 467.498 C 217.3 464.457 222.464 464.682 225.506 468.002 Z" style="stroke:none;fill:#F08C00;stroke-miterlimit:10;opacity:0.6;"/><path d="M 280.683 525.544 L 322.367 554.239 C 326.075 556.792 327.013 561.876 324.46 565.585 L 320.159 571.833 C 317.606 575.541 312.522 576.479 308.814 573.926 L 267.13 545.23 C 263.421 542.677 262.483 537.594 265.036 533.885 L 269.337 527.637 C 271.891 523.929 276.974 522.991 280.683 525.544 Z" style="stroke:none;fill:#F08C00;stroke-miterlimit:10;opacity:0.6;"/><path d="M 345.451 568.543 L 392.211 587.896 C 396.371 589.618 398.351 594.393 396.629 598.553 L 393.728 605.562 C 392.006 609.722 387.231 611.702 383.071 609.98 L 336.311 590.627 C 332.151 588.905 330.171 584.13 331.893 579.97 L 334.794 572.961 C 336.516 568.801 341.291 566.821 345.451 568.543 Z" style="stroke:none;fill:#F08C00;stroke-miterlimit:10;opacity:0.6;"/><path d="M 420.354 596.871 L 469.854 607.392 C 474.258 608.329 477.074 612.664 476.138 617.068 L 474.561 624.487 C 473.625 628.891 469.289 631.707 464.885 630.771 L 415.385 620.249 C 410.981 619.313 408.165 614.978 409.101 610.574 L 410.678 603.154 C 411.615 598.75 415.95 595.935 420.354 596.871 Z" style="stroke:none;fill:#F08C00;stroke-miterlimit:10;opacity:0.6;"/><path d=" M 494.04 626.153 L 492.668 625.874 L 493.226 623.129 L 494.599 623.408 C 497.311 623.962 499.982 624.711 502.583 625.655 C 504.848 626.479 507.04 627.502 509.124 628.707 C 510.981 629.787 512.725 631.048 514.335 632.476 C 515.805 633.783 517.141 635.249 518.308 636.835 C 519.416 638.343 520.369 639.957 521.16 641.655 C 521.923 643.312 522.547 645.033 523.012 646.797 C 523.473 648.551 523.808 650.333 524.012 652.133 C 524.217 653.929 524.319 655.734 524.315 657.544 C 524.306 659.847 524.171 662.145 523.91 664.43 C 523.654 666.654 523.315 668.864 522.886 671.055 C 522.486 673.116 522.04 675.168 521.542 677.206 C 521.095 679.025 520.635 680.84 520.155 682.649 C 519.96 683.394 519.765 684.138 519.574 684.887 L 519.225 686.241 L 516.517 685.543 L 516.866 684.189 C 517.057 683.436 517.252 682.687 517.448 681.938 C 517.922 680.142 518.383 678.346 518.825 676.541 C 519.309 674.545 519.751 672.539 520.141 670.525 C 520.551 668.399 520.881 666.263 521.128 664.114 C 521.379 661.927 521.509 659.735 521.514 657.535 C 521.519 655.837 521.426 654.138 521.235 652.449 C 521.044 650.784 520.732 649.132 520.304 647.513 C 519.881 645.908 519.318 644.34 518.62 642.833 C 517.913 641.307 517.052 639.85 516.056 638.492 C 515 637.063 513.8 635.747 512.474 634.565 C 511.008 633.267 509.417 632.113 507.719 631.131 C 505.779 630.005 503.736 629.052 501.629 628.289 C 499.154 627.386 496.618 626.674 494.04 626.153 Z " fill="rgb(74,134,232)"/><path d=" M 559.614 600.801 L 560.414 599.652 L 562.708 601.252 L 561.912 602.402 C 560.34 604.658 558.581 606.77 556.646 608.725 C 554.808 610.576 552.821 612.274 550.704 613.8 C 548.657 615.275 546.498 616.592 544.246 617.746 C 542.041 618.872 539.761 619.854 537.426 620.682 C 535.123 621.496 532.773 622.184 530.391 622.738 C 528.046 623.287 525.673 623.724 523.287 624.05 C 520.946 624.371 518.601 624.604 516.247 624.748 C 513.972 624.883 511.692 624.953 509.413 624.948 C 507.1 624.948 504.788 624.888 502.476 624.767 C 500.349 624.655 498.228 624.501 496.106 624.315 L 494.71 624.19 L 494.962 621.403 L 496.357 621.524 C 498.442 621.715 500.531 621.859 502.62 621.97 C 504.886 622.087 507.151 622.147 509.417 622.152 C 511.637 622.152 513.86 622.087 516.075 621.952 C 518.359 621.817 520.639 621.589 522.905 621.277 C 525.208 620.965 527.493 620.542 529.758 620.012 C 532.038 619.481 534.285 618.825 536.491 618.044 C 538.71 617.257 540.878 616.322 542.976 615.252 C 545.098 614.168 547.136 612.921 549.071 611.53 C 551.062 610.097 552.933 608.497 554.659 606.756 C 556.478 604.919 558.134 602.923 559.614 600.801 Z " fill="rgb(74,134,232)"/><path d=" M 530.503 622.733 L 529.823 622.901 L 529.488 621.542 L 530.168 621.375 C 531.326 621.086 532.471 620.724 533.583 620.291 C 534.602 619.891 535.588 619.421 536.537 618.876 C 537.412 618.369 538.245 617.792 539.026 617.15 C 539.761 616.546 540.441 615.871 541.059 615.14 C 542.255 613.712 543.176 612.074 543.772 610.311 C 544.084 609.399 544.312 608.459 544.46 607.51 C 544.614 606.501 544.693 605.482 544.688 604.463 C 544.684 602.923 544.535 601.387 544.242 599.88 C 543.921 598.191 543.469 596.525 542.893 594.906 L 542.66 594.246 L 543.977 593.776 L 544.214 594.436 C 544.814 596.125 545.284 597.856 545.619 599.615 C 545.921 601.211 546.08 602.834 546.089 604.458 C 546.089 605.551 546.01 606.64 545.842 607.724 C 545.679 608.752 545.433 609.771 545.098 610.758 C 544.446 612.689 543.437 614.48 542.13 616.043 C 541.46 616.839 540.72 617.569 539.915 618.23 C 539.073 618.923 538.179 619.546 537.235 620.086 C 536.225 620.668 535.174 621.17 534.094 621.594 C 532.922 622.05 531.722 622.431 530.503 622.733 Z " fill="rgb(74,134,232)"/><path d=" M 541.874 618.276 L 541.213 618.509 L 540.748 617.188 L 541.408 616.955 C 542.958 616.411 544.526 615.908 546.107 615.461 C 547.494 615.066 548.899 614.726 550.313 614.438 C 551.546 614.182 552.798 613.987 554.049 613.847 C 555.147 613.721 556.25 613.656 557.353 613.656 C 558.181 613.652 559.009 613.698 559.833 613.787 C 560.572 613.866 561.307 613.991 562.029 614.159 C 563.299 614.452 564.518 614.931 565.644 615.578 C 566.63 616.155 567.519 616.885 568.277 617.746 C 568.98 618.551 569.561 619.458 570.003 620.435 L 570.292 621.072 L 569.017 621.649 L 568.728 621.012 C 568.342 620.161 567.835 619.37 567.221 618.667 C 566.57 617.923 565.797 617.29 564.941 616.792 C 563.936 616.21 562.847 615.782 561.712 615.522 C 561.042 615.364 560.368 615.247 559.684 615.178 C 558.911 615.094 558.134 615.052 557.357 615.057 C 556.301 615.057 555.25 615.117 554.208 615.233 C 552.993 615.373 551.788 615.564 550.593 615.806 C 549.211 616.09 547.843 616.425 546.489 616.806 C 544.935 617.248 543.395 617.737 541.874 618.276 Z " fill="rgb(74,134,232)"/><path d=" M 522.347 663.016 L 522.598 662.359 L 523.905 662.867 L 523.649 663.518 C 523.063 665.039 522.505 666.57 521.97 668.11 C 521.607 669.171 521.221 670.227 520.821 671.274 C 520.472 672.181 520.062 673.07 519.597 673.921 C 519.16 674.721 518.629 675.466 518.011 676.136 C 517.364 676.824 516.619 677.42 515.805 677.908 C 514.847 678.471 513.833 678.927 512.776 679.272 C 511.441 679.714 510.083 680.067 508.701 680.328 C 506.914 680.672 505.109 680.956 503.299 681.17 C 500.968 681.454 498.628 681.696 496.288 681.886 L 495.59 681.947 L 495.473 680.551 L 496.171 680.495 C 498.498 680.3 500.819 680.063 503.132 679.779 C 504.909 679.569 506.682 679.295 508.44 678.951 C 509.762 678.704 511.064 678.364 512.339 677.946 C 513.297 677.629 514.219 677.215 515.089 676.703 C 515.791 676.285 516.429 675.773 516.987 675.182 C 517.527 674.596 517.987 673.949 518.369 673.251 C 518.806 672.451 519.188 671.623 519.513 670.771 C 519.909 669.738 520.286 668.701 520.649 667.654 C 521.184 666.1 521.751 664.551 522.347 663.016 Z " fill="rgb(74,134,232)"/><path d=" M 536.765 690.405 L 537.351 690.787 L 536.588 691.959 L 536.002 691.578 C 535.807 691.452 535.602 691.34 535.388 691.252 C 535.076 691.122 534.764 690.996 534.448 690.875 C 533.89 690.661 533.336 690.433 532.792 690.191 C 532.122 689.893 531.475 689.549 530.856 689.163 C 529.27 688.167 527.893 686.879 526.79 685.366 C 526.078 684.394 525.464 683.357 524.957 682.268 C 524.333 680.942 523.826 679.565 523.435 678.15 C 522.952 676.415 522.593 674.647 522.351 672.856 C 522.054 670.65 521.877 668.431 521.821 666.207 L 521.802 665.505 L 523.203 665.472 L 523.221 666.17 C 523.273 668.347 523.445 670.515 523.738 672.67 C 523.97 674.396 524.319 676.103 524.785 677.778 C 525.152 679.113 525.636 680.416 526.222 681.672 C 526.697 682.682 527.265 683.645 527.921 684.543 C 528.916 685.911 530.163 687.074 531.596 687.977 C 532.164 688.325 532.75 688.642 533.359 688.912 C 533.88 689.144 534.411 689.363 534.946 689.568 C 535.276 689.693 535.607 689.824 535.932 689.963 C 536.221 690.084 536.5 690.233 536.765 690.405 Z " fill="rgb(74,134,232)"/></g><path d=" M 297.606 338.684 L 297.606 338.684 L 298.693 338.684 L 298.693 338.684 Q 298.788 339.695 299.713 340.477 L 299.713 340.477 L 299.713 340.477 Q 300.639 341.259 302.088 341.259 L 302.088 341.259 L 302.088 341.259 Q 303.538 341.259 304.529 340.601 L 304.529 340.601 L 304.529 340.601 Q 305.521 339.943 305.521 338.512 L 305.521 338.512 L 305.521 338.512 Q 305.521 337.635 304.958 337.015 L 304.958 337.015 L 304.958 337.015 Q 304.396 336.395 303.557 336.071 L 303.557 336.071 L 303.557 336.071 Q 302.717 335.747 301.735 335.375 L 301.735 335.375 L 301.735 335.375 Q 300.753 335.003 299.914 334.64 L 299.914 334.64 L 299.914 334.64 Q 299.075 334.278 298.512 333.553 L 298.512 333.553 L 298.512 333.553 Q 297.949 332.829 297.949 331.818 L 297.949 331.818 L 297.949 331.818 Q 297.949 330.483 299.055 329.51 L 299.055 329.51 L 299.055 329.51 Q 300.162 328.537 302.241 328.537 L 302.241 328.537 L 302.241 328.537 Q 303.824 328.537 305.025 329.109 L 305.025 329.109 L 305.025 329.109 Q 305.025 329.148 304.701 330.12 L 304.701 330.12 L 304.701 330.12 Q 303.614 329.567 302.212 329.567 L 302.212 329.567 L 302.212 329.567 Q 300.81 329.567 299.933 330.177 L 299.933 330.177 L 299.933 330.177 Q 299.055 330.788 299.055 331.875 L 299.055 331.875 L 299.055 331.875 Q 299.055 333.096 300.562 333.782 L 300.562 333.782 L 300.562 333.782 Q 301.23 334.087 302.04 334.354 L 302.04 334.354 L 302.04 334.354 Q 302.851 334.621 303.671 334.946 L 303.671 334.946 L 303.671 334.946 Q 304.491 335.27 305.159 335.68 L 305.159 335.68 L 305.159 335.68 Q 305.826 336.09 306.246 336.796 L 306.246 336.796 L 306.246 336.796 Q 306.665 337.501 306.665 338.417 L 306.665 338.417 L 306.665 338.417 Q 306.665 340.172 305.55 341.23 L 305.55 341.23 L 305.55 341.23 Q 304.434 342.289 302.231 342.289 L 302.231 342.289 L 302.231 342.289 Q 300.028 342.289 298.836 341.192 L 298.836 341.192 L 298.836 341.192 Q 297.644 340.095 297.606 338.684 Z  M 316.202 336.052 L 316.202 336.052 L 316.202 338.569 L 316.202 338.569 Q 316.202 340.172 315.324 341.221 L 315.324 341.221 L 315.324 341.221 Q 314.447 342.27 312.673 342.27 L 312.673 342.27 L 312.673 342.27 Q 310.9 342.27 309.994 341.211 L 309.994 341.211 L 309.994 341.211 Q 309.088 340.152 309.088 338.569 L 309.088 338.569 L 309.088 336.052 L 309.088 336.052 Q 309.088 334.24 310.013 333.277 L 310.013 333.277 L 310.013 333.277 Q 310.938 332.314 312.635 332.314 L 312.635 332.314 L 312.635 332.314 Q 314.333 332.314 315.267 333.315 L 315.267 333.315 L 315.267 333.315 Q 316.202 334.316 316.202 336.052 Z  M 315.134 338.76 L 315.134 338.76 L 315.134 336.052 L 315.134 336.052 Q 315.134 333.286 312.673 333.286 L 312.673 333.286 L 312.673 333.286 Q 310.156 333.286 310.156 336.052 L 310.156 336.052 L 310.156 338.76 L 310.156 338.76 Q 310.156 339.905 310.833 340.61 L 310.833 340.61 L 310.833 340.61 Q 311.51 341.316 312.683 341.316 L 312.683 341.316 L 312.683 341.316 Q 313.856 341.316 314.495 340.62 L 314.495 340.62 L 314.495 340.62 Q 315.134 339.924 315.134 338.76 Z  M 324.174 333.286 L 324.174 333.286 L 324.174 333.286 Q 325.795 332.371 327.245 332.371 L 327.245 332.371 L 327.245 332.371 Q 328.618 332.371 329.419 333.248 L 329.419 333.248 L 329.419 333.248 Q 330.22 334.126 330.22 335.48 L 330.22 335.48 L 330.22 342.079 L 329.171 342.079 L 329.171 335.537 L 329.171 335.537 Q 329.171 334.679 328.809 334.145 L 328.809 334.145 L 328.809 334.145 Q 328.446 333.611 327.932 333.477 L 327.932 333.477 L 327.932 333.477 Q 327.417 333.344 327.102 333.344 L 327.102 333.344 L 327.102 333.344 Q 326.787 333.344 326.396 333.372 L 326.396 333.372 L 326.396 333.372 Q 326.005 333.401 325.357 333.649 L 325.357 333.649 L 324.651 333.992 L 324.651 333.992 Q 324.975 334.64 324.975 335.48 L 324.975 335.48 L 324.975 342.079 L 323.926 342.079 L 323.926 335.537 L 323.926 335.537 Q 323.926 334.545 323.449 333.992 L 323.449 333.992 L 323.449 333.992 Q 322.877 333.344 321.704 333.344 L 321.704 333.344 L 321.704 333.344 Q 320.531 333.344 319.387 333.973 L 319.387 333.973 L 319.387 342.079 L 318.319 342.079 L 318.319 332.523 L 319.387 332.523 L 319.292 333.134 L 319.292 333.134 Q 320.608 332.39 321.952 332.39 L 321.952 332.39 L 321.952 332.39 Q 323.297 332.39 324.174 333.286 Z  M 335.732 342.27 L 335.732 342.27 L 335.732 342.27 Q 331.555 342.27 331.555 338.856 L 331.555 338.856 L 331.555 337.273 L 331.555 337.273 Q 331.555 335.384 332.871 334.736 L 332.871 334.736 L 332.871 334.736 Q 333.558 334.412 334.226 334.412 L 334.226 334.412 L 334.226 334.412 Q 336.476 334.412 337.83 335.48 L 337.83 335.48 L 337.83 335.48 Q 337.83 334.431 337.22 333.811 L 337.22 333.811 L 337.22 333.811 Q 336.61 333.191 334.874 333.191 L 334.874 333.191 L 334.931 332.371 L 334.931 332.371 Q 336.476 332.371 337.22 332.733 L 337.22 332.733 L 337.22 332.733 Q 337.62 332.943 337.926 333.153 L 337.926 333.153 L 337.926 333.153 Q 338.231 333.363 338.402 333.706 L 338.402 333.706 L 338.402 333.706 Q 338.574 334.049 338.689 334.307 L 338.689 334.307 L 338.689 334.307 Q 338.803 334.564 338.841 335.003 L 338.841 335.003 L 338.841 335.003 Q 338.898 335.67 338.898 336.395 L 338.898 336.395 L 338.898 342.079 L 338.898 342.079 Q 336.915 342.27 335.732 342.27 Z  M 337.83 341.201 L 337.83 341.201 L 337.83 336.3 L 337.83 336.3 Q 336.247 335.537 334.588 335.403 L 334.588 335.403 L 334.588 335.403 Q 334.473 335.384 334.359 335.384 L 334.359 335.384 L 334.359 335.384 Q 333.634 335.384 333.119 335.833 L 333.119 335.833 L 333.119 335.833 Q 332.604 336.281 332.604 337.33 L 332.604 337.33 L 332.604 338.989 L 332.604 338.989 Q 332.604 340.572 333.978 341.049 L 333.978 341.049 L 333.978 341.049 Q 334.779 341.335 335.789 341.335 L 335.789 341.335 L 335.789 341.335 Q 336.8 341.335 337.83 341.201 Z " fill="rgb(0,0,0)"/><path d=" M 286.689 377.482 L 286.689 377.715 L 286.224 377.715 L 286.224 377.482 L 286.224 298.011 L 286.224 297.779 L 286.689 297.779 L 286.689 298.011 L 286.689 377.482 Z " fill="rgb(0,0,0)"/><path d=" M 302.349 296.722 L 302.582 296.722 L 302.582 297.188 L 302.349 297.188 L 270.563 297.188 L 270.33 297.188 L 270.33 296.722 L 270.563 296.722 L 302.349 296.722 Z " fill="rgb(0,0,0)"/><path d=" M 302.349 378.575 L 302.582 378.575 L 302.582 379.041 L 302.349 379.041 L 270.563 379.041 L 270.33 379.041 L 270.33 378.575 L 270.563 378.575 L 302.349 378.575 Z " fill="rgb(0,0,0)"/><path d=" M 263.787 222.875 L 263.787 222.875 L 259.82 222.875 L 259.82 209.505 L 263.405 209.505 L 263.405 209.505 Q 265.561 209.505 266.695 210.687 L 266.695 210.687 L 266.695 210.687 Q 267.83 211.87 267.83 213.834 L 267.83 213.834 L 267.83 219.06 L 267.83 219.06 Q 267.83 222.875 263.787 222.875 Z  M 266.762 219.251 L 266.762 219.251 L 266.762 213.643 L 266.762 213.643 Q 266.762 212.041 265.809 211.259 L 265.809 211.259 L 265.809 211.259 Q 264.855 210.477 263.596 210.477 L 263.596 210.477 L 260.888 210.477 L 260.888 221.921 L 263.482 221.921 L 263.482 221.921 Q 266.762 221.921 266.762 219.251 Z  M 273.171 222.169 L 273.171 222.169 L 273.171 222.169 Q 274.487 222.169 275.955 221.387 L 275.955 221.387 L 276.375 222.207 L 276.375 222.207 Q 274.906 223.103 273.304 223.103 L 273.304 223.103 L 273.304 223.103 Q 269.986 223.103 269.986 220.319 L 269.986 220.319 L 269.986 216.409 L 269.986 216.409 Q 269.986 214.864 270.949 214.006 L 270.949 214.006 L 270.949 214.006 Q 271.912 213.147 273.495 213.147 L 273.495 213.147 L 273.495 213.147 Q 275.078 213.147 275.965 213.996 L 275.965 213.996 L 275.965 213.996 Q 276.852 214.845 276.852 216.352 L 276.852 216.352 L 276.852 218.831 L 271.054 219.155 L 271.054 220.319 L 271.054 220.319 Q 271.054 221.349 271.797 221.806 L 271.797 221.806 L 271.797 221.806 Q 272.37 222.169 273.171 222.169 Z  M 271.054 218.106 L 275.784 217.877 L 275.784 216.218 L 275.784 216.218 Q 275.784 215.398 275.345 214.874 L 275.345 214.874 L 275.345 214.874 Q 274.906 214.349 274.429 214.206 L 274.429 214.206 L 274.429 214.206 Q 273.953 214.063 273.476 214.063 L 273.476 214.063 L 273.476 214.063 Q 272.427 214.063 271.74 214.635 L 271.74 214.635 L 271.74 214.635 Q 271.054 215.207 271.054 216.428 L 271.054 216.428 L 271.054 218.106 L 271.054 218.106 Z  M 279.884 213.319 L 279.808 213.968 L 279.808 213.968 Q 280.781 213.147 282.535 213.147 L 282.535 213.147 L 282.535 213.147 Q 283.527 213.147 284.233 213.51 L 284.233 213.51 L 284.233 213.51 Q 285.854 214.254 285.854 216.275 L 285.854 216.275 L 285.854 222.875 L 284.805 222.875 L 284.805 216.333 L 284.805 216.333 Q 284.805 215.341 284.271 214.788 L 284.271 214.788 L 284.271 214.788 Q 283.622 214.12 282.335 214.12 L 282.335 214.12 L 282.335 214.12 Q 281.048 214.12 279.884 214.769 L 279.884 214.769 L 279.884 222.875 L 278.816 222.875 L 278.816 213.319 L 279.884 213.319 L 279.884 213.319 Z  M 292.072 213.167 L 292.072 213.167 L 292.072 213.167 Q 293.655 213.167 294.589 213.834 L 294.589 213.834 L 294.589 209.524 L 295.657 209.524 L 295.657 222.875 L 295.657 222.875 Q 294.017 223.103 292.625 223.103 L 292.625 223.103 L 292.625 223.103 Q 291.232 223.103 290.107 222.531 L 290.107 222.531 L 290.107 222.531 Q 288.62 221.768 288.62 219.88 L 288.62 219.88 L 288.62 216.275 L 288.62 216.275 Q 288.62 214.273 290.241 213.529 L 290.241 213.529 L 290.241 213.529 Q 291.023 213.167 292.072 213.167 Z  M 294.589 221.959 L 294.589 214.769 L 294.589 214.769 Q 293.426 214.12 292.053 214.12 L 292.053 214.12 L 292.053 214.12 Q 290.851 214.12 290.26 214.73 L 290.26 214.73 L 290.26 214.73 Q 289.669 215.341 289.669 216.333 L 289.669 216.333 L 289.669 219.899 L 289.669 219.899 Q 289.669 222.131 292.663 222.131 L 292.663 222.131 L 292.663 222.131 Q 293.521 222.131 294.589 221.959 L 294.589 221.959 L 294.589 221.959 Z  M 302.218 213.319 L 301.932 214.292 L 301.932 214.292 Q 301.208 214.101 300.464 214.101 L 300.464 214.101 L 300.464 214.101 Q 299.72 214.101 299.119 214.435 L 299.119 214.435 L 299.119 214.435 Q 298.518 214.769 298.518 215.398 L 298.518 215.398 L 298.518 222.875 L 297.45 222.875 L 297.45 213.319 L 298.518 213.319 L 298.461 213.987 L 298.461 213.987 Q 299.357 213.167 300.826 213.167 L 300.826 213.167 L 300.826 213.167 Q 301.475 213.167 302.218 213.319 L 302.218 213.319 L 302.218 213.319 Z  M 304.908 209.972 L 304.908 209.972 L 304.908 209.972 Q 304.908 210.229 304.717 210.42 L 304.717 210.42 L 304.717 210.42 Q 304.526 210.611 304.269 210.611 L 304.269 210.611 L 304.269 210.611 Q 304.011 210.611 303.82 210.411 L 303.82 210.411 L 303.82 210.411 Q 303.63 210.21 303.63 209.962 L 303.63 209.962 L 303.63 209.962 Q 303.63 209.714 303.82 209.524 L 303.82 209.524 L 303.82 209.524 Q 304.011 209.333 304.278 209.333 L 304.278 209.333 L 304.278 209.333 Q 304.545 209.333 304.726 209.524 L 304.726 209.524 L 304.726 209.524 Q 304.908 209.714 304.908 209.972 Z  M 304.793 213.319 L 304.793 222.875 L 303.725 222.875 L 303.725 213.319 L 304.793 213.319 L 304.793 213.319 Z  M 309.599 222.302 L 309.599 222.302 L 309.294 223.122 L 309.294 223.122 Q 308.226 222.817 307.749 222.15 L 307.749 222.15 L 307.749 222.15 Q 307.273 221.482 307.273 220.357 L 307.273 220.357 L 307.273 209.524 L 308.341 209.524 L 308.341 213.319 L 310.629 213.319 L 310.172 214.33 L 308.341 214.33 L 308.341 220.357 L 308.341 220.357 Q 308.341 221.883 309.599 222.302 Z  M 314.921 222.169 L 314.921 222.169 L 314.921 222.169 Q 316.237 222.169 317.705 221.387 L 317.705 221.387 L 318.125 222.207 L 318.125 222.207 Q 316.656 223.103 315.054 223.103 L 315.054 223.103 L 315.054 223.103 Q 311.736 223.103 311.736 220.319 L 311.736 220.319 L 311.736 216.409 L 311.736 216.409 Q 311.736 214.864 312.699 214.006 L 312.699 214.006 L 312.699 214.006 Q 313.662 213.147 315.245 213.147 L 315.245 213.147 L 315.245 213.147 Q 316.828 213.147 317.715 213.996 L 317.715 213.996 L 317.715 213.996 Q 318.602 214.845 318.602 216.352 L 318.602 216.352 L 318.602 218.831 L 312.804 219.155 L 312.804 220.319 L 312.804 220.319 Q 312.804 221.349 313.548 221.806 L 313.548 221.806 L 313.548 221.806 Q 314.12 222.169 314.921 222.169 Z  M 312.804 218.106 L 317.534 217.877 L 317.534 216.218 L 317.534 216.218 Q 317.534 215.398 317.095 214.874 L 317.095 214.874 L 317.095 214.874 Q 316.656 214.349 316.18 214.206 L 316.18 214.206 L 316.18 214.206 Q 315.703 214.063 315.226 214.063 L 315.226 214.063 L 315.226 214.063 Q 314.177 214.063 313.49 214.635 L 313.49 214.635 L 313.49 214.635 Q 312.804 215.207 312.804 216.428 L 312.804 216.428 L 312.804 218.106 L 312.804 218.106 Z " fill="rgb(0,0,0)"/><path d=" M 216.677 252.621 L 216.505 252.779 L 216.193 252.435 L 216.365 252.276 L 252.176 219.55 L 252.344 219.392 L 252.66 219.736 L 252.488 219.894 L 216.677 252.621 Z " fill="rgb(0,0,0)"/><path d=" M 40.945 273.099 L 40.945 286.45 L 39.877 286.45 L 32.629 275.064 L 32.629 286.45 L 31.561 286.45 L 31.561 273.099 L 32.629 273.099 L 39.877 284.486 L 39.877 273.099 L 40.945 273.099 L 40.945 273.099 Z  M 50.271 276.895 L 50.271 286.45 L 49.222 286.45 L 49.299 285.477 L 49.299 285.477 Q 48.841 286.05 48.145 286.355 L 48.145 286.355 L 48.145 286.355 Q 47.449 286.66 46.743 286.66 L 46.743 286.66 L 46.743 286.66 Q 43.157 286.66 43.157 283.17 L 43.157 283.17 L 43.157 276.895 L 44.225 276.895 L 44.225 283.303 L 44.225 283.303 Q 44.225 284.524 44.902 285.115 L 44.902 285.115 L 44.902 285.115 Q 45.579 285.706 46.743 285.706 L 46.743 285.706 L 46.743 285.706 Q 49.203 285.706 49.203 283.303 L 49.203 283.303 L 49.203 276.895 L 50.271 276.895 L 50.271 276.895 Z  M 55.688 285.725 L 55.688 285.725 L 55.688 285.725 Q 56.546 285.725 57.595 285.477 L 57.595 285.477 L 57.824 286.336 L 57.824 286.336 Q 56.603 286.66 55.612 286.66 L 55.612 286.66 L 55.612 286.66 Q 54.62 286.66 53.666 286.355 L 53.666 286.355 L 53.666 286.355 Q 51.683 285.706 51.683 283.017 L 51.683 283.017 L 51.683 280.576 L 51.683 280.576 Q 51.683 279.222 52.217 278.306 L 52.217 278.306 L 52.217 278.306 Q 53.132 276.723 55.23 276.723 L 55.23 276.723 L 55.23 276.723 Q 56.489 276.723 57.786 277.333 L 57.786 277.333 L 57.481 278.115 L 57.481 278.115 Q 56.394 277.696 55.602 277.696 L 55.602 277.696 L 55.602 277.696 Q 54.811 277.696 54.2 277.887 L 54.2 277.887 L 54.2 277.887 Q 53.59 278.077 53.17 278.745 L 53.17 278.745 L 53.17 278.745 Q 52.751 279.412 52.751 280.461 L 52.751 280.461 L 52.751 283.227 L 52.751 283.227 Q 52.751 285.725 55.688 285.725 Z  M 60.132 273.099 L 60.132 286.45 L 59.064 286.45 L 59.064 273.099 L 60.132 273.099 L 60.132 273.099 Z  M 65.51 285.744 L 65.51 285.744 L 65.51 285.744 Q 66.826 285.744 68.295 284.962 L 68.295 284.962 L 68.715 285.783 L 68.715 285.783 Q 67.246 286.679 65.644 286.679 L 65.644 286.679 L 65.644 286.679 Q 62.325 286.679 62.325 283.894 L 62.325 283.894 L 62.325 279.985 L 62.325 279.985 Q 62.325 278.44 63.288 277.581 L 63.288 277.581 L 63.288 277.581 Q 64.252 276.723 65.835 276.723 L 65.835 276.723 L 65.835 276.723 Q 67.418 276.723 68.305 277.572 L 68.305 277.572 L 68.305 277.572 Q 69.191 278.421 69.191 279.927 L 69.191 279.927 L 69.191 282.407 L 63.393 282.731 L 63.393 283.894 L 63.393 283.894 Q 63.393 284.924 64.137 285.382 L 64.137 285.382 L 64.137 285.382 Q 64.709 285.744 65.51 285.744 Z  M 63.393 281.682 L 68.123 281.453 L 68.123 279.794 L 68.123 279.794 Q 68.123 278.974 67.685 278.449 L 67.685 278.449 L 67.685 278.449 Q 67.246 277.925 66.769 277.782 L 66.769 277.782 L 66.769 277.782 Q 66.292 277.639 65.816 277.639 L 65.816 277.639 L 65.816 277.639 Q 64.767 277.639 64.08 278.211 L 64.08 278.211 L 64.08 278.211 Q 63.393 278.783 63.393 280.004 L 63.393 280.004 L 63.393 281.682 L 63.393 281.682 Z  M 77.736 276.895 L 77.736 286.45 L 76.687 286.45 L 76.763 285.477 L 76.763 285.477 Q 76.306 286.05 75.609 286.355 L 75.609 286.355 L 75.609 286.355 Q 74.913 286.66 74.208 286.66 L 74.208 286.66 L 74.208 286.66 Q 70.622 286.66 70.622 283.17 L 70.622 283.17 L 70.622 276.895 L 71.69 276.895 L 71.69 283.303 L 71.69 283.303 Q 71.69 284.524 72.367 285.115 L 72.367 285.115 L 72.367 285.115 Q 73.044 285.706 74.208 285.706 L 74.208 285.706 L 74.208 285.706 Q 76.668 285.706 76.668 283.303 L 76.668 283.303 L 76.668 276.895 L 77.736 276.895 L 77.736 276.895 Z  M 79.147 284.028 L 79.147 284.028 L 80.158 284.028 L 80.158 284.028 Q 80.273 284.886 81.016 285.315 L 81.016 285.315 L 81.016 285.315 Q 81.76 285.744 82.647 285.744 L 82.647 285.744 L 82.647 285.744 Q 83.534 285.744 84.24 285.353 L 84.24 285.353 L 84.24 285.353 Q 84.945 284.962 84.945 284.171 L 84.945 284.171 L 84.945 284.171 Q 84.945 283.379 84.402 282.941 L 84.402 282.941 L 84.402 282.941 Q 83.858 282.502 83.076 282.254 L 83.076 282.254 L 83.076 282.254 Q 82.294 282.006 81.493 281.73 L 81.493 281.73 L 81.493 281.73 Q 80.692 281.453 80.082 280.9 L 80.082 280.9 L 80.082 280.9 Q 79.357 280.252 79.357 279.288 L 79.357 279.288 L 79.357 279.288 Q 79.357 278.325 80.13 277.496 L 80.13 277.496 L 80.13 277.496 Q 80.902 276.666 82.638 276.666 L 82.638 276.666 L 82.638 276.666 Q 83.248 276.666 83.782 276.809 L 83.782 276.809 L 83.782 276.809 Q 84.316 276.952 84.545 277.085 L 84.545 277.085 L 84.774 277.219 L 84.411 278.096 L 84.411 278.096 Q 83.725 277.6 82.695 277.6 L 82.695 277.6 L 82.695 277.6 Q 81.665 277.6 81.045 278.039 L 81.045 278.039 L 81.045 278.039 Q 80.425 278.478 80.425 279.222 L 80.425 279.222 L 80.425 279.222 Q 80.425 279.946 81.055 280.356 L 81.055 280.356 L 81.055 280.356 Q 81.684 280.766 82.495 281.005 L 82.495 281.005 L 82.495 281.005 Q 83.305 281.243 84.106 281.548 L 84.106 281.548 L 84.106 281.548 Q 84.907 281.854 85.46 282.483 L 85.46 282.483 L 85.46 282.483 Q 86.014 283.112 86.014 284.161 L 86.014 284.161 L 86.014 284.161 Q 86.014 285.21 85.165 285.973 L 85.165 285.973 L 85.165 285.973 Q 84.316 286.736 82.685 286.736 L 82.685 286.736 L 82.685 286.736 Q 81.055 286.736 80.12 285.954 L 80.12 285.954 L 80.12 285.954 Q 79.186 285.172 79.147 284.028 Z " fill="rgb(0,0,0)"/><path d=" M 90.001 283.607 L 89.838 283.444 L 90.164 283.114 L 90.331 283.277 L 145.162 338.112 L 145.33 338.275 L 144.999 338.605 L 144.836 338.442 L 90.001 283.607 Z " fill="rgb(0,0,0)"/><path d=" M 271.718 403.429 L 271.718 416.78 L 270.65 416.78 L 270.65 409.952 L 264.585 409.952 L 264.585 416.78 L 263.517 416.78 L 263.517 403.429 L 264.585 403.429 L 264.585 408.903 L 270.65 408.903 L 270.65 403.429 L 271.718 403.429 L 271.718 403.429 Z  M 276.009 403.878 L 276.009 403.878 L 276.009 403.878 Q 276.009 404.135 275.819 404.326 L 275.819 404.326 L 275.819 404.326 Q 275.628 404.516 275.37 404.516 L 275.37 404.516 L 275.37 404.516 Q 275.113 404.516 274.922 404.316 L 274.922 404.316 L 274.922 404.316 Q 274.731 404.116 274.731 403.868 L 274.731 403.868 L 274.731 403.868 Q 274.731 403.62 274.922 403.429 L 274.922 403.429 L 274.922 403.429 Q 275.113 403.239 275.38 403.239 L 275.38 403.239 L 275.38 403.239 Q 275.647 403.239 275.828 403.429 L 275.828 403.429 L 275.828 403.429 Q 276.009 403.62 276.009 403.878 Z  M 275.895 407.225 L 275.895 416.78 L 274.827 416.78 L 274.827 407.225 L 275.895 407.225 L 275.895 407.225 Z  M 280.091 403.429 L 280.091 416.78 L 279.023 416.78 L 279.023 403.429 L 280.091 403.429 L 280.091 403.429 Z  M 284.172 403.429 L 284.172 416.78 L 283.104 416.78 L 283.104 403.429 L 284.172 403.429 L 284.172 403.429 Z  M 294.3 410.753 L 294.3 410.753 L 294.3 413.271 L 294.3 413.271 Q 294.3 414.873 293.423 415.922 L 293.423 415.922 L 293.423 415.922 Q 292.545 416.971 290.772 416.971 L 290.772 416.971 L 290.772 416.971 Q 288.998 416.971 288.092 415.912 L 288.092 415.912 L 288.092 415.912 Q 287.186 414.854 287.186 413.271 L 287.186 413.271 L 287.186 410.753 L 287.186 410.753 Q 287.186 408.941 288.111 407.978 L 288.111 407.978 L 288.111 407.978 Q 289.036 407.015 290.733 407.015 L 290.733 407.015 L 290.733 407.015 Q 292.431 407.015 293.365 408.016 L 293.365 408.016 L 293.365 408.016 Q 294.3 409.018 294.3 410.753 Z  M 293.232 413.462 L 293.232 413.462 L 293.232 410.753 L 293.232 410.753 Q 293.232 407.988 290.772 407.988 L 290.772 407.988 L 290.772 407.988 Q 288.254 407.988 288.254 410.753 L 288.254 410.753 L 288.254 413.462 L 288.254 413.462 Q 288.254 414.606 288.931 415.312 L 288.931 415.312 L 288.931 415.312 Q 289.608 416.017 290.781 416.017 L 290.781 416.017 L 290.781 416.017 Q 291.954 416.017 292.593 415.321 L 292.593 415.321 L 292.593 415.321 Q 293.232 414.625 293.232 413.462 Z  M 299.621 416.055 L 299.621 416.055 L 299.621 416.055 Q 300.48 416.055 301.529 415.807 L 301.529 415.807 L 301.757 416.666 L 301.757 416.666 Q 300.537 416.99 299.545 416.99 L 299.545 416.99 L 299.545 416.99 Q 298.553 416.99 297.6 416.685 L 297.6 416.685 L 297.6 416.685 Q 295.616 416.036 295.616 413.347 L 295.616 413.347 L 295.616 410.906 L 295.616 410.906 Q 295.616 409.552 296.15 408.636 L 296.15 408.636 L 296.15 408.636 Q 297.066 407.053 299.164 407.053 L 299.164 407.053 L 299.164 407.053 Q 300.422 407.053 301.719 407.663 L 301.719 407.663 L 301.414 408.445 L 301.414 408.445 Q 300.327 408.026 299.535 408.026 L 299.535 408.026 L 299.535 408.026 Q 298.744 408.026 298.134 408.217 L 298.134 408.217 L 298.134 408.217 Q 297.523 408.407 297.104 409.075 L 297.104 409.075 L 297.104 409.075 Q 296.684 409.742 296.684 410.791 L 296.684 410.791 L 296.684 413.557 L 296.684 413.557 Q 296.684 416.055 299.621 416.055 Z  M 309.825 416.78 L 309.825 416.78 L 308.547 416.78 L 304.885 410.734 L 303.894 411.592 L 303.894 416.78 L 302.826 416.78 L 302.826 403.429 L 303.894 403.429 L 303.894 410.391 L 307.708 406.862 L 308.471 407.606 L 305.648 410.067 L 305.648 410.067 Q 306.945 412.222 309.825 416.78 Z  M 224.093 403.429 L 228.442 416.78 L 227.298 416.78 L 225.772 412.107 L 221.423 412.107 L 219.936 416.78 L 218.81 416.78 L 223.083 403.429 L 224.093 403.429 L 224.093 403.429 Z  M 221.728 411.058 L 225.486 411.058 L 223.578 405.089 L 221.728 411.058 L 221.728 411.058 Z  M 234.335 412.031 L 237.33 416.78 L 236.071 416.78 L 233.725 413.023 L 231.379 416.78 L 230.12 416.78 L 233.096 412.031 L 230.12 407.225 L 231.322 407.225 L 233.725 411.039 L 236.128 407.225 L 237.33 407.225 L 234.335 412.031 L 234.335 412.031 Z  M 246.561 410.753 L 246.561 410.753 L 246.561 413.271 L 246.561 413.271 Q 246.561 414.873 245.684 415.922 L 245.684 415.922 L 245.684 415.922 Q 244.806 416.971 243.033 416.971 L 243.033 416.971 L 243.033 416.971 Q 241.259 416.971 240.353 415.912 L 240.353 415.912 L 240.353 415.912 Q 239.447 414.854 239.447 413.271 L 239.447 413.271 L 239.447 410.753 L 239.447 410.753 Q 239.447 408.941 240.372 407.978 L 240.372 407.978 L 240.372 407.978 Q 241.297 407.015 242.994 407.015 L 242.994 407.015 L 242.994 407.015 Q 244.692 407.015 245.627 408.016 L 245.627 408.016 L 245.627 408.016 Q 246.561 409.018 246.561 410.753 Z  M 245.493 413.462 L 245.493 413.462 L 245.493 410.753 L 245.493 410.753 Q 245.493 407.988 243.033 407.988 L 243.033 407.988 L 243.033 407.988 Q 240.515 407.988 240.515 410.753 L 240.515 410.753 L 240.515 413.462 L 240.515 413.462 Q 240.515 414.606 241.192 415.312 L 241.192 415.312 L 241.192 415.312 Q 241.869 416.017 243.042 416.017 L 243.042 416.017 L 243.042 416.017 Q 244.215 416.017 244.854 415.321 L 244.854 415.321 L 244.854 415.321 Q 245.493 414.625 245.493 413.462 Z  M 249.479 407.225 L 249.403 407.873 L 249.403 407.873 Q 250.376 407.053 252.13 407.053 L 252.13 407.053 L 252.13 407.053 Q 253.122 407.053 253.828 407.415 L 253.828 407.415 L 253.828 407.415 Q 255.449 408.159 255.449 410.181 L 255.449 410.181 L 255.449 416.78 L 254.4 416.78 L 254.4 410.238 L 254.4 410.238 Q 254.4 409.246 253.866 408.693 L 253.866 408.693 L 253.866 408.693 Q 253.217 408.026 251.93 408.026 L 251.93 408.026 L 251.93 408.026 Q 250.643 408.026 249.479 408.674 L 249.479 408.674 L 249.479 416.78 L 248.411 416.78 L 248.411 407.225 L 249.479 407.225 L 249.479 407.225 Z " fill="rgb(0,0,0)"/><path d=" M 213.467 409.603 L 213.662 409.724 L 213.415 410.12 L 213.22 409.994 L 163.949 379.003 L 163.749 378.878 L 164 378.487 L 164.196 378.608 L 213.467 409.603 Z " fill="rgb(0,0,0)"/><path d=" M 115.338 559.609 L 115.338 559.609 L 116.425 559.609 L 116.425 559.609 Q 116.52 560.62 117.445 561.402 L 117.445 561.402 L 117.445 561.402 Q 118.37 562.184 119.82 562.184 L 119.82 562.184 L 119.82 562.184 Q 121.269 562.184 122.261 561.526 L 122.261 561.526 L 122.261 561.526 Q 123.253 560.868 123.253 559.438 L 123.253 559.438 L 123.253 559.438 Q 123.253 558.56 122.69 557.94 L 122.69 557.94 L 122.69 557.94 Q 122.128 557.32 121.288 556.996 L 121.288 556.996 L 121.288 556.996 Q 120.449 556.672 119.467 556.3 L 119.467 556.3 L 119.467 556.3 Q 118.485 555.928 117.646 555.566 L 117.646 555.566 L 117.646 555.566 Q 116.806 555.203 116.244 554.479 L 116.244 554.479 L 116.244 554.479 Q 115.681 553.754 115.681 552.743 L 115.681 552.743 L 115.681 552.743 Q 115.681 551.408 116.787 550.435 L 116.787 550.435 L 116.787 550.435 Q 117.894 549.463 119.972 549.463 L 119.972 549.463 L 119.972 549.463 Q 121.555 549.463 122.757 550.035 L 122.757 550.035 L 122.757 550.035 Q 122.757 550.073 122.433 551.046 L 122.433 551.046 L 122.433 551.046 Q 121.346 550.492 119.944 550.492 L 119.944 550.492 L 119.944 550.492 Q 118.542 550.492 117.665 551.103 L 117.665 551.103 L 117.665 551.103 Q 116.787 551.713 116.787 552.8 L 116.787 552.8 L 116.787 552.8 Q 116.787 554.021 118.294 554.708 L 118.294 554.708 L 118.294 554.708 Q 118.962 555.013 119.772 555.28 L 119.772 555.28 L 119.772 555.28 Q 120.583 555.547 121.403 555.871 L 121.403 555.871 L 121.403 555.871 Q 122.223 556.195 122.891 556.605 L 122.891 556.605 L 122.891 556.605 Q 123.558 557.015 123.978 557.721 L 123.978 557.721 L 123.978 557.721 Q 124.397 558.427 124.397 559.342 L 124.397 559.342 L 124.397 559.342 Q 124.397 561.097 123.282 562.155 L 123.282 562.155 L 123.282 562.155 Q 122.166 563.214 119.963 563.214 L 119.963 563.214 L 119.963 563.214 Q 117.76 563.214 116.568 562.117 L 116.568 562.117 L 116.568 562.117 Q 115.376 561.021 115.338 559.609 Z  M 127.621 549.653 L 127.621 553.964 L 127.621 553.964 Q 128.574 553.277 130.195 553.277 L 130.195 553.277 L 130.195 553.277 Q 131.225 553.277 131.969 553.639 L 131.969 553.639 L 131.969 553.639 Q 133.59 554.383 133.59 556.405 L 133.59 556.405 L 133.59 563.004 L 132.541 563.004 L 132.541 556.462 L 132.541 556.462 Q 132.541 555.47 132.007 554.917 L 132.007 554.917 L 132.007 554.917 Q 131.359 554.25 130.071 554.25 L 130.071 554.25 L 130.071 554.25 Q 128.784 554.25 127.621 554.898 L 127.621 554.898 L 127.621 563.004 L 126.553 563.004 L 126.553 549.653 L 127.621 549.653 L 127.621 549.653 Z  M 138.587 562.298 L 138.587 562.298 L 138.587 562.298 Q 139.903 562.298 141.372 561.516 L 141.372 561.516 L 141.792 562.337 L 141.792 562.337 Q 140.323 563.233 138.721 563.233 L 138.721 563.233 L 138.721 563.233 Q 135.402 563.233 135.402 560.448 L 135.402 560.448 L 135.402 556.538 L 135.402 556.538 Q 135.402 554.994 136.365 554.135 L 136.365 554.135 L 136.365 554.135 Q 137.329 553.277 138.912 553.277 L 138.912 553.277 L 138.912 553.277 Q 140.495 553.277 141.382 554.126 L 141.382 554.126 L 141.382 554.126 Q 142.268 554.975 142.268 556.481 L 142.268 556.481 L 142.268 558.961 L 136.47 559.285 L 136.47 560.448 L 136.47 560.448 Q 136.47 561.478 137.214 561.936 L 137.214 561.936 L 137.214 561.936 Q 137.786 562.298 138.587 562.298 Z  M 136.47 558.236 L 141.2 558.007 L 141.2 556.348 L 141.2 556.348 Q 141.2 555.528 140.762 555.003 L 140.762 555.003 L 140.762 555.003 Q 140.323 554.479 139.846 554.336 L 139.846 554.336 L 139.846 554.336 Q 139.369 554.193 138.893 554.193 L 138.893 554.193 L 138.893 554.193 Q 137.844 554.193 137.157 554.765 L 137.157 554.765 L 137.157 554.765 Q 136.47 555.337 136.47 556.558 L 136.47 556.558 L 136.47 558.236 L 136.47 558.236 Z  M 147.895 563.195 L 147.895 563.195 L 147.895 563.195 Q 143.718 563.195 143.718 559.781 L 143.718 559.781 L 143.718 558.198 L 143.718 558.198 Q 143.718 556.31 145.034 555.661 L 145.034 555.661 L 145.034 555.661 Q 145.721 555.337 146.388 555.337 L 146.388 555.337 L 146.388 555.337 Q 148.639 555.337 149.993 556.405 L 149.993 556.405 L 149.993 556.405 Q 149.993 555.356 149.383 554.736 L 149.383 554.736 L 149.383 554.736 Q 148.772 554.116 147.037 554.116 L 147.037 554.116 L 147.094 553.296 L 147.094 553.296 Q 148.639 553.296 149.383 553.659 L 149.383 553.659 L 149.383 553.659 Q 149.783 553.868 150.088 554.078 L 150.088 554.078 L 150.088 554.078 Q 150.393 554.288 150.565 554.631 L 150.565 554.631 L 150.565 554.631 Q 150.737 554.975 150.851 555.232 L 150.851 555.232 L 150.851 555.232 Q 150.966 555.489 151.004 555.928 L 151.004 555.928 L 151.004 555.928 Q 151.061 556.596 151.061 557.32 L 151.061 557.32 L 151.061 563.004 L 151.061 563.004 Q 149.077 563.195 147.895 563.195 Z  M 149.993 562.127 L 149.993 562.127 L 149.993 557.225 L 149.993 557.225 Q 148.41 556.462 146.751 556.329 L 146.751 556.329 L 146.751 556.329 Q 146.636 556.31 146.522 556.31 L 146.522 556.31 L 146.522 556.31 Q 145.797 556.31 145.282 556.758 L 145.282 556.758 L 145.282 556.758 Q 144.767 557.206 144.767 558.255 L 144.767 558.255 L 144.767 559.914 L 144.767 559.914 Q 144.767 561.497 146.14 561.974 L 146.14 561.974 L 146.14 561.974 Q 146.941 562.26 147.952 562.26 L 147.952 562.26 L 147.952 562.26 Q 148.963 562.26 149.993 562.127 Z  M 154.418 562.432 L 154.418 562.432 L 154.113 563.252 L 154.113 563.252 Q 153.044 562.947 152.568 562.279 L 152.568 562.279 L 152.568 562.279 Q 152.091 561.612 152.091 560.487 L 152.091 560.487 L 152.091 549.653 L 153.159 549.653 L 153.159 553.449 L 155.448 553.449 L 154.99 554.46 L 153.159 554.46 L 153.159 560.487 L 153.159 560.487 Q 153.159 562.012 154.418 562.432 Z  M 158.175 549.653 L 158.175 553.964 L 158.175 553.964 Q 159.129 553.277 160.75 553.277 L 160.75 553.277 L 160.75 553.277 Q 161.78 553.277 162.524 553.639 L 162.524 553.639 L 162.524 553.639 Q 164.145 554.383 164.145 556.405 L 164.145 556.405 L 164.145 563.004 L 163.096 563.004 L 163.096 556.462 L 163.096 556.462 Q 163.096 555.47 162.562 554.917 L 162.562 554.917 L 162.562 554.917 Q 161.913 554.25 160.626 554.25 L 160.626 554.25 L 160.626 554.25 Q 159.338 554.25 158.175 554.898 L 158.175 554.898 L 158.175 563.004 L 157.107 563.004 L 157.107 549.653 L 158.175 549.653 L 158.175 549.653 Z  M 72.844 549.653 L 72.844 563.004 L 71.776 563.004 L 71.776 552.8 L 68.305 563.004 L 67.141 563.004 L 63.689 552.8 L 63.689 563.004 L 62.621 563.004 L 62.621 549.653 L 63.689 549.653 L 67.713 561.364 L 71.776 549.653 L 72.844 549.653 L 72.844 549.653 Z  M 80.225 567.009 L 80.225 567.009 L 79.939 566.189 L 79.939 566.189 Q 81.217 565.712 81.217 564.206 L 81.217 564.206 L 81.217 562.07 L 81.217 562.07 Q 80.511 563.233 78.699 563.233 L 78.699 563.233 L 78.699 563.233 Q 75.075 563.233 75.075 559.647 L 75.075 559.647 L 75.075 553.449 L 76.105 553.449 L 76.105 559.838 L 76.105 559.838 Q 76.105 561.059 76.773 561.66 L 76.773 561.66 L 76.773 561.66 Q 77.44 562.26 78.594 562.26 L 78.594 562.26 L 78.594 562.26 Q 79.748 562.26 80.473 561.669 L 80.473 561.669 L 80.473 561.669 Q 81.198 561.078 81.198 559.838 L 81.198 559.838 L 81.198 556.081 L 81.198 556.081 Q 81.198 554.688 81.388 554.231 L 81.388 554.231 L 81.388 554.231 Q 81.713 553.563 82.59 553.277 L 82.59 553.277 L 82.876 554.002 L 82.876 554.002 Q 82.228 554.288 82.228 555.337 L 82.228 555.337 L 82.228 564.168 L 82.228 564.168 Q 82.228 565.331 81.77 565.999 L 81.77 565.999 L 81.77 565.999 Q 81.312 566.666 80.225 567.009 Z  M 86.996 562.298 L 86.996 562.298 L 86.996 562.298 Q 88.312 562.298 89.78 561.516 L 89.78 561.516 L 90.2 562.337 L 90.2 562.337 Q 88.731 563.233 87.129 563.233 L 87.129 563.233 L 87.129 563.233 Q 83.811 563.233 83.811 560.448 L 83.811 560.448 L 83.811 556.538 L 83.811 556.538 Q 83.811 554.994 84.774 554.135 L 84.774 554.135 L 84.774 554.135 Q 85.737 553.277 87.32 553.277 L 87.32 553.277 L 87.32 553.277 Q 88.903 553.277 89.79 554.126 L 89.79 554.126 L 89.79 554.126 Q 90.677 554.975 90.677 556.481 L 90.677 556.481 L 90.677 558.961 L 84.879 559.285 L 84.879 560.448 L 84.879 560.448 Q 84.879 561.478 85.623 561.936 L 85.623 561.936 L 85.623 561.936 Q 86.195 562.298 86.996 562.298 Z  M 84.879 558.236 L 89.609 558.007 L 89.609 556.348 L 89.609 556.348 Q 89.609 555.528 89.17 555.003 L 89.17 555.003 L 89.17 555.003 Q 88.731 554.479 88.255 554.336 L 88.255 554.336 L 88.255 554.336 Q 87.778 554.193 87.301 554.193 L 87.301 554.193 L 87.301 554.193 Q 86.252 554.193 85.565 554.765 L 85.565 554.765 L 85.565 554.765 Q 84.879 555.337 84.879 556.558 L 84.879 556.558 L 84.879 558.236 L 84.879 558.236 Z  M 93.976 549.653 L 93.976 563.004 L 92.908 563.004 L 92.908 549.653 L 93.976 549.653 L 93.976 549.653 Z  M 98.268 550.101 L 98.268 550.101 L 98.268 550.101 Q 98.268 550.359 98.077 550.55 L 98.077 550.55 L 98.077 550.55 Q 97.886 550.74 97.629 550.74 L 97.629 550.74 L 97.629 550.74 Q 97.371 550.74 97.181 550.54 L 97.181 550.54 L 97.181 550.54 Q 96.99 550.34 96.99 550.092 L 96.99 550.092 L 96.99 550.092 Q 96.99 549.844 97.181 549.653 L 97.181 549.653 L 97.181 549.653 Q 97.371 549.463 97.638 549.463 L 97.638 549.463 L 97.638 549.463 Q 97.905 549.463 98.087 549.653 L 98.087 549.653 L 98.087 549.653 Q 98.268 549.844 98.268 550.101 Z  M 98.153 553.449 L 98.153 563.004 L 97.085 563.004 L 97.085 553.449 L 98.153 553.449 L 98.153 553.449 Z  M 102.082 553.449 L 102.006 554.097 L 102.006 554.097 Q 102.979 553.277 104.733 553.277 L 104.733 553.277 L 104.733 553.277 Q 105.725 553.277 106.431 553.639 L 106.431 553.639 L 106.431 553.639 Q 108.052 554.383 108.052 556.405 L 108.052 556.405 L 108.052 563.004 L 107.003 563.004 L 107.003 556.462 L 107.003 556.462 Q 107.003 555.47 106.469 554.917 L 106.469 554.917 L 106.469 554.917 Q 105.821 554.25 104.533 554.25 L 104.533 554.25 L 104.533 554.25 Q 103.246 554.25 102.082 554.898 L 102.082 554.898 L 102.082 563.004 L 101.014 563.004 L 101.014 553.449 L 102.082 553.449 L 102.082 553.449 Z " fill="rgb(0,0,0)"/><path d=" M 173.761 553.019 L 173.585 553.173 L 173.278 552.824 L 173.454 552.67 L 224.316 508.168 L 224.489 508.015 L 224.796 508.364 L 224.623 508.517 L 173.761 553.019 Z " fill="rgb(0,0,0)"/><path d=" M 270.51 625.944 L 274.859 639.295 L 273.714 639.295 L 272.188 634.622 L 267.84 634.622 L 266.352 639.295 L 265.227 639.295 L 269.499 625.944 L 270.51 625.944 L 270.51 625.944 Z  M 268.145 633.573 L 271.902 633.573 L 269.995 627.603 L 268.145 633.573 L 268.145 633.573 Z  M 280.752 634.546 L 283.746 639.295 L 282.488 639.295 L 280.142 635.538 L 277.796 639.295 L 276.537 639.295 L 279.512 634.546 L 276.537 629.739 L 277.739 629.739 L 280.142 633.554 L 282.545 629.739 L 283.746 629.739 L 280.752 634.546 L 280.752 634.546 Z  M 292.978 633.268 L 292.978 633.268 L 292.978 635.786 L 292.978 635.786 Q 292.978 637.388 292.1 638.437 L 292.1 638.437 L 292.1 638.437 Q 291.223 639.486 289.449 639.486 L 289.449 639.486 L 289.449 639.486 Q 287.675 639.486 286.769 638.427 L 286.769 638.427 L 286.769 638.427 Q 285.864 637.369 285.864 635.786 L 285.864 635.786 L 285.864 633.268 L 285.864 633.268 Q 285.864 631.456 286.789 630.493 L 286.789 630.493 L 286.789 630.493 Q 287.714 629.53 289.411 629.53 L 289.411 629.53 L 289.411 629.53 Q 291.109 629.53 292.043 630.531 L 292.043 630.531 L 292.043 630.531 Q 292.978 631.532 292.978 633.268 Z  M 291.91 635.976 L 291.91 635.976 L 291.91 633.268 L 291.91 633.268 Q 291.91 630.502 289.449 630.502 L 289.449 630.502 L 289.449 630.502 Q 286.932 630.502 286.932 633.268 L 286.932 633.268 L 286.932 635.976 L 286.932 635.976 Q 286.932 637.121 287.609 637.826 L 287.609 637.826 L 287.609 637.826 Q 288.286 638.532 289.459 638.532 L 289.459 638.532 L 289.459 638.532 Q 290.632 638.532 291.271 637.836 L 291.271 637.836 L 291.271 637.836 Q 291.91 637.14 291.91 635.976 Z  M 295.896 629.739 L 295.819 630.388 L 295.819 630.388 Q 296.792 629.568 298.547 629.568 L 298.547 629.568 L 298.547 629.568 Q 299.539 629.568 300.244 629.93 L 300.244 629.93 L 300.244 629.93 Q 301.866 630.674 301.866 632.696 L 301.866 632.696 L 301.866 639.295 L 300.817 639.295 L 300.817 632.753 L 300.817 632.753 Q 300.817 631.761 300.282 631.208 L 300.282 631.208 L 300.282 631.208 Q 299.634 630.541 298.347 630.541 L 298.347 630.541 L 298.347 630.541 Q 297.059 630.541 295.896 631.189 L 295.896 631.189 L 295.896 639.295 L 294.828 639.295 L 294.828 629.739 L 295.896 629.739 L 295.896 629.739 Z " fill="rgb(0,0,0)"/><path d=" M 289.825 626.093 L 289.69 626.279 L 289.308 626.014 L 289.443 625.823 L 327.59 571.783 L 327.725 571.592 L 328.102 571.862 L 327.971 572.053 L 289.825 626.093 Z " fill="rgb(0,0,0)"/><path d=" M 332.452 546.701 L 332.242 546.603 L 332.428 546.18 L 332.642 546.273 L 346.944 552.633 L 347.158 552.726 L 346.968 553.154 L 346.758 553.056 L 332.452 546.701 Z " fill="rgb(0,0,0)"/><path d=" M 330.377 549.762 L 330.279 549.972 L 329.856 549.786 L 329.949 549.572 L 333.131 542.421 L 333.224 542.207 L 333.647 542.397 L 333.554 542.607 L 330.377 549.762 Z " fill="rgb(0,0,0)"/><path d=" M 346.27 556.913 L 346.177 557.127 L 345.749 556.937 L 345.846 556.723 L 349.024 549.572 L 349.117 549.358 L 349.541 549.548 L 349.448 549.762 L 346.27 556.913 Z " fill="rgb(0,0,0)"/><path d=" M 414.598 535.698 L 416.295 540.753 L 415.208 540.753 L 413.587 536.023 L 413.587 536.023 Q 413.244 536.08 412.824 536.08 L 412.824 536.08 L 409.067 536.08 L 409.067 540.753 L 407.999 540.753 L 407.999 527.402 L 412.691 527.402 L 412.691 527.402 Q 414.502 527.402 415.389 528.508 L 415.389 528.508 L 415.389 528.508 Q 416.276 529.614 416.276 531.483 L 416.276 531.483 L 416.276 531.483 Q 416.276 532.38 416.209 533.009 L 416.209 533.009 L 416.209 533.009 Q 416.143 533.639 415.742 534.468 L 415.742 534.468 L 415.742 534.468 Q 415.342 535.298 414.598 535.698 L 414.598 535.698 L 414.598 535.698 Z  M 409.067 528.413 L 409.067 535.031 L 412.843 535.031 L 412.843 535.031 Q 413.53 535.031 414.007 534.754 L 414.007 534.754 L 414.007 534.754 Q 414.483 534.478 414.712 534.134 L 414.712 534.134 L 414.712 534.134 Q 414.941 533.791 415.056 533.2 L 415.056 533.2 L 415.056 533.2 Q 415.208 532.532 415.208 531.483 L 415.208 531.483 L 415.208 531.483 Q 415.208 529.938 414.55 529.176 L 414.55 529.176 L 414.55 529.176 Q 413.892 528.413 412.767 528.413 L 412.767 528.413 L 409.067 528.413 L 409.067 528.413 Z  M 422.151 540.943 L 422.151 540.943 L 422.151 540.943 Q 417.974 540.943 417.974 537.529 L 417.974 537.529 L 417.974 535.946 L 417.974 535.946 Q 417.974 534.058 419.29 533.41 L 419.29 533.41 L 419.29 533.41 Q 419.976 533.085 420.644 533.085 L 420.644 533.085 L 420.644 533.085 Q 422.894 533.085 424.249 534.154 L 424.249 534.154 L 424.249 534.154 Q 424.249 533.105 423.638 532.485 L 423.638 532.485 L 423.638 532.485 Q 423.028 531.865 421.292 531.865 L 421.292 531.865 L 421.35 531.045 L 421.35 531.045 Q 422.894 531.045 423.638 531.407 L 423.638 531.407 L 423.638 531.407 Q 424.039 531.617 424.344 531.827 L 424.344 531.827 L 424.344 531.827 Q 424.649 532.036 424.821 532.38 L 424.821 532.38 L 424.821 532.38 Q 424.992 532.723 425.107 532.981 L 425.107 532.981 L 425.107 532.981 Q 425.221 533.238 425.259 533.677 L 425.259 533.677 L 425.259 533.677 Q 425.317 534.344 425.317 535.069 L 425.317 535.069 L 425.317 540.753 L 425.317 540.753 Q 423.333 540.943 422.151 540.943 Z  M 424.249 539.875 L 424.249 539.875 L 424.249 534.974 L 424.249 534.974 Q 422.666 534.211 421.006 534.077 L 421.006 534.077 L 421.006 534.077 Q 420.892 534.058 420.777 534.058 L 420.777 534.058 L 420.777 534.058 Q 420.053 534.058 419.538 534.506 L 419.538 534.506 L 419.538 534.506 Q 419.023 534.955 419.023 536.004 L 419.023 536.004 L 419.023 537.663 L 419.023 537.663 Q 419.023 539.246 420.396 539.723 L 420.396 539.723 L 420.396 539.723 Q 421.197 540.009 422.208 540.009 L 422.208 540.009 L 422.208 540.009 Q 423.219 540.009 424.249 539.875 Z  M 428.292 531.197 L 428.216 531.846 L 428.216 531.846 Q 429.188 531.026 430.943 531.026 L 430.943 531.026 L 430.943 531.026 Q 431.935 531.026 432.641 531.388 L 432.641 531.388 L 432.641 531.388 Q 434.262 532.132 434.262 534.154 L 434.262 534.154 L 434.262 540.753 L 433.213 540.753 L 433.213 534.211 L 433.213 534.211 Q 433.213 533.219 432.679 532.666 L 432.679 532.666 L 432.679 532.666 Q 432.03 531.998 430.743 531.998 L 430.743 531.998 L 430.743 531.998 Q 429.455 531.998 428.292 532.647 L 428.292 532.647 L 428.292 540.753 L 427.224 540.753 L 427.224 531.197 L 428.292 531.197 L 428.292 531.197 Z  M 442.043 531.197 L 439.087 540.753 L 437.619 540.753 L 434.7 531.197 L 435.826 531.197 L 438.362 539.646 L 440.918 531.197 L 442.043 531.197 L 442.043 531.197 Z  M 445.209 527.85 L 445.209 527.85 L 445.209 527.85 Q 445.209 528.107 445.019 528.298 L 445.019 528.298 L 445.019 528.298 Q 444.828 528.489 444.571 528.489 L 444.571 528.489 L 444.571 528.489 Q 444.313 528.489 444.122 528.289 L 444.122 528.289 L 444.122 528.289 Q 443.932 528.088 443.932 527.84 L 443.932 527.84 L 443.932 527.84 Q 443.932 527.593 444.122 527.402 L 444.122 527.402 L 444.122 527.402 Q 444.313 527.211 444.58 527.211 L 444.58 527.211 L 444.58 527.211 Q 444.847 527.211 445.028 527.402 L 445.028 527.402 L 445.028 527.402 Q 445.209 527.593 445.209 527.85 Z  M 445.095 531.197 L 445.095 540.753 L 444.027 540.753 L 444.027 531.197 L 445.095 531.197 L 445.095 531.197 Z  M 450.588 540.047 L 450.588 540.047 L 450.588 540.047 Q 451.904 540.047 453.373 539.265 L 453.373 539.265 L 453.792 540.085 L 453.792 540.085 Q 452.324 540.982 450.721 540.982 L 450.721 540.982 L 450.721 540.982 Q 447.403 540.982 447.403 538.197 L 447.403 538.197 L 447.403 534.287 L 447.403 534.287 Q 447.403 532.742 448.366 531.884 L 448.366 531.884 L 448.366 531.884 Q 449.329 531.026 450.912 531.026 L 450.912 531.026 L 450.912 531.026 Q 452.495 531.026 453.382 531.874 L 453.382 531.874 L 453.382 531.874 Q 454.269 532.723 454.269 534.23 L 454.269 534.23 L 454.269 536.709 L 448.471 537.033 L 448.471 538.197 L 448.471 538.197 Q 448.471 539.227 449.215 539.685 L 449.215 539.685 L 449.215 539.685 Q 449.787 540.047 450.588 540.047 Z  M 448.471 535.984 L 453.201 535.756 L 453.201 534.096 L 453.201 534.096 Q 453.201 533.276 452.762 532.752 L 452.762 532.752 L 452.762 532.752 Q 452.324 532.227 451.847 532.084 L 451.847 532.084 L 451.847 532.084 Q 451.37 531.941 450.893 531.941 L 450.893 531.941 L 450.893 531.941 Q 449.844 531.941 449.158 532.513 L 449.158 532.513 L 449.158 532.513 Q 448.471 533.085 448.471 534.306 L 448.471 534.306 L 448.471 535.984 L 448.471 535.984 Z  M 460.944 531.197 L 460.658 532.17 L 460.658 532.17 Q 459.934 531.979 459.19 531.979 L 459.19 531.979 L 459.19 531.979 Q 458.446 531.979 457.845 532.313 L 457.845 532.313 L 457.845 532.313 Q 457.244 532.647 457.244 533.276 L 457.244 533.276 L 457.244 540.753 L 456.176 540.753 L 456.176 531.197 L 457.244 531.197 L 457.187 531.865 L 457.187 531.865 Q 458.084 531.045 459.552 531.045 L 459.552 531.045 L 459.552 531.045 Q 460.201 531.045 460.944 531.197 L 460.944 531.197 L 460.944 531.197 Z  M 394.972 534.726 L 394.972 534.726 L 394.972 537.243 L 394.972 537.243 Q 394.972 538.845 394.095 539.894 L 394.095 539.894 L 394.095 539.894 Q 393.217 540.943 391.444 540.943 L 391.444 540.943 L 391.444 540.943 Q 389.67 540.943 388.764 539.885 L 388.764 539.885 L 388.764 539.885 Q 387.858 538.826 387.858 537.243 L 387.858 537.243 L 387.858 534.726 L 387.858 534.726 Q 387.858 532.914 388.783 531.951 L 388.783 531.951 L 388.783 531.951 Q 389.708 530.987 391.405 530.987 L 391.405 530.987 L 391.405 530.987 Q 393.103 530.987 394.037 531.989 L 394.037 531.989 L 394.037 531.989 Q 394.972 532.99 394.972 534.726 Z  M 393.904 537.434 L 393.904 537.434 L 393.904 534.726 L 393.904 534.726 Q 393.904 531.96 391.444 531.96 L 391.444 531.96 L 391.444 531.96 Q 388.926 531.96 388.926 534.726 L 388.926 534.726 L 388.926 537.434 L 388.926 537.434 Q 388.926 538.578 389.603 539.284 L 389.603 539.284 L 389.603 539.284 Q 390.28 539.99 391.453 539.99 L 391.453 539.99 L 391.453 539.99 Q 392.626 539.99 393.265 539.294 L 393.265 539.294 L 393.265 539.294 Q 393.904 538.597 393.904 537.434 Z  M 398.157 532.208 L 398.157 540.753 L 397.089 540.753 L 397.089 530.282 L 397.089 530.282 Q 397.089 529.328 397.413 528.642 L 397.413 528.642 L 397.413 528.642 Q 397.738 527.955 398.233 527.669 L 398.233 527.669 L 398.233 527.669 Q 399.054 527.192 399.912 527.192 L 399.912 527.192 L 399.912 527.192 Q 400.255 527.192 400.579 527.268 L 400.579 527.268 L 400.408 528.203 L 400.408 528.203 Q 400.16 528.165 399.931 528.165 L 399.931 528.165 L 399.931 528.165 Q 398.157 528.165 398.157 530.282 L 398.157 530.282 L 398.157 531.197 L 400.331 531.197 L 399.874 532.208 L 398.157 532.208 L 398.157 532.208 Z  M 352.879 527.402 L 352.879 540.753 L 351.811 540.753 L 344.563 529.366 L 344.563 540.753 L 343.495 540.753 L 343.495 527.402 L 344.563 527.402 L 351.811 538.788 L 351.811 527.402 L 352.879 527.402 L 352.879 527.402 Z  M 363.006 534.726 L 363.006 534.726 L 363.006 537.243 L 363.006 537.243 Q 363.006 538.845 362.129 539.894 L 362.129 539.894 L 362.129 539.894 Q 361.252 540.943 359.478 540.943 L 359.478 540.943 L 359.478 540.943 Q 357.704 540.943 356.798 539.885 L 356.798 539.885 L 356.798 539.885 Q 355.892 538.826 355.892 537.243 L 355.892 537.243 L 355.892 534.726 L 355.892 534.726 Q 355.892 532.914 356.817 531.951 L 356.817 531.951 L 356.817 531.951 Q 357.742 530.987 359.44 530.987 L 359.44 530.987 L 359.44 530.987 Q 361.137 530.987 362.072 531.989 L 362.072 531.989 L 362.072 531.989 Q 363.006 532.99 363.006 534.726 Z  M 361.938 537.434 L 361.938 537.434 L 361.938 534.726 L 361.938 534.726 Q 361.938 531.96 359.478 531.96 L 359.478 531.96 L 359.478 531.96 Q 356.96 531.96 356.96 534.726 L 356.96 534.726 L 356.96 537.434 L 356.96 537.434 Q 356.96 538.578 357.637 539.284 L 357.637 539.284 L 357.637 539.284 Q 358.314 539.99 359.487 539.99 L 359.487 539.99 L 359.487 539.99 Q 360.66 539.99 361.299 539.294 L 361.299 539.294 L 361.299 539.294 Q 361.938 538.597 361.938 537.434 Z  M 368.575 531.045 L 368.575 531.045 L 368.575 531.045 Q 370.158 531.045 371.093 531.712 L 371.093 531.712 L 371.093 527.402 L 372.161 527.402 L 372.161 540.753 L 372.161 540.753 Q 370.521 540.982 369.129 540.982 L 369.129 540.982 L 369.129 540.982 Q 367.736 540.982 366.611 540.409 L 366.611 540.409 L 366.611 540.409 Q 365.123 539.646 365.123 537.758 L 365.123 537.758 L 365.123 534.154 L 365.123 534.154 Q 365.123 532.151 366.744 531.407 L 366.744 531.407 L 366.744 531.407 Q 367.526 531.045 368.575 531.045 Z  M 371.093 539.837 L 371.093 532.647 L 371.093 532.647 Q 369.93 531.998 368.556 531.998 L 368.556 531.998 L 368.556 531.998 Q 367.355 531.998 366.764 532.609 L 366.764 532.609 L 366.764 532.609 Q 366.172 533.219 366.172 534.211 L 366.172 534.211 L 366.172 537.777 L 366.172 537.777 Q 366.172 540.009 369.167 540.009 L 369.167 540.009 L 369.167 540.009 Q 370.025 540.009 371.093 539.837 L 371.093 539.837 L 371.093 539.837 Z  M 376.643 540.047 L 376.643 540.047 L 376.643 540.047 Q 377.959 540.047 379.428 539.265 L 379.428 539.265 L 379.847 540.085 L 379.847 540.085 Q 378.379 540.982 376.777 540.982 L 376.777 540.982 L 376.777 540.982 Q 373.458 540.982 373.458 538.197 L 373.458 538.197 L 373.458 534.287 L 373.458 534.287 Q 373.458 532.742 374.421 531.884 L 374.421 531.884 L 374.421 531.884 Q 375.384 531.026 376.967 531.026 L 376.967 531.026 L 376.967 531.026 Q 378.55 531.026 379.437 531.874 L 379.437 531.874 L 379.437 531.874 Q 380.324 532.723 380.324 534.23 L 380.324 534.23 L 380.324 536.709 L 374.526 537.033 L 374.526 538.197 L 374.526 538.197 Q 374.526 539.227 375.27 539.685 L 375.27 539.685 L 375.27 539.685 Q 375.842 540.047 376.643 540.047 Z  M 374.526 535.984 L 379.256 535.756 L 379.256 534.096 L 379.256 534.096 Q 379.256 533.276 378.817 532.752 L 378.817 532.752 L 378.817 532.752 Q 378.379 532.227 377.902 532.084 L 377.902 532.084 L 377.902 532.084 Q 377.425 531.941 376.948 531.941 L 376.948 531.941 L 376.948 531.941 Q 375.899 531.941 375.213 532.513 L 375.213 532.513 L 375.213 532.513 Q 374.526 533.085 374.526 534.306 L 374.526 534.306 L 374.526 535.984 L 374.526 535.984 Z " fill="rgb(0,0,0)"/><path d=" M 397.458 702.871 L 397.458 702.871 L 393.071 702.871 L 393.071 689.52 L 397.286 689.52 L 397.286 689.52 Q 398.85 689.52 399.747 690.321 L 399.747 690.321 L 399.747 690.321 Q 400.643 691.122 400.643 692.81 L 400.643 692.81 L 400.643 692.81 Q 400.643 694.498 399.384 695.356 L 399.384 695.356 L 399.384 695.356 Q 399.365 695.375 399.365 695.394 L 399.365 695.394 L 399.365 695.413 L 399.365 695.413 Q 400.204 695.795 400.767 696.653 L 400.767 696.653 L 400.767 696.653 Q 401.33 697.511 401.33 698.884 L 401.33 698.884 L 401.33 698.884 Q 401.33 700.41 400.548 701.535 L 400.548 701.535 L 400.548 701.535 Q 400.147 702.146 399.356 702.508 L 399.356 702.508 L 399.356 702.508 Q 398.564 702.871 397.458 702.871 Z  M 394.139 690.53 L 394.139 694.993 L 397.248 694.993 L 397.248 694.993 Q 398.316 694.993 398.926 694.421 L 398.926 694.421 L 398.926 694.421 Q 399.537 693.849 399.537 692.762 L 399.537 692.762 L 399.537 692.762 Q 399.537 690.53 397.134 690.53 L 397.134 690.53 L 394.139 690.53 L 394.139 690.53 Z  M 394.139 696.042 L 394.139 701.86 L 397.42 701.86 L 397.42 701.86 Q 400.185 701.86 400.185 698.808 L 400.185 698.808 L 400.185 698.808 Q 400.185 697.473 399.46 696.758 L 399.46 696.758 L 399.46 696.758 Q 398.736 696.042 397.744 696.042 L 397.744 696.042 L 394.139 696.042 L 394.139 696.042 Z  M 409.76 693.315 L 409.76 702.871 L 408.711 702.871 L 408.787 701.898 L 408.787 701.898 Q 408.329 702.47 407.633 702.775 L 407.633 702.775 L 407.633 702.775 Q 406.937 703.08 406.231 703.08 L 406.231 703.08 L 406.231 703.08 Q 402.646 703.08 402.646 699.59 L 402.646 699.59 L 402.646 693.315 L 403.714 693.315 L 403.714 699.724 L 403.714 699.724 Q 403.714 700.944 404.391 701.535 L 404.391 701.535 L 404.391 701.535 Q 405.068 702.127 406.231 702.127 L 406.231 702.127 L 406.231 702.127 Q 408.692 702.127 408.692 699.724 L 408.692 699.724 L 408.692 693.315 L 409.76 693.315 L 409.76 693.315 Z  M 413.651 702.298 L 413.651 702.298 L 413.345 703.118 L 413.345 703.118 Q 412.277 702.813 411.8 702.146 L 411.8 702.146 L 411.8 702.146 Q 411.324 701.478 411.324 700.353 L 411.324 700.353 L 411.324 689.52 L 412.392 689.52 L 412.392 693.315 L 414.68 693.315 L 414.223 694.326 L 412.392 694.326 L 412.392 700.353 L 412.392 700.353 Q 412.392 701.879 413.651 702.298 Z  M 418.285 702.298 L 418.285 702.298 L 417.98 703.118 L 417.98 703.118 Q 416.912 702.813 416.435 702.146 L 416.435 702.146 L 416.435 702.146 Q 415.958 701.478 415.958 700.353 L 415.958 700.353 L 415.958 689.52 L 417.026 689.52 L 417.026 693.315 L 419.315 693.315 L 418.857 694.326 L 417.026 694.326 L 417.026 700.353 L 417.026 700.353 Q 417.026 701.879 418.285 702.298 Z  M 428.356 696.844 L 428.356 696.844 L 428.356 699.361 L 428.356 699.361 Q 428.356 700.963 427.478 702.012 L 427.478 702.012 L 427.478 702.012 Q 426.601 703.061 424.827 703.061 L 424.827 703.061 L 424.827 703.061 Q 423.053 703.061 422.147 702.003 L 422.147 702.003 L 422.147 702.003 Q 421.241 700.944 421.241 699.361 L 421.241 699.361 L 421.241 696.844 L 421.241 696.844 Q 421.241 695.032 422.166 694.068 L 422.166 694.068 L 422.166 694.068 Q 423.092 693.105 424.789 693.105 L 424.789 693.105 L 424.789 693.105 Q 426.486 693.105 427.421 694.107 L 427.421 694.107 L 427.421 694.107 Q 428.356 695.108 428.356 696.844 Z  M 427.288 699.552 L 427.288 699.552 L 427.288 696.844 L 427.288 696.844 Q 427.288 694.078 424.827 694.078 L 424.827 694.078 L 424.827 694.078 Q 422.31 694.078 422.31 696.844 L 422.31 696.844 L 422.31 699.552 L 422.31 699.552 Q 422.31 700.696 422.987 701.402 L 422.987 701.402 L 422.987 701.402 Q 423.664 702.108 424.837 702.108 L 424.837 702.108 L 424.837 702.108 Q 426.01 702.108 426.649 701.411 L 426.649 701.411 L 426.649 701.411 Q 427.288 700.715 427.288 699.552 Z  M 431.274 693.315 L 431.197 693.964 L 431.197 693.964 Q 432.17 693.143 433.925 693.143 L 433.925 693.143 L 433.925 693.143 Q 434.917 693.143 435.622 693.506 L 435.622 693.506 L 435.622 693.506 Q 437.243 694.25 437.243 696.271 L 437.243 696.271 L 437.243 702.871 L 436.194 702.871 L 436.194 696.329 L 436.194 696.329 Q 436.194 695.337 435.66 694.784 L 435.66 694.784 L 435.66 694.784 Q 435.012 694.116 433.725 694.116 L 433.725 694.116 L 433.725 694.116 Q 432.437 694.116 431.274 694.765 L 431.274 694.765 L 431.274 702.871 L 430.206 702.871 L 430.206 693.315 L 431.274 693.315 L 431.274 693.315 Z  M 329.96 690.473 L 329.96 702.871 L 328.892 702.871 L 328.892 690.473 L 325.649 690.473 L 325.649 689.52 L 333.316 689.52 L 333.316 690.473 L 329.96 690.473 L 329.96 690.473 Z  M 335.453 702.165 L 335.453 702.165 L 335.453 702.165 Q 336.769 702.165 338.237 701.383 L 338.237 701.383 L 338.657 702.203 L 338.657 702.203 Q 337.188 703.099 335.586 703.099 L 335.586 703.099 L 335.586 703.099 Q 332.267 703.099 332.267 700.315 L 332.267 700.315 L 332.267 696.405 L 332.267 696.405 Q 332.267 694.86 333.231 694.002 L 333.231 694.002 L 333.231 694.002 Q 334.194 693.143 335.777 693.143 L 335.777 693.143 L 335.777 693.143 Q 337.36 693.143 338.247 693.992 L 338.247 693.992 L 338.247 693.992 Q 339.134 694.841 339.134 696.348 L 339.134 696.348 L 339.134 698.827 L 333.335 699.151 L 333.335 700.315 L 333.335 700.315 Q 333.335 701.345 334.079 701.802 L 334.079 701.802 L 334.079 701.802 Q 334.651 702.165 335.453 702.165 Z  M 333.335 698.102 L 338.065 697.873 L 338.065 696.214 L 338.065 696.214 Q 338.065 695.394 337.627 694.87 L 337.627 694.87 L 337.627 694.87 Q 337.188 694.345 336.711 694.202 L 336.711 694.202 L 336.711 694.202 Q 336.234 694.059 335.758 694.059 L 335.758 694.059 L 335.758 694.059 Q 334.709 694.059 334.022 694.631 L 334.022 694.631 L 334.022 694.631 Q 333.335 695.203 333.335 696.424 L 333.335 696.424 L 333.335 698.102 L 333.335 698.102 Z  M 345.809 693.315 L 345.523 694.288 L 345.523 694.288 Q 344.798 694.097 344.054 694.097 L 344.054 694.097 L 344.054 694.097 Q 343.31 694.097 342.71 694.431 L 342.71 694.431 L 342.71 694.431 Q 342.109 694.765 342.109 695.394 L 342.109 695.394 L 342.109 702.871 L 341.041 702.871 L 341.041 693.315 L 342.109 693.315 L 342.052 693.983 L 342.052 693.983 Q 342.948 693.163 344.417 693.163 L 344.417 693.163 L 344.417 693.163 Q 345.065 693.163 345.809 693.315 L 345.809 693.315 L 345.809 693.315 Z  M 352.961 694.078 L 352.961 694.078 L 352.961 694.078 Q 354.582 693.163 356.032 693.163 L 356.032 693.163 L 356.032 693.163 Q 357.405 693.163 358.206 694.04 L 358.206 694.04 L 358.206 694.04 Q 359.007 694.917 359.007 696.271 L 359.007 696.271 L 359.007 702.871 L 357.958 702.871 L 357.958 696.329 L 357.958 696.329 Q 357.958 695.47 357.596 694.936 L 357.596 694.936 L 357.596 694.936 Q 357.234 694.402 356.719 694.269 L 356.719 694.269 L 356.719 694.269 Q 356.204 694.135 355.889 694.135 L 355.889 694.135 L 355.889 694.135 Q 355.574 694.135 355.183 694.164 L 355.183 694.164 L 355.183 694.164 Q 354.792 694.192 354.144 694.44 L 354.144 694.44 L 353.438 694.784 L 353.438 694.784 Q 353.762 695.432 353.762 696.271 L 353.762 696.271 L 353.762 702.871 L 352.713 702.871 L 352.713 696.329 L 352.713 696.329 Q 352.713 695.337 352.236 694.784 L 352.236 694.784 L 352.236 694.784 Q 351.664 694.135 350.491 694.135 L 350.491 694.135 L 350.491 694.135 Q 349.318 694.135 348.174 694.765 L 348.174 694.765 L 348.174 702.871 L 347.106 702.871 L 347.106 693.315 L 348.174 693.315 L 348.079 693.925 L 348.079 693.925 Q 349.395 693.182 350.739 693.182 L 350.739 693.182 L 350.739 693.182 Q 352.084 693.182 352.961 694.078 Z  M 362.402 689.968 L 362.402 689.968 L 362.402 689.968 Q 362.402 690.225 362.211 690.416 L 362.211 690.416 L 362.211 690.416 Q 362.021 690.607 361.763 690.607 L 361.763 690.607 L 361.763 690.607 Q 361.506 690.607 361.315 690.407 L 361.315 690.407 L 361.315 690.407 Q 361.124 690.206 361.124 689.958 L 361.124 689.958 L 361.124 689.958 Q 361.124 689.71 361.315 689.52 L 361.315 689.52 L 361.315 689.52 Q 361.506 689.329 361.773 689.329 L 361.773 689.329 L 361.773 689.329 Q 362.04 689.329 362.221 689.52 L 362.221 689.52 L 362.221 689.52 Q 362.402 689.71 362.402 689.968 Z  M 362.288 693.315 L 362.288 702.871 L 361.22 702.871 L 361.22 693.315 L 362.288 693.315 L 362.288 693.315 Z  M 366.217 693.315 L 366.14 693.964 L 366.14 693.964 Q 367.113 693.143 368.868 693.143 L 368.868 693.143 L 368.868 693.143 Q 369.86 693.143 370.565 693.506 L 370.565 693.506 L 370.565 693.506 Q 372.187 694.25 372.187 696.271 L 372.187 696.271 L 372.187 702.871 L 371.138 702.871 L 371.138 696.329 L 371.138 696.329 Q 371.138 695.337 370.603 694.784 L 370.603 694.784 L 370.603 694.784 Q 369.955 694.116 368.668 694.116 L 368.668 694.116 L 368.668 694.116 Q 367.38 694.116 366.217 694.765 L 366.217 694.765 L 366.217 702.871 L 365.149 702.871 L 365.149 693.315 L 366.217 693.315 L 366.217 693.315 Z  M 378.347 703.061 L 378.347 703.061 L 378.347 703.061 Q 374.17 703.061 374.17 699.647 L 374.17 699.647 L 374.17 698.064 L 374.17 698.064 Q 374.17 696.176 375.486 695.528 L 375.486 695.528 L 375.486 695.528 Q 376.173 695.203 376.84 695.203 L 376.84 695.203 L 376.84 695.203 Q 379.091 695.203 380.445 696.271 L 380.445 696.271 L 380.445 696.271 Q 380.445 695.222 379.835 694.603 L 379.835 694.603 L 379.835 694.603 Q 379.224 693.983 377.489 693.983 L 377.489 693.983 L 377.546 693.163 L 377.546 693.163 Q 379.091 693.163 379.835 693.525 L 379.835 693.525 L 379.835 693.525 Q 380.235 693.735 380.54 693.945 L 380.54 693.945 L 380.54 693.945 Q 380.846 694.154 381.017 694.498 L 381.017 694.498 L 381.017 694.498 Q 381.189 694.841 381.303 695.098 L 381.303 695.098 L 381.303 695.098 Q 381.418 695.356 381.456 695.795 L 381.456 695.795 L 381.456 695.795 Q 381.513 696.462 381.513 697.187 L 381.513 697.187 L 381.513 702.871 L 381.513 702.871 Q 379.53 703.061 378.347 703.061 Z  M 380.445 701.993 L 380.445 701.993 L 380.445 697.091 L 380.445 697.091 Q 378.862 696.329 377.203 696.195 L 377.203 696.195 L 377.203 696.195 Q 377.088 696.176 376.974 696.176 L 376.974 696.176 L 376.974 696.176 Q 376.249 696.176 375.734 696.624 L 375.734 696.624 L 375.734 696.624 Q 375.219 697.072 375.219 698.121 L 375.219 698.121 L 375.219 699.781 L 375.219 699.781 Q 375.219 701.364 376.592 701.841 L 376.592 701.841 L 376.592 701.841 Q 377.393 702.127 378.404 702.127 L 378.404 702.127 L 378.404 702.127 Q 379.415 702.127 380.445 701.993 Z  M 384.755 689.52 L 384.755 702.871 L 383.687 702.871 L 383.687 689.52 L 384.755 689.52 L 384.755 689.52 Z  M 287.714 689.52 L 292.062 702.871 L 290.918 702.871 L 289.392 698.198 L 285.043 698.198 L 283.556 702.871 L 282.43 702.871 L 286.703 689.52 L 287.714 689.52 L 287.714 689.52 Z  M 285.349 697.149 L 289.106 697.149 L 287.199 691.179 L 285.349 697.149 L 285.349 697.149 Z  M 297.956 698.121 L 300.95 702.871 L 299.691 702.871 L 297.345 699.113 L 294.999 702.871 L 293.741 702.871 L 296.716 698.121 L 293.741 693.315 L 294.942 693.315 L 297.345 697.13 L 299.748 693.315 L 300.95 693.315 L 297.956 698.121 L 297.956 698.121 Z  M 310.181 696.844 L 310.181 696.844 L 310.181 699.361 L 310.181 699.361 Q 310.181 700.963 309.304 702.012 L 309.304 702.012 L 309.304 702.012 Q 308.427 703.061 306.653 703.061 L 306.653 703.061 L 306.653 703.061 Q 304.879 703.061 303.973 702.003 L 303.973 702.003 L 303.973 702.003 Q 303.067 700.944 303.067 699.361 L 303.067 699.361 L 303.067 696.844 L 303.067 696.844 Q 303.067 695.032 303.992 694.068 L 303.992 694.068 L 303.992 694.068 Q 304.917 693.105 306.615 693.105 L 306.615 693.105 L 306.615 693.105 Q 308.312 693.105 309.247 694.107 L 309.247 694.107 L 309.247 694.107 Q 310.181 695.108 310.181 696.844 Z  M 309.113 699.552 L 309.113 699.552 L 309.113 696.844 L 309.113 696.844 Q 309.113 694.078 306.653 694.078 L 306.653 694.078 L 306.653 694.078 Q 304.135 694.078 304.135 696.844 L 304.135 696.844 L 304.135 699.552 L 304.135 699.552 Q 304.135 700.696 304.812 701.402 L 304.812 701.402 L 304.812 701.402 Q 305.489 702.108 306.662 702.108 L 306.662 702.108 L 306.662 702.108 Q 307.835 702.108 308.474 701.411 L 308.474 701.411 L 308.474 701.411 Q 309.113 700.715 309.113 699.552 Z  M 313.099 693.315 L 313.023 693.964 L 313.023 693.964 Q 313.996 693.143 315.75 693.143 L 315.75 693.143 L 315.75 693.143 Q 316.742 693.143 317.448 693.506 L 317.448 693.506 L 317.448 693.506 Q 319.069 694.25 319.069 696.271 L 319.069 696.271 L 319.069 702.871 L 318.02 702.871 L 318.02 696.329 L 318.02 696.329 Q 318.02 695.337 317.486 694.784 L 317.486 694.784 L 317.486 694.784 Q 316.838 694.116 315.55 694.116 L 315.55 694.116 L 315.55 694.116 Q 314.263 694.116 313.099 694.765 L 313.099 694.765 L 313.099 702.871 L 312.031 702.871 L 312.031 693.315 L 313.099 693.315 L 313.099 693.315 Z " fill="rgb(0,0,0)"/><circle vector-effect="non-scaling-stroke" cx="496.25435768910444" cy="681.5853975709903" r="4.768172253178136" fill="rgb(74,134,232)"/><path d=" M 443.872 698.101 L 443.653 698.166 L 443.513 697.724 L 443.737 697.654 L 496.585 681.365 L 496.804 681.295 L 496.944 681.737 L 496.72 681.807 L 443.872 698.101 Z " fill="rgb(0,0,0)"/><circle vector-effect="non-scaling-stroke" cx="516.9583395726772" cy="689.1017709228181" r="4.768172253178136" fill="rgb(74,134,232)"/><circle vector-effect="non-scaling-stroke" cx="539.290724525744" cy="691.8933190419514" r="4.768172253178136" fill="rgb(74,134,232)"/><circle vector-effect="non-scaling-stroke" cx="542.3466894698263" cy="592.5795155116652" r="4.768172253178136" fill="rgb(74,134,232)"/><circle vector-effect="non-scaling-stroke" cx="562.7876994291332" cy="598.1452729417391" r="4.768172253178136" fill="rgb(74,134,232)"/><circle vector-effect="non-scaling-stroke" cx="570.2318277468219" cy="624.6649800735053" r="4.768172253178136" fill="rgb(74,134,232)"/></g><path d=" M 324.66 65.84 L 324.66 107.84 L 321.3 107.84 L 298.5 72.02 L 298.5 107.84 L 295.14 107.84 L 295.14 65.84 L 298.5 65.84 L 321.3 101.66 L 321.3 65.84 L 324.66 65.84 L 324.66 65.84 Z  M 341.58 105.62 L 341.58 105.62 L 341.58 105.62 Q 345.72 105.62 350.34 103.16 L 350.34 103.16 L 351.66 105.74 L 351.66 105.74 Q 347.04 108.56 342 108.56 L 342 108.56 L 342 108.56 Q 331.56 108.56 331.56 99.8 L 331.56 99.8 L 331.56 87.5 L 331.56 87.5 Q 331.56 82.64 334.59 79.94 L 334.59 79.94 L 334.59 79.94 Q 337.62 77.24 342.6 77.24 L 342.6 77.24 L 342.6 77.24 Q 347.58 77.24 350.37 79.91 L 350.37 79.91 L 350.37 79.91 Q 353.16 82.58 353.16 87.32 L 353.16 87.32 L 353.16 95.12 L 334.92 96.14 L 334.92 99.8 L 334.92 99.8 Q 334.92 103.04 337.26 104.48 L 337.26 104.48 L 337.26 104.48 Q 339.06 105.62 341.58 105.62 Z  M 334.92 92.84 L 349.8 92.12 L 349.8 86.9 L 349.8 86.9 Q 349.8 84.32 348.42 82.67 L 348.42 82.67 L 348.42 82.67 Q 347.04 81.02 345.54 80.57 L 345.54 80.57 L 345.54 80.57 Q 344.04 80.12 342.54 80.12 L 342.54 80.12 L 342.54 80.12 Q 339.24 80.12 337.08 81.92 L 337.08 81.92 L 337.08 81.92 Q 334.92 83.72 334.92 87.56 L 334.92 87.56 L 334.92 92.84 L 334.92 92.84 Z  M 380.04 77.78 L 380.04 107.84 L 376.74 107.84 L 376.98 104.78 L 376.98 104.78 Q 375.54 106.58 373.35 107.54 L 373.35 107.54 L 373.35 107.54 Q 371.16 108.5 368.94 108.5 L 368.94 108.5 L 368.94 108.5 Q 357.66 108.5 357.66 97.52 L 357.66 97.52 L 357.66 77.78 L 361.02 77.78 L 361.02 97.94 L 361.02 97.94 Q 361.02 101.78 363.15 103.64 L 363.15 103.64 L 363.15 103.64 Q 365.28 105.5 368.94 105.5 L 368.94 105.5 L 368.94 105.5 Q 376.68 105.5 376.68 97.94 L 376.68 97.94 L 376.68 77.78 L 380.04 77.78 L 380.04 77.78 Z  M 400.98 77.78 L 400.08 80.84 L 400.08 80.84 Q 397.8 80.24 395.46 80.24 L 395.46 80.24 L 395.46 80.24 Q 393.12 80.24 391.23 81.29 L 391.23 81.29 L 391.23 81.29 Q 389.34 82.34 389.34 84.32 L 389.34 84.32 L 389.34 107.84 L 385.98 107.84 L 385.98 77.78 L 389.34 77.78 L 389.16 79.88 L 389.16 79.88 Q 391.98 77.3 396.6 77.3 L 396.6 77.3 L 396.6 77.3 Q 398.64 77.3 400.98 77.78 L 400.98 77.78 L 400.98 77.78 Z  M 426.48 88.88 L 426.48 88.88 L 426.48 96.8 L 426.48 96.8 Q 426.48 101.84 423.72 105.14 L 423.72 105.14 L 423.72 105.14 Q 420.96 108.44 415.38 108.44 L 415.38 108.44 L 415.38 108.44 Q 409.8 108.44 406.95 105.11 L 406.95 105.11 L 406.95 105.11 Q 404.1 101.78 404.1 96.8 L 404.1 96.8 L 404.1 88.88 L 404.1 88.88 Q 404.1 83.18 407.01 80.15 L 407.01 80.15 L 407.01 80.15 Q 409.92 77.12 415.26 77.12 L 415.26 77.12 L 415.26 77.12 Q 420.6 77.12 423.54 80.27 L 423.54 80.27 L 423.54 80.27 Q 426.48 83.42 426.48 88.88 Z  M 423.12 97.4 L 423.12 97.4 L 423.12 88.88 L 423.12 88.88 Q 423.12 80.18 415.38 80.18 L 415.38 80.18 L 415.38 80.18 Q 407.46 80.18 407.46 88.88 L 407.46 88.88 L 407.46 97.4 L 407.46 97.4 Q 407.46 101 409.59 103.22 L 409.59 103.22 L 409.59 103.22 Q 411.72 105.44 415.41 105.44 L 415.41 105.44 L 415.41 105.44 Q 419.1 105.44 421.11 103.25 L 421.11 103.25 L 421.11 103.25 Q 423.12 101.06 423.12 97.4 Z  M 435.66 77.78 L 435.42 79.82 L 435.42 79.82 Q 438.48 77.24 444 77.24 L 444 77.24 L 444 77.24 Q 447.12 77.24 449.34 78.38 L 449.34 78.38 L 449.34 78.38 Q 454.44 80.72 454.44 87.08 L 454.44 87.08 L 454.44 107.84 L 451.14 107.84 L 451.14 87.26 L 451.14 87.26 Q 451.14 84.14 449.46 82.4 L 449.46 82.4 L 449.46 82.4 Q 447.42 80.3 443.37 80.3 L 443.37 80.3 L 443.37 80.3 Q 439.32 80.3 435.66 82.34 L 435.66 82.34 L 435.66 107.84 L 432.3 107.84 L 432.3 77.78 L 435.66 77.78 L 435.66 77.78 Z  M 176.34 65.84 L 176.34 107.84 L 172.98 107.84 L 172.98 75.74 L 162.06 107.84 L 158.4 107.84 L 147.54 75.74 L 147.54 107.84 L 144.18 107.84 L 144.18 65.84 L 147.54 65.84 L 160.2 102.68 L 172.98 65.84 L 176.34 65.84 L 176.34 65.84 Z  M 208.2 88.88 L 208.2 88.88 L 208.2 96.8 L 208.2 96.8 Q 208.2 101.84 205.44 105.14 L 205.44 105.14 L 205.44 105.14 Q 202.68 108.44 197.1 108.44 L 197.1 108.44 L 197.1 108.44 Q 191.52 108.44 188.67 105.11 L 188.67 105.11 L 188.67 105.11 Q 185.82 101.78 185.82 96.8 L 185.82 96.8 L 185.82 88.88 L 185.82 88.88 Q 185.82 83.18 188.73 80.15 L 188.73 80.15 L 188.73 80.15 Q 191.64 77.12 196.98 77.12 L 196.98 77.12 L 196.98 77.12 Q 202.32 77.12 205.26 80.27 L 205.26 80.27 L 205.26 80.27 Q 208.2 83.42 208.2 88.88 Z  M 204.84 97.4 L 204.84 97.4 L 204.84 88.88 L 204.84 88.88 Q 204.84 80.18 197.1 80.18 L 197.1 80.18 L 197.1 80.18 Q 189.18 80.18 189.18 88.88 L 189.18 88.88 L 189.18 97.4 L 189.18 97.4 Q 189.18 101 191.31 103.22 L 191.31 103.22 L 191.31 103.22 Q 193.44 105.44 197.13 105.44 L 197.13 105.44 L 197.13 105.44 Q 200.82 105.44 202.83 103.25 L 202.83 103.25 L 202.83 103.25 Q 204.84 101.06 204.84 97.4 Z  M 220.14 106.04 L 220.14 106.04 L 219.18 108.62 L 219.18 108.62 Q 215.82 107.66 214.32 105.56 L 214.32 105.56 L 214.32 105.56 Q 212.82 103.46 212.82 99.92 L 212.82 99.92 L 212.82 65.84 L 216.18 65.84 L 216.18 77.78 L 223.38 77.78 L 221.94 80.96 L 216.18 80.96 L 216.18 99.92 L 216.18 99.92 Q 216.18 104.72 220.14 106.04 Z  M 251.82 88.88 L 251.82 88.88 L 251.82 96.8 L 251.82 96.8 Q 251.82 101.84 249.06 105.14 L 249.06 105.14 L 249.06 105.14 Q 246.3 108.44 240.72 108.44 L 240.72 108.44 L 240.72 108.44 Q 235.14 108.44 232.29 105.11 L 232.29 105.11 L 232.29 105.11 Q 229.44 101.78 229.44 96.8 L 229.44 96.8 L 229.44 88.88 L 229.44 88.88 Q 229.44 83.18 232.35 80.15 L 232.35 80.15 L 232.35 80.15 Q 235.26 77.12 240.6 77.12 L 240.6 77.12 L 240.6 77.12 Q 245.94 77.12 248.88 80.27 L 248.88 80.27 L 248.88 80.27 Q 251.82 83.42 251.82 88.88 Z  M 248.46 97.4 L 248.46 97.4 L 248.46 88.88 L 248.46 88.88 Q 248.46 80.18 240.72 80.18 L 240.72 80.18 L 240.72 80.18 Q 232.8 80.18 232.8 88.88 L 232.8 88.88 L 232.8 97.4 L 232.8 97.4 Q 232.8 101 234.93 103.22 L 234.93 103.22 L 234.93 103.22 Q 237.06 105.44 240.75 105.44 L 240.75 105.44 L 240.75 105.44 Q 244.44 105.44 246.45 103.25 L 246.45 103.25 L 246.45 103.25 Q 248.46 101.06 248.46 97.4 Z  M 272.46 77.78 L 271.56 80.84 L 271.56 80.84 Q 269.28 80.24 266.94 80.24 L 266.94 80.24 L 266.94 80.24 Q 264.6 80.24 262.71 81.29 L 262.71 81.29 L 262.71 81.29 Q 260.82 82.34 260.82 84.32 L 260.82 84.32 L 260.82 107.84 L 257.46 107.84 L 257.46 77.78 L 260.82 77.78 L 260.64 79.88 L 260.64 79.88 Q 263.46 77.3 268.08 77.3 L 268.08 77.3 L 268.08 77.3 Q 270.12 77.3 272.46 77.78 L 272.46 77.78 L 272.46 77.78 Z " fill="rgb(20,20,20)"/></g></g></svg>