<?xml version="1.0" encoding="UTF-8" standalone="no"?>
<!-- Generator: Gravit.io -->
<svg xmlns="http://www.w3.org/2000/svg" xmlns:xlink="http://www.w3.org/1999/xlink" style="isolation:isolate" viewBox="0 0 100 100" width="100" height="100"><path d=" M 0.451 83.339 Q 14.475 84.326 21.192 81.034 Q 24.849 79.242 30.411 74.12 Q 20.704 72.717 16.583 69.511 Q 13.349 66.996 9.669 60.293 L 18.888 60.293 Q 10.491 57.026 7.365 53.379 C 4.984 50.602 3.276 47.808 2.755 44.16 Q 2.526 42.552 2.755 39.551 L 11.974 41.856 L 7.365 37.247 Q 3.657 33.15 2.755 30.333 C 1.752 27.198 2.173 24.318 2.755 21.114 Q 3.215 18.586 5.06 14.2 L 14.278 21.114 Q 23.929 28.892 35.02 32.637 Q 46.111 36.382 48.848 34.942 L 48.848 30.333 Q 48.397 25.82 48.848 23.419 C 49.524 19.813 51.046 16.956 53.457 14.2 C 57.125 10.008 62.099 7.719 67.285 7.287 C 72.47 6.854 76.944 8.769 81.112 11.896 Q 82.951 13.275 85.722 16.505 L 97.245 11.896 L 90.331 21.114 L 99.549 18.81 Q 97.285 23.9 94.94 25.723 Q 93.501 26.842 90.331 28.028 L 90.331 34.942 Q 90.474 39.429 90.331 41.856 C 89.549 55.143 85.654 66.652 76.503 76.425 C 67.116 86.451 55.526 91.194 41.934 92.557 Q 37.899 92.962 30.411 92.557 Q 16.623 90.756 9.669 87.948 Q 6.308 86.591 0.451 83.339 Z " id="Path" fill="rgb(255,255,255)"/></svg>