<svg viewBox="0 0 232 232" width="232pt" height="232pt"><path d=" M 66 10.564 C 61.5 6.064 86 -15.269 86 30.564 C 86 76.397 6 167.397 6 190.564 C 6 213.731 19.833 230.564 36 230.564 C 52.167 230.564 181.833 230.564 196 230.564 C 210.167 230.564 226 214.397 226 190.564 C 226 166.731 146 76.731 146 30.564 C 146 -15.603 169.167 5.731 166 10.564" fill="none" vector-effect="non-scaling-stroke" stroke-width="2" stroke="rgb(120,120,120)" stroke-linejoin="miter" stroke-linecap="square" stroke-miterlimit="3"/><clipPath id="_clipPath_zg340Oi6QQ97UgmGn4PGFwtNRRhXZsu0"><path d=" M 66 10.564 C 61.5 6.064 86 -15.269 86 30.564 C 86 76.397 6 167.397 6 190.564 C 6 213.731 19.833 230.564 36 230.564 C 52.167 230.564 181.833 230.564 196 230.564 C 210.167 230.564 226 214.397 226 190.564 C 226 166.731 146 76.731 146 30.564 C 146 -15.603 169.167 5.731 166 10.564" fill="none" vector-effect="non-scaling-stroke" stroke-width="2" stroke="rgb(120,120,120)" stroke-linejoin="miter" stroke-linecap="square" stroke-miterlimit="3"/></clipPath><g clip-path="url(#_clipPath_zg340Oi6QQ97UgmGn4PGFwtNRRhXZsu0)"><rect x="6" y="121" width="220" height="110" transform="matrix(1,0,0,1,0,0)" fill="rgb(174,199,244)"/></g><path d=" M 66 10.564 C 61.5 6.064 86 -15.269 86 30.564 C 86 76.397 6 167.397 6 190.564 C 6 213.731 19.833 230.564 36 230.564 C 52.167 230.564 181.833 230.564 196 230.564 C 210.167 230.564 226 214.397 226 190.564 C 226 166.731 146 76.731 146 30.564 C 146 -15.603 169.167 5.731 166 10.564" fill="transparent" vector-effect="non-scaling-stroke" stroke-width="2" stroke="rgb(120,120,120)" stroke-linejoin="miter" stroke-linecap="square" stroke-miterlimit="3"/></svg>