<?xml version="1.0" encoding="UTF-8" standalone="no"?>
<!-- Generator: Gravit.io -->
<svg xmlns="http://www.w3.org/2000/svg" xmlns:xlink="http://www.w3.org/1999/xlink" style="isolation:isolate" viewBox="0 0 60 60" width="60" height="60"><defs><clipPath id="_clipPath_8m62cEEF6oZY3oSGhnbFaOczBzooreO5"><rect width="60" height="60"/></clipPath></defs><g clip-path="url(#_clipPath_8m62cEEF6oZY3oSGhnbFaOczBzooreO5)"><ellipse vector-effect="non-scaling-stroke" cx="29.999999999999947" cy="57.08" rx="27.000000000000007" ry="1.0799999999999983" id="shadow" fill="rgb(180,180,180)"/><g id="Group"><path d=" M 22.952 2.867 L 22.952 17.867 L 12.952 40.867 L 46.952 40.867 L 36.952 17.867 L 36.952 2.867 L 22.952 2.867 Z " id="Path" fill="rgb(220,220,220)"/><g id="Group"><path d=" M 51.75 56.608 Q 52.125 55.921 51.75 53.608 L 47.75 42.608 Q 47.124 41.007 46.75 40.608 C 43.937 40.046 17.062 40.108 13.75 40.608 Q 13.155 40.788 12.75 41.608 L 8.75 52.867 Q 7.28 57.038 8.952 56.867 C 15.452 57.172 46.687 57.358 51.75 56.608 Z " id="Path" fill="rgb(250,0,250)"/></g><path d=" M 26.952 19.867 Q 20.89 33.554 14.952 53.867 Q 17.391 53.867 18.952 53.867 Q 24.015 34.804 30.952 19.867 Q 28.513 19.867 26.952 19.867 Z " id="Path" fill="rgb(250,250,250)" fill-opacity="0.4"/><path d=" M 26.952 4.867 L 26.952 17.867 L 29.952 17.867 L 29.952 4.867 L 26.952 4.867 Z " id="Path" fill="rgb(250,250,250)" fill-opacity="0.4"/></g></g></svg>