<?xml version="1.0" encoding="UTF-8" standalone="no"?>
<!-- Generator: Gravit.io -->
<svg xmlns="http://www.w3.org/2000/svg" xmlns:xlink="http://www.w3.org/1999/xlink" style="isolation:isolate" viewBox="0 0 450 250" width="450" height="250"><g/><g/><g><rect x="0" y="29" width="30" height="192" transform="matrix(1,0,0,1,0,0)" fill="rgb(253,253,253)"/><rect x="420" y="29" width="30" height="192" transform="matrix(1,0,0,1,0,0)" fill="rgb(253,253,253)"/><rect x="0" y="0" width="450" height="30" transform="matrix(1,0,0,1,0,0)" fill="rgb(253,253,253)"/><rect x="0" y="220" width="450" height="30" transform="matrix(1,0,0,1,0,0)" fill="rgb(253,253,253)"/><g transform="matrix(0.948,0,0,0.948,289.913,222)"><text transform="matrix(1,0,0,1,0,19.28)" style="font-family:'Advent Pro';font-weight:400;font-size:20px;font-style:normal;fill:#505050;stroke:none;">S </text><text transform="matrix(1,0,0,1,11.776,19.28)" style="font-family:'Advent Pro';font-weight:400;font-size:12px;font-style:normal;fill:#505050;stroke:none;">ep</text></g><g transform="matrix(0.948,0,0,0.948,324.975,222)"><text transform="matrix(1,0,0,1,0,19.28)" style="font-family:'Advent Pro';font-weight:400;font-size:20px;font-style:normal;fill:#505050;stroke:none;">O </text><text transform="matrix(1,0,0,1,13.76,19.28)" style="font-family:'Advent Pro';font-weight:400;font-size:12px;font-style:normal;fill:#505050;stroke:none;">ct</text></g><g transform="matrix(0.948,0,0,0.948,63.429,222)"><text transform="matrix(1,0,0,1,0,19.28)" style="font-family:'Advent Pro';font-weight:400;font-size:20px;font-style:normal;fill:#505050;stroke:none;">F </text><text transform="matrix(1,0,0,1,11.68,19.28)" style="font-family:'Advent Pro';font-weight:400;font-size:12px;font-style:normal;fill:#505050;stroke:none;">eb</text></g><g transform="matrix(0.948,0,0,0.948,95.648,222)"><text transform="matrix(1,0,0,1,0,19.28)" style="font-family:'Advent Pro';font-weight:400;font-size:20px;font-style:normal;fill:#505050;stroke:none;">M </text><text transform="matrix(1,0,0,1,16.66,19.28)" style="font-family:'Advent Pro';font-weight:400;font-size:12px;font-style:normal;fill:#505050;stroke:none;">ar</text></g><g transform="matrix(0.948,0,0,0.948,131.658,222)"><text transform="matrix(1,0,0,1,0,19.28)" style="font-family:'Advent Pro';font-weight:400;font-size:20px;font-style:normal;fill:#505050;stroke:none;">A </text><text transform="matrix(1,0,0,1,13.32,19.28)" style="font-family:'Advent Pro';font-weight:400;font-size:12px;font-style:normal;fill:#505050;stroke:none;">pr</text></g><g transform="matrix(0.948,0,0,0.948,164.825,222)"><text transform="matrix(1,0,0,1,0,19.28)" style="font-family:'Advent Pro';font-weight:400;font-size:20px;font-style:normal;fill:#505050;stroke:none;">M </text><text transform="matrix(1,0,0,1,16.66,19.28)" style="font-family:'Advent Pro';font-weight:400;font-size:12px;font-style:normal;fill:#505050;stroke:none;">ay</text></g><g transform="matrix(0.948,0,0,0.948,202.731,222)"><text transform="matrix(1,0,0,1,0,19.28)" style="font-family:'Advent Pro';font-weight:400;font-size:20px;font-style:normal;fill:#505050;stroke:none;">J </text><text transform="matrix(1,0,0,1,6.7,19.28)" style="font-family:'Advent Pro';font-weight:400;font-size:12px;font-style:normal;fill:#505050;stroke:none;">un</text></g><g transform="matrix(0.948,0,0,0.948,231.16,222)"><text transform="matrix(1,0,0,1,0,19.28)" style="font-family:'Advent Pro';font-weight:400;font-size:20px;font-style:normal;fill:#505050;stroke:none;">J </text><text transform="matrix(1,0,0,1,6.7,19.28)" style="font-family:'Advent Pro';font-weight:400;font-size:12px;font-style:normal;fill:#505050;stroke:none;">ul</text></g><g transform="matrix(0.948,0,0,0.948,255.798,222)"><text transform="matrix(1,0,0,1,0,19.28)" style="font-family:'Advent Pro';font-weight:400;font-size:20px;font-style:normal;fill:#505050;stroke:none;">A </text><text transform="matrix(1,0,0,1,13.32,19.28)" style="font-family:'Advent Pro';font-weight:400;font-size:12px;font-style:normal;fill:#505050;stroke:none;">ug</text></g><g transform="matrix(0.948,0,0,0.948,356.247,222)"><text transform="matrix(1,0,0,1,0,19.28)" style="font-family:'Advent Pro';font-weight:400;font-size:20px;font-style:normal;fill:#505050;stroke:none;">N </text><text transform="matrix(1,0,0,1,14.112,19.28)" style="font-family:'Advent Pro';font-weight:400;font-size:12px;font-style:normal;fill:#505050;stroke:none;">ov</text></g><g transform="matrix(0.948,0,0,0.948,392.257,222)"><text transform="matrix(1,0,0,1,0,19.28)" style="font-family:'Advent Pro';font-weight:400;font-size:20px;font-style:normal;fill:#505050;stroke:none;">D </text><text transform="matrix(1,0,0,1,14.3,19.28)" style="font-family:'Advent Pro';font-weight:400;font-size:12px;font-style:normal;fill:#505050;stroke:none;">ec</text></g><g transform="matrix(0.948,0,0,0.948,35,222)"><text transform="matrix(1,0,0,1,0,19.28)" style="font-family:'Advent Pro';font-weight:400;font-size:20px;font-style:normal;fill:#505050;stroke:none;">J </text><text transform="matrix(1,0,0,1,6.7,19.28)" style="font-family:'Advent Pro';font-weight:400;font-size:12px;font-style:normal;fill:#505050;stroke:none;">an</text></g><g transform="matrix(1,0,0,1,176.5,4)"><text transform="matrix(1,0,0,1,0,19.28)" style="font-family:'Advent Pro';font-weight:400;font-size:20px;font-style:normal;fill:#505050;stroke:none;">Course Load</text></g><g transform="matrix(1,0,0,1,12,204)"><text transform="matrix(1,0,0,1,0,11.568)" style="font-family:'Advent Pro';font-weight:400;font-size:12px;font-style:normal;fill:#505050;stroke:none;">0</text></g><g transform="matrix(0,1,-1,0,24.352,35)"><text transform="matrix(1,0,0,1,0,11.568)" style="font-family:'Advent Pro';font-weight:400;font-size:12px;font-style:normal;fill:#505050;stroke:none;">8</text></g></g></svg>