<?xml version="1.0" encoding="UTF-8" standalone="no"?>
<!-- Generator: Gravit.io -->
<svg xmlns="http://www.w3.org/2000/svg" xmlns:xlink="http://www.w3.org/1999/xlink" style="isolation:isolate" viewBox="0 0 100 100" width="100" height="100"><g id="Group"><g id="Group"><g id="left shoe"><rect x="53.92" y="94.389" width="9.069" height="4.611" transform="matrix(1,0,0,1,0,0)" id="Rectangle" fill="rgb(58,58,58)"/><path d=" M 62.989 94.389 L 62.989 94.389 C 65.958 94.389 68.369 95.422 68.369 96.694 L 68.369 96.694 C 68.369 97.967 65.958 99 62.989 99 L 62.989 99 C 60.019 99 57.609 97.967 57.609 96.694 L 57.609 96.694 C 57.609 95.422 60.019 94.389 62.989 94.389 Z " id="Path" fill="rgb(58,58,58)"/></g><g id="right shoe"><rect x="37.011" y="94.389" width="9.069" height="4.611" transform="matrix(1,0,0,1,0,0)" id="Rectangle" fill="rgb(58,58,58)"/><path d=" M 37.165 94.389 L 37.165 94.389 C 40.134 94.389 42.545 95.422 42.545 96.694 L 42.545 96.694 C 42.545 97.967 40.134 99 37.165 99 L 37.165 99 C 34.196 99 31.785 97.967 31.785 96.694 L 31.785 96.694 C 31.785 95.422 34.196 94.389 37.165 94.389 Z " id="Path" fill="rgb(58,58,58)"/></g><rect x="54.535" y="63.492" width="8.608" height="30.743" transform="matrix(1,0,0,1,0,0)" id="left leg" fill="rgb(80,80,80)"/><rect x="37.011" y="63.492" width="8.608" height="30.743" transform="matrix(1,0,0,1,0,0)" id="right leg" fill="rgb(80,80,80)"/><rect x="37.011" y="55.653" width="26.131" height="7.686" transform="matrix(1,0,0,1,0,0)" id="waist" fill="rgb(80,80,80)"/><g id="belt"><rect x="37.011" y="57.344" width="26.131" height="1.23" transform="matrix(1,0,0,1,0,0)" id="Rectangle" fill="rgb(58,58,58)"/><path d=" M 48.309 57.113 L 50.307 57.113 L 50.307 58.804 L 48.309 58.804 L 48.309 57.113 Z  M 48.463 57.267 L 50.154 57.267 L 50.154 58.65 L 48.463 58.65 L 48.463 57.267 Z " fill-rule="evenodd" id="Compound Path" fill="rgb(185,185,185)"/><path d=" M 49.347 57.882 L 49.424 57.882 L 49.424 58.035 L 49.347 58.035 L 48.232 58.035 L 48.155 58.035 L 48.155 57.882 L 48.232 57.882 L 49.347 57.882 Z " id="Path" fill="rgb(185,185,185)"/></g><g id="shirt"><rect x="36.145" y="22.444" width="27.668" height="33.817" transform="matrix(1,0,0,1,0,0)" id="shirt color" fill="rgb(74,134,232)"/><polygon points="48.596,22.444,51.977,22.446,50.284,25.374" id="neck" fill="rgb(229,191,191)"/><path d=" M 49.748 55.953 L 49.748 56.029 L 49.594 56.029 L 49.594 55.953 L 49.594 25.21 L 49.594 25.133 L 49.748 25.133 L 49.748 25.21 L 49.748 55.953 Z " id="line" fill="rgb(67,121,209)"/><g id="buttons"><circle vector-effect="non-scaling-stroke" cx="50.5939523260287" cy="27.97737662778937" r="0.6148537356086479" id="Ellipse" fill="rgb(52,94,162)"/><circle vector-effect="non-scaling-stroke" cx="50.5939523260287" cy="34.125913983875876" r="0.6148537356086479" id="Ellipse" fill="rgb(52,94,162)"/><circle vector-effect="non-scaling-stroke" cx="50.5939523260287" cy="40.274451339962354" r="0.6148537356086479" id="Ellipse" fill="rgb(52,94,162)"/><circle vector-effect="non-scaling-stroke" cx="50.5939523260287" cy="46.42298869604886" r="0.6148537356086479" id="Ellipse" fill="rgb(52,94,162)"/><circle vector-effect="non-scaling-stroke" cx="50.5939523260287" cy="52.57152605213537" r="0.6148537356086479" id="Ellipse" fill="rgb(52,94,162)"/></g><path d=" M 52.525 22.444 L 52.805 26.639 L 50.392 25.381 L 52.056 22.444 L 52.525 22.444 Z " id="left collar" fill="rgb(67,121,209)" vector-effect="non-scaling-stroke" stroke-width="1" stroke="rgb(67,121,209)" stroke-linejoin="miter" stroke-linecap="square" stroke-miterlimit="3"/><path d=" M 48.515 22.444 L 50.244 25.354 L 47.858 26.662 L 48.052 22.444 L 48.515 22.444 Z " id="right collar" fill="rgb(67,121,209)" vector-effect="non-scaling-stroke" stroke-width="1" stroke="rgb(67,121,209)" stroke-linejoin="miter" stroke-linecap="square" stroke-miterlimit="3"/></g><path d=" M 63.862 56.191 L 53.689 56.191 C 53.876 56.525 53.957 56.685 54.227 57.139 C 54.498 57.593 54.406 57.46 54.595 57.771 Q 54.784 58.082 55.245 58.561 L 55.657 59.035 L 63.862 59.035 L 63.862 56.191 Z " id="left bottom flap" fill="rgb(230,230,230)"/><path d=" M 36.197 56.191 L 46.311 56.191 Q 46.105 56.698 45.834 57.164 C 45.563 57.631 45.656 57.494 45.467 57.813 Q 45.278 58.133 44.817 58.625 L 44.404 59.111 L 36.197 59.111 L 36.197 56.191 Z " id="right bottom flap" fill="rgb(230,230,230)"/><path d=" M 64.163 22.347 L 63.865 56.582 L 53.847 56.454 C 53.407 55.55 53.198 54.985 52.92 53.95 C 52.644 52.924 52.643 52.882 52.434 51.216 C 52.225 49.551 52.201 48.271 52.39 46.424 C 52.543 44.935 52.707 44.098 53.116 42.722 L 61.55 22.373" id="left flap" fill="rgb(230,230,230)"/><path d=" M 35.991 22.333 L 36.204 56.568 L 46.222 56.465 C 46.665 55.561 46.875 54.997 47.156 53.963 C 47.434 52.938 47.436 52.895 47.649 51.23 C 47.862 49.565 47.888 48.286 47.704 46.438 C 47.555 44.949 47.393 44.111 46.988 42.735 L 38.604 22.365" id="right flap" fill="rgb(230,230,230)"/><path d=" M 61.499 22.374 L 63.756 26.919 L 60.174 28.549 L 61.378 30.593 L 54.073 40.546 L 61.499 22.374 Z  M 61.513 22.747 L 63.547 26.845 L 59.956 28.479 L 61.193 30.584 L 54.688 39.448 L 61.513 22.747 Z " id="left lapel border" fill="rgb(210,210,210)"/><path d=" M 61.404 22.528 L 63.513 26.825 L 59.925 28.475 L 61.157 30.598 L 54.304 39.877 L 61.404 22.528 Z  M 61.416 22.901 L 63.305 26.75 L 59.707 28.406 L 60.974 30.587 L 54.914 38.792 L 61.416 22.901 Z " id="left lapel" fill="rgb(224,224,224)"/><path d=" M 46.016 40.584 L 38.757 30.599 L 39.969 28.561 L 36.396 26.915 L 38.673 22.38 L 46.016 40.584 Z  M 45.407 39.485 L 38.94 30.59 L 40.188 28.493 L 36.604 26.842 L 38.657 22.754 L 45.407 39.485 Z " id="right lapel border" fill="rgb(210,210,210)"/><path d=" M 45.705 39.86 L 39.014 30.53 L 40.282 28.447 L 36.658 26.836 L 38.73 22.712 L 45.705 39.86 Z  M 45.073 38.715 L 39.199 30.522 L 40.505 28.378 L 36.867 26.761 L 38.714 23.084 L 45.073 38.715 Z " id="right lapel" fill="rgb(224,224,224)"/><circle vector-effect="non-scaling-stroke" cx="68.06132848350407" cy="46.891145907167" r="3.0742686780432535" id="left hand" fill="rgb(229,191,191)"/><rect x="64.987" y="25.064" width="6.149" height="21.52" transform="matrix(1,0,0,1,0,0)" id="left arm" fill="rgb(230,230,230)"/><circle vector-effect="non-scaling-stroke" cx="68.06132848350407" cy="25.217551726962085" r="3.0742686780432535" id="left shoulder" fill="rgb(230,230,230)"/><circle vector-effect="non-scaling-stroke" cx="31.93867151649593" cy="46.891145907167" r="3.0742686780432464" id="right hand" fill="rgb(229,191,191)"/><rect x="28.864" y="25.064" width="6.149" height="21.52" transform="matrix(1,0,0,1,0,0)" id="right arm" fill="rgb(230,230,230)"/><circle vector-effect="non-scaling-stroke" cx="31.93867151649593" cy="24.756411425255607" r="3.0742686780432464" id="right shoulder" fill="rgb(230,230,230)"/><g id="pockets"><rect x="55.513" y="50.112" width="6.149" height="0.615" transform="matrix(1,0,0,1,0,0)" id="left pocket" fill="rgb(228,228,228)" vector-effect="non-scaling-stroke" stroke-width="1" stroke="rgb(220,220,220)" stroke-linejoin="miter" stroke-linecap="square" stroke-miterlimit="2"/><rect x="37.989" y="50.112" width="6.149" height="0.615" transform="matrix(1,0,0,1,0,0)" id="right pocket" fill="rgb(228,228,228)" vector-effect="non-scaling-stroke" stroke-width="1" stroke="rgb(220,220,220)" stroke-linejoin="miter" stroke-linecap="square" stroke-miterlimit="2"/><rect x="58.587" y="34.741" width="3.074" height="0.307" transform="matrix(1,0,0,1,0,0)" id="top pocket" fill="rgb(222,222,222)" vector-effect="non-scaling-stroke" stroke-width="1" stroke="rgb(220,220,220)" stroke-linejoin="miter" stroke-linecap="square" stroke-miterlimit="2"/></g><g id="pens"><g id="black pen"><rect x="59.509" y="33.434" width="0.307" height="1.23" transform="matrix(1,0,0,1,0,0)" id="Rectangle" fill="rgb(80,80,80)"/><rect x="59.586" y="34.664" width="0.154" height="0.615" transform="matrix(1,0,0,1,0,0)" id="Rectangle" fill="rgb(80,80,80)"/></g><g id="green pen"><rect x="60.124" y="33.434" width="0.307" height="1.23" transform="matrix(1,0,0,1,0,0)" id="Rectangle" fill="rgb(0,140,0)"/><rect x="60.201" y="34.664" width="0.154" height="0.615" transform="matrix(1,0,0,1,0,0)" id="Rectangle" fill="rgb(0,140,0)"/></g><g id="red pen"><rect x="60.816" y="34.664" width="0.154" height="0.615" transform="matrix(1,0,0,1,0,0)" id="Rectangle" fill="rgb(180,0,0)"/><rect x="60.739" y="33.434" width="0.307" height="1.23" transform="matrix(1,0,0,1,0,0)" id="Rectangle" fill="rgb(180,0,0)"/></g></g><circle vector-effect="non-scaling-stroke" cx="50.15371343390214" cy="12.843620297838015" r="8.838522449374338" id="face" fill="rgb(229,191,191)"/><g id="mouth"><path d=" M 53.299 17.609 C 53.273 18.885 51.94 19.914 50.302 19.914 C 48.665 19.914 47.332 18.885 47.306 17.609 L 53.299 17.609 L 53.299 17.609 Z " id="Path" fill="rgb(180,100,100)"/><path d=" M 52.818 17.916 C 52.797 18.855 51.69 19.612 50.33 19.612 C 48.97 19.612 47.863 18.855 47.842 17.916 L 52.818 17.916 L 52.818 17.916 Z " id="Path" fill="rgb(248,248,248)"/></g><g id="eyes"><g id="right eye"><path d=" M 44.543 11.998 C 44.543 11.503 44.891 11.23 45.773 11.23 C 46.655 11.23 48.058 11.454 48.078 11.998 C 48.096 12.493 47.116 12.767 46.234 12.767 C 45.352 12.767 44.543 12.493 44.543 11.998 Z " id="Path" fill="rgb(230,230,230)"/><path d=" M 46.541 11.23 C 46.73 11.369 46.849 11.593 46.849 11.844 C 46.849 12.269 46.504 12.613 46.08 12.613 C 45.656 12.613 45.312 12.269 45.312 11.844 C 45.312 11.593 45.433 11.369 45.622 11.23 L 46.541 11.23 Z " id="Path" fill="rgb(170,100,0)"/><circle vector-effect="non-scaling-stroke" cx="46.08030743549486" cy="11.844482977473973" r="0.15371343390216197" id="Ellipse" fill="rgb(128,77,0)"/><circle vector-effect="non-scaling-stroke" cx="46.54144773720131" cy="11.53705610966965" r="0.15371343390216197" id="Ellipse" fill="rgb(230,230,230)"/></g><g id="left eye"><path d=" M 55.764 11.998 C 55.764 11.503 55.417 11.23 54.535 11.23 C 53.653 11.23 52.249 11.454 52.229 11.998 C 52.211 12.493 53.191 12.767 54.074 12.767 C 54.956 12.767 55.764 12.493 55.764 11.998 Z " id="Path" fill="rgb(230,230,230)"/><path d=" M 53.766 11.23 C 53.577 11.369 53.459 11.593 53.459 11.844 C 53.459 12.269 53.803 12.613 54.227 12.613 C 54.651 12.613 54.996 12.269 54.996 11.844 C 54.996 11.593 54.874 11.369 54.686 11.23 L 53.766 11.23 Z " id="Path" fill="rgb(170,100,0)"/><circle vector-effect="non-scaling-stroke" cx="54.22711943230942" cy="11.844482977473973" r="0.15371343390216197" id="Ellipse" fill="rgb(128,77,0)"/><circle vector-effect="non-scaling-stroke" cx="54.68825973401593" cy="11.53705610966965" r="0.15371343390216197" id="Ellipse" fill="rgb(230,230,230)"/></g></g><g id="glasses"><path d=" M 43.808 10.154 L 48.352 10.154 C 48.606 10.154 48.849 10.255 49.029 10.433 C 49.207 10.613 49.308 10.856 49.308 11.11 L 49.308 12.579 C 49.308 12.833 49.207 13.076 49.029 13.256 C 48.849 13.434 48.606 13.535 48.352 13.535 L 43.808 13.535 C 43.555 13.535 43.312 13.434 43.132 13.256 C 42.954 13.076 42.852 12.833 42.852 12.579 L 42.852 11.11 C 42.852 10.856 42.954 10.613 43.132 10.433 C 43.312 10.255 43.555 10.154 43.808 10.154 Z  M 43.808 10.461 L 48.352 10.461 C 48.524 10.461 48.689 10.529 48.81 10.652 C 48.933 10.773 49.001 10.938 49.001 11.11 L 49.001 12.579 C 49.001 12.751 48.933 12.916 48.81 13.037 C 48.689 13.16 48.524 13.228 48.352 13.228 L 43.808 13.228 C 43.636 13.228 43.472 13.16 43.35 13.037 C 43.227 12.916 43.16 12.751 43.16 12.579 L 43.16 11.11 C 43.16 10.938 43.227 10.773 43.35 10.652 C 43.472 10.529 43.636 10.461 43.808 10.461 Z " fill-rule="evenodd" id="Compound Path" fill="rgb(50,50,50)"/><path d=" M 51.802 10.154 L 56.345 10.154 C 56.599 10.154 56.842 10.255 57.022 10.433 C 57.2 10.613 57.301 10.856 57.301 11.11 L 57.301 12.579 C 57.301 12.833 57.2 13.076 57.022 13.256 C 56.842 13.434 56.599 13.535 56.345 13.535 L 51.802 13.535 C 51.548 13.535 51.305 13.434 51.125 13.256 C 50.947 13.076 50.845 12.833 50.845 12.579 L 50.845 11.11 C 50.845 10.856 50.947 10.613 51.125 10.433 C 51.305 10.255 51.548 10.154 51.802 10.154 Z  M 51.802 10.461 L 56.345 10.461 C 56.517 10.461 56.682 10.529 56.803 10.652 C 56.926 10.773 56.994 10.938 56.994 11.11 L 56.994 12.579 C 56.994 12.751 56.926 12.916 56.803 13.037 C 56.682 13.16 56.517 13.228 56.345 13.228 L 51.802 13.228 C 51.629 13.228 51.465 13.16 51.343 13.037 C 51.22 12.916 51.153 12.751 51.153 12.579 L 51.153 11.11 C 51.153 10.938 51.22 10.773 51.343 10.652 C 51.465 10.529 51.629 10.461 51.802 10.461 Z " fill-rule="evenodd" id="Compound Path" fill="rgb(50,50,50)"/><path d=" M 49.396 11.356 L 49.27 11.443 L 49.095 11.191 L 49.221 11.104 C 49.29 11.054 49.361 11.01 49.434 10.967 C 49.493 10.933 49.554 10.902 49.617 10.875 C 49.691 10.842 49.768 10.816 49.846 10.796 C 49.909 10.779 49.975 10.77 50.042 10.768 C 50.109 10.767 50.178 10.773 50.244 10.787 C 50.326 10.804 50.406 10.827 50.483 10.858 C 50.552 10.885 50.621 10.918 50.687 10.954 C 50.77 10.999 50.852 11.048 50.932 11.102 L 51.059 11.188 L 50.887 11.443 L 50.759 11.357 C 50.689 11.31 50.615 11.265 50.54 11.223 C 50.484 11.194 50.427 11.167 50.369 11.144 C 50.309 11.119 50.246 11.101 50.183 11.088 C 50.138 11.079 50.094 11.074 50.049 11.076 C 50.006 11.077 49.963 11.084 49.922 11.094 C 49.859 11.11 49.799 11.13 49.74 11.156 C 49.688 11.179 49.637 11.205 49.588 11.233 C 49.522 11.271 49.459 11.313 49.396 11.356 Z " id="Path" fill="rgb(50,50,50)"/></g><path d=" M 48.182 6.952 L 45.896 9.52 L 46.503 7.736 C 46.443 7.803 46.383 7.869 46.322 7.936 C 46.203 8.063 46.082 8.186 45.956 8.306 C 45.791 8.463 45.619 8.609 45.439 8.746 C 45.315 8.838 45.184 8.921 45.047 8.992 C 45.001 9.016 44.955 9.038 44.909 9.059 C 44.854 9.084 44.797 9.107 44.74 9.128 C 44.579 9.19 44.416 9.242 44.25 9.287 C 43.997 9.353 43.744 9.411 43.489 9.46 C 43.464 9.465 43.44 9.457 43.421 9.44 C 43.403 9.422 43.395 9.397 43.398 9.373 L 43.667 7.765 L 42.005 9.427 C 41.952 9.6 41.902 9.775 41.853 9.951 C 41.827 10.049 41.802 10.147 41.782 10.246 C 41.746 10.421 41.715 10.598 41.692 10.776 C 41.667 10.954 41.647 11.134 41.63 11.314 C 41.63 11.314 41.63 11.314 41.63 11.314 L 41.629 11.32 C 41.629 11.322 41.629 11.322 41.629 11.322 C 41.607 11.52 41.589 11.72 41.572 11.92 C 41.557 12.113 41.547 12.307 41.547 12.501 C 41.547 12.588 41.549 12.676 41.553 12.764 C 41.555 12.821 41.56 12.876 41.564 12.933 C 41.569 13.002 41.577 13.071 41.584 13.14 C 41.607 13.334 41.636 13.526 41.673 13.718 C 41.739 14.072 41.815 14.422 41.901 14.77 C 41.67 14.637 41.446 14.493 41.228 14.341 C 41.097 14.249 40.971 14.15 40.849 14.047 C 40.696 13.917 40.553 13.774 40.421 13.621 C 40.327 13.511 40.245 13.391 40.179 13.263 C 40.149 13.208 40.122 13.15 40.099 13.09 C 40.072 13.02 40.047 12.95 40.026 12.877 C 40.009 12.824 39.995 12.77 39.982 12.716 C 39.967 12.655 39.955 12.593 39.944 12.532 C 39.91 12.352 39.887 12.17 39.875 11.989 C 39.858 11.735 39.852 11.483 39.855 11.231 C 39.841 10.875 39.835 10.518 39.838 10.161 C 39.84 9.88 39.85 9.599 39.867 9.319 C 39.89 8.956 39.932 8.597 39.99 8.24 C 40.032 7.994 40.09 7.753 40.165 7.517 C 40.199 7.416 40.235 7.316 40.275 7.218 C 40.321 7.101 40.371 6.984 40.425 6.87 C 40.465 6.787 40.505 6.704 40.548 6.623 C 40.596 6.531 40.645 6.438 40.696 6.348 C 40.842 6.085 41 5.827 41.166 5.575 C 41.391 5.235 41.626 4.901 41.869 4.574 C 41.873 4.568 41.879 4.562 41.885 4.557 L 43.333 3.544 L 41.686 2.391 L 46.231 2.391 L 45.149 1 L 48.706 1.161 L 51.78 2.082 L 54.985 1.601 L 54.513 2.545 L 57.913 2.545 L 56.404 3.383 L 58.723 4.434 C 58.732 4.439 58.742 4.445 58.748 4.452 C 58.848 4.557 58.946 4.665 59.043 4.774 C 59.118 4.861 59.194 4.949 59.266 5.04 C 59.357 5.155 59.444 5.273 59.526 5.396 C 59.584 5.481 59.636 5.57 59.682 5.661 C 59.713 5.721 59.741 5.78 59.767 5.842 C 59.796 5.916 59.824 5.991 59.85 6.066 C 59.868 6.122 59.885 6.177 59.901 6.234 C 59.919 6.297 59.936 6.362 59.951 6.425 C 59.996 6.611 60.033 6.798 60.061 6.987 C 60.099 7.245 60.13 7.504 60.153 7.763 C 60.194 8.145 60.231 8.527 60.265 8.91 C 60.283 9.118 60.297 9.327 60.306 9.536 C 60.316 9.752 60.32 9.969 60.32 10.186 C 60.32 10.586 60.316 10.987 60.306 11.385 C 60.3 11.54 60.291 11.694 60.276 11.848 C 60.265 11.967 60.25 12.086 60.228 12.206 C 60.202 12.359 60.165 12.51 60.117 12.659 C 60.085 12.764 60.042 12.864 59.988 12.957 C 59.964 13.003 59.934 13.048 59.904 13.091 C 59.868 13.142 59.832 13.189 59.792 13.236 C 59.762 13.271 59.732 13.303 59.699 13.337 C 59.664 13.372 59.629 13.409 59.59 13.443 C 59.481 13.545 59.366 13.64 59.244 13.726 C 59.034 13.88 58.812 14.02 58.585 14.147 C 58.648 13.83 58.7 13.512 58.74 13.191 C 58.757 13.05 58.768 12.908 58.769 12.765 L 58.769 12.719 C 58.769 12.582 58.76 12.446 58.745 12.31 C 58.729 12.177 58.709 12.043 58.688 11.909 C 58.66 11.737 58.636 11.565 58.616 11.393 C 58.597 11.217 58.583 11.044 58.574 10.87 C 58.568 10.729 58.557 10.587 58.542 10.446 C 58.526 10.301 58.5 10.16 58.463 10.018 C 58.45 9.965 58.434 9.911 58.416 9.857 C 58.394 9.792 58.371 9.728 58.347 9.663 C 58.276 9.482 58.194 9.304 58.104 9.13 C 57.964 8.864 57.815 8.603 57.656 8.348 L 57.022 7.461 L 57.235 8.584 C 57.241 8.617 57.226 8.65 57.197 8.666 C 57.168 8.683 57.132 8.678 57.108 8.655 C 56.8 8.367 56.496 8.075 56.195 7.78 C 56.03 7.619 55.87 7.454 55.715 7.285 C 55.572 7.13 55.434 6.972 55.297 6.812 C 55.134 6.618 54.973 6.425 54.814 6.229 L 55.248 7.591 L 55.983 8.819 L 54.044 7.762 C 54.043 7.76 54.041 7.76 54.04 7.759 C 53.837 7.63 53.637 7.497 53.437 7.365 C 53.328 7.293 53.22 7.218 53.114 7.142 L 52.996 7.058 C 52.822 6.939 52.655 6.812 52.493 6.677 C 52.459 6.647 52.426 6.617 52.393 6.586 C 52.352 6.549 52.313 6.511 52.275 6.471 C 52.166 6.363 52.061 6.251 51.961 6.134 C 51.903 6.066 51.845 5.999 51.788 5.931 L 52.187 7.102 L 52.613 7.968 C 52.627 7.999 52.621 8.035 52.596 8.059 C 52.57 8.082 52.533 8.085 52.504 8.068 C 52.34 7.968 52.178 7.865 52.02 7.759 C 51.894 7.674 51.772 7.585 51.651 7.493 C 51.5 7.376 51.354 7.252 51.216 7.119 C 51.117 7.026 51.028 6.926 50.945 6.818 C 50.916 6.78 50.887 6.74 50.859 6.698 C 50.825 6.649 50.793 6.598 50.762 6.548 C 50.676 6.405 50.598 6.257 50.526 6.105 C 50.44 5.922 50.358 5.736 50.281 5.548 C 50.108 5.847 49.928 6.143 49.743 6.435 C 49.628 6.618 49.505 6.797 49.377 6.972 C 49.274 7.11 49.168 7.247 49.058 7.381 C 48.855 7.624 48.647 7.865 48.438 8.102 C 48.417 8.125 48.386 8.134 48.357 8.125 C 48.328 8.115 48.308 8.089 48.303 8.059 L 48.182 6.952 Z  M 48.297 6.592 L 46.286 8.85 L 46.775 7.411 C 46.787 7.376 46.772 7.338 46.74 7.319 C 46.707 7.302 46.667 7.31 46.643 7.338 C 46.503 7.505 46.359 7.67 46.209 7.831 C 46.093 7.956 45.973 8.077 45.85 8.195 C 45.69 8.346 45.522 8.489 45.346 8.623 C 45.23 8.71 45.106 8.789 44.977 8.856 C 44.934 8.878 44.891 8.898 44.848 8.918 C 44.794 8.941 44.74 8.964 44.685 8.985 C 44.529 9.044 44.371 9.096 44.21 9.138 C 43.997 9.194 43.784 9.245 43.569 9.288 L 43.898 7.316 L 41.882 9.331 C 41.875 9.339 41.867 9.351 41.864 9.362 C 41.809 9.545 41.755 9.728 41.706 9.911 C 41.678 10.011 41.653 10.112 41.632 10.215 C 41.593 10.393 41.563 10.575 41.538 10.756 C 41.515 10.936 41.495 11.117 41.477 11.299 L 41.477 11.305 C 41.454 11.505 41.435 11.706 41.418 11.908 C 41.403 12.104 41.395 12.303 41.394 12.501 C 41.394 12.59 41.395 12.681 41.4 12.77 C 41.401 12.828 41.406 12.887 41.41 12.945 C 41.417 13.016 41.424 13.086 41.432 13.157 C 41.455 13.355 41.486 13.552 41.523 13.747 C 41.566 13.983 41.615 14.216 41.667 14.448 C 41.549 14.373 41.432 14.296 41.317 14.215 C 41.189 14.126 41.066 14.03 40.948 13.929 C 40.802 13.804 40.663 13.668 40.537 13.52 C 40.451 13.42 40.376 13.309 40.315 13.193 C 40.287 13.14 40.264 13.088 40.242 13.033 C 40.216 12.968 40.193 12.9 40.173 12.834 C 40.158 12.784 40.144 12.733 40.132 12.681 C 40.118 12.622 40.105 12.564 40.095 12.504 C 40.062 12.33 40.041 12.155 40.029 11.978 C 40.012 11.729 40.006 11.479 40.009 11.228 C 39.995 10.873 39.989 10.518 39.992 10.163 C 39.993 9.885 40.004 9.606 40.021 9.328 C 40.044 8.972 40.084 8.617 40.142 8.264 C 40.182 8.028 40.239 7.793 40.313 7.564 C 40.344 7.467 40.379 7.37 40.416 7.276 C 40.462 7.161 40.513 7.047 40.565 6.935 C 40.603 6.853 40.643 6.773 40.685 6.694 C 40.731 6.603 40.78 6.512 40.829 6.423 C 40.975 6.163 41.129 5.908 41.294 5.659 C 41.515 5.325 41.746 4.997 41.984 4.675 L 43.601 3.544 L 42.174 2.545 L 46.545 2.545 L 45.475 1.169 L 48.681 1.315 L 51.769 2.239 L 54.714 1.798 L 54.264 2.699 L 57.32 2.699 L 56.062 3.398 L 58.646 4.569 C 58.742 4.669 58.835 4.772 58.926 4.875 C 59.001 4.961 59.075 5.047 59.146 5.136 C 59.235 5.247 59.32 5.362 59.4 5.481 C 59.453 5.562 59.503 5.645 59.546 5.731 C 59.575 5.787 59.601 5.844 59.624 5.9 C 59.653 5.971 59.679 6.043 59.704 6.116 C 59.721 6.168 59.738 6.222 59.753 6.275 C 59.77 6.337 59.787 6.398 59.802 6.461 C 59.845 6.643 59.881 6.826 59.908 7.01 C 59.947 7.265 59.978 7.522 59.999 7.779 C 60.041 8.16 60.079 8.541 60.111 8.924 C 60.13 9.13 60.144 9.336 60.153 9.542 C 60.162 9.757 60.167 9.972 60.167 10.186 C 60.167 10.584 60.162 10.984 60.153 11.382 C 60.147 11.532 60.137 11.683 60.124 11.832 C 60.113 11.949 60.097 12.064 60.077 12.18 C 60.051 12.326 60.016 12.47 59.971 12.613 C 59.942 12.707 59.902 12.798 59.855 12.884 C 59.832 12.924 59.807 12.964 59.779 13.003 C 59.747 13.048 59.712 13.093 59.675 13.136 C 59.647 13.168 59.619 13.199 59.59 13.229 C 59.556 13.265 59.521 13.297 59.486 13.331 C 59.381 13.428 59.27 13.518 59.155 13.601 C 59.038 13.686 58.92 13.766 58.799 13.841 C 58.834 13.632 58.866 13.422 58.892 13.211 C 58.911 13.063 58.92 12.916 58.923 12.768 C 58.923 12.768 58.923 12.767 58.923 12.767 L 58.923 12.721 C 58.923 12.721 58.923 12.721 58.923 12.719 C 58.923 12.576 58.914 12.433 58.897 12.292 C 58.882 12.157 58.862 12.02 58.84 11.884 C 58.812 11.715 58.788 11.545 58.768 11.374 C 58.751 11.203 58.737 11.033 58.728 10.861 C 58.72 10.718 58.709 10.573 58.694 10.429 C 58.677 10.278 58.651 10.128 58.613 9.981 C 58.597 9.923 58.582 9.866 58.562 9.809 C 58.54 9.742 58.516 9.674 58.49 9.608 C 58.417 9.42 58.333 9.238 58.241 9.059 C 58.098 8.789 57.947 8.524 57.786 8.264 C 57.786 8.263 57.784 8.261 57.783 8.261 L 56.739 6.804 L 57.04 8.381 C 56.793 8.148 56.547 7.911 56.302 7.671 C 56.141 7.511 55.983 7.348 55.829 7.181 C 55.687 7.027 55.549 6.872 55.415 6.712 C 55.165 6.417 54.919 6.117 54.676 5.814 C 54.653 5.787 54.613 5.777 54.581 5.796 C 54.548 5.813 54.531 5.851 54.544 5.887 L 55.106 7.654 L 55.561 8.414 L 54.12 7.628 C 53.92 7.499 53.72 7.37 53.522 7.238 C 53.414 7.165 53.308 7.092 53.203 7.016 C 53.203 7.016 53.203 7.016 53.203 7.016 L 53.083 6.932 C 53.083 6.932 53.083 6.932 53.083 6.932 C 52.914 6.815 52.75 6.692 52.593 6.56 C 52.561 6.532 52.529 6.503 52.498 6.474 C 52.459 6.437 52.421 6.4 52.384 6.363 C 52.278 6.257 52.175 6.146 52.078 6.034 C 51.926 5.86 51.78 5.682 51.637 5.502 C 51.614 5.473 51.572 5.464 51.54 5.482 C 51.506 5.499 51.491 5.539 51.503 5.575 L 52.044 7.162 L 52.356 7.794 C 52.272 7.742 52.189 7.687 52.106 7.631 C 51.983 7.548 51.863 7.461 51.745 7.371 C 51.597 7.258 51.456 7.136 51.322 7.007 C 51.23 6.92 51.145 6.826 51.067 6.726 C 51.039 6.689 51.011 6.651 50.987 6.612 C 50.955 6.566 50.924 6.517 50.895 6.469 C 50.81 6.329 50.735 6.186 50.666 6.04 C 50.535 5.764 50.415 5.481 50.309 5.193 C 50.085 5.585 49.852 5.973 49.613 6.354 C 49.499 6.534 49.381 6.709 49.254 6.88 C 49.153 7.018 49.047 7.152 48.939 7.282 C 48.775 7.481 48.607 7.676 48.437 7.869 L 48.297 6.592 Z " id="hair border" fill="rgb(150,90,0)"/><path d=" M 48.297 6.445 L 46.356 8.693 L 46.798 7.118 Q 45.726 8.326 44.973 8.732 Q 44.526 8.973 43.628 9.231 L 43.878 7.31 L 41.783 9.327 Q 41.62 9.935 41.553 10.269 C 41.484 10.61 41.437 10.902 41.399 11.249 C 41.342 11.773 41.312 12.221 41.341 12.748 Q 41.373 13.309 41.591 14.323 Q 40.647 13.683 40.362 13.132 Q 40.048 12.526 40.112 11.23 Q 39.997 8.814 40.381 7.579 Q 40.73 6.454 41.995 4.697 L 43.705 3.486 L 42.245 2.526 L 46.683 2.583 L 45.549 1.161 L 48.662 1.354 L 51.736 2.295 L 54.638 1.815 L 54.234 2.699 L 57.155 2.718 L 56.002 3.371 L 58.596 4.62 Q 59.273 5.294 59.518 5.754 Q 59.869 6.41 59.979 7.81 Q 60.089 8.917 60.114 9.52 Q 60.139 10.154 60.114 11.326 Q 60.071 12.34 59.806 12.805 Q 59.568 13.223 58.846 13.727 Q 58.974 13.008 58.98 12.613 C 58.987 12.157 58.906 11.866 58.846 11.326 C 58.786 10.786 58.797 10.429 58.673 9.961 Q 58.502 9.318 57.866 8.271 L 56.828 6.887 L 56.963 8.232 Q 56.215 7.51 55.829 7.099 Q 55.335 6.572 54.484 5.542 L 55.003 7.617 L 55.425 8.251 L 54.253 7.617 Q 53.654 7.292 53.35 7.079 C 53.06 6.876 52.829 6.681 52.563 6.445 Q 52.152 6.083 51.467 5.331 L 51.948 6.983 L 52.236 7.656 Q 51.437 7.091 51.102 6.676 Q 50.712 6.192 50.295 5.1 Q 49.627 6.253 49.2 6.83 Q 48.957 7.158 48.47 7.733 L 48.297 6.445 Z  M 51.869 7.19 C 51.819 7.15 51.769 7.11 51.72 7.069 C 51.613 6.98 51.51 6.885 51.41 6.786 C 51.344 6.722 51.281 6.652 51.222 6.579 C 51.19 6.54 51.161 6.5 51.131 6.459 C 51.095 6.408 51.061 6.356 51.028 6.302 C 50.933 6.15 50.849 5.991 50.772 5.829 C 50.604 5.472 50.455 5.108 50.326 4.737 C 50.054 5.217 49.771 5.69 49.476 6.156 C 49.35 6.356 49.216 6.549 49.076 6.739 C 48.996 6.846 48.915 6.952 48.83 7.057 C 48.746 7.16 48.661 7.264 48.575 7.367 L 48.405 6.087 L 46.691 8.071 L 46.946 7.16 C 46.966 7.091 46.935 7.017 46.872 6.983 C 46.809 6.949 46.731 6.963 46.683 7.015 C 46.529 7.189 46.373 7.36 46.211 7.526 C 46.085 7.655 45.954 7.781 45.822 7.904 C 45.65 8.062 45.472 8.211 45.286 8.349 C 45.163 8.442 45.035 8.525 44.9 8.597 C 44.863 8.617 44.826 8.635 44.788 8.654 C 44.742 8.675 44.694 8.697 44.646 8.718 C 44.511 8.777 44.374 8.831 44.234 8.878 C 44.094 8.927 43.953 8.974 43.812 9.017 L 44.087 6.895 L 41.677 9.216 C 41.657 9.236 41.643 9.261 41.635 9.287 C 41.58 9.492 41.527 9.694 41.478 9.9 C 41.451 10.013 41.424 10.125 41.401 10.239 C 41.335 10.568 41.283 10.898 41.246 11.232 C 41.203 11.599 41.18 11.968 41.175 12.337 C 41.175 12.477 41.18 12.617 41.188 12.756 C 41.199 12.949 41.22 13.139 41.249 13.33 C 41.283 13.543 41.321 13.757 41.363 13.971 C 41.334 13.949 41.306 13.928 41.278 13.906 C 41.179 13.829 41.083 13.748 40.989 13.662 C 40.874 13.556 40.767 13.442 40.668 13.321 C 40.604 13.241 40.545 13.153 40.498 13.061 C 40.475 13.015 40.453 12.967 40.435 12.919 C 40.412 12.859 40.392 12.799 40.375 12.738 C 40.361 12.69 40.35 12.644 40.339 12.597 C 40.329 12.543 40.318 12.487 40.309 12.434 C 40.282 12.271 40.267 12.106 40.261 11.943 C 40.252 11.705 40.253 11.467 40.265 11.23 C 40.249 10.878 40.239 10.526 40.239 10.174 C 40.238 9.9 40.246 9.627 40.261 9.353 C 40.279 9.003 40.316 8.654 40.37 8.308 C 40.405 8.076 40.458 7.848 40.528 7.624 C 40.556 7.53 40.59 7.438 40.625 7.346 C 40.668 7.235 40.714 7.124 40.764 7.015 C 40.8 6.935 40.837 6.857 40.877 6.778 C 40.922 6.689 40.966 6.602 41.014 6.514 C 41.152 6.259 41.298 6.01 41.455 5.766 C 41.663 5.44 41.879 5.121 42.104 4.808 L 43.978 3.481 L 42.768 2.687 L 47.006 2.74 L 45.885 1.335 L 48.635 1.506 L 51.726 2.453 L 54.378 2.013 L 53.995 2.851 L 56.579 2.868 L 55.671 3.381 L 58.505 4.746 C 58.597 4.839 58.687 4.932 58.776 5.028 C 58.849 5.108 58.922 5.188 58.991 5.272 C 59.078 5.375 59.161 5.484 59.24 5.595 C 59.292 5.669 59.34 5.746 59.383 5.825 C 59.41 5.878 59.437 5.932 59.46 5.987 C 59.487 6.054 59.513 6.122 59.538 6.191 C 59.555 6.244 59.572 6.294 59.586 6.347 C 59.604 6.406 59.62 6.466 59.635 6.526 C 59.678 6.705 59.713 6.883 59.739 7.063 C 59.778 7.315 59.806 7.569 59.826 7.824 C 59.862 8.191 59.896 8.56 59.925 8.93 C 59.941 9.129 59.952 9.327 59.961 9.525 C 59.968 9.734 59.973 9.945 59.973 10.154 C 59.973 10.543 59.968 10.932 59.961 11.321 C 59.955 11.464 59.944 11.608 59.93 11.75 C 59.918 11.86 59.902 11.969 59.884 12.077 C 59.859 12.215 59.824 12.352 59.781 12.484 C 59.753 12.569 59.716 12.652 59.673 12.729 C 59.655 12.761 59.635 12.792 59.615 12.821 C 59.589 12.858 59.563 12.893 59.533 12.927 C 59.45 13.028 59.358 13.124 59.258 13.21 C 59.192 13.267 59.126 13.324 59.058 13.377 C 59.075 13.259 59.092 13.142 59.106 13.025 C 59.123 12.889 59.132 12.752 59.134 12.615 C 59.134 12.615 59.134 12.615 59.134 12.615 L 59.134 12.558 C 59.134 12.557 59.134 12.557 59.134 12.557 C 59.134 12.423 59.126 12.291 59.112 12.158 C 59.098 12.034 59.082 11.908 59.062 11.783 C 59.039 11.625 59.017 11.467 58.999 11.308 C 58.982 11.158 58.969 11.007 58.957 10.856 C 58.946 10.704 58.932 10.551 58.914 10.398 C 58.894 10.239 58.863 10.079 58.822 9.922 C 58.805 9.864 58.788 9.805 58.77 9.747 C 58.746 9.678 58.722 9.61 58.696 9.542 C 58.622 9.353 58.537 9.169 58.445 8.987 C 58.304 8.717 58.155 8.451 57.996 8.191 C 57.995 8.186 57.992 8.182 57.989 8.179 L 56.621 6.354 L 56.768 7.828 C 56.621 7.684 56.475 7.541 56.33 7.395 C 56.198 7.263 56.069 7.129 55.941 6.994 C 55.778 6.82 55.618 6.642 55.463 6.462 C 55.173 6.127 54.885 5.787 54.602 5.444 C 54.556 5.389 54.478 5.374 54.415 5.404 C 54.35 5.437 54.318 5.51 54.335 5.58 L 54.861 7.681 L 54.954 7.822 L 54.327 7.482 C 54.129 7.375 53.934 7.263 53.74 7.147 C 53.637 7.087 53.537 7.021 53.439 6.954 C 53.303 6.858 53.173 6.76 53.045 6.656 C 52.916 6.549 52.789 6.442 52.664 6.33 C 52.53 6.211 52.401 6.088 52.275 5.961 C 52.04 5.721 51.808 5.477 51.58 5.228 C 51.533 5.175 51.454 5.161 51.393 5.197 C 51.33 5.232 51.301 5.306 51.319 5.374 L 51.803 7.035 L 51.869 7.19 Z " id="hair" fill="rgb(80,50,0)"/><g id="hairs"><path d=" M 47.301 1.93 L 47.225 1.921 L 47.242 1.769 L 47.319 1.776 C 47.588 1.809 47.857 1.845 48.125 1.89 C 48.271 1.915 48.415 1.945 48.56 1.984 C 48.609 1.998 48.66 2.011 48.709 2.027 C 48.769 2.045 48.829 2.065 48.889 2.085 C 49.055 2.142 49.219 2.207 49.382 2.274 C 49.626 2.379 49.869 2.488 50.111 2.603 L 50.18 2.637 L 50.112 2.775 L 50.043 2.742 C 49.806 2.628 49.565 2.52 49.322 2.416 C 49.162 2.35 49.002 2.287 48.838 2.231 C 48.781 2.211 48.723 2.191 48.664 2.173 C 48.617 2.159 48.569 2.145 48.52 2.133 C 48.381 2.096 48.242 2.065 48.099 2.042 C 47.834 1.998 47.568 1.961 47.301 1.93 Z " id="Path" fill="rgb(120,60,0)"/><path d=" M 57.278 4.694 L 57.205 4.671 L 57.251 4.523 L 57.324 4.546 C 57.421 4.577 57.518 4.611 57.613 4.646 C 57.687 4.675 57.761 4.706 57.835 4.74 C 57.927 4.783 58.018 4.834 58.105 4.889 C 58.167 4.929 58.224 4.975 58.277 5.026 C 58.299 5.046 58.319 5.067 58.337 5.09 C 58.36 5.116 58.384 5.143 58.404 5.17 C 58.462 5.249 58.516 5.332 58.562 5.418 C 58.633 5.548 58.697 5.682 58.756 5.819 L 58.786 5.891 L 58.643 5.951 L 58.614 5.88 C 58.557 5.747 58.496 5.618 58.427 5.492 C 58.384 5.412 58.336 5.335 58.281 5.264 C 58.262 5.238 58.242 5.215 58.222 5.192 C 58.205 5.172 58.188 5.153 58.17 5.136 C 58.125 5.092 58.075 5.053 58.022 5.018 C 57.941 4.967 57.856 4.92 57.769 4.88 C 57.7 4.847 57.63 4.817 57.558 4.791 C 57.466 4.755 57.372 4.723 57.278 4.694 Z " id="Path" fill="rgb(120,60,0)"/><path d=" M 50.566 3.675 L 50.493 3.702 L 50.438 3.559 L 50.51 3.532 C 50.615 3.492 50.719 3.456 50.825 3.423 C 50.908 3.396 50.993 3.375 51.078 3.355 C 51.187 3.332 51.297 3.315 51.408 3.307 C 51.488 3.301 51.568 3.303 51.648 3.313 C 51.679 3.318 51.711 3.324 51.743 3.332 C 51.78 3.341 51.815 3.35 51.852 3.363 C 51.954 3.395 52.054 3.436 52.149 3.486 C 52.295 3.561 52.438 3.642 52.575 3.733 L 52.639 3.775 L 52.555 3.904 L 52.49 3.862 C 52.358 3.775 52.22 3.695 52.078 3.622 C 51.991 3.576 51.9 3.539 51.805 3.509 C 51.772 3.498 51.74 3.489 51.708 3.481 C 51.68 3.475 51.654 3.47 51.626 3.467 C 51.557 3.456 51.489 3.455 51.42 3.459 C 51.316 3.467 51.213 3.482 51.11 3.506 C 51.03 3.524 50.95 3.545 50.872 3.57 C 50.769 3.601 50.666 3.636 50.566 3.675 Z " id="Path" fill="rgb(120,60,0)"/><path d=" M 52.101 3.078 L 52.027 3.103 L 51.977 2.958 L 52.049 2.932 C 52.215 2.875 52.381 2.822 52.549 2.771 C 52.641 2.743 52.735 2.72 52.828 2.7 C 52.928 2.679 53.031 2.663 53.133 2.651 C 53.319 2.629 53.506 2.614 53.694 2.602 L 53.771 2.597 L 53.78 2.749 L 53.703 2.755 C 53.519 2.766 53.334 2.783 53.151 2.805 C 53.053 2.815 52.956 2.831 52.859 2.851 C 52.77 2.869 52.681 2.892 52.593 2.918 C 52.427 2.968 52.263 3.02 52.101 3.078 Z " id="Path" fill="rgb(120,60,0)"/><path d=" M 54.239 3.312 L 54.163 3.324 L 54.14 3.172 L 54.215 3.161 L 55.134 3.017 L 55.916 3.006 L 55.993 3.004 L 55.996 3.158 L 55.92 3.16 L 55.146 3.17 L 54.239 3.312 Z " id="Path" fill="rgb(120,60,0)"/><path d=" M 48.052 3.541 L 47.983 3.573 L 47.917 3.435 L 47.986 3.401 C 48.074 3.361 48.162 3.323 48.251 3.286 C 48.321 3.258 48.392 3.232 48.464 3.21 C 48.558 3.181 48.652 3.158 48.749 3.141 C 48.816 3.129 48.887 3.124 48.956 3.127 C 48.993 3.127 49.029 3.13 49.065 3.137 C 49.107 3.141 49.148 3.15 49.188 3.16 C 49.307 3.189 49.421 3.229 49.53 3.28 C 49.7 3.36 49.865 3.452 50.023 3.552 L 50.089 3.593 L 50.006 3.722 L 49.942 3.682 C 49.788 3.584 49.63 3.496 49.465 3.419 C 49.365 3.372 49.261 3.335 49.153 3.309 C 49.116 3.301 49.079 3.293 49.044 3.289 C 49.013 3.284 48.982 3.281 48.952 3.28 C 48.892 3.278 48.833 3.283 48.775 3.293 C 48.686 3.307 48.597 3.329 48.511 3.356 C 48.443 3.378 48.375 3.403 48.308 3.429 C 48.222 3.464 48.137 3.501 48.052 3.541 Z " id="Path" fill="rgb(120,60,0)"/><path d=" M 44.073 3.16 L 43.997 3.15 L 44.014 2.998 L 44.091 3.006 L 45.485 3.161 L 46.586 3.619 L 46.657 3.648 L 46.598 3.79 L 46.528 3.761 L 45.445 3.312 L 44.073 3.16 Z " id="Path" fill="rgb(120,60,0)"/><path d=" M 42.597 5.29 L 42.542 5.344 L 42.436 5.232 L 42.493 5.179 C 42.616 5.061 42.746 4.952 42.883 4.849 C 42.958 4.792 43.041 4.743 43.127 4.704 C 43.155 4.691 43.184 4.68 43.214 4.669 C 43.247 4.657 43.281 4.646 43.317 4.637 C 43.415 4.609 43.515 4.589 43.616 4.577 C 43.77 4.558 43.925 4.548 44.08 4.543 L 44.157 4.542 L 44.16 4.695 L 44.084 4.697 C 43.934 4.7 43.784 4.712 43.635 4.729 C 43.541 4.741 43.449 4.76 43.358 4.784 C 43.326 4.794 43.295 4.803 43.264 4.814 C 43.24 4.823 43.215 4.832 43.192 4.843 C 43.115 4.878 43.041 4.921 42.975 4.972 C 42.843 5.072 42.717 5.178 42.597 5.29 Z " id="Path" fill="rgb(120,60,0)"/></g></g><g id="Group"><path d=" M 67.888 36.183 L 67.888 76.174 L 32.128 76.174 L 32.128 26.985 L 58.704 26.985 L 67.888 36.183 L 67.888 36.183 Z " id="Path" fill="rgb(250,250,235)"/><path d=" M 67.872 36.183 L 67.872 76.174 L 32.112 76.174 L 32.112 26.985 L 58.674 26.985 L 67.872 36.183 L 67.872 36.183 Z " id="Path" fill="rgb(100,150,240)" fill-opacity="0.5"/><path d=" M 58.674 26.985 L 58.674 36.183 L 67.872 36.183 L 58.674 26.985 L 58.674 26.985 Z " id="Path" fill="rgb(100,150,240)" fill-opacity="0.5"/><rect x="37.031" y="37.807" width="26.562" height="0.984" transform="matrix(1,0,0,1,0,0)" id="Rectangle" fill="rgb(250,250,250)"/><rect x="37.031" y="52.563" width="26.562" height="0.984" transform="matrix(1,0,0,1,0,0)" id="Rectangle" fill="rgb(250,250,250)"/><rect x="37.031" y="59.941" width="26.562" height="0.984" transform="matrix(1,0,0,1,0,0)" id="Rectangle" fill="rgb(250,250,250)"/><rect x="37.031" y="67.32" width="26.562" height="0.984" transform="matrix(1,0,0,1,0,0)" id="Rectangle" fill="rgb(250,250,250)"/><rect x="37.031" y="45.185" width="22.135" height="0.984" transform="matrix(1,0,0,1,0,0)" id="Rectangle" fill="rgb(250,250,250)"/></g></g></svg>