<?xml version="1.0" encoding="UTF-8" standalone="no"?>
<!-- Generator: Gravit.io -->
<svg xmlns="http://www.w3.org/2000/svg" xmlns:xlink="http://www.w3.org/1999/xlink" style="isolation:isolate" viewBox="0 0 100 100" width="100" height="100"><g id="computer"><path d=" M 14 34 L 91 34 C 92.656 34 94 35.344 94 37 L 94 89 C 94 90.656 92.656 92 91 92 L 9 92 C 7.344 92 6 90.656 6 89 L 6 37 C 6 35.344 7.344 34 9 34 L 14 34" id="Path" fill="rgb(230,230,230)"/><rect x="10" y="38" width="80" height="50" transform="matrix(1,0,0,1,0,0)" id="Rectangle" fill="rgb(100,100,100)"/><rect x="36.5" y="96" width="27" height="4" transform="matrix(1,0,0,1,0,0)" id="Rectangle" fill="rgb(230,230,230)"/><rect x="44" y="92" width="12" height="4" transform="matrix(1,0,0,1,0,0)" id="Rectangle" fill="rgb(220,220,220)"/></g><g id="numbers"><path d=" M 86.216 48.168 L 86.216 56.568 L 85.544 56.568 L 85.544 48.96 L 85.544 48.96 Q 85.352 49.14 85.076 49.278 L 85.076 49.278 L 85.076 49.278 Q 84.8 49.416 84.62 49.464 L 84.62 49.464 L 84.44 49.512 L 84.284 48.876 L 84.284 48.876 Q 84.548 48.876 84.926 48.672 L 84.926 48.672 L 84.926 48.672 Q 85.304 48.468 85.544 48.168 L 85.544 48.168 L 86.216 48.168 L 86.216 48.168 Z  M 79.868 50.496 L 79.868 50.496 L 79.868 54.348 L 79.868 54.348 Q 79.868 55.56 79.13 56.13 L 79.13 56.13 L 79.13 56.13 Q 78.392 56.7 77.36 56.7 L 77.36 56.7 L 77.36 56.7 Q 76.328 56.7 75.578 56.13 L 75.578 56.13 L 75.578 56.13 Q 74.828 55.56 74.828 54.348 L 74.828 54.348 L 74.828 50.484 L 74.828 50.484 Q 74.828 49.248 75.506 48.612 L 75.506 48.612 L 75.506 48.612 Q 76.184 47.976 77.372 47.976 L 77.372 47.976 L 77.372 47.976 Q 78.56 47.976 79.214 48.648 L 79.214 48.648 L 79.214 48.648 Q 79.868 49.32 79.868 50.496 Z  M 79.208 54.324 L 79.208 54.324 L 79.208 50.376 L 79.208 50.376 Q 79.208 49.5 78.698 49.056 L 78.698 49.056 L 78.698 49.056 Q 78.188 48.612 77.348 48.612 L 77.348 48.612 L 77.348 48.612 Q 76.508 48.612 76.004 49.056 L 76.004 49.056 L 76.004 49.056 Q 75.5 49.5 75.5 50.376 L 75.5 50.376 L 75.5 54.336 L 75.5 54.336 Q 75.5 55.188 76.022 55.626 L 76.022 55.626 L 76.022 55.626 Q 76.544 56.064 77.354 56.064 L 77.354 56.064 L 77.354 56.064 Q 78.164 56.064 78.686 55.638 L 78.686 55.638 L 78.686 55.638 Q 79.208 55.212 79.208 54.324 Z  M 70.448 48.168 L 70.448 56.568 L 69.776 56.568 L 69.776 48.96 L 69.776 48.96 Q 69.584 49.14 69.308 49.278 L 69.308 49.278 L 69.308 49.278 Q 69.032 49.416 68.852 49.464 L 68.852 49.464 L 68.672 49.512 L 68.516 48.876 L 68.516 48.876 Q 68.78 48.876 69.158 48.672 L 69.158 48.672 L 69.158 48.672 Q 69.536 48.468 69.776 48.168 L 69.776 48.168 L 70.448 48.168 L 70.448 48.168 Z  M 64.1 50.496 L 64.1 50.496 L 64.1 54.348 L 64.1 54.348 Q 64.1 55.56 63.362 56.13 L 63.362 56.13 L 63.362 56.13 Q 62.624 56.7 61.592 56.7 L 61.592 56.7 L 61.592 56.7 Q 60.56 56.7 59.81 56.13 L 59.81 56.13 L 59.81 56.13 Q 59.06 55.56 59.06 54.348 L 59.06 54.348 L 59.06 50.484 L 59.06 50.484 Q 59.06 49.248 59.738 48.612 L 59.738 48.612 L 59.738 48.612 Q 60.416 47.976 61.604 47.976 L 61.604 47.976 L 61.604 47.976 Q 62.792 47.976 63.446 48.648 L 63.446 48.648 L 63.446 48.648 Q 64.1 49.32 64.1 50.496 Z  M 63.44 54.324 L 63.44 54.324 L 63.44 50.376 L 63.44 50.376 Q 63.44 49.5 62.93 49.056 L 62.93 49.056 L 62.93 49.056 Q 62.42 48.612 61.58 48.612 L 61.58 48.612 L 61.58 48.612 Q 60.74 48.612 60.236 49.056 L 60.236 49.056 L 60.236 49.056 Q 59.732 49.5 59.732 50.376 L 59.732 50.376 L 59.732 54.336 L 59.732 54.336 Q 59.732 55.188 60.254 55.626 L 60.254 55.626 L 60.254 55.626 Q 60.776 56.064 61.586 56.064 L 61.586 56.064 L 61.586 56.064 Q 62.396 56.064 62.918 55.638 L 62.918 55.638 L 62.918 55.638 Q 63.44 55.212 63.44 54.324 Z  M 54.68 48.168 L 54.68 56.568 L 54.008 56.568 L 54.008 48.96 L 54.008 48.96 Q 53.816 49.14 53.54 49.278 L 53.54 49.278 L 53.54 49.278 Q 53.264 49.416 53.084 49.464 L 53.084 49.464 L 52.904 49.512 L 52.748 48.876 L 52.748 48.876 Q 53.012 48.876 53.39 48.672 L 53.39 48.672 L 53.39 48.672 Q 53.768 48.468 54.008 48.168 L 54.008 48.168 L 54.68 48.168 L 54.68 48.168 Z  M 48.332 50.496 L 48.332 50.496 L 48.332 54.348 L 48.332 54.348 Q 48.332 55.56 47.594 56.13 L 47.594 56.13 L 47.594 56.13 Q 46.856 56.7 45.824 56.7 L 45.824 56.7 L 45.824 56.7 Q 44.792 56.7 44.042 56.13 L 44.042 56.13 L 44.042 56.13 Q 43.292 55.56 43.292 54.348 L 43.292 54.348 L 43.292 50.484 L 43.292 50.484 Q 43.292 49.248 43.97 48.612 L 43.97 48.612 L 43.97 48.612 Q 44.648 47.976 45.836 47.976 L 45.836 47.976 L 45.836 47.976 Q 47.024 47.976 47.678 48.648 L 47.678 48.648 L 47.678 48.648 Q 48.332 49.32 48.332 50.496 Z  M 47.672 54.324 L 47.672 54.324 L 47.672 50.376 L 47.672 50.376 Q 47.672 49.5 47.162 49.056 L 47.162 49.056 L 47.162 49.056 Q 46.652 48.612 45.812 48.612 L 45.812 48.612 L 45.812 48.612 Q 44.972 48.612 44.468 49.056 L 44.468 49.056 L 44.468 49.056 Q 43.964 49.5 43.964 50.376 L 43.964 50.376 L 43.964 54.336 L 43.964 54.336 Q 43.964 55.188 44.486 55.626 L 44.486 55.626 L 44.486 55.626 Q 45.008 56.064 45.818 56.064 L 45.818 56.064 L 45.818 56.064 Q 46.628 56.064 47.15 55.638 L 47.15 55.638 L 47.15 55.638 Q 47.672 55.212 47.672 54.324 Z  M 38.912 48.168 L 38.912 56.568 L 38.24 56.568 L 38.24 48.96 L 38.24 48.96 Q 38.048 49.14 37.772 49.278 L 37.772 49.278 L 37.772 49.278 Q 37.496 49.416 37.316 49.464 L 37.316 49.464 L 37.136 49.512 L 36.98 48.876 L 36.98 48.876 Q 37.244 48.876 37.622 48.672 L 37.622 48.672 L 37.622 48.672 Q 38 48.468 38.24 48.168 L 38.24 48.168 L 38.912 48.168 L 38.912 48.168 Z  M 32.564 50.496 L 32.564 50.496 L 32.564 54.348 L 32.564 54.348 Q 32.564 55.56 31.826 56.13 L 31.826 56.13 L 31.826 56.13 Q 31.088 56.7 30.056 56.7 L 30.056 56.7 L 30.056 56.7 Q 29.024 56.7 28.274 56.13 L 28.274 56.13 L 28.274 56.13 Q 27.524 55.56 27.524 54.348 L 27.524 54.348 L 27.524 50.484 L 27.524 50.484 Q 27.524 49.248 28.202 48.612 L 28.202 48.612 L 28.202 48.612 Q 28.88 47.976 30.068 47.976 L 30.068 47.976 L 30.068 47.976 Q 31.256 47.976 31.91 48.648 L 31.91 48.648 L 31.91 48.648 Q 32.564 49.32 32.564 50.496 Z  M 31.904 54.324 L 31.904 54.324 L 31.904 50.376 L 31.904 50.376 Q 31.904 49.5 31.394 49.056 L 31.394 49.056 L 31.394 49.056 Q 30.884 48.612 30.044 48.612 L 30.044 48.612 L 30.044 48.612 Q 29.204 48.612 28.7 49.056 L 28.7 49.056 L 28.7 49.056 Q 28.196 49.5 28.196 50.376 L 28.196 50.376 L 28.196 54.336 L 28.196 54.336 Q 28.196 55.188 28.718 55.626 L 28.718 55.626 L 28.718 55.626 Q 29.24 56.064 30.05 56.064 L 30.05 56.064 L 30.05 56.064 Q 30.86 56.064 31.382 55.638 L 31.382 55.638 L 31.382 55.638 Q 31.904 55.212 31.904 54.324 Z  M 23.144 48.168 L 23.144 56.568 L 22.472 56.568 L 22.472 48.96 L 22.472 48.96 Q 22.28 49.14 22.004 49.278 L 22.004 49.278 L 22.004 49.278 Q 21.728 49.416 21.548 49.464 L 21.548 49.464 L 21.368 49.512 L 21.212 48.876 L 21.212 48.876 Q 21.476 48.876 21.854 48.672 L 21.854 48.672 L 21.854 48.672 Q 22.232 48.468 22.472 48.168 L 22.472 48.168 L 23.144 48.168 L 23.144 48.168 Z  M 16.796 50.496 L 16.796 50.496 L 16.796 54.348 L 16.796 54.348 Q 16.796 55.56 16.058 56.13 L 16.058 56.13 L 16.058 56.13 Q 15.32 56.7 14.288 56.7 L 14.288 56.7 L 14.288 56.7 Q 13.256 56.7 12.506 56.13 L 12.506 56.13 L 12.506 56.13 Q 11.756 55.56 11.756 54.348 L 11.756 54.348 L 11.756 50.484 L 11.756 50.484 Q 11.756 49.248 12.434 48.612 L 12.434 48.612 L 12.434 48.612 Q 13.112 47.976 14.3 47.976 L 14.3 47.976 L 14.3 47.976 Q 15.488 47.976 16.142 48.648 L 16.142 48.648 L 16.142 48.648 Q 16.796 49.32 16.796 50.496 Z  M 16.136 54.324 L 16.136 54.324 L 16.136 50.376 L 16.136 50.376 Q 16.136 49.5 15.626 49.056 L 15.626 49.056 L 15.626 49.056 Q 15.116 48.612 14.276 48.612 L 14.276 48.612 L 14.276 48.612 Q 13.436 48.612 12.932 49.056 L 12.932 49.056 L 12.932 49.056 Q 12.428 49.5 12.428 50.376 L 12.428 50.376 L 12.428 54.336 L 12.428 54.336 Q 12.428 55.188 12.95 55.626 L 12.95 55.626 L 12.95 55.626 Q 13.472 56.064 14.282 56.064 L 14.282 56.064 L 14.282 56.064 Q 15.092 56.064 15.614 55.638 L 15.614 55.638 L 15.614 55.638 Q 16.136 55.212 16.136 54.324 Z " fill-rule="evenodd" id="Compound Path" fill="rgb(0,0,0)"/><path d=" M 86.1 68.168 L 86.1 76.568 L 85.428 76.568 L 85.428 68.96 L 85.428 68.96 Q 85.236 69.14 84.96 69.278 L 84.96 69.278 L 84.96 69.278 Q 84.684 69.416 84.504 69.464 L 84.504 69.464 L 84.324 69.512 L 84.168 68.876 L 84.168 68.876 Q 84.432 68.876 84.81 68.672 L 84.81 68.672 L 84.81 68.672 Q 85.188 68.468 85.428 68.168 L 85.428 68.168 L 86.1 68.168 L 86.1 68.168 Z  M 79.752 70.496 L 79.752 70.496 L 79.752 74.348 L 79.752 74.348 Q 79.752 75.56 79.014 76.13 L 79.014 76.13 L 79.014 76.13 Q 78.276 76.7 77.244 76.7 L 77.244 76.7 L 77.244 76.7 Q 76.212 76.7 75.462 76.13 L 75.462 76.13 L 75.462 76.13 Q 74.712 75.56 74.712 74.348 L 74.712 74.348 L 74.712 70.484 L 74.712 70.484 Q 74.712 69.248 75.39 68.612 L 75.39 68.612 L 75.39 68.612 Q 76.068 67.976 77.256 67.976 L 77.256 67.976 L 77.256 67.976 Q 78.444 67.976 79.098 68.648 L 79.098 68.648 L 79.098 68.648 Q 79.752 69.32 79.752 70.496 Z  M 79.092 74.324 L 79.092 74.324 L 79.092 70.376 L 79.092 70.376 Q 79.092 69.5 78.582 69.056 L 78.582 69.056 L 78.582 69.056 Q 78.072 68.612 77.232 68.612 L 77.232 68.612 L 77.232 68.612 Q 76.392 68.612 75.888 69.056 L 75.888 69.056 L 75.888 69.056 Q 75.384 69.5 75.384 70.376 L 75.384 70.376 L 75.384 74.336 L 75.384 74.336 Q 75.384 75.188 75.906 75.626 L 75.906 75.626 L 75.906 75.626 Q 76.428 76.064 77.238 76.064 L 77.238 76.064 L 77.238 76.064 Q 78.048 76.064 78.57 75.638 L 78.57 75.638 L 78.57 75.638 Q 79.092 75.212 79.092 74.324 Z  M 70.332 68.168 L 70.332 76.568 L 69.66 76.568 L 69.66 68.96 L 69.66 68.96 Q 69.468 69.14 69.192 69.278 L 69.192 69.278 L 69.192 69.278 Q 68.916 69.416 68.736 69.464 L 68.736 69.464 L 68.556 69.512 L 68.4 68.876 L 68.4 68.876 Q 68.664 68.876 69.042 68.672 L 69.042 68.672 L 69.042 68.672 Q 69.42 68.468 69.66 68.168 L 69.66 68.168 L 70.332 68.168 L 70.332 68.168 Z  M 38.912 68.168 L 38.912 76.568 L 38.24 76.568 L 38.24 68.96 L 38.24 68.96 Q 38.048 69.14 37.772 69.278 L 37.772 69.278 L 37.772 69.278 Q 37.496 69.416 37.316 69.464 L 37.316 69.464 L 37.136 69.512 L 36.98 68.876 L 36.98 68.876 Q 37.244 68.876 37.622 68.672 L 37.622 68.672 L 37.622 68.672 Q 38 68.468 38.24 68.168 L 38.24 68.168 L 38.912 68.168 L 38.912 68.168 Z  M 32.564 70.496 L 32.564 70.496 L 32.564 74.348 L 32.564 74.348 Q 32.564 75.56 31.826 76.13 L 31.826 76.13 L 31.826 76.13 Q 31.088 76.7 30.056 76.7 L 30.056 76.7 L 30.056 76.7 Q 29.024 76.7 28.274 76.13 L 28.274 76.13 L 28.274 76.13 Q 27.524 75.56 27.524 74.348 L 27.524 74.348 L 27.524 70.484 L 27.524 70.484 Q 27.524 69.248 28.202 68.612 L 28.202 68.612 L 28.202 68.612 Q 28.88 67.976 30.068 67.976 L 30.068 67.976 L 30.068 67.976 Q 31.256 67.976 31.91 68.648 L 31.91 68.648 L 31.91 68.648 Q 32.564 69.32 32.564 70.496 Z  M 31.904 74.324 L 31.904 74.324 L 31.904 70.376 L 31.904 70.376 Q 31.904 69.5 31.394 69.056 L 31.394 69.056 L 31.394 69.056 Q 30.884 68.612 30.044 68.612 L 30.044 68.612 L 30.044 68.612 Q 29.204 68.612 28.7 69.056 L 28.7 69.056 L 28.7 69.056 Q 28.196 69.5 28.196 70.376 L 28.196 70.376 L 28.196 74.336 L 28.196 74.336 Q 28.196 75.188 28.718 75.626 L 28.718 75.626 L 28.718 75.626 Q 29.24 76.064 30.05 76.064 L 30.05 76.064 L 30.05 76.064 Q 30.86 76.064 31.382 75.638 L 31.382 75.638 L 31.382 75.638 Q 31.904 75.212 31.904 74.324 Z  M 23.144 68.168 L 23.144 76.568 L 22.472 76.568 L 22.472 68.96 L 22.472 68.96 Q 22.28 69.14 22.004 69.278 L 22.004 69.278 L 22.004 69.278 Q 21.728 69.416 21.548 69.464 L 21.548 69.464 L 21.368 69.512 L 21.212 68.876 L 21.212 68.876 Q 21.476 68.876 21.854 68.672 L 21.854 68.672 L 21.854 68.672 Q 22.232 68.468 22.472 68.168 L 22.472 68.168 L 23.144 68.168 L 23.144 68.168 Z  M 16.796 70.496 L 16.796 70.496 L 16.796 74.348 L 16.796 74.348 Q 16.796 75.56 16.058 76.13 L 16.058 76.13 L 16.058 76.13 Q 15.32 76.7 14.288 76.7 L 14.288 76.7 L 14.288 76.7 Q 13.256 76.7 12.506 76.13 L 12.506 76.13 L 12.506 76.13 Q 11.756 75.56 11.756 74.348 L 11.756 74.348 L 11.756 70.484 L 11.756 70.484 Q 11.756 69.248 12.434 68.612 L 12.434 68.612 L 12.434 68.612 Q 13.112 67.976 14.3 67.976 L 14.3 67.976 L 14.3 67.976 Q 15.488 67.976 16.142 68.648 L 16.142 68.648 L 16.142 68.648 Q 16.796 69.32 16.796 70.496 Z  M 16.136 74.324 L 16.136 74.324 L 16.136 70.376 L 16.136 70.376 Q 16.136 69.5 15.626 69.056 L 15.626 69.056 L 15.626 69.056 Q 15.116 68.612 14.276 68.612 L 14.276 68.612 L 14.276 68.612 Q 13.436 68.612 12.932 69.056 L 12.932 69.056 L 12.932 69.056 Q 12.428 69.5 12.428 70.376 L 12.428 70.376 L 12.428 74.336 L 12.428 74.336 Q 12.428 75.188 12.95 75.626 L 12.95 75.626 L 12.95 75.626 Q 13.472 76.064 14.282 76.064 L 14.282 76.064 L 14.282 76.064 Q 15.092 76.064 15.614 75.638 L 15.614 75.638 L 15.614 75.638 Q 16.136 75.212 16.136 74.324 Z " fill-rule="evenodd" id="Compound Path" fill="rgb(0,0,0)"/></g><g id="magnifying glass"><path d=" M 50.66 69.16 L 50.66 69.16 L 50.66 75.58 L 50.66 75.58 Q 50.66 77.6 49.43 78.55 L 49.43 78.55 L 49.43 78.55 Q 48.2 79.5 46.48 79.5 L 46.48 79.5 L 46.48 79.5 Q 44.76 79.5 43.51 78.55 L 43.51 78.55 L 43.51 78.55 Q 42.26 77.6 42.26 75.58 L 42.26 75.58 L 42.26 69.14 L 42.26 69.14 Q 42.26 67.08 43.39 66.02 L 43.39 66.02 L 43.39 66.02 Q 44.52 64.96 46.5 64.96 L 46.5 64.96 L 46.5 64.96 Q 48.48 64.96 49.57 66.08 L 49.57 66.08 L 49.57 66.08 Q 50.66 67.2 50.66 69.16 Z  M 49.56 75.54 L 49.56 75.54 L 49.56 68.96 L 49.56 68.96 Q 49.56 67.5 48.71 66.76 L 48.71 66.76 L 48.71 66.76 Q 47.86 66.02 46.46 66.02 L 46.46 66.02 L 46.46 66.02 Q 45.06 66.02 44.22 66.76 L 44.22 66.76 L 44.22 66.76 Q 43.38 67.5 43.38 68.96 L 43.38 68.96 L 43.38 75.56 L 43.38 75.56 Q 43.38 76.98 44.25 77.71 L 44.25 77.71 L 44.25 77.71 Q 45.12 78.44 46.47 78.44 L 46.47 78.44 L 46.47 78.44 Q 47.82 78.44 48.69 77.73 L 48.69 77.73 L 48.69 77.73 Q 49.56 77.02 49.56 75.54 Z  M 55.68 65.28 L 55.68 79.28 L 54.56 79.28 L 54.56 66.6 L 54.56 66.6 Q 54.24 66.9 53.78 67.13 L 53.78 67.13 L 53.78 67.13 Q 53.32 67.36 53.02 67.44 L 53.02 67.44 L 52.72 67.52 L 52.46 66.46 L 52.46 66.46 Q 52.9 66.46 53.53 66.12 L 53.53 66.12 L 53.53 66.12 Q 54.16 65.78 54.56 65.28 L 54.56 65.28 L 55.68 65.28 L 55.68 65.28 Z  M 65.82 69.16 L 65.82 69.16 L 65.82 75.58 L 65.82 75.58 Q 65.82 77.6 64.59 78.55 L 64.59 78.55 L 64.59 78.55 Q 63.36 79.5 61.64 79.5 L 61.64 79.5 L 61.64 79.5 Q 59.92 79.5 58.67 78.55 L 58.67 78.55 L 58.67 78.55 Q 57.42 77.6 57.42 75.58 L 57.42 75.58 L 57.42 69.14 L 57.42 69.14 Q 57.42 67.08 58.55 66.02 L 58.55 66.02 L 58.55 66.02 Q 59.68 64.96 61.66 64.96 L 61.66 64.96 L 61.66 64.96 Q 63.64 64.96 64.73 66.08 L 64.73 66.08 L 64.73 66.08 Q 65.82 67.2 65.82 69.16 Z  M 64.72 75.54 L 64.72 75.54 L 64.72 68.96 L 64.72 68.96 Q 64.72 67.5 63.87 66.76 L 63.87 66.76 L 63.87 66.76 Q 63.02 66.02 61.62 66.02 L 61.62 66.02 L 61.62 66.02 Q 60.22 66.02 59.38 66.76 L 59.38 66.76 L 59.38 66.76 Q 58.54 67.5 58.54 68.96 L 58.54 68.96 L 58.54 75.56 L 58.54 75.56 Q 58.54 76.98 59.41 77.71 L 59.41 77.71 L 59.41 77.71 Q 60.28 78.44 61.63 78.44 L 61.63 78.44 L 61.63 78.44 Q 62.98 78.44 63.85 77.73 L 63.85 77.73 L 63.85 77.73 Q 64.72 77.02 64.72 75.54 Z " fill-rule="evenodd" id="Compound Path" fill="rgb(0,0,0)"/><circle vector-effect="non-scaling-stroke" cx="54" cy="73" r="11" id="Ellipse" fill="rgb(100,150,240)" fill-opacity="0.3"/><path d=" M 41 73 C 41 69.55 42.37 66.24 44.81 63.81 C 47.24 61.37 50.55 60 54 60 C 57.45 60 60.76 61.37 63.19 63.81 C 65.63 66.24 67 69.55 67 73 C 67 76.45 65.63 79.76 63.19 82.19 C 60.76 84.63 57.45 86 54 86 C 50.55 86 47.24 84.63 44.81 82.19 C 42.37 79.76 41 76.45 41 73 Z  M 43 73 C 43 70.08 44.16 67.28 46.22 65.22 C 48.28 63.16 51.08 62 54 62 C 56.92 62 59.72 63.16 61.78 65.22 C 63.84 67.28 65 70.08 65 73 C 65 75.92 63.84 78.72 61.78 80.78 C 59.72 82.84 56.92 84 54 84 C 51.08 84 48.28 82.84 46.22 80.78 C 44.16 78.72 43 75.92 43 73 Z " fill-rule="evenodd" id="Compound Path" fill="rgb(100,150,240)"/><g id="Group"><rect x="61.44" y="86.644" width="26" height="3" transform="matrix(0.813,0.583,-0.583,0.813,65.28,-26.864)" id="Rectangle" fill="rgb(100,150,240)"/><rect x="64.44" y="85.644" width="20" height="5" transform="matrix(0.813,0.583,-0.583,0.813,65.28,-26.864)" id="Rectangle" fill="rgb(80,80,80)"/></g></g><g id="data sheet"><path d=" M 70 33.611 L 70 15.289 L 70 15.289 L 59.711 5 L 30 5 L 30 33.611 L 70 33.611 L 70 33.611 Z " id="Path" fill="rgb(100,150,240)" fill-opacity="0.5"/><path d=" M 59.711 5 L 59.711 15.289 L 70 15.289 L 59.711 5 L 59.711 5 Z " id="Path" fill="rgb(100,150,240)" fill-opacity="0.5"/><rect x="51" y="22.561" width="3.96" height="11" transform="matrix(1,0,0,1,0,0)" id="Rectangle" fill="rgb(240,160,80)"/><rect x="56" y="23.561" width="3.96" height="10" transform="matrix(1,0,0,1,0,0)" id="Rectangle" fill="rgb(220,150,60)"/><rect x="61" y="18.561" width="4" height="15" transform="matrix(1,0,0,1,0,0)" id="Rectangle" fill="rgb(210,130,50)"/><path d=" M 39.98 33.601 L 37.358 27.111 C 34.633 28.212 32.978 30.838 33 33.611 L 39.956 33.611 L 39.98 33.601 L 39.98 33.601 Z " id="Path" fill="rgb(100,150,240)"/><path d=" M 40.541 33.345 L 40.344 33.421 L 37.81 26.896 L 37.81 26.896 C 39.59 26.205 41.481 26.292 43.1 27.011 L 40.541 33.345 L 40.541 33.345 Z " id="Path" fill="rgb(80,130,220)"/><path d=" M 40.797 33.475 L 47.188 31.185 L 47.188 31.185 C 46.528 29.345 45.176 27.951 43.521 27.211 L 40.797 33.475 L 40.797 33.475 Z " id="Path" fill="rgb(60,110,200)"/><path d=" M 47.673 33.611 C 47.653 32.879 47.517 32.137 47.253 31.411 L 41.208 33.611" id="Path" fill="rgb(40,90,180)"/></g></svg>