<?xml version="1.0" encoding="UTF-8" standalone="no"?>
<!-- Generator: Gravit.io -->
<svg xmlns="http://www.w3.org/2000/svg" xmlns:xlink="http://www.w3.org/1999/xlink" style="isolation:isolate" viewBox="0 0 72.8 100" width="72.8" height="100"><g id="page"><path d=" M 72.75 18.7 L 72.75 100 L 0.05 100 L 0.05 0 L 54.05 0 L 72.75 18.7 L 72.75 18.7 Z " id="Path" fill="rgb(100,150,240)" fill-opacity="0.5"/><path d=" M 54.05 0 L 54.05 18.7 L 72.75 18.7 L 54.05 0 L 54.05 0 Z " id="Path" fill="rgb(100,150,240)" fill-opacity="0.5"/><rect x="5" y="29" width="10" height="10" transform="matrix(1,0,0,1,0,0)" id="Rectangle" fill="rgb(250,250,250)"/><rect x="5" y="49" width="10" height="10" transform="matrix(1,0,0,1,0,0)" id="Rectangle" fill="rgb(250,250,250)"/><rect x="5" y="69" width="10" height="10" transform="matrix(1,0,0,1,0,0)" id="Rectangle" fill="rgb(250,250,250)"/><rect x="23" y="32" width="44" height="4" transform="matrix(1,0,0,1,0,0)" id="Rectangle" fill="rgb(250,250,250)"/><rect x="23" y="52" width="44" height="4" transform="matrix(1,0,0,1,0,0)" id="Rectangle" fill="rgb(250,250,250)"/><rect x="23" y="72" width="44" height="4" transform="matrix(1,0,0,1,0,0)" id="Rectangle" fill="rgb(250,250,250)"/></g><g id="mark1"><path d="M 9.001 33.171 L 19.479 22.693 C 20.366 21.806 21.719 21.719 22.5 22.5 L 22.5 22.5 C 23.281 23.281 23.194 24.634 22.307 25.521 L 11.829 35.999 C 10.942 36.886 9.589 36.973 8.808 36.192 L 8.808 36.192 C 8.027 35.411 8.114 34.058 9.001 33.171 Z" style="stroke:none;fill:#00B400;stroke-miterlimit:10;"/><path d="M 5.733 28.952 L 11.12 33.301 C 11.969 33.986 12.124 35.249 11.466 36.119 L 11.466 36.119 C 10.808 36.988 9.585 37.138 8.737 36.453 L 3.35 32.104 C 2.502 31.419 2.347 30.157 3.005 29.287 L 3.005 29.287 C 3.662 28.417 4.885 28.267 5.733 28.952 Z" style="stroke:none;fill:#00B400;stroke-miterlimit:10;"/></g><g id="mark2"><path d="M 9.001 53.688 L 19.479 43.209 C 20.366 42.323 21.719 42.236 22.5 43.017 L 22.5 43.017 C 23.281 43.797 23.194 45.151 22.307 46.038 L 11.829 56.516 C 10.942 57.403 9.589 57.489 8.808 56.709 L 8.808 56.709 C 8.027 55.928 8.114 54.575 9.001 53.688 Z" style="stroke:none;fill:#00B400;stroke-miterlimit:10;"/><path d="M 5.733 49.469 L 11.12 53.818 C 11.969 54.503 12.124 55.766 11.466 56.635 L 11.466 56.635 C 10.808 57.505 9.585 57.655 8.737 56.97 L 3.35 52.621 C 2.502 51.936 2.347 50.674 3.005 49.804 L 3.005 49.804 C 3.662 48.934 4.885 48.784 5.733 49.469 Z" style="stroke:none;fill:#00B400;stroke-miterlimit:10;"/></g><g id="mark3"><path d="M 9.001 73.246 L 19.479 62.768 C 20.366 61.881 21.719 61.795 22.5 62.575 L 22.5 62.575 C 23.281 63.356 23.194 64.709 22.307 65.596 L 11.829 76.074 C 10.942 76.961 9.589 77.048 8.808 76.267 L 8.808 76.267 C 8.027 75.487 8.114 74.133 9.001 73.246 Z" style="stroke:none;fill:#00B400;stroke-miterlimit:10;"/><path d="M 5.733 69.027 L 11.12 73.376 C 11.969 74.061 12.124 75.324 11.466 76.194 L 11.466 76.194 C 10.808 77.063 9.585 77.214 8.737 76.529 L 3.35 72.179 C 2.502 71.494 2.347 70.232 3.005 69.362 L 3.005 69.362 C 3.662 68.492 4.885 68.342 5.733 69.027 Z" style="stroke:none;fill:#00B400;stroke-miterlimit:10;"/></g></svg>