<?xml version="1.0" encoding="UTF-8" standalone="no"?>
<!-- Generator: Gravit.io -->
<svg xmlns="http://www.w3.org/2000/svg" xmlns:xlink="http://www.w3.org/1999/xlink" style="isolation:isolate" viewBox="0 0 100 150" width="100" height="150"><g id="Group"><path d=" M 17 148.824 C 22.325 132.266 38.232 120.252 57 120.252 C 75.768 120.252 91.675 132.266 97 148.824 L 17 148.824 Z " id="Path" fill="rgb(230,230,230)"/><path d=" M 49 112.359 C 51.895 113.585 55.081 114.252 58.421 114.252 C 71.986 114.252 83 103.239 83 89.673 C 83 79.335 76.603 70.479 67.548 66.864" id="Path" fill="none" vector-effect="non-scaling-stroke" stroke-width="12" stroke="rgb(230,230,230)" stroke-linejoin="miter" stroke-linecap="square" stroke-miterlimit="3"/><rect x="4.574" y="90.721" width="40.232" height="8" transform="matrix(0.916,0.402,-0.402,0.916,40.126,-1.94)" id="Rectangle" fill="rgb(230,230,230)"/><rect x="40.278" y="102.685" width="5.868" height="14.231" transform="matrix(0.912,0.411,-0.411,0.912,48.891,-8.06)" id="Rectangle" fill="rgb(100,100,100)"/><rect x="1.932" y="98.345" width="41.407" height="3.365" transform="matrix(0.916,0.402,-0.402,0.916,42.085,-0.668)" id="Rectangle" fill="rgb(100,100,100)"/><rect x="59.066" y="57.137" width="5.868" height="14.231" transform="matrix(0.912,0.411,-0.411,0.912,31.847,-19.79)" id="Rectangle" fill="rgb(100,100,100)"/><g id="eyepiece"><rect x="34.869" y="16.913" width="25" height="60" transform="matrix(0.919,0.395,-0.395,0.919,22.398,-14.902)" id="Rectangle" fill="rgb(230,230,230)"/><rect x="48.063" y="13.184" width="25" height="6.433" transform="matrix(0.919,0.395,-0.395,0.919,11.413,-22.6)" id="Rectangle" fill="rgb(100,100,100)"/><rect x="21.741" y="74.214" width="25" height="6.433" transform="matrix(0.919,0.395,-0.395,0.919,33.39,-7.229)" id="Rectangle" fill="rgb(100,100,100)"/><rect x="23.52" y="80.907" width="18.635" height="1.258" transform="matrix(0.919,0.395,-0.395,0.919,34.898,-6.34)" id="Rectangle" fill="rgb(100,100,100)"/><rect x="58.696" y="3.075" width="11.694" height="10.133" transform="matrix(0.919,0.395,-0.395,0.919,8.472,-24.846)" id="Rectangle" fill="rgb(100,100,100)"/></g><circle vector-effect="non-scaling-stroke" cx="52.54310371879691" cy="59.94517754362221" r="10" id="Ellipse" fill="rgb(100,100,100)" stroke-width="2" stroke="rgb(80,80,80)" stroke-linejoin="miter" stroke-linecap="square" stroke-miterlimit="3"/></g></svg>