<?xml version="1.0" encoding="UTF-8" standalone="no"?>
<!-- Generator: Gravit.io -->
<svg xmlns="http://www.w3.org/2000/svg" xmlns:xlink="http://www.w3.org/1999/xlink" style="isolation:isolate" viewBox="0 0 100 100" width="100" height="100"><g id="cap"><path d=" M 10.016 42.5 L 30.016 30.953 L 50.016 19.406 L 50.016 42.5 L 50.016 65.594 L 30.016 54.047 L 10.016 42.5 Z  M 90.016 42.5 L 70.016 54.047 L 50.016 65.594 L 50.016 42.5 L 50.016 19.406 L 70.016 30.953 L 90.016 42.5 Z " fill-rule="evenodd" id="Compound Shape" fill="rgb(100,100,100)"/><path d=" M 50.018 47.594 L 50.018 47.594 L 50.018 68.064 L 30.018 56.517 L 25.016 53.629 L 25.016 70.594 L 75.015 70.594 L 75.015 53.632 L 70.017 56.517 L 50.018 68.064 L 50.018 47.594 Z " fill-rule="evenodd" id="Compound Shape" fill="rgb(100,100,100)"/><path d=" M 75.01 72.23 C 74.92 79.427 63.755 85.254 50.016 85.254 C 36.218 85.254 25.016 79.377 25.016 72.138 C 25.016 71.842 25.034 71.547 25.067 71.254" id="Path" fill="rgb(100,100,100)"/><g id="Group"><path d=" M 25.317 71.254 C 25.476 70.45 25.948 69.675 26.725 68.952" id="Path" fill="rgb(100,100,100)"/><path d=" M 26.725 68.952 C 26.776 68.896 26.836 68.841 26.897 68.787" id="Path" fill="rgb(100,100,100)"/><path d=" M 75.266 71.844 C 75.266 71.865 75.265 71.885 75.26 71.905" id="Path" fill="rgb(100,100,100)"/></g><path d=" M 26.847 68.604 C 27.011 68.455 27.198 68.311 27.396 68.168 L 47.249 68.001" id="Path" fill="rgb(100,100,100)"/><rect x="25.016" y="69.469" width="50" height="2.925" transform="matrix(1,0,0,1,0,0)" id="Rectangle" fill="rgb(100,100,100)"/></g></svg>