<?xml version="1.0" encoding="UTF-8" standalone="no"?>
<!-- Generator: Gravit.io -->
<svg xmlns="http://www.w3.org/2000/svg" xmlns:xlink="http://www.w3.org/1999/xlink" style="isolation:isolate" viewBox="0 0 100 100" width="100" height="100"><g><polygon points="50,95,45,5,55,5" fill="rgb(100,150,240)"/><path d=" M 48.99 33.79 C 49.41 34.12 49.67 34.61 49.72 35.14 C 49.78 35.66 49.62 36.19 49.29 36.6 C 48.95 37.01 48.47 37.28 47.94 37.33 C 47.41 37.39 46.88 37.23 46.47 36.89 C 44.97 35.67 43.76 34.13 42.93 32.37 C 42.07 30.54 41.62 28.53 41.62 26.5 C 41.61 23.09 42.88 19.79 45.2 17.28 C 46.31 16.08 47.65 15.11 49.13 14.43 C 50.66 13.74 52.31 13.38 53.99 13.38 C 54.84 13.37 55.68 13.47 56.5 13.68 C 57.01 13.81 57.45 14.15 57.72 14.6 C 57.99 15.06 58.07 15.61 57.94 16.12 C 57.8 16.63 57.47 17.07 57.02 17.34 C 56.56 17.61 56.01 17.69 55.5 17.56 C 55.01 17.43 54.51 17.37 54.01 17.38 C 52.9 17.37 51.8 17.61 50.79 18.07 C 49.79 18.53 48.89 19.18 48.13 19.99 C 46.5 21.76 45.61 24.09 45.63 26.5 C 45.62 27.94 45.94 29.36 46.55 30.67 C 47.12 31.88 47.96 32.95 48.99 33.79 Z " fill="rgb(240,170,80)"/><path d=" M 52.778 45 L 52.5 50 L 50 95 L 47.5 50 L 47.222 45 L 52.778 45 L 52.778 45 Z " fill="rgb(100,150,240)"/><path d=" M 48.47 38.23 C 48.01 37.97 47.68 37.53 47.54 37.02 C 47.4 36.51 47.47 35.96 47.74 35.5 C 48 35.04 48.44 34.71 48.95 34.57 C 49.46 34.43 50.01 34.5 50.47 34.77 C 52.44 35.91 54.08 37.55 55.21 39.54 C 56.39 41.61 57.01 43.96 57 46.34 C 57.01 49.48 55.94 52.53 53.96 54.96 C 52.04 57.33 49.31 58.89 46.3 59.34 C 45.77 59.42 45.24 59.29 44.81 58.97 C 44.38 58.66 44.1 58.18 44.02 57.66 C 43.94 57.13 44.08 56.6 44.39 56.17 C 44.71 55.75 45.18 55.46 45.7 55.38 C 47.73 55.08 49.57 54.03 50.85 52.44 C 52.25 50.72 53.01 48.57 53 46.35 C 53.01 44.65 52.57 42.99 51.73 41.51 C 50.96 40.15 49.83 39.02 48.47 38.23 Z " fill="rgb(240,170,80)"/><path d=" M 52.778 45 L 53.611 30 L 53.611 30 L 46.389 30 L 47.222 45 L 52.778 45 L 52.778 45 Z " fill="rgb(100,150,240)"/></g></svg>