<?xml version="1.0" encoding="UTF-8" standalone="no"?>
<!-- Generator: Gravit.io -->
<svg xmlns="http://www.w3.org/2000/svg" xmlns:xlink="http://www.w3.org/1999/xlink" style="isolation:isolate" viewBox="0 0 100 100" width="100" height="100"><g id="drumpiece"/><g id="earpiece"><g id="Group"><g id="Group"><g id="Group"><circle vector-effect="non-scaling-stroke" cx="15.6" cy="67" r="10" id="Ellipse" fill="rgb(100,150,240)"/><circle vector-effect="non-scaling-stroke" cx="15.600000000000009" cy="67" r="7.4999999999999964" id="Ellipse" fill="rgb(250,250,250)" fill-opacity="0.5"/><path d=" M 15.63 52.56 L 9.77 53.85 C 9.17 51.14 8.87 48.39 8.87 45.62 C 8.87 35.78 12.7 26.31 19.53 19.22 C 26.7 11.81 36.57 7.62 46.88 7.63 C 56.72 7.62 66.2 11.45 73.28 18.29 C 80.69 25.45 84.88 35.32 84.88 45.63 C 84.88 48.51 84.55 51.38 83.91 54.19 L 78.06 52.84 C 78.6 50.48 78.88 48.06 78.88 45.63 C 78.88 36.95 75.35 28.63 69.11 22.6 C 63.14 16.84 55.17 13.62 46.88 13.63 C 38.2 13.62 29.88 17.15 23.85 23.39 C 18.09 29.36 14.87 37.33 14.87 45.62 C 14.87 47.95 15.13 50.28 15.63 52.56 Z " id="Path" fill="rgb(100,150,240)"/><rect x="9.611" y="51.948" width="6.978" height="5.843" transform="matrix(0.982,-0.188,0.23,0.974,-12.411,3.88)" id="Rectangle" fill="rgb(200,200,200)"/><path d=" M 64.383 67.285 C 64.303 67.811 64.028 68.292 63.597 68.603 C 63.174 68.926 62.641 69.06 62.113 68.99 C 61.597 68.912 61.119 68.628 60.805 68.207 C 60.482 67.784 60.348 67.25 60.418 66.722 C 60.487 66.246 60.577 65.764 60.685 65.296 C 61.557 61.505 63.71 58.121 66.775 55.728 C 70.817 52.563 76.071 51.402 81.071 52.552 C 84.862 53.424 88.245 55.577 90.639 58.642 C 93.803 62.684 94.975 67.941 93.815 72.938 C 93.81 72.957 93.806 72.977 93.799 73.006 L 93.546 73.974 C 93.407 74.486 93.071 74.921 92.62 75.187 C 92.159 75.451 91.608 75.529 91.096 75.391 C 90.584 75.252 90.148 74.916 89.882 74.465 C 89.619 74.004 89.541 73.453 89.679 72.941 L 89.923 72.012 C 90.802 68.192 89.897 64.187 87.488 61.098 C 85.656 58.758 83.078 57.118 80.174 56.45 C 76.354 55.571 72.332 56.462 69.241 58.881 C 66.891 60.71 65.251 63.288 64.583 66.193 C 64.5 66.553 64.437 66.918 64.383 67.285 Z " id="Path" fill="rgb(100,150,240)"/><path d=" M 67.193 70.456 C 67.104 70.846 66.863 71.181 66.527 71.391 C 66.191 71.601 65.785 71.672 65.395 71.582 C 65.006 71.492 64.671 71.251 64.461 70.915 C 64.251 70.58 64.18 70.174 64.27 69.784 L 64.942 66.86 C 65.032 66.47 65.273 66.136 65.609 65.926 C 65.945 65.716 66.351 65.645 66.741 65.735 C 67.13 65.824 67.465 66.065 67.675 66.401 C 67.885 66.737 67.956 67.143 67.866 67.533 L 67.193 70.456 Z " id="Path" fill="rgb(100,150,240)"/><rect x="75.488" y="52.045" width="10" height="6" transform="matrix(0.975,0.224,-0.224,0.975,14.389,-16.644)" id="Rectangle" fill="rgb(200,200,200)"/><path d=" M 88.633 75.389 C 88.544 75.778 88.303 76.113 87.967 76.323 C 87.631 76.533 87.225 76.604 86.835 76.514 C 86.446 76.424 86.111 76.183 85.901 75.848 C 85.691 75.512 85.62 75.106 85.71 74.716 L 86.382 71.792 C 86.472 71.402 86.713 71.068 87.049 70.858 C 87.385 70.648 87.791 70.577 88.181 70.667 C 88.57 70.756 88.905 70.998 89.115 71.333 C 89.325 71.669 89.396 72.075 89.306 72.465 L 88.633 75.389 Z " id="Path" fill="rgb(100,150,240)"/></g></g></g></g></svg>