<?xml version="1.0" encoding="UTF-8" standalone="no"?>
<!-- Generator: Gravit.io -->
<svg xmlns="http://www.w3.org/2000/svg" xmlns:xlink="http://www.w3.org/1999/xlink" style="isolation:isolate" viewBox="0 0 100 100" width="100" height="100"><g id="Group"><rect x="42.5" y="83" width="15" height="1" transform="matrix(1,0,0,1,0,0)" id="Rectangle" fill="rgb(200,100,100)"/><rect x="1" y="23" width="98" height="60" transform="matrix(1,0,0,1,0,0)" id="Rectangle" fill="rgb(200,100,100)"/><path d=" M 3.317 28.778 L 3.333 28.667 L 4.299 24.805 L 4.299 24.805 L 40.088 24.805 C 45.558 24.805 50 29.247 50 34.718 L 50 81 L 3 81 L 3 32" id="Path" fill="rgb(254,254,254)"/><path d=" M 3 31 L 3 81 L 4.377 81 L 4.377 24.805 L 5 22 L 3 31 Z " id="Path" fill="rgb(230,230,230)"/><path d=" M 96.683 28.778 L 96.667 28.667 L 95.701 24.805 L 95.701 24.805 L 59.912 24.805 C 54.442 24.805 50 29.247 50 34.718 L 50 81 L 97 81 L 97 32" id="Path" fill="rgb(248,248,248)"/><path d=" M 97 31 L 97 81 L 95.623 81 L 95.623 24.805 L 95 22 L 97 31 Z " id="Path" fill="rgb(230,230,230)"/><path d=" M 4.377 74 L 40.167 74 C 45.594 74 50 77.137 50 81 L 50 81 L 3 81 L 4.377 74 L 4.377 74 Z " id="Path" fill="rgb(220,220,220)"/><path d=" M 95.629 74 L 59.991 74 C 54.587 74 50.2 77.137 50.2 81 L 50.2 81 L 97 81 L 95.629 74 L 95.629 74 Z " id="Path" fill="rgb(220,220,220)"/></g><g id="Group"><rect x="9" y="31" width="30" height="2" transform="matrix(1,0,0,1,0,0)" id="Rectangle" fill="rgb(230,230,230)"/><rect x="9" y="35" width="30" height="2" transform="matrix(1,0,0,1,0,0)" id="Rectangle" fill="rgb(230,230,230)"/><rect x="9" y="39" width="25" height="2" transform="matrix(1,0,0,1,0,0)" id="Rectangle" fill="rgb(230,230,230)"/><rect x="61" y="31" width="30" height="2" transform="matrix(1,0,0,1,0,0)" id="Rectangle" fill="rgb(225,225,225)"/><rect x="61" y="35" width="30" height="2" transform="matrix(1,0,0,1,0,0)" id="Rectangle" fill="rgb(225,225,225)"/><rect x="61" y="39" width="30" height="2" transform="matrix(1,0,0,1,0,0)" id="Rectangle" fill="rgb(225,225,225)"/><rect x="61" y="45" width="30" height="14" transform="matrix(1,0,0,1,0,0)" id="Rectangle" fill="rgb(230,230,230)"/><rect x="61" y="63" width="30" height="2" transform="matrix(1,0,0,1,0,0)" id="Rectangle" fill="rgb(225,225,225)"/><rect x="61" y="67" width="30" height="2" transform="matrix(1,0,0,1,0,0)" id="Rectangle" fill="rgb(225,225,225)"/><rect x="9" y="43" width="25" height="2" transform="matrix(1,0,0,1,0,0)" id="Rectangle" fill="rgb(230,230,230)"/><rect x="9" y="47" width="30" height="2" transform="matrix(1,0,0,1,0,0)" id="Rectangle" fill="rgb(230,230,230)"/><rect x="9" y="51" width="30" height="2" transform="matrix(1,0,0,1,0,0)" id="Rectangle" fill="rgb(230,230,230)"/><rect x="9" y="55" width="30" height="2" transform="matrix(1,0,0,1,0,0)" id="Rectangle" fill="rgb(230,230,230)"/><rect x="9" y="59" width="30" height="2" transform="matrix(1,0,0,1,0,0)" id="Rectangle" fill="rgb(230,230,230)"/><rect x="9" y="63" width="30" height="2" transform="matrix(1,0,0,1,0,0)" id="Rectangle" fill="rgb(230,230,230)"/><rect x="9" y="67" width="30" height="2" transform="matrix(1,0,0,1,0,0)" id="Rectangle" fill="rgb(230,230,230)"/></g></svg>