<?xml version="1.0" encoding="UTF-8" standalone="no"?>
<!-- Generator: Gravit.io -->
<svg xmlns="http://www.w3.org/2000/svg" xmlns:xlink="http://www.w3.org/1999/xlink" style="isolation:isolate" viewBox="0 0 100 100" width="100" height="100"><g id="round flask"><circle vector-effect="non-scaling-stroke" cx="72.96875" cy="53.99999999999999" r="9" id="Ellipse" fill="rgb(230,230,230)"/><rect x="69.969" y="34" width="6" height="12" transform="matrix(1,0,0,1,0,0)" id="Rectangle" fill="rgb(230,230,230)"/><circle vector-effect="non-scaling-stroke" cx="73.09375" cy="53.999999999999986" r="8" id="Ellipse" fill="rgb(250,250,250)"/><rect x="70.969" y="35" width="4" height="12" transform="matrix(1,0,0,1,0,0)" id="Rectangle" fill="rgb(250,250,250)"/><path d="M 69.417 32.5 L 76.52 32.5 C 77.044 32.5 77.469 32.724 77.469 33 L 77.469 33 C 77.469 33.276 77.044 33.5 76.52 33.5 L 69.417 33.5 C 68.894 33.5 68.469 33.276 68.469 33 L 68.469 33 C 68.469 32.724 68.894 32.5 69.417 32.5 Z" style="stroke:none;fill:#E6E6E6;stroke-miterlimit:10;"/><path d=" M 81.069 54 C 81.069 58.415 77.484 62 73.069 62 C 68.653 62 65.069 58.415 65.069 54 L 81.069 54 L 81.069 54 Z " id="Path" fill="rgb(240,170,80)"/></g><g id="stand"><rect x="71" y="92" width="25" height="4" transform="matrix(1,0,0,1,0,0)" id="Rectangle" fill="rgb(100,100,100)"/><rect x="82.5" y="12" width="2" height="80" transform="matrix(1,0,0,1,0,0)" id="Rectangle" fill="rgb(100,100,100)"/><rect x="64" y="39" width="18" height="1" transform="matrix(1,0,0,1,0,0)" id="Rectangle" fill="rgb(100,100,100)"/><rect x="81" y="38" width="5" height="3" transform="matrix(1,0,0,1,0,0)" id="Rectangle" fill="rgb(200,200,200)"/><rect x="81" y="90" width="5" height="2" transform="matrix(1,0,0,1,0,0)" id="Rectangle" fill="rgb(200,200,200)"/></g><g id="bubbles"><circle vector-effect="non-scaling-stroke" cx="71" cy="50.999999999999986" r="2" id="Ellipse" fill="rgb(240,170,80)" fill-opacity="0.9"/><circle vector-effect="non-scaling-stroke" cx="73" cy="45.499999999999986" r="1.5" id="Ellipse" fill="rgb(240,170,80)" fill-opacity="0.9"/><circle vector-effect="non-scaling-stroke" cx="72.2" cy="36.499999999999986" r="1" id="Ellipse" fill="rgb(240,170,80)" fill-opacity="0.9"/><circle vector-effect="non-scaling-stroke" cx="73.5" cy="28.999999999999986" r="1" id="Ellipse" fill="rgb(240,170,80)" fill-opacity="0.9"/><circle vector-effect="non-scaling-stroke" cx="73" cy="22.499999999999986" r="0.5" id="Ellipse" fill="rgb(240,170,80)" fill-opacity="0.9"/></g><g id="orange flask"><rect x="11.779" y="69.447" width="8.771" height="10.403" transform="matrix(1,0,0,1,0,0)" id="Rectangle" fill="rgb(230,230,230)"/><path d=" M 25.662 96 L 16.191 96 L 6.72 96 C 4.291 96 3.306 94.293 4.52 92.189 L 9.255 83.987 L 13.991 75.785 C 15.205 73.682 17.177 73.682 18.391 75.785 L 23.126 83.987 L 27.862 92.189 C 29.076 94.293 28.09 96 25.662 96 Z " id="Polygon" fill="rgb(230,230,230)"/><path d="M 10.963 67.183 L 21.571 67.183 C 22.021 67.183 22.387 67.548 22.387 67.999 L 22.387 67.999 C 22.387 68.449 22.021 68.815 21.571 68.815 L 10.963 68.815 C 10.513 68.815 10.148 68.449 10.148 67.999 L 10.148 67.999 C 10.148 67.548 10.513 67.183 10.963 67.183 Z" style="stroke:none;fill:#E6E6E6;stroke-miterlimit:10;"/><rect x="12.595" y="70.283" width="7.099" height="9.546" transform="matrix(1,0,0,1,0,0)" id="Rectangle" fill="rgb(250,250,250)"/><path d=" M 24.226 95.278 L 16.124 95.278 L 8.022 95.278 C 5.593 95.278 4.582 93.556 5.764 91.435 L 9.873 84.065 L 13.981 76.695 C 15.164 74.574 17.084 74.574 18.266 76.695 L 22.375 84.065 L 26.483 91.435 C 27.666 93.556 26.654 95.278 24.226 95.278 Z " id="Polygon" fill="rgb(250,250,250)"/><path d=" M 24.517 87.908 L 26.878 92.142 C 27.843 93.873 27.017 95.278 25.036 95.278 L 16.124 95.278 L 7.212 95.278 C 5.23 95.278 4.405 93.873 5.37 92.142 L 7.73 87.908 L 24.517 87.908 L 24.517 87.908 Z " id="Path" fill="rgb(240,170,80)"/></g><g id="blue flask"><rect x="39.779" y="69.447" width="8.771" height="10.403" transform="matrix(1,0,0,1,0,0)" id="Rectangle" fill="rgb(230,230,230)"/><path d=" M 53.662 96 L 44.191 96 L 34.72 96 C 32.291 96 31.306 94.293 32.52 92.189 L 37.255 83.987 L 41.991 75.785 C 43.205 73.682 45.177 73.682 46.391 75.785 L 51.126 83.987 L 55.862 92.189 C 57.076 94.293 56.09 96 53.662 96 Z " id="Polygon" fill="rgb(230,230,230)"/><path d="M 38.963 67.183 L 49.571 67.183 C 50.021 67.183 50.387 67.548 50.387 67.999 L 50.387 67.999 C 50.387 68.449 50.021 68.815 49.571 68.815 L 38.963 68.815 C 38.513 68.815 38.148 68.449 38.148 67.999 L 38.148 67.999 C 38.148 67.548 38.513 67.183 38.963 67.183 Z" style="stroke:none;fill:#E6E6E6;stroke-miterlimit:10;"/><rect x="40.595" y="70.283" width="7.099" height="9.546" transform="matrix(1,0,0,1,0,0)" id="Rectangle" fill="rgb(250,250,250)"/><path d=" M 52.226 95.278 L 44.124 95.278 L 36.022 95.278 C 33.593 95.278 32.582 93.556 33.764 91.435 L 37.873 84.065 L 41.981 76.695 C 43.164 74.574 45.084 74.574 46.266 76.695 L 50.375 84.065 L 54.483 91.435 C 55.666 93.556 54.654 95.278 52.226 95.278 Z " id="Polygon" fill="rgb(250,250,250)"/><path d=" M 52.517 87.908 L 54.878 92.142 C 55.843 93.873 55.017 95.278 53.036 95.278 L 44.124 95.278 L 35.212 95.278 C 33.23 95.278 32.405 93.873 33.37 92.142 L 35.73 87.908 L 52.517 87.908 L 52.517 87.908 Z " id="Path" fill="rgb(100,150,240)"/></g></svg>