<?xml version="1.0" encoding="UTF-8" standalone="no"?>
<!-- Generator: Gravit.io -->
<svg xmlns="http://www.w3.org/2000/svg" xmlns:xlink="http://www.w3.org/1999/xlink" style="isolation:isolate" viewBox="0 0 800 800" width="800" height="800"><defs><clipPath id="_clipPath_DYWiLBj9Vz8OQ8ZoVbEQ0uW2NBwA0gt8"><rect width="800" height="800"/></clipPath></defs><g clip-path="url(#_clipPath_DYWiLBj9Vz8OQ8ZoVbEQ0uW2NBwA0gt8)"><ellipse vector-effect="non-scaling-stroke" cx="400" cy="721" rx="325" ry="13" id="shadow" fill="rgb(180,180,180)"/><g id="me"><g id="Group"><g id="Group"><g id="Group"><rect x="315.5" y="436.5" width="170" height="50" transform="matrix(1,0,0,1,0,0)" id="Rectangle" fill="rgb(80,80,80)"/><circle vector-effect="non-scaling-stroke" cx="401.0000000000001" cy="158.00000140310698" r="57.5" id="Ellipse" fill="rgb(229,191,191)"/><circle vector-effect="non-scaling-stroke" cx="282.50000000000006" cy="235.50000140310698" r="20" id="Ellipse" fill="rgb(230,230,230)"/><circle vector-effect="non-scaling-stroke" cx="282.49999999999994" cy="379.5000014031068" r="20" id="Ellipse" fill="rgb(229,191,191)"/><rect x="262.5" y="237.5" width="40" height="140" transform="matrix(1,0,0,1,0,0)" id="Rectangle" fill="rgb(230,230,230)"/><circle vector-effect="non-scaling-stroke" cx="517.5" cy="238.50000140310692" r="20" id="Ellipse" fill="rgb(230,230,230)"/><circle vector-effect="non-scaling-stroke" cx="517.5" cy="379.5000014031068" r="20" id="Ellipse" fill="rgb(229,191,191)"/><g id="Group"><rect x="309.864" y="220.454" width="180" height="220" transform="matrix(1,0,0,1,0,0)" id="Rectangle" fill="rgb(74,134,232)"/><polygon points="390.864,220.454,412.864,220.47,401.85,239.515" id="Polygon" fill="rgb(229,191,191)"/><line x1="397.864" y1="238.454" x2="397.864" y2="438.454" id="Path" vector-effect="non-scaling-stroke" stroke-width="1" stroke="rgb(67,121,209)" stroke-linejoin="miter" stroke-linecap="square" stroke-miterlimit="3"/><g id="Group"><circle vector-effect="non-scaling-stroke" cx="403.8640235336018" cy="256.4543521112168" r="4" id="Ellipse" fill="rgb(52,94,162)"/><circle vector-effect="non-scaling-stroke" cx="403.8640235336018" cy="296.4543521112168" r="4" id="Ellipse" fill="rgb(52,94,162)"/><circle vector-effect="non-scaling-stroke" cx="403.8640235336018" cy="336.4543521112168" r="4" id="Ellipse" fill="rgb(52,94,162)"/><circle vector-effect="non-scaling-stroke" cx="403.8640235336018" cy="376.4543521112168" r="4" id="Ellipse" fill="rgb(52,94,162)"/><circle vector-effect="non-scaling-stroke" cx="403.8640235336018" cy="416.4543521112168" r="4" id="Ellipse" fill="rgb(52,94,162)"/></g></g><path d=" M 416.424 220.454 L 418.248 247.748 L 402.549 239.564 L 413.376 220.454 L 416.424 220.454 Z " id="Path" fill="rgb(67,121,209)" vector-effect="non-scaling-stroke" stroke-width="1" stroke="rgb(67,121,209)" stroke-linejoin="miter" stroke-linecap="square" stroke-miterlimit="3"/><path d=" M 390.337 220.454 L 401.59 239.39 L 386.064 247.897 L 387.328 220.454 L 390.337 220.454 Z " id="Path" fill="rgb(67,121,209)" vector-effect="non-scaling-stroke" stroke-width="1" stroke="rgb(67,121,209)" stroke-linejoin="miter" stroke-linecap="square" stroke-miterlimit="3"/><line x1="325.772" y1="218.454" x2="326.635" y2="219.93" id="Path"/><line x1="475.231" y1="218.508" x2="474.364" y2="219.982" id="Path"/><path d=" M 492.136 219.828 L 490.203 442.546 L 425.028 441.714 C 422.165 435.829 420.805 432.156 418.994 425.422 C 417.2 418.75 417.192 418.472 415.833 407.636 C 414.474 396.801 414.321 388.478 415.551 376.461 C 416.541 366.777 417.609 361.328 420.269 352.38 L 475.137 219.994" id="Path" fill="rgb(230,230,230)"/><path d=" M 428.645 334.765 L 473.565 273.551 L 465.625 260.062 L 488.954 249.443 L 474.999 221.331 L 428.645 334.765 Z " id="Path" fill="rgb(224,224,224)" vector-effect="non-scaling-stroke" stroke-width="1" stroke="rgb(210,210,210)" stroke-linejoin="miter" stroke-linecap="square" stroke-miterlimit="3"/><g id="Group"><path d=" M 308.864 219.733 L 310.248 442.454 L 375.425 441.783 C 378.302 435.905 379.671 432.236 381.499 425.506 C 383.31 418.839 383.318 418.561 384.704 407.729 C 386.09 396.897 386.263 388.574 385.063 376.554 C 384.096 366.867 383.042 361.416 380.404 352.461 L 325.863 219.94" id="Path" fill="rgb(230,230,230)"/><path d=" M 371.77 333.895 L 327.125 272.48 L 335.126 259.027 L 311.845 248.303 L 325.926 220.254 L 371.77 333.895 Z " id="Path" fill="rgb(224,224,224)" vector-effect="non-scaling-stroke" stroke-width="1" stroke="rgb(210,210,210)" stroke-linejoin="miter" stroke-linecap="square" stroke-miterlimit="3"/><rect x="321.864" y="400.454" width="40" height="4" transform="matrix(1,0,0,1,0,0)" id="Rectangle" fill="rgb(228,228,228)" vector-effect="non-scaling-stroke" stroke-width="1" stroke="rgb(220,220,220)" stroke-linejoin="miter" stroke-linecap="square" stroke-miterlimit="2"/></g><rect x="435.864" y="400.454" width="40" height="4" transform="matrix(1,0,0,1,0,0)" id="Rectangle" fill="rgb(228,228,228)" vector-effect="non-scaling-stroke" stroke-width="1" stroke="rgb(220,220,220)" stroke-linejoin="miter" stroke-linecap="square" stroke-miterlimit="2"/><rect x="455.864" y="300.454" width="20" height="2" transform="matrix(1,0,0,1,0,0)" id="Rectangle" fill="rgb(222,222,222)" vector-effect="non-scaling-stroke" stroke-width="1" stroke="rgb(220,220,220)" stroke-linejoin="miter" stroke-linecap="square" stroke-miterlimit="2"/><rect x="461.864" y="291.954" width="2" height="8" transform="matrix(1,0,0,1,0,0)" id="Rectangle" fill="rgb(80,80,80)"/><rect x="462.364" y="299.954" width="1" height="4" transform="matrix(1,0,0,1,0,0)" id="Rectangle" fill="rgb(80,80,80)"/><rect x="465.864" y="291.954" width="2" height="8" transform="matrix(1,0,0,1,0,0)" id="Rectangle" fill="rgb(0,140,0)"/><rect x="466.364" y="299.954" width="1" height="4" transform="matrix(1,0,0,1,0,0)" id="Rectangle" fill="rgb(0,140,0)"/><rect x="470.364" y="299.954" width="1" height="4" transform="matrix(1,0,0,1,0,0)" id="Rectangle" fill="rgb(180,0,0)"/><rect x="469.864" y="291.954" width="2" height="8" transform="matrix(1,0,0,1,0,0)" id="Rectangle" fill="rgb(180,0,0)"/><rect x="497.5" y="237.5" width="40" height="140" transform="matrix(1,0,0,1,0,0)" id="Rectangle" fill="rgb(230,230,230)"/><rect x="315.5" y="487.5" width="56" height="200" transform="matrix(1,0,0,1,0,0)" id="Rectangle" fill="rgb(80,80,80)"/><rect x="429.5" y="487.5" width="56" height="200" transform="matrix(1,0,0,1,0,0)" id="Rectangle" fill="rgb(80,80,80)"/><rect x="315.5" y="447.5" width="170" height="8" transform="matrix(1,0,0,1,0,0)" id="Rectangle" fill="rgb(58,58,58)"/><path d=" M 310.2 440 L 376 440 Q 374.66 443.299 372.899 446.333 C 371.138 449.368 371.737 448.477 370.509 450.556 Q 369.28 452.634 366.279 455.833 L 363.596 459 L 310.2 459 L 310.2 440 Z " id="Path" fill="rgb(230,230,230)"/><path d=" M 490.181 440 L 424 440 C 425.218 442.174 425.742 443.212 427.502 446.167 C 429.263 449.122 428.664 448.254 429.892 450.278 Q 431.12 452.302 434.121 455.417 L 436.802 458.5 L 490.181 458.5 L 490.181 440 Z " id="Path" fill="rgb(230,230,230)"/><rect x="389.5" y="446.5" width="12" height="10" transform="matrix(1,0,0,1,0,0)" id="Rectangle" fill="none" vector-effect="non-scaling-stroke" stroke-width="1" stroke="rgb(185,185,185)" stroke-linejoin="miter" stroke-linecap="square" stroke-miterlimit="2"/><line x1="388.5" y1="451.5" x2="395.75" y2="451.5" id="Path" vector-effect="non-scaling-stroke" stroke-width="1" stroke="rgb(185,185,185)" stroke-linejoin="miter" stroke-linecap="square" stroke-miterlimit="3"/><rect x="315.5" y="688.5" width="59" height="30" transform="matrix(1,0,0,1,0,0)" id="Rectangle" fill="rgb(58,58,58)"/><rect x="425.5" y="688.5" width="59" height="30" transform="matrix(1,0,0,1,0,0)" id="Rectangle" fill="rgb(58,58,58)"/><path d=" M 316.5 688.5 L 316.5 688.5 C 335.817 688.5 351.5 695.221 351.5 703.5 L 351.5 703.5 C 351.5 711.779 335.817 718.5 316.5 718.5 L 316.5 718.5 C 297.183 718.5 281.5 711.779 281.5 703.5 L 281.5 703.5 C 281.5 695.221 297.183 688.5 316.5 688.5 Z " id="Path" fill="rgb(58,58,58)"/><path d=" M 484.5 688.5 L 484.5 688.5 C 503.817 688.5 519.5 695.221 519.5 703.5 L 519.5 703.5 C 519.5 711.779 503.817 718.5 484.5 718.5 L 484.5 718.5 C 465.183 718.5 449.5 711.779 449.5 703.5 L 449.5 703.5 C 449.5 695.221 465.183 688.5 484.5 688.5 Z " id="Path" fill="rgb(58,58,58)"/></g><path d=" M 384.616 189.5 L 420.384 189.5 Q 419.062 192.859 417.917 194.433 C 416.831 195.927 415.672 197.002 414.217 198.134 C 411.907 199.93 409.667 201.146 406.817 201.834 C 403.84 202.552 401.128 202.73 398.183 201.834 C 395.741 201.091 394.01 199.696 392.016 198.134 C 390.082 196.618 388.599 195.134 387.083 193.2 Q 386.118 191.969 384.616 189.5 Z " id="Path" fill="rgb(248,248,248)" vector-effect="non-scaling-stroke" stroke-width="2" stroke="rgb(180,100,100)" stroke-linejoin="miter" stroke-linecap="square" stroke-miterlimit="3"/><g id="Group"><path d="M 359.717 141.5 L 389.283 141.5 C 392.162 141.5 394.5 143.838 394.5 146.717 L 394.5 156.283 C 394.5 159.162 392.162 161.5 389.283 161.5 L 359.717 161.5 C 356.838 161.5 354.5 159.162 354.5 156.283 L 354.5 146.717 C 354.5 143.838 356.838 141.5 359.717 141.5 Z" style="fill:none;stroke:#323232;stroke-width:2;stroke-linecap:square;stroke-miterlimit:2;"/><path d="M 411.717 141.5 L 441.283 141.5 C 444.162 141.5 446.5 143.838 446.5 146.717 L 446.5 156.283 C 446.5 159.162 444.162 161.5 441.283 161.5 L 411.717 161.5 C 408.838 161.5 406.5 159.162 406.5 156.283 L 406.5 146.717 C 406.5 143.838 408.838 141.5 411.717 141.5 Z" style="fill:none;stroke:#323232;stroke-width:2;stroke-linecap:square;stroke-miterlimit:2;"/><path d=" M 395.5 147.5 Q 398.285 145.552 400.296 145.502 Q 402.451 145.447 405.5 147.5" id="Path" fill="none" vector-effect="non-scaling-stroke" stroke-width="2" stroke="rgb(50,50,50)" stroke-linejoin="miter" stroke-linecap="square" stroke-miterlimit="3"/></g></g><path d=" M 388.548 118.5 L 374.568 134.201 L 378.548 122.5 Q 372.185 130.094 367.548 132.5 Q 364.255 134.208 357.548 135.5 L 359.548 123.5 L 347.548 135.5 Q 346.467 139.038 346.048 141 C 345.528 143.429 345.305 145.527 345.048 148 C 344.701 151.325 344.404 154.155 344.548 157.5 Q 344.731 161.787 346.548 169.5 Q 338.832 164.84 336.548 160.5 Q 334.372 156.366 334.5 147.5 Q 333.89 131.597 336.5 123.5 Q 338.903 116.044 347.5 104.5 L 357.5 97.5 L 347.5 90.5 L 376.5 90.5 L 369.5 81.5 L 391.5 82.5 L 411.548 88.5 L 431.548 85.5 L 428.548 91.5 L 449.548 91.5 L 440.548 96.5 L 456.548 103.75 Q 460.956 108.393 462.548 111.5 Q 464.773 115.842 465.548 125 Q 466.368 132.446 466.548 136.5 Q 466.734 140.713 466.548 148.5 Q 466.309 155.346 464.548 158.5 Q 462.662 161.877 456.548 165.5 Q 457.509 160.341 457.548 157.5 C 457.591 154.308 456.938 152.012 456.548 148.5 C 456.157 144.988 456.346 142.584 455.548 139.5 Q 454.457 135.283 450.228 128.477 L 444.759 120.845 L 446.582 130.385 Q 440.574 124.781 437.548 121.5 Q 434.776 118.494 430.033 112.588 L 433.68 124.036 L 437.548 130.5 L 426.548 124.5 Q 422.612 121.976 420.548 120.5 C 419.12 119.479 417.884 118.651 416.548 117.5 Q 414.058 115.356 410.255 110.546 L 413.765 120.845 L 416.548 126.5 Q 409.346 122.142 406.548 118.5 Q 404.365 115.659 401.915 109.397 Q 398.032 116.13 395.548 119.5 Q 393.557 122.201 389.461 126.819 L 388.548 118.5 Z " id="Path" fill="rgb(80,50,0)" vector-effect="non-scaling-stroke" stroke-width="1" stroke="rgb(150,90,0)" stroke-linejoin="miter" stroke-linecap="square" stroke-miterlimit="3"/></g><path d=" M 400.5 91.833 Q 394.169 88.8 390.5 87.833 Q 387.74 87.106 382.5 86.5" id="Path" fill="none" vector-effect="non-scaling-stroke" stroke-width="1" stroke="rgb(120,60,0)" stroke-linejoin="miter" stroke-linecap="square" stroke-miterlimit="3"/><path d=" M 447.5 104.5 Q 451.777 105.838 453.5 107.5 Q 454.992 108.939 456.5 112.5" id="Path" fill="none" vector-effect="non-scaling-stroke" stroke-width="1" stroke="rgb(120,60,0)" stroke-linejoin="miter" stroke-linecap="square" stroke-miterlimit="3"/><path d=" M 416.477 99.147 Q 412.907 96.813 410.647 96.5 Q 408.067 96.142 403.5 97.886" id="Path" fill="none" vector-effect="non-scaling-stroke" stroke-width="1" stroke="rgb(120,60,0)" stroke-linejoin="miter" stroke-linecap="square" stroke-miterlimit="3"/><path d=" M 413.5 93.993 Q 416.703 92.873 418.5 92.5 Q 420.427 92.1 424.058 91.868" id="Path" fill="none" vector-effect="non-scaling-stroke" stroke-width="1" stroke="rgb(120,60,0)" stroke-linejoin="miter" stroke-linecap="square" stroke-miterlimit="3"/><path d=" M 427.5 95.5 L 433.437 94.57 L 438.5 94.5" id="Path" fill="none" vector-effect="non-scaling-stroke" stroke-width="1" stroke="rgb(120,60,0)" stroke-linejoin="miter" stroke-linecap="square" stroke-miterlimit="3"/><path d=" M 387.114 97.026 Q 390.938 95.219 393.195 95.285 Q 395.781 95.36 399.886 97.974" id="Path" fill="none" vector-effect="non-scaling-stroke" stroke-width="1" stroke="rgb(120,60,0)" stroke-linejoin="miter" stroke-linecap="square" stroke-miterlimit="3"/><path d=" M 377.6 98.448 L 370.5 95.5 L 361.5 94.5" id="Path" fill="none" vector-effect="non-scaling-stroke" stroke-width="1" stroke="rgb(120,60,0)" stroke-linejoin="miter" stroke-linecap="square" stroke-miterlimit="3"/><path d=" M 351.5 108.5 Q 353.889 106.235 355.5 105.5 Q 357.467 104.602 361.5 104.5" id="Path" fill="none" vector-effect="non-scaling-stroke" stroke-width="1" stroke="rgb(120,60,0)" stroke-linejoin="miter" stroke-linecap="square" stroke-miterlimit="3"/><g id="Group"><path d=" M 364.5 152.5 C 364.5 149.28 366.761 147.5 372.499 147.5 C 378.238 147.5 387.368 148.958 387.498 152.5 C 387.617 155.719 381.238 157.5 375.499 157.5 C 369.76 157.5 364.5 155.72 364.5 152.5 Z " id="Path" fill="rgb(230,230,230)"/><path d=" M 377.5 147.5 C 378.727 148.407 379.5 149.862 379.5 151.5 C 379.5 154.26 377.26 156.5 374.5 156.5 C 371.74 156.5 369.5 154.26 369.5 151.5 C 369.5 149.862 370.289 148.407 371.517 147.5 L 377.5 147.5 Z " id="Path" fill="rgb(170,100,0)"/><circle vector-effect="non-scaling-stroke" cx="374.50000000000006" cy="151.50000140310698" r="1" id="Ellipse" fill="rgb(128,77,0)"/><circle vector-effect="non-scaling-stroke" cx="377.50000000000006" cy="149.50000140310698" r="1" id="Ellipse" fill="rgb(230,230,230)"/></g><g id="Group"><path d=" M 437.5 152.5 C 437.5 149.28 435.239 147.5 429.501 147.5 C 423.762 147.5 414.632 148.958 414.502 152.5 C 414.383 155.719 420.762 157.5 426.501 157.5 C 432.24 157.5 437.5 155.72 437.5 152.5 Z " id="Path" fill="rgb(230,230,230)"/><path d=" M 424.5 147.5 C 423.273 148.407 422.5 149.862 422.5 151.5 C 422.5 154.26 424.74 156.5 427.5 156.5 C 430.26 156.5 432.5 154.26 432.5 151.5 C 432.5 149.862 431.711 148.407 430.483 147.5 L 424.5 147.5 Z " id="Path" fill="rgb(170,100,0)"/><circle vector-effect="non-scaling-stroke" cx="427.49999999999994" cy="151.50000140310698" r="1" id="Ellipse" fill="rgb(128,77,0)"/><circle vector-effect="non-scaling-stroke" cx="430.49999999999994" cy="149.50000140310698" r="1" id="Ellipse" fill="rgb(230,230,230)"/></g></g><g id="sparky"><path d=" M 629.373 229.472 C 646.171 242.225 749.429 383.092 695.501 573.514 C 695.07 575.034 688.163 603.531 670.943 647.383" id="Path" fill="none" vector-effect="non-scaling-stroke" stroke-width="17.691" stroke="rgb(74,134,232)" stroke-linejoin="miter" stroke-linecap="square" stroke-miterlimit="3"/><path d=" M 590.635 138.273 C 603.088 136.468 620.618 130.423 631.513 111.552 Q 624.79 156.258 638.74 163.155" id="Path" fill="rgb(74,134,232)"/><polygon points="628.146,220.076,643.922,172.237,610.381,134.654,561.062,144.911,545.286,192.75,578.827,230.333" id="Polygon" fill="rgb(74,134,232)"/><path d=" M 602.636 168.581 C 595.564 164.498 586.508 166.925 582.425 173.997 C 578.342 181.068 580.769 190.125 587.841 194.208 C 594.913 198.29 603.969 195.864 608.052 188.792 C 612.135 181.72 609.708 172.664 602.636 168.581 Z " id="Ellipse" fill="rgb(100,160,250)"/><path d=" M 635.825 196.756 C 629.78 207.727 639.919 233.247 647.526 241.11 C 618.974 234.459 621.246 226.515 600.186 225.925" id="Path" fill="rgb(74,134,232)"/><path d=" M 604.576 225.834 C 589.527 226.007 582.609 234.842 578.693 245.619 Q 578.273 228.312 564.178 214.68" id="Path" fill="rgb(74,134,232)"/><path d=" M 630.023 154.073 C 637.921 165.574 655.643 172.178 667.018 170.738 Q 642.224 180.905 636.034 196.156" id="Path" fill="rgb(74,134,232)"/><path d=" M 565.435 215.984 C 558.362 206.694 535.542 196.225 524.394 198.905 Q 548.696 184.669 553.174 168.83" id="Path" fill="rgb(74,134,232)"/><path d=" M 548.749 181.767 C 558.96 162.086 553.502 135.077 544.578 127.878 Q 576.081 141.44 591.319 138.09" id="Path" fill="rgb(74,134,232)"/><path d=" M 585.382 229.525 C 573.984 248.325 570.243 265.727 573.368 276.382" id="Path" fill="none" vector-effect="non-scaling-stroke" stroke-width="3.538" stroke="rgb(74,134,232)" stroke-linejoin="miter" stroke-linecap="square" stroke-miterlimit="3"/><path d=" M 577.188 227.686 C 581.155 243.859 568.014 264.615 556.247 269.968" id="Path" fill="none" vector-effect="non-scaling-stroke" stroke-width="3.538" stroke="rgb(74,134,232)" stroke-linejoin="miter" stroke-linecap="square" stroke-miterlimit="3"/><path d=" M 536.179 193.019 C 511.191 209.249 483.54 202.54 476 193.559" id="Path" fill="none" vector-effect="non-scaling-stroke" stroke-width="3.538" stroke="rgb(74,134,232)" stroke-linejoin="miter" stroke-linecap="square" stroke-miterlimit="3"/><path d=" M 545.806 200.891 C 532.088 194.899 510.558 200.312 494.573 222.503" id="Path" fill="none" vector-effect="non-scaling-stroke" stroke-width="3.538" stroke="rgb(74,134,232)" stroke-linejoin="miter" stroke-linecap="square" stroke-miterlimit="3"/><path d=" M 693.75 200.121 C 680.593 168.809 669.112 165.651 651.235 175.575" id="Path" fill="none" vector-effect="non-scaling-stroke" stroke-width="3.538" stroke="rgb(74,134,232)" stroke-linejoin="miter" stroke-linecap="square" stroke-miterlimit="3"/><path d=" M 717.606 172.826 C 711.729 181.002 693.125 183.897 679.906 176.51" id="Path" fill="none" vector-effect="non-scaling-stroke" stroke-width="3.538" stroke="rgb(74,134,232)" stroke-linejoin="miter" stroke-linecap="square" stroke-miterlimit="3"/><path d=" M 649.491 71.897 C 650.737 94.132 631.584 93.153 628.022 121.105" id="Path" fill="none" vector-effect="non-scaling-stroke" stroke-width="3.538" stroke="rgb(74,134,232)" stroke-linejoin="miter" stroke-linecap="square" stroke-miterlimit="3"/><path d=" M 636.416 71 C 627.936 77.673 644.697 87.578 638.819 96.392" id="Path" fill="none" vector-effect="non-scaling-stroke" stroke-width="2.123" stroke="rgb(74,134,232)" stroke-linejoin="miter" stroke-linecap="square" stroke-miterlimit="3"/><path d=" M 512.325 108.101 C 531.783 109.212 539.796 127.143 550.401 131.819" id="Path" fill="none" vector-effect="non-scaling-stroke" stroke-width="3.538" stroke="rgb(74,134,232)" stroke-linejoin="miter" stroke-linecap="square" stroke-miterlimit="3"/><path d=" M 516.96 120.61 C 532.887 116.068 547.19 128.465 551.226 134.898" id="Path" fill="none" vector-effect="non-scaling-stroke" stroke-width="3.538" stroke="rgb(74,134,232)" stroke-linejoin="miter" stroke-linecap="square" stroke-miterlimit="3"/><path d="M 630.978 250.255 L 659.162 295.179 C 661.67 299.176 666.95 300.385 670.947 297.878 L 677.681 293.653 C 681.677 291.146 682.887 285.865 680.379 281.868 L 652.195 236.944 C 649.688 232.947 644.407 231.738 640.41 234.246 L 633.677 238.47 C 629.68 240.978 628.471 246.258 630.978 250.255 Z" style="stroke:none;fill:#F08C00;stroke-linecap:square;stroke-miterlimit:2;opacity:0.6;"/><path d="M 670.807 322.022 L 686.756 372.599 C 688.175 377.099 692.98 379.601 697.48 378.182 L 705.061 375.791 C 709.561 374.372 712.062 369.567 710.643 365.067 L 694.694 314.489 C 693.275 309.989 688.47 307.488 683.97 308.907 L 676.389 311.297 C 671.889 312.716 669.388 317.522 670.807 322.022 Z" style="stroke:none;fill:#F08C00;stroke-linecap:square;stroke-miterlimit:2;opacity:0.6;"/><path d="M 694.118 402.248 L 698.319 455.114 C 698.693 459.818 702.815 463.333 707.518 462.959 L 715.442 462.329 C 720.146 461.955 723.661 457.833 723.287 453.13 L 719.086 400.264 C 718.712 395.56 714.59 392.045 709.886 392.419 L 701.962 393.049 C 697.259 393.422 693.744 397.544 694.118 402.248 Z" style="stroke:none;fill:#F08C00;stroke-linecap:square;stroke-miterlimit:2;opacity:0.6;"/><path d="M 699.205 483.559 L 692.267 536.137 C 691.65 540.814 694.947 545.113 699.625 545.73 L 707.505 546.77 C 712.183 547.388 716.482 544.091 717.099 539.413 L 724.036 486.836 C 724.654 482.158 721.357 477.859 716.679 477.242 L 708.799 476.202 C 704.121 475.585 699.822 478.882 699.205 483.559 Z" style="stroke:none;fill:#F08C00;stroke-linecap:square;stroke-miterlimit:2;opacity:0.6;"/><path d="M 685.666 566.381 L 669.278 616.818 C 667.82 621.305 670.28 626.132 674.767 627.59 L 682.327 630.047 C 686.814 631.505 691.641 629.045 693.099 624.558 L 709.487 574.121 C 710.945 569.633 708.486 564.806 703.998 563.348 L 696.439 560.892 C 691.951 559.434 687.124 561.893 685.666 566.381 Z" style="stroke:none;fill:#F08C00;stroke-linecap:square;stroke-miterlimit:2;opacity:0.6;"/><path d=" M 713.949 701.133 C 696.946 696.375 660.817 688.967 673.98 649.136" id="Path" fill="none" vector-effect="non-scaling-stroke" stroke-width="7.077" stroke="rgb(74,134,232)" stroke-linejoin="miter" stroke-linecap="square" stroke-miterlimit="3"/><path d=" M 616.39 696.288 C 645.604 693.777 658.655 665.16 667.03 647.148" id="Path" fill="none" vector-effect="non-scaling-stroke" stroke-width="7.077" stroke="rgb(74,134,232)" stroke-linejoin="miter" stroke-linecap="square" stroke-miterlimit="3"/><path d=" M 619.116 677.038 C 628.975 688.515 639.322 688.126 649.372 677.732" id="Path" fill="none" vector-effect="non-scaling-stroke" stroke-width="3.538" stroke="rgb(74,134,232)" stroke-linejoin="miter" stroke-linecap="square" stroke-miterlimit="3"/><path d=" M 629.234 714.115 C 625.406 708.723 626.034 700.121 640.941 687.325" id="Path" fill="none" vector-effect="non-scaling-stroke" stroke-width="3.538" stroke="rgb(74,134,232)" stroke-linejoin="miter" stroke-linecap="square" stroke-miterlimit="3"/><path d=" M 722.434 679.424 C 707.866 700.285 706.734 696.538 692.14 694.326" id="Path" fill="none" vector-effect="non-scaling-stroke" stroke-width="3.538" stroke="rgb(74,134,232)" stroke-linejoin="miter" stroke-linecap="square" stroke-miterlimit="3"/><path d=" M 710.288 721 C 710.047 717.759 714.274 707.327 693.691 694.643" id="Path" fill="none" vector-effect="non-scaling-stroke" stroke-width="3.538" stroke="rgb(74,134,232)" stroke-linejoin="miter" stroke-linecap="square" stroke-miterlimit="3"/></g><g id="suki"><path d=" M 148.644 672.323 C 149.151 673.64 149.119 675.107 148.543 676.403 C 147.972 677.693 146.911 678.706 145.589 679.218 C 144.272 679.724 142.806 679.692 141.51 679.117 C 140.219 678.546 139.206 677.485 138.694 676.163 C 137.793 673.832 136.807 671.529 135.73 669.268 C 134.845 667.402 133.869 665.573 132.808 663.797 C 131.949 662.358 131.005 660.966 129.982 659.638 C 129.166 658.577 128.27 657.58 127.305 656.658 C 126.542 655.922 125.716 655.261 124.836 654.679 C 124.122 654.205 123.359 653.805 122.57 653.485 C 121.157 652.925 119.648 652.642 118.128 652.648 C 117.163 652.653 116.198 652.738 115.244 652.909 C 114.177 653.096 113.127 653.346 112.087 653.656 C 110.951 653.997 109.826 654.381 108.717 654.797 C 107.528 655.244 106.344 655.703 105.166 656.172 C 104.025 656.631 102.884 657.079 101.732 657.511 C 100.553 657.959 99.354 658.369 98.149 658.737 C 96.906 659.121 95.643 659.43 94.368 659.67 C 93.035 659.921 91.681 660.049 90.326 660.054 C 88.183 660.07 86.05 659.692 84.04 658.94 C 82.968 658.529 81.939 658.007 80.968 657.388 C 79.971 656.748 79.033 656.018 78.169 655.202 C 75.444 652.653 73.311 649.539 71.925 646.078 C 71.264 644.426 70.773 642.709 70.459 640.96 C 70.149 639.237 69.995 637.488 70 635.739 C 70.005 633.617 70.213 631.5 70.629 629.421 C 71.04 627.341 71.632 625.304 72.394 623.331 C 73.919 619.364 76.095 615.68 78.83 612.427 C 80.19 610.801 81.694 609.303 83.32 607.948 C 84.952 606.588 86.716 605.399 88.588 604.392 C 90.481 603.373 92.486 602.579 94.56 602.024 C 96.698 601.454 98.895 601.166 101.108 601.16 C 103.113 601.166 105.112 601.406 107.064 601.875 C 108.44 602.205 109.623 603.075 110.359 604.28 C 111.1 605.485 111.324 606.935 110.994 608.311 C 110.663 609.686 109.794 610.87 108.589 611.606 C 107.384 612.347 105.934 612.571 104.558 612.241 C 103.427 611.969 102.27 611.83 101.108 611.825 C 99.828 611.83 98.554 611.995 97.317 612.326 C 96.037 612.667 94.8 613.158 93.638 613.787 C 92.395 614.453 91.227 615.243 90.145 616.144 C 89.004 617.093 87.954 618.143 86.999 619.279 C 85.021 621.636 83.448 624.302 82.344 627.171 C 81.8 628.573 81.379 630.018 81.091 631.495 C 80.808 632.903 80.67 634.326 80.664 635.761 C 80.664 636.87 80.76 637.979 80.958 639.072 C 81.144 640.112 81.438 641.136 81.827 642.122 C 82.637 644.138 83.88 645.945 85.463 647.428 C 85.853 647.79 86.269 648.121 86.716 648.403 C 87.063 648.627 87.436 648.819 87.826 648.969 C 88.604 649.256 89.425 649.4 90.252 649.39 C 90.977 649.39 91.702 649.32 92.417 649.187 C 93.291 649.022 94.155 648.809 95.008 648.547 C 96.005 648.243 96.986 647.902 97.962 647.534 C 99.044 647.124 100.122 646.708 101.199 646.276 C 102.446 645.775 103.705 645.284 104.963 644.815 C 106.302 644.314 107.656 643.855 109.021 643.444 C 110.455 643.012 111.911 642.666 113.388 642.405 C 114.94 642.133 116.513 641.989 118.086 641.983 C 120.976 641.973 123.844 642.517 126.537 643.583 C 127.998 644.175 129.4 644.911 130.723 645.785 C 132.136 646.724 133.464 647.785 134.69 648.958 C 136.039 650.254 137.287 651.645 138.428 653.128 C 139.713 654.791 140.897 656.53 141.968 658.337 C 143.2 660.401 144.336 662.523 145.365 664.698 C 146.554 667.194 147.647 669.737 148.644 672.323 Z " id="Path" fill="rgb(225,225,225)"/><g id="Group"><path d=" M 221.786 718.5 C 221.856 715.883 248.18 717.421 248.18 714.767 C 284.172 660.113 233.977 577.412 199.124 577.412 C 164.271 577.412 111.41 663.845 150.068 714.767 C 150.068 717.421 177.458 715.883 177.529 718.5 L 262.164 718.5 L 221.786 718.5 Z " id="Path" fill="rgb(215,215,215)"/><path d=" M 241.708 718.5 C 241.756 715.883 241.781 713.248 241.781 710.594 C 241.781 638.431 222.906 577.412 199.657 577.412 C 176.408 577.412 157.533 638.431 157.533 710.594 C 157.533 713.248 157.559 715.883 157.606 718.5 L 241.708 718.5 L 241.708 718.5 Z " id="Path" fill="rgb(225,225,225)"/><path d=" M 99.25 532.166 C 99.138 533.613 99.077 535.07 99.077 536.538 C 99.077 576.437 143.907 610.176 199.124 610.176 C 254.341 610.176 299.171 576.437 299.171 536.538 C 299.171 535.07 299.11 533.613 298.998 532.166 L 99.25 532.166 L 99.25 532.166 Z " id="Path" fill="rgb(235,235,235)"/><g id="Group"><g id="Group"><g id="Group"><g id="Group"><g id="Group"><g id="Group"><g id="Group"><g id="Group"><g id="Group"><g id="Group"><g id="Group"><g id="Group"><g id="Group"><path d=" M 298.998 532.166 C 299.11 530.488 299.171 528.798 299.171 527.096 C 299.171 480.812 254.341 441.676 199.124 441.676 C 143.907 441.676 99.077 480.812 99.077 527.096 C 99.077 528.798 99.138 530.488 99.25 532.166 L 298.998 532.166 L 298.998 532.166 Z " id="Path" fill="rgb(235,235,235)"/><polygon points="266.112,413.89,269.505,467.936,221.004,443.851" id="Polygon" fill="rgb(235,235,235)"/><path d=" M 263.613 419.299 L 264.981 441.088 L 266.348 462.876 Q 255.486 454.84 246.905 450.647 Q 238.324 446.454 227.242 443.851 L 245.428 431.378 L 263.613 419.299 Z " id="Path" fill="rgb(120,120,120)"/><polygon points="133.109,413.5,129.501,467.531,178.097,443.641" id="Polygon" fill="rgb(235,235,235)"/><path d=" M 135.586 418.919 L 134.132 440.702 L 132.677 462.485 Q 139.592 456.656 150.173 451.427 Q 160.754 446.198 171.861 443.221 L 153.724 431.07 L 135.586 418.919 Z " id="Path" fill="rgb(120,120,120)"/><circle vector-effect="non-scaling-stroke" cx="219.9821302944574" cy="487.70105809501365" r="13.651611846564634" id="Ellipse" fill="rgb(0,0,0)"/><circle vector-effect="non-scaling-stroke" cx="223.89183571447978" cy="481.4603212508698" r="3.9004605275898996" id="Ellipse" fill="rgb(235,235,235)"/><circle vector-effect="non-scaling-stroke" cx="178.6372487020042" cy="487.70105809501365" r="13.651611846564634" id="Ellipse" fill="rgb(0,0,0)"/><circle vector-effect="non-scaling-stroke" cx="182.5469541220264" cy="481.4603212508698" r="3.9004605275898996" id="Ellipse" fill="rgb(235,235,235)"/><path d=" M 187.828 520.656 Q 194.682 524.894 199.064 524.954 Q 203.619 525.017 210.792 520.656" id="Path" fill="none" vector-effect="non-scaling-stroke" stroke-width="3" stroke="rgb(0,0,0)" stroke-linejoin="miter" stroke-linecap="square" stroke-miterlimit="3"/><line x1="199.368" y1="523.975" x2="199.368" y2="518.515" id="Path" vector-effect="non-scaling-stroke" stroke-width="3" stroke="rgb(0,0,0)" stroke-linejoin="miter" stroke-linecap="square" stroke-miterlimit="3"/><path d=" M 197.426 517.592 L 196.747 516.417 L 196.126 515.341 C 195.087 513.541 195.931 512.079 198.01 512.079 L 199.368 512.079 L 200.609 512.079 C 202.689 512.079 203.533 513.541 202.493 515.341 L 201.814 516.517 L 201.193 517.592 C 200.154 519.393 198.466 519.393 197.426 517.592 Z " id="Polygon" fill="rgb(0,0,0)"/><path d=" M 249.043 471.378 C 248.19 470.007 250.317 467.14 253.79 464.979 C 257.263 462.818 260.775 462.177 261.627 463.548 C 262.48 464.918 260.353 467.786 256.881 469.947 C 253.408 472.107 249.896 472.749 249.043 471.378 Z " id="Ellipse" fill="rgb(240,140,0)"/><path d=" M 256.582 473.752 C 255.92 472.688 257.572 470.462 260.268 468.784 C 262.964 467.106 265.69 466.608 266.352 467.673 C 267.015 468.737 265.363 470.963 262.667 472.641 C 259.971 474.318 257.245 474.816 256.582 473.752 Z " id="Ellipse" fill="rgb(120,120,120)"/><path d=" M 148.904 471.378 C 149.757 470.007 147.63 467.14 144.157 464.979 C 140.685 462.818 137.173 462.177 136.32 463.548 C 135.467 464.918 137.594 467.786 141.066 469.947 C 144.539 472.107 148.051 472.749 148.904 471.378 Z " id="Ellipse" fill="rgb(240,140,0)"/><path d=" M 140.758 473.752 C 141.42 472.688 139.769 470.462 137.072 468.784 C 134.376 467.106 131.65 466.608 130.988 467.673 C 130.325 468.737 131.977 470.963 134.673 472.641 C 137.369 474.318 140.095 474.816 140.758 473.752 Z " id="Ellipse" fill="rgb(120,120,120)"/></g></g></g></g></g></g></g></g></g></g></g></g></g><line x1="199.124" y1="637.451" x2="199.124" y2="717.434" id="Path" vector-effect="non-scaling-stroke" stroke-width="2" stroke="rgb(200,200,200)" stroke-linejoin="miter" stroke-linecap="square" stroke-miterlimit="3"/><path d=" M 160.179 718.5 C 160.192 718.223 160.199 717.944 160.199 717.663 C 160.199 710.027 155.062 703.57 148.735 703.57 C 142.408 703.57 137.271 710.027 137.271 717.663 C 137.271 717.944 137.278 718.223 137.291 718.5 L 160.179 718.5 L 160.179 718.5 Z " id="Path" fill="rgb(233,233,233)"/><path d=" M 260.957 718.5 C 260.97 718.223 260.977 717.944 260.977 717.663 C 260.977 710.027 255.84 703.57 249.513 703.57 C 243.186 703.57 238.049 710.027 238.049 717.663 C 238.049 717.944 238.056 718.223 238.069 718.5 L 260.957 718.5 L 260.957 718.5 Z " id="Path" fill="rgb(233,233,233)"/><path d=" M 197.49 718.5 C 197.512 718.005 197.524 717.507 197.524 717.006 C 197.524 703.37 188.565 691.839 177.529 691.839 C 166.493 691.839 157.533 703.37 157.533 717.006 C 157.533 717.507 157.545 718.005 157.568 718.5 L 197.49 718.5 L 197.49 718.5 Z " id="Path" fill="rgb(235,235,235)"/><path d=" M 241.747 718.5 C 241.769 718.005 241.781 717.507 241.781 717.006 C 241.781 703.37 232.822 691.839 221.786 691.839 C 210.75 691.839 201.79 703.37 201.79 717.006 C 201.79 717.507 201.802 718.005 201.825 718.5 L 241.747 718.5 L 241.747 718.5 Z " id="Path" fill="rgb(235,235,235)"/><line x1="172.463" y1="710.502" x2="172.463" y2="717.967" id="Path" vector-effect="non-scaling-stroke" stroke-width="1" stroke="rgb(200,200,200)" stroke-linejoin="miter" stroke-linecap="square" stroke-miterlimit="3"/><line x1="183.127" y1="710.502" x2="183.127" y2="717.967" id="Path" vector-effect="non-scaling-stroke" stroke-width="1" stroke="rgb(200,200,200)" stroke-linejoin="miter" stroke-linecap="square" stroke-miterlimit="3"/><line x1="217.253" y1="710.502" x2="217.253" y2="717.967" id="Path" vector-effect="non-scaling-stroke" stroke-width="1" stroke="rgb(200,200,200)" stroke-linejoin="miter" stroke-linecap="square" stroke-miterlimit="3"/><line x1="227.918" y1="710.502" x2="227.918" y2="717.967" id="Path" vector-effect="non-scaling-stroke" stroke-width="1" stroke="rgb(200,200,200)" stroke-linejoin="miter" stroke-linecap="square" stroke-miterlimit="3"/><line x1="145.802" y1="713.168" x2="145.802" y2="717.967" id="Path" vector-effect="non-scaling-stroke" stroke-width="1" stroke="rgb(200,200,200)" stroke-linejoin="miter" stroke-linecap="square" stroke-miterlimit="3"/><line x1="151.134" y1="713.168" x2="151.134" y2="717.967" id="Path" vector-effect="non-scaling-stroke" stroke-width="1" stroke="rgb(200,200,200)" stroke-linejoin="miter" stroke-linecap="square" stroke-miterlimit="3"/><line x1="247.113" y1="713.168" x2="247.113" y2="717.967" id="Path" vector-effect="non-scaling-stroke" stroke-width="1" stroke="rgb(200,200,200)" stroke-linejoin="miter" stroke-linecap="square" stroke-miterlimit="3"/><line x1="252.446" y1="713.168" x2="252.446" y2="717.967" id="Path" vector-effect="non-scaling-stroke" stroke-width="1" stroke="rgb(200,200,200)" stroke-linejoin="miter" stroke-linecap="square" stroke-miterlimit="3"/></g></g></g></svg>