<?xml version="1.0" encoding="UTF-8" standalone="no"?>
<!-- Generator: Gravit.io -->
<svg xmlns="http://www.w3.org/2000/svg" xmlns:xlink="http://www.w3.org/1999/xlink" style="isolation:isolate" viewBox="0 0 112 112" width="112" height="112"><g id="Group"><g id="Group"><circle vector-effect="non-scaling-stroke" cx="56" cy="56" r="55" id="Ellipse" fill="rgb(250,250,250)"/><circle vector-effect="non-scaling-stroke" cx="56" cy="56.00000000000001" r="55" id="Ellipse" fill="rgb(100,150,240)" fill-opacity="0.5"/><circle vector-effect="non-scaling-stroke" cx="56" cy="55.99999999999999" r="50" id="Ellipse" fill="rgb(80,80,80)"/><clipPath id="_clipPath_itIar0qOBBAkvJyXVZjwn8sx6bcz7k21"><circle vector-effect="non-scaling-stroke" cx="56" cy="55.99999999999999" r="50" id="Ellipse" fill="rgb(80,80,80)"/></clipPath><g clip-path="url(#_clipPath_itIar0qOBBAkvJyXVZjwn8sx6bcz7k21)"><g id="Group"><g id="shirt"><rect x="10.971" y="78.942" width="89.922" height="109.905" transform="matrix(1,0,0,1,0,0)" id="shirt color" fill="rgb(74,134,232)"/><polygon points="51.436,78.942,62.426,78.95,56.924,88.464" id="neck" fill="rgb(229,191,191)"/><path d=" M 55.181 187.846 L 55.181 188.096 L 54.681 188.096 L 54.681 187.846 L 54.681 87.932 L 54.681 87.682 L 55.181 87.682 L 55.181 87.932 L 55.181 187.846 Z " id="line" fill="rgb(67,121,209)"/><g id="buttons"><circle vector-effect="non-scaling-stroke" cx="57.93034505035325" cy="96.92647514519737" r="1.9982746311629782" id="Ellipse" fill="rgb(52,94,162)"/><circle vector-effect="non-scaling-stroke" cx="57.93034505035325" cy="116.90922145682714" r="1.9982746311629782" id="Ellipse" fill="rgb(52,94,162)"/><circle vector-effect="non-scaling-stroke" cx="57.93034505035325" cy="136.891967768457" r="1.9982746311629782" id="Ellipse" fill="rgb(52,94,162)"/><circle vector-effect="non-scaling-stroke" cx="57.93034505035325" cy="156.87471408008673" r="1.9982746311629782" id="Ellipse" fill="rgb(52,94,162)"/><circle vector-effect="non-scaling-stroke" cx="57.93034505035325" cy="176.85746039171647" r="1.9982746311629782" id="Ellipse" fill="rgb(52,94,162)"/></g><path d=" M 64.205 78.942 L 65.116 92.577 L 57.273 88.489 L 62.682 78.942 L 64.205 78.942 Z " id="left collar" fill="rgb(67,121,209)" vector-effect="non-scaling-stroke" stroke-width="1" stroke="rgb(67,121,209)" stroke-linejoin="miter" stroke-linecap="square" stroke-miterlimit="3"/><path d=" M 51.173 78.942 L 56.795 88.402 L 49.038 92.652 L 49.669 78.942 L 51.173 78.942 Z " id="right collar" fill="rgb(67,121,209)" vector-effect="non-scaling-stroke" stroke-width="1" stroke="rgb(67,121,209)" stroke-linejoin="miter" stroke-linecap="square" stroke-miterlimit="3"/></g><path d=" M 102.028 78.629 L 101.062 189.892 L 68.503 189.476 C 67.073 186.536 66.394 184.702 65.489 181.337 C 64.592 178.004 64.588 177.865 63.91 172.452 C 63.231 167.039 63.154 162.881 63.769 156.878 C 64.264 152.04 64.797 149.318 66.126 144.848 L 93.536 78.712" id="left flap" fill="rgb(230,230,230)"/><path d=" M 10.471 78.582 L 11.163 189.846 L 43.723 189.511 C 45.16 186.574 45.844 184.742 46.757 181.379 C 47.662 178.049 47.666 177.91 48.359 172.498 C 49.051 167.087 49.137 162.929 48.538 156.925 C 48.055 152.085 47.528 149.362 46.21 144.888 L 18.963 78.685" id="right flap" fill="rgb(230,230,230)"/><path d=" M 93.373 78.715 L 100.706 93.487 L 89.066 98.783 L 92.978 105.427 L 69.239 137.774 L 93.373 78.715 Z  M 93.418 79.929 L 100.027 93.247 L 88.357 98.558 L 92.379 105.397 L 71.237 134.207 L 93.418 79.929 Z " id="left lapel border" fill="rgb(210,210,210)"/><path d=" M 93.063 79.215 L 99.917 93.183 L 88.257 98.543 L 92.259 105.442 L 69.988 135.601 L 93.063 79.215 Z  M 93.103 80.429 L 99.243 92.938 L 87.548 98.318 L 91.664 105.407 L 71.971 132.074 L 93.103 80.429 Z " id="left lapel" fill="rgb(224,224,224)"/><path d=" M 43.051 137.899 L 19.462 105.447 L 23.398 98.823 L 11.788 93.472 L 19.187 78.735 L 43.051 137.899 Z  M 41.073 134.327 L 20.056 105.417 L 24.113 98.603 L 12.463 93.237 L 19.137 79.949 L 41.073 134.327 Z " id="right lapel border" fill="rgb(210,210,210)"/><path d=" M 42.042 135.546 L 20.296 105.222 L 24.417 98.453 L 12.637 93.218 L 19.372 79.814 L 42.042 135.546 Z  M 39.989 131.824 L 20.895 105.197 L 25.142 98.228 L 13.317 92.973 L 19.322 81.023 L 39.989 131.824 Z " id="right lapel" fill="rgb(224,224,224)"/><circle vector-effect="non-scaling-stroke" cx="56.49956865779063" cy="47.74176730828772" r="28.725197822967814" id="face" fill="rgb(229,191,191)"/><g id="mouth"><path d=" M 66.722 63.228 C 66.637 67.376 62.306 70.722 56.983 70.722 C 51.66 70.722 47.328 67.376 47.244 63.228 L 66.722 63.228 L 66.722 63.228 Z " id="Path" fill="rgb(180,100,100)"/><path d=" M 65.159 64.228 C 65.089 67.278 61.492 69.738 57.072 69.738 C 52.652 69.738 49.055 67.278 48.985 64.228 L 65.159 64.228 L 65.159 64.228 Z " id="Path" fill="rgb(248,248,248)"/></g><g id="eyes"><g id="right eye"><path d=" M 38.265 44.994 C 38.265 43.386 39.395 42.496 42.262 42.496 C 45.129 42.496 49.69 43.225 49.755 44.994 C 49.814 46.602 46.627 47.492 43.76 47.492 C 40.893 47.492 38.265 46.603 38.265 44.994 Z " id="Path" fill="rgb(230,230,230)"/><path d=" M 44.76 42.496 C 45.373 42.949 45.759 43.676 45.759 44.495 C 45.759 45.873 44.64 46.992 43.261 46.992 C 41.882 46.992 40.763 45.873 40.763 44.495 C 40.763 43.676 41.158 42.949 41.771 42.496 L 44.76 42.496 Z " id="Path" fill="rgb(170,100,0)"/><circle vector-effect="non-scaling-stroke" cx="43.26099922633608" cy="44.494571032647876" r="0.49956865779074633" id="Ellipse" fill="rgb(128,77,0)"/><circle vector-effect="non-scaling-stroke" cx="44.759705199708264" cy="43.49543371706638" r="0.49956865779074633" id="Ellipse" fill="rgb(230,230,230)"/></g><g id="left eye"><path d=" M 74.734 44.994 C 74.734 43.386 73.604 42.496 70.738 42.496 C 67.871 42.496 63.309 43.225 63.245 44.994 C 63.186 46.602 66.372 47.492 69.239 47.492 C 72.106 47.492 74.734 46.603 74.734 44.994 Z " id="Path" fill="rgb(230,230,230)"/><path d=" M 68.239 42.496 C 67.626 42.949 67.24 43.676 67.24 44.495 C 67.24 45.873 68.36 46.992 69.738 46.992 C 71.117 46.992 72.236 45.873 72.236 44.495 C 72.236 43.676 71.842 42.949 71.229 42.496 L 68.239 42.496 Z " id="Path" fill="rgb(170,100,0)"/><circle vector-effect="non-scaling-stroke" cx="69.73813808924541" cy="44.494571032647876" r="0.49956865779074633" id="Ellipse" fill="rgb(128,77,0)"/><circle vector-effect="non-scaling-stroke" cx="71.23684406261759" cy="43.49543371706638" r="0.49956865779074633" id="Ellipse" fill="rgb(230,230,230)"/></g></g><g id="glasses"><path d=" M 35.877 38.999 L 50.645 38.999 C 51.469 38.999 52.258 39.329 52.843 39.909 C 53.422 40.493 53.752 41.282 53.752 42.107 L 53.752 46.883 C 53.752 47.707 53.422 48.496 52.843 49.081 C 52.258 49.66 51.469 49.99 50.645 49.99 L 35.877 49.99 C 35.053 49.99 34.264 49.66 33.679 49.081 C 33.1 48.496 32.77 47.707 32.77 46.883 L 32.77 42.107 C 32.77 41.282 33.1 40.493 33.679 39.909 C 34.264 39.329 35.053 38.999 35.877 38.999 Z  M 35.877 39.998 L 50.645 39.998 C 51.204 39.998 51.739 40.218 52.133 40.618 C 52.533 41.013 52.753 41.547 52.753 42.107 L 52.753 46.883 C 52.753 47.442 52.533 47.977 52.133 48.371 C 51.739 48.771 51.204 48.991 50.645 48.991 L 35.877 48.991 C 35.318 48.991 34.783 48.771 34.389 48.371 C 33.989 47.977 33.769 47.442 33.769 46.883 L 33.769 42.107 C 33.769 41.547 33.989 41.013 34.389 40.618 C 34.783 40.218 35.318 39.998 35.877 39.998 Z " fill-rule="evenodd" id="Compound Path" fill="rgb(50,50,50)"/><path d=" M 61.855 38.999 L 76.622 38.999 C 77.446 38.999 78.236 39.329 78.82 39.909 C 79.4 40.493 79.73 41.282 79.73 42.107 L 79.73 46.883 C 79.73 47.707 79.4 48.496 78.82 49.081 C 78.236 49.66 77.446 49.99 76.622 49.99 L 61.855 49.99 C 61.031 49.99 60.241 49.66 59.657 49.081 C 59.077 48.496 58.748 47.707 58.748 46.883 L 58.748 42.107 C 58.748 41.282 59.077 40.493 59.657 39.909 C 60.241 39.329 61.031 38.999 61.855 38.999 Z  M 61.855 39.998 L 76.622 39.998 C 77.182 39.998 77.716 40.218 78.111 40.618 C 78.511 41.013 78.73 41.547 78.73 42.107 L 78.73 46.883 C 78.73 47.442 78.511 47.977 78.111 48.371 C 77.716 48.771 77.182 48.991 76.622 48.991 L 61.855 48.991 C 61.295 48.991 60.761 48.771 60.366 48.371 C 59.967 47.977 59.747 47.442 59.747 46.883 L 59.747 42.107 C 59.747 41.547 59.967 41.013 60.366 40.618 C 60.761 40.218 61.295 39.998 61.855 39.998 Z " fill-rule="evenodd" id="Compound Path" fill="rgb(50,50,50)"/><path d=" M 54.037 42.906 L 53.627 43.191 L 53.058 42.371 L 53.467 42.087 C 53.692 41.927 53.922 41.782 54.162 41.642 C 54.351 41.532 54.551 41.432 54.756 41.342 C 54.996 41.237 55.246 41.152 55.5 41.088 C 55.705 41.033 55.92 41.003 56.135 40.998 C 56.355 40.993 56.58 41.013 56.794 41.058 C 57.059 41.112 57.319 41.187 57.569 41.287 C 57.793 41.377 58.018 41.482 58.233 41.602 C 58.503 41.747 58.768 41.907 59.027 42.082 L 59.442 42.361 L 58.883 43.191 L 58.468 42.911 C 58.238 42.756 57.998 42.611 57.753 42.476 C 57.574 42.381 57.389 42.291 57.199 42.217 C 57.004 42.137 56.799 42.077 56.594 42.037 C 56.45 42.007 56.305 41.992 56.16 41.997 C 56.02 42.002 55.88 42.022 55.745 42.057 C 55.54 42.107 55.346 42.172 55.156 42.257 C 54.986 42.331 54.821 42.416 54.661 42.506 C 54.446 42.631 54.242 42.766 54.037 42.906 Z " id="Path" fill="rgb(50,50,50)"/></g><path d=" M 50.09 28.593 L 42.662 36.941 L 44.635 31.141 C 44.44 31.361 44.245 31.576 44.045 31.791 C 43.661 32.205 43.266 32.605 42.856 32.994 C 42.322 33.504 41.762 33.979 41.178 34.423 C 40.773 34.723 40.349 34.993 39.904 35.223 C 39.754 35.303 39.604 35.372 39.454 35.442 C 39.274 35.522 39.09 35.597 38.905 35.667 C 38.38 35.867 37.851 36.037 37.311 36.182 C 36.492 36.397 35.668 36.586 34.838 36.746 C 34.758 36.761 34.678 36.736 34.618 36.681 C 34.559 36.621 34.534 36.541 34.544 36.462 L 35.418 31.236 L 30.017 36.636 C 29.843 37.201 29.683 37.77 29.523 38.34 C 29.438 38.66 29.358 38.979 29.293 39.299 C 29.173 39.869 29.073 40.443 28.998 41.023 C 28.918 41.602 28.853 42.187 28.798 42.771 C 28.798 42.771 28.798 42.771 28.798 42.771 L 28.793 42.791 C 28.793 42.796 28.793 42.796 28.793 42.796 C 28.724 43.44 28.664 44.09 28.609 44.739 C 28.559 45.369 28.529 45.998 28.529 46.628 C 28.529 46.912 28.534 47.197 28.549 47.482 C 28.554 47.667 28.569 47.847 28.584 48.032 C 28.599 48.256 28.624 48.481 28.649 48.706 C 28.724 49.335 28.818 49.96 28.938 50.584 C 29.153 51.733 29.398 52.872 29.678 54.001 C 28.928 53.572 28.199 53.102 27.49 52.608 C 27.065 52.308 26.655 51.988 26.261 51.653 C 25.761 51.229 25.297 50.764 24.867 50.27 C 24.562 49.91 24.297 49.52 24.083 49.106 C 23.983 48.926 23.898 48.736 23.823 48.541 C 23.733 48.316 23.653 48.086 23.583 47.852 C 23.528 47.677 23.483 47.502 23.443 47.327 C 23.393 47.127 23.353 46.927 23.318 46.728 C 23.208 46.143 23.133 45.554 23.093 44.964 C 23.038 44.14 23.018 43.321 23.028 42.501 C 22.984 41.342 22.964 40.183 22.974 39.024 C 22.979 38.11 23.013 37.196 23.068 36.287 C 23.143 35.108 23.278 33.939 23.468 32.78 C 23.603 31.98 23.793 31.196 24.038 30.432 C 24.147 30.102 24.262 29.777 24.392 29.458 C 24.542 29.078 24.707 28.698 24.882 28.329 C 25.012 28.059 25.142 27.789 25.282 27.524 C 25.436 27.224 25.596 26.925 25.761 26.63 C 26.236 25.776 26.75 24.936 27.29 24.117 C 28.019 23.013 28.783 21.929 29.573 20.865 C 29.588 20.845 29.608 20.825 29.628 20.81 L 34.334 17.518 L 28.978 13.771 L 43.751 13.771 L 40.234 9.25 L 51.794 9.775 L 61.785 12.767 L 72.201 11.203 L 70.667 14.271 L 81.718 14.271 L 76.812 16.993 L 84.351 20.41 C 84.38 20.425 84.41 20.445 84.43 20.47 C 84.755 20.81 85.075 21.16 85.39 21.514 C 85.634 21.799 85.879 22.084 86.114 22.379 C 86.409 22.753 86.693 23.138 86.958 23.538 C 87.148 23.812 87.318 24.102 87.468 24.397 C 87.568 24.592 87.658 24.787 87.743 24.986 C 87.838 25.226 87.927 25.471 88.012 25.716 C 88.072 25.896 88.127 26.075 88.177 26.26 C 88.237 26.465 88.292 26.675 88.342 26.88 C 88.487 27.484 88.607 28.094 88.697 28.708 C 88.822 29.547 88.922 30.387 88.997 31.231 C 89.131 32.47 89.251 33.714 89.361 34.958 C 89.421 35.632 89.466 36.312 89.496 36.991 C 89.526 37.695 89.541 38.4 89.541 39.104 C 89.541 40.403 89.526 41.707 89.496 43.001 C 89.476 43.505 89.446 44.005 89.396 44.505 C 89.361 44.894 89.311 45.279 89.241 45.669 C 89.156 46.168 89.036 46.658 88.882 47.142 C 88.777 47.482 88.637 47.807 88.462 48.111 C 88.382 48.261 88.287 48.406 88.187 48.546 C 88.072 48.711 87.952 48.866 87.823 49.016 C 87.728 49.131 87.628 49.235 87.523 49.345 C 87.408 49.46 87.293 49.58 87.168 49.69 C 86.813 50.02 86.439 50.33 86.044 50.609 C 85.36 51.109 84.64 51.563 83.901 51.978 C 84.106 50.949 84.276 49.915 84.405 48.871 C 84.46 48.411 84.495 47.952 84.5 47.487 L 84.5 47.337 C 84.5 46.893 84.47 46.448 84.42 46.008 C 84.371 45.574 84.306 45.139 84.236 44.704 C 84.146 44.145 84.066 43.585 84.001 43.026 C 83.941 42.456 83.896 41.892 83.866 41.327 C 83.846 40.868 83.811 40.408 83.761 39.948 C 83.711 39.479 83.626 39.019 83.506 38.56 C 83.461 38.385 83.411 38.21 83.351 38.035 C 83.281 37.825 83.207 37.616 83.127 37.406 C 82.897 36.816 82.632 36.237 82.337 35.672 C 81.883 34.808 81.398 33.959 80.884 33.129 L 78.82 30.247 L 79.515 33.899 C 79.535 34.004 79.485 34.114 79.39 34.163 C 79.295 34.218 79.18 34.203 79.1 34.129 C 78.101 33.194 77.112 32.245 76.133 31.286 C 75.598 30.761 75.079 30.227 74.574 29.677 C 74.109 29.173 73.66 28.658 73.215 28.139 C 72.686 27.509 72.161 26.88 71.646 26.245 L 73.055 30.672 L 75.443 34.663 L 69.144 31.226 C 69.139 31.221 69.134 31.221 69.129 31.216 C 68.469 30.796 67.82 30.367 67.17 29.937 C 66.816 29.702 66.466 29.458 66.121 29.213 L 65.737 28.938 C 65.172 28.553 64.628 28.139 64.103 27.699 C 63.993 27.604 63.883 27.504 63.778 27.404 C 63.643 27.284 63.519 27.16 63.394 27.03 C 63.039 26.68 62.699 26.315 62.375 25.936 C 62.185 25.716 61.995 25.496 61.81 25.276 L 63.109 29.083 L 64.493 31.895 C 64.538 31.995 64.518 32.115 64.438 32.19 C 64.353 32.265 64.233 32.275 64.138 32.22 C 63.603 31.895 63.079 31.561 62.564 31.216 C 62.155 30.941 61.76 30.652 61.365 30.352 C 60.876 29.972 60.401 29.567 59.952 29.138 C 59.632 28.833 59.342 28.508 59.072 28.159 C 58.977 28.034 58.883 27.904 58.793 27.769 C 58.683 27.609 58.578 27.444 58.478 27.279 C 58.198 26.815 57.943 26.335 57.709 25.841 C 57.429 25.246 57.164 24.642 56.914 24.032 C 56.35 25.001 55.765 25.966 55.166 26.915 C 54.791 27.509 54.391 28.089 53.977 28.658 C 53.642 29.108 53.297 29.552 52.938 29.987 C 52.278 30.776 51.604 31.561 50.924 32.33 C 50.854 32.405 50.755 32.435 50.66 32.405 C 50.565 32.375 50.5 32.29 50.485 32.19 L 50.09 28.593 Z  M 50.465 27.424 L 43.93 34.763 L 45.519 30.087 C 45.559 29.972 45.509 29.847 45.404 29.787 C 45.299 29.732 45.169 29.757 45.089 29.847 C 44.635 30.392 44.165 30.926 43.681 31.451 C 43.301 31.855 42.911 32.25 42.512 32.635 C 41.992 33.124 41.448 33.589 40.873 34.024 C 40.498 34.308 40.094 34.563 39.674 34.783 C 39.534 34.853 39.394 34.918 39.254 34.983 C 39.08 35.058 38.905 35.133 38.725 35.203 C 38.22 35.392 37.706 35.562 37.181 35.697 C 36.492 35.882 35.797 36.047 35.098 36.187 L 36.167 29.777 L 29.618 36.327 C 29.593 36.352 29.568 36.392 29.558 36.427 C 29.378 37.021 29.203 37.616 29.043 38.21 C 28.953 38.535 28.873 38.864 28.803 39.199 C 28.679 39.779 28.579 40.368 28.499 40.958 C 28.424 41.542 28.359 42.132 28.299 42.721 L 28.299 42.741 C 28.224 43.391 28.164 44.045 28.109 44.699 C 28.059 45.339 28.034 45.983 28.029 46.628 C 28.029 46.917 28.034 47.212 28.049 47.502 C 28.054 47.692 28.069 47.882 28.084 48.071 C 28.104 48.301 28.129 48.531 28.154 48.761 C 28.229 49.405 28.329 50.045 28.449 50.679 C 28.589 51.444 28.749 52.203 28.918 52.957 C 28.534 52.712 28.154 52.463 27.779 52.198 C 27.365 51.908 26.965 51.598 26.58 51.269 C 26.106 50.864 25.656 50.419 25.247 49.94 C 24.967 49.615 24.722 49.255 24.522 48.876 C 24.432 48.706 24.357 48.536 24.287 48.356 C 24.202 48.146 24.128 47.927 24.063 47.712 C 24.013 47.547 23.968 47.382 23.928 47.212 C 23.883 47.022 23.843 46.833 23.808 46.638 C 23.703 46.073 23.633 45.504 23.593 44.929 C 23.538 44.12 23.518 43.306 23.528 42.491 C 23.483 41.337 23.463 40.183 23.473 39.029 C 23.478 38.125 23.513 37.221 23.568 36.317 C 23.643 35.158 23.773 34.004 23.963 32.86 C 24.093 32.09 24.277 31.326 24.517 30.582 C 24.617 30.267 24.732 29.952 24.852 29.647 C 25.002 29.273 25.167 28.903 25.336 28.538 C 25.461 28.274 25.591 28.014 25.726 27.754 C 25.876 27.459 26.036 27.165 26.196 26.875 C 26.67 26.031 27.17 25.201 27.704 24.392 C 28.424 23.308 29.173 22.239 29.947 21.195 L 35.203 17.518 L 30.567 14.271 L 44.77 14.271 L 41.293 9.8 L 51.714 10.274 L 61.75 13.277 L 71.322 11.843 L 69.858 14.77 L 79.789 14.77 L 75.703 17.043 L 84.101 20.85 C 84.41 21.175 84.715 21.509 85.01 21.844 C 85.255 22.124 85.495 22.404 85.724 22.693 C 86.014 23.053 86.289 23.428 86.549 23.812 C 86.723 24.077 86.883 24.347 87.023 24.627 C 87.118 24.807 87.203 24.991 87.278 25.176 C 87.373 25.406 87.458 25.641 87.538 25.876 C 87.593 26.045 87.648 26.22 87.698 26.395 C 87.753 26.595 87.808 26.795 87.857 27 C 87.997 27.589 88.112 28.184 88.202 28.783 C 88.327 29.612 88.427 30.447 88.497 31.281 C 88.632 32.52 88.757 33.759 88.862 35.003 C 88.922 35.672 88.967 36.342 88.997 37.011 C 89.026 37.71 89.041 38.41 89.041 39.104 C 89.041 40.398 89.026 41.697 88.997 42.991 C 88.977 43.48 88.947 43.97 88.902 44.455 C 88.867 44.834 88.817 45.209 88.752 45.584 C 88.667 46.058 88.552 46.528 88.407 46.992 C 88.312 47.297 88.182 47.592 88.027 47.872 C 87.952 48.002 87.872 48.131 87.783 48.261 C 87.678 48.406 87.563 48.551 87.443 48.691 C 87.353 48.796 87.263 48.896 87.168 48.996 C 87.058 49.111 86.943 49.215 86.828 49.325 C 86.489 49.64 86.129 49.935 85.754 50.205 C 85.375 50.479 84.99 50.739 84.595 50.984 C 84.71 50.305 84.815 49.62 84.9 48.936 C 84.96 48.456 84.99 47.977 85 47.497 C 85 47.497 85 47.492 85 47.492 L 85 47.342 C 85 47.342 85 47.342 85 47.337 C 85 46.873 84.97 46.408 84.915 45.948 C 84.865 45.509 84.8 45.064 84.73 44.624 C 84.64 44.075 84.56 43.52 84.495 42.966 C 84.44 42.411 84.395 41.857 84.366 41.297 C 84.341 40.833 84.306 40.363 84.256 39.894 C 84.201 39.404 84.116 38.914 83.991 38.44 C 83.941 38.25 83.891 38.065 83.826 37.88 C 83.756 37.66 83.676 37.441 83.591 37.226 C 83.356 36.616 83.082 36.022 82.782 35.442 C 82.317 34.563 81.828 33.704 81.303 32.86 C 81.303 32.855 81.298 32.85 81.293 32.85 L 77.901 28.114 L 78.88 33.239 C 78.076 32.48 77.277 31.711 76.482 30.931 C 75.958 30.412 75.443 29.882 74.944 29.338 C 74.484 28.838 74.034 28.334 73.6 27.814 C 72.786 26.855 71.986 25.881 71.197 24.896 C 71.122 24.807 70.992 24.777 70.887 24.837 C 70.782 24.891 70.727 25.016 70.767 25.131 L 72.596 30.876 L 74.074 33.344 L 69.388 30.791 C 68.739 30.372 68.09 29.952 67.445 29.522 C 67.095 29.288 66.751 29.048 66.411 28.803 C 66.411 28.803 66.411 28.803 66.411 28.803 L 66.021 28.528 C 66.021 28.528 66.021 28.528 66.021 28.528 C 65.472 28.149 64.937 27.749 64.428 27.319 C 64.323 27.229 64.218 27.135 64.118 27.04 C 63.993 26.92 63.868 26.8 63.748 26.68 C 63.404 26.335 63.069 25.976 62.754 25.611 C 62.26 25.046 61.785 24.467 61.32 23.882 C 61.245 23.787 61.111 23.757 61.006 23.817 C 60.896 23.872 60.846 24.002 60.886 24.117 L 62.644 29.278 L 63.658 31.331 C 63.384 31.161 63.114 30.981 62.844 30.801 C 62.444 30.532 62.055 30.247 61.67 29.957 C 61.191 29.587 60.731 29.193 60.296 28.773 C 59.997 28.488 59.722 28.184 59.467 27.859 C 59.377 27.739 59.287 27.614 59.207 27.489 C 59.102 27.339 59.002 27.18 58.907 27.025 C 58.633 26.57 58.388 26.105 58.163 25.631 C 57.739 24.732 57.349 23.812 57.004 22.878 C 56.275 24.152 55.52 25.411 54.741 26.65 C 54.371 27.234 53.987 27.804 53.577 28.359 C 53.247 28.808 52.903 29.243 52.553 29.667 C 52.018 30.312 51.474 30.946 50.919 31.576 L 50.465 27.424 Z " id="hair border" fill="rgb(150,90,0)"/><path d=" M 50.465 26.947 L 44.158 34.253 L 45.594 29.133 Q 42.109 33.06 39.662 34.378 Q 38.209 35.161 35.291 36.002 L 36.103 29.757 L 29.296 36.314 Q 28.765 38.288 28.547 39.374 C 28.324 40.484 28.17 41.432 28.047 42.559 C 27.861 44.262 27.763 45.717 27.86 47.43 Q 27.963 49.254 28.672 52.55 Q 25.603 50.471 24.675 48.678 Q 23.655 46.708 23.863 42.496 Q 23.491 34.646 24.737 30.632 Q 25.872 26.975 29.983 21.265 L 35.541 17.331 L 30.795 14.208 L 45.22 14.396 L 41.535 9.775 L 51.652 10.399 L 61.643 13.459 L 71.072 11.898 L 69.761 14.77 L 79.253 14.833 L 75.506 16.956 L 83.936 21.015 Q 86.136 23.206 86.934 24.699 Q 88.073 26.832 88.433 31.381 Q 88.791 34.98 88.87 36.939 Q 88.953 39 88.87 42.809 Q 88.732 46.106 87.87 47.617 Q 87.097 48.974 84.748 50.614 Q 85.165 48.277 85.185 46.992 C 85.209 45.51 84.943 44.563 84.748 42.809 C 84.553 41.054 84.59 39.894 84.186 38.375 Q 83.63 36.283 81.563 32.88 L 78.191 28.383 L 78.628 32.755 Q 76.199 30.408 74.944 29.07 Q 73.34 27.36 70.573 24.012 L 72.259 30.756 L 73.633 32.817 L 69.824 30.756 Q 67.877 29.697 66.889 29.008 C 65.944 28.349 65.196 27.714 64.328 26.947 Q 62.994 25.769 60.769 23.325 L 62.33 28.696 L 63.267 30.881 Q 60.671 29.047 59.582 27.697 Q 58.315 26.125 56.96 22.576 Q 54.789 26.323 53.4 28.196 Q 52.609 29.264 51.027 31.131 L 50.465 26.947 Z  M 62.075 29.369 C 61.91 29.239 61.751 29.109 61.591 28.974 C 61.241 28.684 60.906 28.375 60.582 28.055 C 60.367 27.845 60.162 27.62 59.972 27.381 C 59.867 27.256 59.772 27.126 59.677 26.991 C 59.557 26.826 59.448 26.656 59.343 26.481 C 59.033 25.987 58.758 25.472 58.508 24.943 C 57.964 23.784 57.479 22.6 57.06 21.396 C 56.175 22.954 55.256 24.493 54.297 26.007 C 53.887 26.656 53.453 27.286 52.998 27.9 C 52.738 28.25 52.474 28.595 52.199 28.934 C 51.924 29.269 51.649 29.609 51.37 29.943 L 50.815 25.782 L 45.245 32.231 L 46.074 29.269 C 46.139 29.044 46.039 28.804 45.834 28.694 C 45.629 28.585 45.375 28.63 45.22 28.799 C 44.72 29.364 44.211 29.918 43.686 30.458 C 43.276 30.878 42.852 31.287 42.422 31.687 C 41.863 32.201 41.283 32.686 40.679 33.136 C 40.279 33.435 39.864 33.705 39.425 33.94 C 39.305 34.005 39.185 34.065 39.06 34.125 C 38.91 34.195 38.755 34.265 38.601 34.335 C 38.161 34.524 37.716 34.699 37.262 34.854 C 36.807 35.014 36.347 35.164 35.888 35.304 L 36.782 28.41 L 28.949 35.953 C 28.884 36.018 28.839 36.098 28.814 36.183 C 28.634 36.847 28.464 37.507 28.304 38.176 C 28.214 38.541 28.13 38.906 28.055 39.275 C 27.84 40.344 27.67 41.418 27.55 42.503 C 27.41 43.697 27.335 44.895 27.32 46.094 C 27.32 46.549 27.335 47.004 27.36 47.458 C 27.395 48.083 27.465 48.702 27.56 49.322 C 27.67 50.016 27.795 50.71 27.93 51.405 C 27.835 51.335 27.745 51.265 27.655 51.195 C 27.33 50.945 27.021 50.68 26.716 50.401 C 26.341 50.056 25.991 49.686 25.672 49.292 C 25.462 49.032 25.272 48.747 25.117 48.447 C 25.042 48.298 24.972 48.143 24.912 47.988 C 24.837 47.793 24.772 47.598 24.718 47.398 C 24.673 47.243 24.638 47.094 24.603 46.939 C 24.568 46.764 24.533 46.584 24.503 46.409 C 24.418 45.88 24.368 45.345 24.348 44.816 C 24.318 44.041 24.323 43.267 24.363 42.498 C 24.308 41.354 24.278 40.21 24.278 39.066 C 24.273 38.176 24.298 37.287 24.348 36.398 C 24.408 35.259 24.528 34.125 24.703 33.001 C 24.817 32.246 24.987 31.507 25.217 30.778 C 25.307 30.473 25.417 30.173 25.532 29.873 C 25.672 29.514 25.822 29.154 25.981 28.799 C 26.101 28.54 26.221 28.285 26.351 28.03 C 26.496 27.74 26.641 27.456 26.796 27.171 C 27.245 26.341 27.72 25.532 28.229 24.738 C 28.904 23.679 29.608 22.645 30.338 21.626 L 36.427 17.314 L 32.496 14.732 L 46.269 14.906 L 42.627 10.34 L 51.564 10.895 L 61.611 13.972 L 70.228 12.543 L 68.984 15.266 L 77.382 15.321 L 74.43 16.99 L 83.642 21.426 C 83.941 21.725 84.231 22.03 84.521 22.34 C 84.761 22.6 84.995 22.859 85.22 23.134 C 85.505 23.469 85.775 23.824 86.03 24.183 C 86.199 24.423 86.354 24.673 86.494 24.933 C 86.584 25.103 86.669 25.277 86.744 25.457 C 86.834 25.677 86.919 25.897 86.999 26.122 C 87.054 26.292 87.109 26.456 87.154 26.626 C 87.214 26.821 87.263 27.016 87.313 27.211 C 87.453 27.79 87.568 28.37 87.653 28.954 C 87.778 29.774 87.868 30.598 87.933 31.427 C 88.053 32.621 88.163 33.82 88.258 35.024 C 88.308 35.668 88.343 36.313 88.373 36.957 C 88.398 37.637 88.413 38.321 88.413 39.001 C 88.413 40.264 88.398 41.528 88.373 42.792 C 88.353 43.257 88.318 43.726 88.273 44.186 C 88.233 44.546 88.183 44.9 88.123 45.25 C 88.043 45.7 87.928 46.144 87.788 46.574 C 87.698 46.849 87.578 47.119 87.438 47.368 C 87.378 47.473 87.313 47.573 87.249 47.668 C 87.164 47.788 87.079 47.903 86.984 48.013 C 86.714 48.342 86.414 48.652 86.09 48.932 C 85.875 49.117 85.66 49.302 85.44 49.477 C 85.495 49.092 85.55 48.712 85.595 48.333 C 85.65 47.888 85.68 47.443 85.685 46.999 C 85.685 46.999 85.685 46.999 85.685 46.999 L 85.685 46.814 C 85.685 46.809 85.685 46.809 85.685 46.809 C 85.685 46.374 85.66 45.945 85.615 45.515 C 85.57 45.11 85.515 44.701 85.45 44.296 C 85.375 43.781 85.305 43.267 85.245 42.752 C 85.19 42.263 85.15 41.773 85.11 41.284 C 85.075 40.789 85.03 40.289 84.97 39.795 C 84.906 39.275 84.806 38.756 84.671 38.246 C 84.616 38.056 84.561 37.867 84.501 37.677 C 84.426 37.452 84.346 37.232 84.261 37.012 C 84.021 36.398 83.747 35.798 83.447 35.209 C 82.987 34.33 82.503 33.465 81.988 32.621 C 81.983 32.606 81.973 32.591 81.963 32.581 L 77.517 26.651 L 77.997 31.442 C 77.517 30.972 77.042 30.508 76.573 30.033 C 76.143 29.604 75.723 29.169 75.309 28.729 C 74.779 28.165 74.26 27.585 73.755 27.001 C 72.811 25.912 71.877 24.808 70.958 23.694 C 70.808 23.514 70.553 23.464 70.348 23.564 C 70.138 23.669 70.033 23.909 70.088 24.133 L 71.797 30.963 L 72.102 31.422 L 70.063 30.318 C 69.419 29.968 68.784 29.604 68.155 29.229 C 67.82 29.034 67.496 28.819 67.176 28.6 C 66.736 28.29 66.312 27.97 65.897 27.63 C 65.477 27.286 65.063 26.936 64.658 26.571 C 64.223 26.187 63.804 25.787 63.394 25.372 C 62.63 24.593 61.875 23.799 61.136 22.989 C 60.981 22.82 60.726 22.775 60.527 22.889 C 60.322 23.004 60.227 23.244 60.287 23.464 L 61.86 28.864 L 62.075 29.369 Z " id="hair" fill="rgb(80,50,0)"/><g id="hairs"><path d=" M 47.228 12.272 L 46.983 12.242 L 47.038 11.748 L 47.288 11.773 C 48.162 11.878 49.036 11.998 49.905 12.143 C 50.38 12.222 50.849 12.322 51.319 12.447 C 51.479 12.492 51.644 12.537 51.804 12.587 C 51.998 12.647 52.193 12.712 52.388 12.777 C 52.928 12.962 53.462 13.172 53.992 13.391 C 54.786 13.731 55.575 14.086 56.36 14.461 L 56.585 14.57 L 56.365 15.02 L 56.14 14.91 C 55.371 14.54 54.586 14.191 53.797 13.851 C 53.277 13.636 52.758 13.431 52.223 13.252 C 52.038 13.187 51.849 13.122 51.659 13.062 C 51.504 13.017 51.349 12.972 51.189 12.932 C 50.74 12.812 50.285 12.712 49.82 12.637 C 48.961 12.492 48.097 12.372 47.228 12.272 Z " id="Path" fill="rgb(120,60,0)"/><path d=" M 79.655 21.255 L 79.415 21.18 L 79.565 20.7 L 79.804 20.775 C 80.119 20.875 80.434 20.985 80.744 21.1 C 80.983 21.195 81.223 21.295 81.463 21.405 C 81.763 21.544 82.058 21.709 82.342 21.889 C 82.542 22.019 82.727 22.169 82.902 22.334 C 82.972 22.399 83.037 22.469 83.097 22.544 C 83.172 22.628 83.246 22.713 83.311 22.803 C 83.501 23.058 83.676 23.328 83.826 23.608 C 84.056 24.032 84.266 24.467 84.455 24.911 L 84.555 25.146 L 84.091 25.341 L 83.996 25.111 C 83.811 24.677 83.611 24.257 83.386 23.847 C 83.246 23.588 83.092 23.338 82.912 23.108 C 82.852 23.023 82.787 22.948 82.722 22.873 C 82.667 22.808 82.612 22.748 82.552 22.693 C 82.407 22.549 82.242 22.424 82.072 22.309 C 81.808 22.144 81.533 21.989 81.248 21.859 C 81.023 21.754 80.799 21.654 80.564 21.569 C 80.264 21.454 79.959 21.35 79.655 21.255 Z " id="Path" fill="rgb(120,60,0)"/><path d=" M 57.838 17.942 L 57.604 18.032 L 57.424 17.568 L 57.659 17.478 C 57.998 17.348 58.338 17.233 58.683 17.123 C 58.952 17.038 59.227 16.968 59.502 16.903 C 59.857 16.828 60.216 16.774 60.576 16.749 C 60.836 16.729 61.096 16.734 61.355 16.769 C 61.455 16.783 61.56 16.803 61.665 16.828 C 61.785 16.858 61.9 16.888 62.02 16.928 C 62.35 17.033 62.674 17.168 62.984 17.328 C 63.459 17.573 63.923 17.838 64.368 18.132 L 64.578 18.267 L 64.303 18.687 L 64.093 18.552 C 63.663 18.267 63.214 18.007 62.754 17.773 C 62.469 17.623 62.175 17.503 61.865 17.403 C 61.76 17.368 61.655 17.338 61.55 17.313 C 61.46 17.293 61.375 17.278 61.285 17.268 C 61.061 17.233 60.841 17.228 60.616 17.243 C 60.276 17.268 59.942 17.318 59.607 17.393 C 59.347 17.453 59.087 17.523 58.833 17.603 C 58.498 17.703 58.163 17.818 57.838 17.942 Z " id="Path" fill="rgb(120,60,0)"/><path d=" M 62.829 16.004 L 62.589 16.084 L 62.424 15.615 L 62.659 15.53 C 63.199 15.345 63.738 15.17 64.283 15.005 C 64.583 14.915 64.887 14.84 65.192 14.775 C 65.517 14.705 65.851 14.655 66.181 14.615 C 66.786 14.545 67.395 14.495 68.005 14.456 L 68.254 14.441 L 68.284 14.935 L 68.035 14.955 C 67.435 14.99 66.836 15.045 66.241 15.115 C 65.921 15.15 65.607 15.2 65.292 15.265 C 65.002 15.325 64.712 15.4 64.428 15.485 C 63.888 15.644 63.354 15.814 62.829 16.004 Z " id="Path" fill="rgb(120,60,0)"/><path d=" M 69.778 16.764 L 69.528 16.803 L 69.453 16.309 L 69.698 16.274 L 72.686 15.804 L 75.228 15.769 L 75.478 15.764 L 75.488 16.264 L 75.238 16.269 L 72.726 16.304 L 69.778 16.764 Z " id="Path" fill="rgb(120,60,0)"/><path d=" M 49.67 17.508 L 49.446 17.613 L 49.231 17.163 L 49.456 17.053 C 49.74 16.923 50.025 16.798 50.315 16.679 C 50.545 16.589 50.775 16.504 51.009 16.434 C 51.314 16.339 51.619 16.264 51.934 16.209 C 52.153 16.169 52.383 16.154 52.608 16.164 C 52.728 16.164 52.843 16.174 52.963 16.194 C 53.098 16.209 53.232 16.239 53.362 16.269 C 53.747 16.364 54.117 16.494 54.471 16.659 C 55.026 16.918 55.56 17.218 56.075 17.543 L 56.29 17.678 L 56.02 18.097 L 55.81 17.967 C 55.311 17.648 54.796 17.363 54.261 17.113 C 53.937 16.958 53.597 16.838 53.247 16.754 C 53.127 16.729 53.008 16.704 52.893 16.689 C 52.793 16.674 52.693 16.664 52.593 16.659 C 52.398 16.654 52.208 16.669 52.018 16.704 C 51.729 16.749 51.439 16.818 51.159 16.908 C 50.939 16.978 50.72 17.058 50.5 17.143 C 50.22 17.258 49.945 17.378 49.67 17.508 Z " id="Path" fill="rgb(120,60,0)"/><path d=" M 36.737 16.269 L 36.492 16.239 L 36.547 15.744 L 36.797 15.769 L 41.328 16.274 L 44.905 17.763 L 45.134 17.858 L 44.945 18.317 L 44.715 18.222 L 41.198 16.764 L 36.737 16.269 Z " id="Path" fill="rgb(120,60,0)"/><path d=" M 31.941 23.193 L 31.761 23.368 L 31.416 23.003 L 31.601 22.833 C 32.001 22.449 32.425 22.094 32.87 21.759 C 33.115 21.574 33.385 21.414 33.664 21.29 C 33.754 21.245 33.849 21.21 33.944 21.175 C 34.054 21.135 34.164 21.1 34.279 21.07 C 34.598 20.98 34.923 20.915 35.253 20.875 C 35.752 20.815 36.257 20.78 36.762 20.765 L 37.011 20.76 L 37.021 21.26 L 36.772 21.265 C 36.287 21.275 35.797 21.315 35.313 21.37 C 35.008 21.41 34.708 21.469 34.414 21.549 C 34.309 21.579 34.209 21.609 34.109 21.644 C 34.029 21.674 33.949 21.704 33.874 21.739 C 33.624 21.854 33.385 21.994 33.17 22.159 C 32.74 22.484 32.33 22.828 31.941 23.193 Z " id="Path" fill="rgb(120,60,0)"/></g></g></g></g></g></svg>