<?xml version="1.0" encoding="UTF-8" standalone="no"?>
<!-- Generator: Gravit.io -->
<svg xmlns="http://www.w3.org/2000/svg" xmlns:xlink="http://www.w3.org/1999/xlink" style="isolation:isolate" viewBox="0 0 920 520" width="920" height="520"><defs><clipPath id="_clipPath_zRIWMU9RmTNYyrS1yvk2jkzpjgu9IWkN"><rect width="920" height="520"/></clipPath></defs><g clip-path="url(#_clipPath_zRIWMU9RmTNYyrS1yvk2jkzpjgu9IWkN)"><rect width="920" height="520" style="fill:rgb(80,80,80)"/><defs><filter id="4qCOh6roTCU9b7WVNteFeVY32CXpoThp" x="-200%" y="-200%" width="400%" height="400%" filterUnits="objectBoundingBox" color-interpolation-filters="sRGB"><feGaussianBlur xmlns="http://www.w3.org/2000/svg" in="SourceGraphic" stdDeviation="1.7174436251356113"/><feOffset xmlns="http://www.w3.org/2000/svg" dx="0" dy="4" result="pf_100_offsetBlur"/><feFlood xmlns="http://www.w3.org/2000/svg" flood-color="#000000" flood-opacity="0.4"/><feComposite xmlns="http://www.w3.org/2000/svg" in2="pf_100_offsetBlur" operator="in" result="pf_100_dropShadow"/><feBlend xmlns="http://www.w3.org/2000/svg" in="SourceGraphic" in2="pf_100_dropShadow" mode="normal"/></filter></defs><g filter="url(#4qCOh6roTCU9b7WVNteFeVY32CXpoThp)"><circle vector-effect="non-scaling-stroke" cx="700" cy="100" r="50" id="moon" fill="rgb(200,200,200)"/></g><defs><filter id="pbqYH1OMUFV2yLaljtHjnRCPUWmcJBQo" x="-200%" y="-200%" width="400%" height="400%" filterUnits="objectBoundingBox" color-interpolation-filters="sRGB"><feGaussianBlur xmlns="http://www.w3.org/2000/svg" in="SourceGraphic" stdDeviation="1.7174436251356113"/><feOffset xmlns="http://www.w3.org/2000/svg" dx="0" dy="4" result="pf_100_offsetBlur"/><feFlood xmlns="http://www.w3.org/2000/svg" flood-color="#000000" flood-opacity="0.4"/><feComposite xmlns="http://www.w3.org/2000/svg" in2="pf_100_offsetBlur" operator="in" result="pf_100_dropShadow"/><feBlend xmlns="http://www.w3.org/2000/svg" in="SourceGraphic" in2="pf_100_dropShadow" mode="normal"/></filter></defs><g filter="url(#pbqYH1OMUFV2yLaljtHjnRCPUWmcJBQo)"><path d=" M 162.76 85 L 157.886 82.438 L 153.012 85 L 153.943 79.573 L 150 75.729 L 155.449 74.938 L 157.886 70 L 160.323 74.938 L 165.772 75.729 L 161.829 79.573 L 162.76 85 Z " id="star" fill="rgb(210,210,210)"/></g><defs><filter id="kSgXtCg4tzk8mfw1Tkg2aaSbqnuIEizO" x="-200%" y="-200%" width="400%" height="400%" filterUnits="objectBoundingBox" color-interpolation-filters="sRGB"><feGaussianBlur xmlns="http://www.w3.org/2000/svg" in="SourceGraphic" stdDeviation="1.7174436251356113"/><feOffset xmlns="http://www.w3.org/2000/svg" dx="0" dy="4" result="pf_100_offsetBlur"/><feFlood xmlns="http://www.w3.org/2000/svg" flood-color="#000000" flood-opacity="0.4"/><feComposite xmlns="http://www.w3.org/2000/svg" in2="pf_100_offsetBlur" operator="in" result="pf_100_dropShadow"/><feBlend xmlns="http://www.w3.org/2000/svg" in="SourceGraphic" in2="pf_100_dropShadow" mode="normal"/></filter></defs><g filter="url(#kSgXtCg4tzk8mfw1Tkg2aaSbqnuIEizO)"><path d=" M 294.65 100.625 L 288.152 97.209 L 281.654 100.625 L 282.895 93.389 L 277.637 88.264 L 284.903 87.209 L 288.152 80.625 L 291.401 87.209 L 298.667 88.264 L 293.409 93.389 L 294.65 100.625 Z " id="star" fill="rgb(210,210,210)"/></g><defs><filter id="5WxbOyDGEzNgygLH6CzKI3pOptCRLtdh" x="-200%" y="-200%" width="400%" height="400%" filterUnits="objectBoundingBox" color-interpolation-filters="sRGB"><feGaussianBlur xmlns="http://www.w3.org/2000/svg" in="SourceGraphic" stdDeviation="1.7174436251356113"/><feOffset xmlns="http://www.w3.org/2000/svg" dx="0" dy="4" result="pf_100_offsetBlur"/><feFlood xmlns="http://www.w3.org/2000/svg" flood-color="#000000" flood-opacity="0.4"/><feComposite xmlns="http://www.w3.org/2000/svg" in2="pf_100_offsetBlur" operator="in" result="pf_100_dropShadow"/><feBlend xmlns="http://www.w3.org/2000/svg" in="SourceGraphic" in2="pf_100_dropShadow" mode="normal"/></filter></defs><g filter="url(#5WxbOyDGEzNgygLH6CzKI3pOptCRLtdh)"><path d=" M 428.507 60 L 425.257 58.292 L 422.008 60 L 422.629 56.382 L 420 53.82 L 423.633 53.292 L 425.257 50 L 426.882 53.292 L 430.515 53.82 L 427.886 56.382 L 428.507 60 Z " id="star" fill="rgb(210,210,210)"/></g><circle vector-effect="non-scaling-stroke" cx="806" cy="100" r="50" id="eclipse" fill="rgb(80,80,80)"/><defs><filter id="6gKxVyOWMd75fzt1AB3jKAl9PIHOSo3w" x="-200%" y="-200%" width="400%" height="400%" filterUnits="objectBoundingBox" color-interpolation-filters="sRGB"><feGaussianBlur xmlns="http://www.w3.org/2000/svg" in="SourceGraphic" stdDeviation="1.7174436251356113"/><feOffset xmlns="http://www.w3.org/2000/svg" dx="0" dy="-4" result="pf_100_offsetBlur"/><feFlood xmlns="http://www.w3.org/2000/svg" flood-color="#000000" flood-opacity="0.2"/><feComposite xmlns="http://www.w3.org/2000/svg" in2="pf_100_offsetBlur" operator="in" result="pf_100_dropShadow"/><feBlend xmlns="http://www.w3.org/2000/svg" in="SourceGraphic" in2="pf_100_dropShadow" mode="normal"/></filter></defs><g filter="url(#6gKxVyOWMd75fzt1AB3jKAl9PIHOSo3w)"><path d=" M 1000 520 L -80 520 Q -80 399 -80 360 C -69.353 360 -31.5 400 4.5 400 Q 40.5 400 84.5 360 Q 131.919 400 164.5 400 Q 197.081 400 244.5 360 Q 291.919 400 324.5 400 Q 357.081 400 404.5 360 Q 451.919 400 484.5 400 Q 517.081 400 564.5 360 Q 611.919 400 644.5 400 Q 677.081 400 724.5 360 Q 771.919 400 804.5 400 Q 837.081 400 884.5 360 Q 933.5 400 964.5 400 Q 995.5 400 1000 380 L 1000 520 Z " id="waves-back" fill="rgb(70,103,166)"/></g><defs><filter id="4gzSLjueXQJMjLiRrWrjRQPKMxsXSeGv" x="-200%" y="-200%" width="400%" height="400%" filterUnits="objectBoundingBox" color-interpolation-filters="sRGB"><feGaussianBlur xmlns="http://www.w3.org/2000/svg" in="SourceGraphic" stdDeviation="1.7174436251356113"/><feOffset xmlns="http://www.w3.org/2000/svg" dx="0" dy="-4" result="pf_100_offsetBlur"/><feFlood xmlns="http://www.w3.org/2000/svg" flood-color="#000000" flood-opacity="0.2"/><feComposite xmlns="http://www.w3.org/2000/svg" in2="pf_100_offsetBlur" operator="in" result="pf_100_dropShadow"/><feBlend xmlns="http://www.w3.org/2000/svg" in="SourceGraphic" in2="pf_100_dropShadow" mode="normal"/></filter></defs><g filter="url(#4gzSLjueXQJMjLiRrWrjRQPKMxsXSeGv)"><path d=" M 1000 520 L -80 520 Q -80 459 -80 420 Q -56 420 0 380 Q 47.419 420 80 420 Q 112.581 420 160 380 Q 207.419 420 240 420 Q 272.581 420 320 380 Q 367.419 420 400 420 Q 432.581 420 480 380 Q 527.419 420 560 420 Q 592.581 420 640 380 Q 687.419 420 720 420 Q 752.581 420 800 380 Q 847.419 420 880 420 Q 912.581 420 960 380 Q 997.539 420 1000 420 Q 1002.461 420 1000 420 L 1000 420 L 1000 420 L 1000 520 Z " id="waves-middle" fill="rgb(86,127,204)"/></g><g id="ship" filter="url(#v06b1v7Wpnai704Rz92wdQwLmOnhmdJD)"><path d="M 462.928 300.979 L 594.57 236.252 C 596.592 235.259 599.039 236.093 600.033 238.114 L 600.228 238.51 C 601.222 240.531 600.387 242.979 598.366 243.973 L 466.724 308.699 C 464.702 309.693 462.255 308.859 461.261 306.837 L 461.066 306.441 C 460.072 304.42 460.906 301.972 462.928 300.979 Z" style="stroke:none;fill:#643C14;stroke-miterlimit:10;"/><g id="body"><path d=" M 465.617 328.833 C 465.635 329.616 465.647 330.4 465.647 331.186 C 465.647 396.117 387.232 448.833 290.647 448.833 C 194.062 448.833 115.647 396.117 115.647 331.186 C 115.647 330.4 115.658 329.616 115.677 328.833 L 465.617 328.833 L 465.617 328.833 Z " id="Path" fill="rgb(100,60,20)"/><rect x="115.647" y="298.833" width="112" height="30" transform="matrix(1,0,0,1,0,0)" id="Rectangle" fill="rgb(100,60,20)"/><rect x="385.647" y="298.833" width="80" height="30" transform="matrix(1,0,0,1,0,0)" id="Rectangle" fill="rgb(100,60,20)"/><rect x="115.647" y="268.833" width="90" height="30" transform="matrix(1,0,0,1,0,0)" id="Rectangle" fill="rgb(100,60,20)"/></g><g id="cannnons"><g id="cannon"><rect x="161.545" y="347.775" width="22.059" height="22.059" transform="matrix(1,0,0,1,0,0)" id="Rectangle" fill="rgb(50,30,10)"/><circle vector-effect="non-scaling-stroke" cx="172.5743742694203" cy="358.80392156862735" r="9.191176470588232" id="Ellipse" fill="rgb(58,58,58)"/><circle vector-effect="non-scaling-stroke" cx="172.57437426942028" cy="358.8039215686276" r="6.127450980392155" id="Ellipse" fill="rgb(20,20,20)"/><rect x="161.545" y="344.833" width="22.059" height="2.941" transform="matrix(1,0,0,1,0,0)" id="Rectangle" fill="rgb(128,77,25)"/></g><g id="cannon"><rect x="194.486" y="347.775" width="22.059" height="22.059" transform="matrix(1,0,0,1,0,0)" id="Rectangle" fill="rgb(50,30,10)"/><circle vector-effect="non-scaling-stroke" cx="205.51555074000888" cy="358.8039215686276" r="9.191176470588232" id="Ellipse" fill="rgb(58,58,58)"/><circle vector-effect="non-scaling-stroke" cx="205.51555074000836" cy="358.80392156862746" r="6.127450980392155" id="Ellipse" fill="rgb(20,20,20)"/><rect x="194.486" y="344.833" width="22.059" height="2.941" transform="matrix(1,0,0,1,0,0)" id="Rectangle" fill="rgb(128,77,25)"/></g><g id="cannon"><rect x="227.427" y="347.775" width="22.059" height="22.059" transform="matrix(1,0,0,1,0,0)" id="Rectangle" fill="rgb(50,30,10)"/><circle vector-effect="non-scaling-stroke" cx="238.4567272105971" cy="358.8039215686277" r="9.191176470588232" id="Ellipse" fill="rgb(58,58,58)"/><circle vector-effect="non-scaling-stroke" cx="238.45672721059663" cy="358.8039215686276" r="6.127450980392155" id="Ellipse" fill="rgb(20,20,20)"/><rect x="227.427" y="344.833" width="22.059" height="2.941" transform="matrix(1,0,0,1,0,0)" id="Rectangle" fill="rgb(128,77,25)"/></g><g id="cannon"><rect x="260.345" y="347.775" width="22.059" height="22.059" transform="matrix(1,0,0,1,0,0)" id="Rectangle" fill="rgb(50,30,10)"/><circle vector-effect="non-scaling-stroke" cx="271.37437426942046" cy="358.8039215686277" r="9.191176470588232" id="Ellipse" fill="rgb(58,58,58)"/><circle vector-effect="non-scaling-stroke" cx="271.3743742694202" cy="358.8039215686276" r="6.127450980392155" id="Ellipse" fill="rgb(20,20,20)"/><rect x="260.345" y="344.833" width="22.059" height="2.941" transform="matrix(1,0,0,1,0,0)" id="Rectangle" fill="rgb(128,77,25)"/></g><g id="cannon"><rect x="293.245" y="347.775" width="22.059" height="22.059" transform="matrix(1,0,0,1,0,0)" id="Rectangle" fill="rgb(50,30,10)"/><circle vector-effect="non-scaling-stroke" cx="304.27437426942026" cy="358.8039215686277" r="9.191176470588232" id="Ellipse" fill="rgb(58,58,58)"/><circle vector-effect="non-scaling-stroke" cx="304.2743742694202" cy="358.8039215686276" r="6.127450980392155" id="Ellipse" fill="rgb(20,20,20)"/><rect x="293.245" y="344.833" width="22.059" height="2.941" transform="matrix(1,0,0,1,0,0)" id="Rectangle" fill="rgb(128,77,25)"/></g><g id="cannon"><rect x="260.345" y="377.775" width="22.059" height="22.059" transform="matrix(1,0,0,1,0,0)" id="Rectangle" fill="rgb(50,30,10)"/><circle vector-effect="non-scaling-stroke" cx="271.3743742694199" cy="388.80392156862735" r="9.191176470588232" id="Ellipse" fill="rgb(58,58,58)"/><circle vector-effect="non-scaling-stroke" cx="271.37437426941966" cy="388.8039215686271" r="6.127450980392155" id="Ellipse" fill="rgb(20,20,20)"/><rect x="260.345" y="374.833" width="22.059" height="2.941" transform="matrix(1,0,0,1,0,0)" id="Rectangle" fill="rgb(128,77,25)"/></g><g id="cannon"><rect x="293.263" y="377.775" width="22.059" height="22.059" transform="matrix(1,0,0,1,0,0)" id="Rectangle" fill="rgb(50,30,10)"/><circle vector-effect="non-scaling-stroke" cx="304.2920213282431" cy="388.80392156862735" r="9.191176470588232" id="Ellipse" fill="rgb(58,58,58)"/><circle vector-effect="non-scaling-stroke" cx="304.2920213282431" cy="388.8039215686271" r="6.127450980392155" id="Ellipse" fill="rgb(20,20,20)"/><rect x="293.263" y="374.833" width="22.059" height="2.941" transform="matrix(1,0,0,1,0,0)" id="Rectangle" fill="rgb(128,77,25)"/></g><g id="cannon"><rect x="194.486" y="377.775" width="22.059" height="22.059" transform="matrix(1,0,0,1,0,0)" id="Rectangle" fill="rgb(50,30,10)"/><circle vector-effect="non-scaling-stroke" cx="205.51555074000888" cy="388.80392156862774" r="9.191176470588232" id="Ellipse" fill="rgb(58,58,58)"/><circle vector-effect="non-scaling-stroke" cx="205.5155507400082" cy="388.80392156862774" r="6.127450980392155" id="Ellipse" fill="rgb(20,20,20)"/><rect x="194.486" y="374.833" width="22.059" height="2.941" transform="matrix(1,0,0,1,0,0)" id="Rectangle" fill="rgb(128,77,25)"/></g><g id="cannon"><rect x="227.427" y="377.775" width="22.059" height="22.059" transform="matrix(1,0,0,1,0,0)" id="Rectangle" fill="rgb(50,30,10)"/><circle vector-effect="non-scaling-stroke" cx="238.45672721059688" cy="388.8039215686278" r="9.191176470588232" id="Ellipse" fill="rgb(58,58,58)"/><circle vector-effect="non-scaling-stroke" cx="238.45672721059677" cy="388.80392156862774" r="6.127450980392155" id="Ellipse" fill="rgb(20,20,20)"/><rect x="227.427" y="374.833" width="22.059" height="2.941" transform="matrix(1,0,0,1,0,0)" id="Rectangle" fill="rgb(128,77,25)"/></g><g id="cannon"><rect x="326.18" y="347.775" width="22.059" height="22.059" transform="matrix(1,0,0,1,0,0)" id="Rectangle" fill="rgb(50,30,10)"/><circle vector-effect="non-scaling-stroke" cx="337.20966838706767" cy="358.8039215686277" r="9.191176470588232" id="Ellipse" fill="rgb(58,58,58)"/><circle vector-effect="non-scaling-stroke" cx="337.2096683870674" cy="358.8039215686276" r="6.127450980392155" id="Ellipse" fill="rgb(20,20,20)"/><rect x="326.18" y="344.833" width="22.059" height="2.941" transform="matrix(1,0,0,1,0,0)" id="Rectangle" fill="rgb(128,77,25)"/></g><g id="cannon"><rect x="326.198" y="377.775" width="22.059" height="22.059" transform="matrix(1,0,0,1,0,0)" id="Rectangle" fill="rgb(50,30,10)"/><circle vector-effect="non-scaling-stroke" cx="337.2273154458902" cy="388.80392156862735" r="9.191176470588232" id="Ellipse" fill="rgb(58,58,58)"/><circle vector-effect="non-scaling-stroke" cx="337.22731544589004" cy="388.8039215686271" r="6.127450980392155" id="Ellipse" fill="rgb(20,20,20)"/><rect x="326.198" y="374.833" width="22.059" height="2.941" transform="matrix(1,0,0,1,0,0)" id="Rectangle" fill="rgb(128,77,25)"/></g><g id="cannon"><rect x="359.116" y="347.775" width="22.059" height="22.059" transform="matrix(1,0,0,1,0,0)" id="Rectangle" fill="rgb(50,30,10)"/><circle vector-effect="non-scaling-stroke" cx="370.14496250471524" cy="358.8039215686277" r="9.191176470588232" id="Ellipse" fill="rgb(58,58,58)"/><circle vector-effect="non-scaling-stroke" cx="370.1449625047147" cy="358.8039215686276" r="6.127450980392155" id="Ellipse" fill="rgb(20,20,20)"/><rect x="359.116" y="344.833" width="22.059" height="2.941" transform="matrix(1,0,0,1,0,0)" id="Rectangle" fill="rgb(128,77,25)"/></g><g id="cannon"><rect x="359.133" y="377.775" width="22.059" height="22.059" transform="matrix(1,0,0,1,0,0)" id="Rectangle" fill="rgb(50,30,10)"/><circle vector-effect="non-scaling-stroke" cx="370.16260956353744" cy="388.8039215686273" r="9.191176470588232" id="Ellipse" fill="rgb(58,58,58)"/><circle vector-effect="non-scaling-stroke" cx="370.16260956353716" cy="388.8039215686271" r="6.127450980392155" id="Ellipse" fill="rgb(20,20,20)"/><rect x="359.133" y="374.833" width="22.059" height="2.941" transform="matrix(1,0,0,1,0,0)" id="Rectangle" fill="rgb(128,77,25)"/></g><g id="cannon"><rect x="392.051" y="347.775" width="22.059" height="22.059" transform="matrix(1,0,0,1,0,0)" id="Rectangle" fill="rgb(50,30,10)"/><circle vector-effect="non-scaling-stroke" cx="403.08025662236236" cy="358.8039215686277" r="9.191176470588232" id="Ellipse" fill="rgb(58,58,58)"/><circle vector-effect="non-scaling-stroke" cx="403.08025662236196" cy="358.8039215686276" r="6.127450980392155" id="Ellipse" fill="rgb(20,20,20)"/><rect x="392.051" y="344.833" width="22.059" height="2.941" transform="matrix(1,0,0,1,0,0)" id="Rectangle" fill="rgb(128,77,25)"/></g><g id="cannon"><rect x="130.192" y="305.775" width="22.059" height="22.059" transform="matrix(1,0,0,1,0,0)" id="Rectangle" fill="rgb(50,30,10)"/><circle vector-effect="non-scaling-stroke" cx="141.22143309295038" cy="316.8039215686278" r="9.191176470588232" id="Ellipse" fill="rgb(58,58,58)"/><circle vector-effect="non-scaling-stroke" cx="141.22143309295012" cy="316.80392156862746" r="6.127450980392155" id="Ellipse" fill="rgb(20,20,20)"/><rect x="130.192" y="302.833" width="22.059" height="2.941" transform="matrix(1,0,0,1,0,0)" id="Rectangle" fill="rgb(128,77,25)"/></g><g id="cannon"><rect x="162.251" y="305.775" width="22.059" height="22.059" transform="matrix(1,0,0,1,0,0)" id="Rectangle" fill="rgb(50,30,10)"/><circle vector-effect="non-scaling-stroke" cx="173.28025662236223" cy="316.8039215686278" r="9.191176470588232" id="Ellipse" fill="rgb(58,58,58)"/><circle vector-effect="non-scaling-stroke" cx="173.28025662236178" cy="316.80392156862746" r="6.127450980392155" id="Ellipse" fill="rgb(20,20,20)"/><rect x="162.251" y="302.833" width="22.059" height="2.941" transform="matrix(1,0,0,1,0,0)" id="Rectangle" fill="rgb(128,77,25)"/></g><g id="cannon"><rect x="194.31" y="305.775" width="22.059" height="22.059" transform="matrix(1,0,0,1,0,0)" id="Rectangle" fill="rgb(50,30,10)"/><circle vector-effect="non-scaling-stroke" cx="205.33908015177403" cy="316.8039215686278" r="9.191176470588232" id="Ellipse" fill="rgb(58,58,58)"/><circle vector-effect="non-scaling-stroke" cx="205.33908015177357" cy="316.80392156862746" r="6.127450980392155" id="Ellipse" fill="rgb(20,20,20)"/><rect x="194.31" y="302.833" width="22.059" height="2.941" transform="matrix(1,0,0,1,0,0)" id="Rectangle" fill="rgb(128,77,25)"/></g><g id="cannon"><rect x="397.839" y="305.775" width="22.059" height="22.059" transform="matrix(1,0,0,1,0,0)" id="Rectangle" fill="rgb(50,30,10)"/><circle vector-effect="non-scaling-stroke" cx="408.8684919164799" cy="316.8039215686277" r="9.191176470588232" id="Ellipse" fill="rgb(58,58,58)"/><circle vector-effect="non-scaling-stroke" cx="408.8684919164793" cy="316.80392156862723" r="6.127450980392155" id="Ellipse" fill="rgb(20,20,20)"/><rect x="397.839" y="302.833" width="22.059" height="2.941" transform="matrix(1,0,0,1,0,0)" id="Rectangle" fill="rgb(128,77,25)"/></g><g id="cannon"><rect x="428.31" y="305.775" width="22.059" height="22.059" transform="matrix(1,0,0,1,0,0)" id="Rectangle" fill="rgb(50,30,10)"/><circle vector-effect="non-scaling-stroke" cx="439.33908015177394" cy="316.8039215686277" r="9.191176470588232" id="Ellipse" fill="rgb(58,58,58)"/><circle vector-effect="non-scaling-stroke" cx="439.33908015177354" cy="316.80392156862723" r="6.127450980392155" id="Ellipse" fill="rgb(20,20,20)"/><rect x="428.31" y="302.833" width="22.059" height="2.941" transform="matrix(1,0,0,1,0,0)" id="Rectangle" fill="rgb(128,77,25)"/></g></g><g id="windows"><path d=" M 197.875 294.341 C 197.615 282.656 192.786 273.326 186.875 273.326 C 180.964 273.326 176.135 282.656 175.875 294.341 L 197.875 294.341 L 197.875 294.341 Z " id="window" fill="rgb(50,30,10)"/><path d=" M 170.875 294.341 C 170.615 282.656 165.786 273.326 159.875 273.326 C 153.964 273.326 149.135 282.656 148.875 294.341 L 170.875 294.341 L 170.875 294.341 Z " id="window" fill="rgb(50,30,10)"/><path d=" M 143.875 294.341 C 143.615 282.656 138.786 273.326 132.875 273.326 C 126.964 273.326 122.135 282.656 121.875 294.341 L 143.875 294.341 L 143.875 294.341 Z " id="window" fill="rgb(50,30,10)"/></g><rect x="327.647" y="69.333" width="12" height="260" transform="matrix(1,0,0,1,0,0)" id="mast1" fill="rgb(100,60,20)"/><rect x="236.875" y="104.333" width="12" height="225" transform="matrix(1,0,0,1,0,0)" id="mast2" fill="rgb(100,60,20)"/><g id="rails"><rect x="114.875" y="253.833" width="90" height="5" transform="matrix(1,0,0,1,0,0)" id="Rectangle" fill="rgb(128,77,25)"/><rect x="205.647" y="283.833" width="22.265" height="5" transform="matrix(1,0,0,1,0,0)" id="Rectangle" fill="rgb(128,77,25)"/><rect x="227.14" y="313.833" width="158.735" height="5" transform="matrix(1,0,0,1,0,0)" id="Rectangle" fill="rgb(128,77,25)"/><rect x="384.875" y="283.833" width="80.772" height="5" transform="matrix(1,0,0,1,0,0)" id="Rectangle" fill="rgb(128,77,25)"/><rect x="121.875" y="258.833" width="4" height="10" transform="matrix(1,0,0,1,0,0)" id="Rectangle" fill="rgb(115,69,23)"/><rect x="134.875" y="258.833" width="4" height="10" transform="matrix(1,0,0,1,0,0)" id="Rectangle" fill="rgb(115,69,23)"/><rect x="146.875" y="258.833" width="4" height="10" transform="matrix(1,0,0,1,0,0)" id="Rectangle" fill="rgb(115,69,23)"/><rect x="158.875" y="258.833" width="4" height="10" transform="matrix(1,0,0,1,0,0)" id="Rectangle" fill="rgb(115,69,23)"/><rect x="170.875" y="258.833" width="4" height="10" transform="matrix(1,0,0,1,0,0)" id="Rectangle" fill="rgb(115,69,23)"/><rect x="182.875" y="258.833" width="4" height="10" transform="matrix(1,0,0,1,0,0)" id="Rectangle" fill="rgb(115,69,23)"/><rect x="194.875" y="258.833" width="4" height="10" transform="matrix(1,0,0,1,0,0)" id="Rectangle" fill="rgb(115,69,23)"/><rect x="209.875" y="288.833" width="4" height="10" transform="matrix(1,0,0,1,0,0)" id="Rectangle" fill="rgb(115,69,23)"/><rect x="218.875" y="288.833" width="4" height="10" transform="matrix(1,0,0,1,0,0)" id="Rectangle" fill="rgb(115,69,23)"/><rect x="134.875" y="258.833" width="4" height="10" transform="matrix(1,0,0,1,0,0)" id="Rectangle" fill="rgb(115,69,23)"/><rect x="232.875" y="318.833" width="4" height="10" transform="matrix(1,0,0,1,0,0)" id="Rectangle" fill="rgb(115,69,23)"/><rect x="244.875" y="318.833" width="4" height="10" transform="matrix(1,0,0,1,0,0)" id="Rectangle" fill="rgb(115,69,23)"/><rect x="256.875" y="318.833" width="4" height="10" transform="matrix(1,0,0,1,0,0)" id="Rectangle" fill="rgb(115,69,23)"/><rect x="268.875" y="318.833" width="4" height="10" transform="matrix(1,0,0,1,0,0)" id="Rectangle" fill="rgb(115,69,23)"/><rect x="280.875" y="318.833" width="4" height="10" transform="matrix(1,0,0,1,0,0)" id="Rectangle" fill="rgb(115,69,23)"/><rect x="292.875" y="318.833" width="4" height="10" transform="matrix(1,0,0,1,0,0)" id="Rectangle" fill="rgb(115,69,23)"/><rect x="304.875" y="318.833" width="4" height="10" transform="matrix(1,0,0,1,0,0)" id="Rectangle" fill="rgb(115,69,23)"/><rect x="316.875" y="318.833" width="4" height="10" transform="matrix(1,0,0,1,0,0)" id="Rectangle" fill="rgb(115,69,23)"/><rect x="328.875" y="318.833" width="4" height="10" transform="matrix(1,0,0,1,0,0)" id="Rectangle" fill="rgb(115,69,23)"/><rect x="340.875" y="318.833" width="4" height="10" transform="matrix(1,0,0,1,0,0)" id="Rectangle" fill="rgb(115,69,23)"/><rect x="352.875" y="318.833" width="4" height="10" transform="matrix(1,0,0,1,0,0)" id="Rectangle" fill="rgb(115,69,23)"/><rect x="364.875" y="318.833" width="4" height="10" transform="matrix(1,0,0,1,0,0)" id="Rectangle" fill="rgb(115,69,23)"/><rect x="376.875" y="318.833" width="4" height="10" transform="matrix(1,0,0,1,0,0)" id="Rectangle" fill="rgb(115,69,23)"/><rect x="387.875" y="288.833" width="4" height="10" transform="matrix(1,0,0,1,0,0)" id="Rectangle" fill="rgb(115,69,23)"/><rect x="399.875" y="288.833" width="4" height="10" transform="matrix(1,0,0,1,0,0)" id="Rectangle" fill="rgb(115,69,23)"/><rect x="411.875" y="288.833" width="4" height="10" transform="matrix(1,0,0,1,0,0)" id="Rectangle" fill="rgb(115,69,23)"/><rect x="423.875" y="288.833" width="4" height="10" transform="matrix(1,0,0,1,0,0)" id="Rectangle" fill="rgb(115,69,23)"/><rect x="435.875" y="288.833" width="4" height="10" transform="matrix(1,0,0,1,0,0)" id="Rectangle" fill="rgb(115,69,23)"/><rect x="447.875" y="288.833" width="4" height="10" transform="matrix(1,0,0,1,0,0)" id="Rectangle" fill="rgb(115,69,23)"/><rect x="459.875" y="288.833" width="4" height="10" transform="matrix(1,0,0,1,0,0)" id="Rectangle" fill="rgb(115,69,23)"/></g><g id="backsail"><path d=" M 235.292 184.433 C 235.292 192.921 236.432 200.912 236.396 214.975 Q 236.36 229.038 235.146 245.787 Q 158.189 246.183 109.146 245.662 C 110.552 231.551 112.34 216.954 113.271 195.85 Q 114.201 174.746 113.958 149.1 Q 187.94 170.644 235.292 184.433 Z " id="backsail3" fill="rgb(50,50,50)"/><path d="M 101.801 244.85 L 234.866 244.85 C 236.228 244.85 237.333 245.522 237.333 246.35 L 237.333 246.35 C 237.333 247.178 236.228 247.85 234.866 247.85 L 101.801 247.85 C 100.439 247.85 99.333 247.178 99.333 246.35 L 99.333 246.35 C 99.333 245.522 100.439 244.85 101.801 244.85 Z" style="stroke:none;fill:#643C14;stroke-miterlimit:10;"/><path d="M 107.292 145.153 L 235.202 181.83 C 236.511 182.206 237.389 183.156 237.16 183.952 L 237.16 183.952 C 236.932 184.748 235.684 185.089 234.375 184.714 L 106.465 148.036 C 105.156 147.661 104.278 146.71 104.506 145.914 L 104.506 145.914 C 104.734 145.119 105.983 144.777 107.292 145.153 Z" style="stroke:none;fill:#643C14;stroke-miterlimit:10;"/></g><g id="sailback1"><path d=" M 173.875 181.5 Q 189.542 213.667 189.542 228.333 Q 189.542 243 173.875 251.5 L 293.875 251.5 Q 307.542 243 307.542 228.667 Q 307.542 214.333 293.875 181.5 L 173.875 181.5 Z " id="sail3" fill="rgb(50,50,50)"/><path d="M 173.375 181 L 294.375 181 C 294.651 181 294.875 181.224 294.875 181.5 L 294.875 181.5 C 294.875 181.776 294.651 182 294.375 182 L 173.375 182 C 173.099 182 172.875 181.776 172.875 181.5 L 172.875 181.5 C 172.875 181.224 173.099 181 173.375 181 Z" style="stroke:none;fill:#734517;stroke-miterlimit:10;"/><path d="M 173.375 251 L 294.375 251 C 294.651 251 294.875 251.224 294.875 251.5 L 294.875 251.5 C 294.875 251.776 294.651 252 294.375 252 L 173.375 252 C 173.099 252 172.875 251.776 172.875 251.5 L 172.875 251.5 C 172.875 251.224 173.099 251 173.375 251 Z" style="stroke:none;fill:#734517;stroke-miterlimit:10;"/></g><g id="sailback2"><path d=" M 183.875 108 Q 195.875 140.667 195.875 156.333 Q 195.875 172 183.875 178 L 293.875 178 Q 306.875 170 306.875 155 Q 306.875 140 293.875 108 L 183.875 108 Z " id="sail4" fill="rgb(50,50,50)"/><path d="M 183.354 178 L 294.396 178 C 294.66 178 294.875 178.215 294.875 178.479 L 294.875 178.521 C 294.875 178.785 294.66 179 294.396 179 L 183.354 179 C 183.09 179 182.875 178.785 182.875 178.521 L 182.875 178.479 C 182.875 178.215 183.09 178 183.354 178 Z" style="stroke:none;fill:#734517;stroke-miterlimit:10;"/><path d="M 183.354 107 L 294.396 107 C 294.66 107 294.875 107.215 294.875 107.479 L 294.875 107.521 C 294.875 107.785 294.66 108 294.396 108 L 183.354 108 C 183.09 108 182.875 107.785 182.875 107.521 L 182.875 107.479 C 182.875 107.215 183.09 107 183.354 107 Z" style="stroke:none;fill:#734517;stroke-miterlimit:10;"/></g><path d=" M 540.346 261.833 L 540.346 261.833 Q 552.87 252.41 560.782 248.5 Q 568.693 244.59 583.647 240.434 Q 564.9 221.25 550.782 211.833 Q 536.663 202.417 503.282 186.833 Q 520.972 211.209 528.282 226 Q 535.591 240.791 540.346 261.833 L 540.346 261.833 Z " id="sail1" fill="rgb(50,50,50)"/><path d=" M 483.124 289.833 L 483.124 289.833 Q 498.153 278.525 507.647 273.833 Q 517.141 269.142 535.085 264.155 Q 512.589 241.133 495.647 229.833 Q 478.705 218.533 438.647 199.833 Q 459.876 229.084 468.647 246.833 Q 477.418 264.583 483.124 289.833 L 483.124 289.833 Z " id="sail2" fill="rgb(50,50,50)"/><path d=" M 276.875 211.833 Q 292.542 244 292.542 258.667 Q 292.542 273.333 276.875 281.833 L 396.875 281.833 Q 410.542 273.333 410.542 259 Q 410.542 244.667 396.875 211.833 L 276.875 211.833 Z " id="sail3" fill="rgb(50,50,50)"/><path d=" M 281.875 137.333 Q 293.875 170 293.875 185.667 Q 293.875 201.333 281.875 207.333 L 391.875 207.333 Q 404.875 199.333 404.875 184.333 Q 404.875 169.333 391.875 137.333 L 281.875 137.333 Z " id="sail4" fill="rgb(50,50,50)"/><path d=" M 286.875 73.333 Q 296.542 97.333 296.542 113.333 Q 296.542 129.333 286.875 133.333 L 386.875 133.333 Q 397.208 129 397.208 114 Q 397.208 100.667 386.875 73.333 L 286.875 73.333 Z " id="sail5" fill="rgb(50,50,50)"/><g id="boons"><path d="M 276.375 281.333 L 397.375 281.333 C 397.651 281.333 397.875 281.557 397.875 281.833 L 397.875 281.834 C 397.875 282.109 397.651 282.333 397.375 282.333 L 276.375 282.333 C 276.099 282.333 275.875 282.109 275.875 281.834 L 275.875 281.833 C 275.875 281.557 276.099 281.333 276.375 281.333 Z" style="stroke:none;fill:#734517;stroke-miterlimit:10;"/><path d="M 281.354 207.333 L 392.396 207.333 C 392.66 207.333 392.875 207.548 392.875 207.812 L 392.875 207.855 C 392.875 208.119 392.66 208.333 392.396 208.333 L 281.354 208.333 C 281.09 208.333 280.875 208.119 280.875 207.855 L 280.875 207.812 C 280.875 207.548 281.09 207.333 281.354 207.333 Z" style="stroke:none;fill:#734517;stroke-miterlimit:10;"/><path d="M 281.354 136.333 L 392.396 136.333 C 392.66 136.333 392.875 136.548 392.875 136.812 L 392.875 136.855 C 392.875 137.119 392.66 137.333 392.396 137.333 L 281.354 137.333 C 281.09 137.333 280.875 137.119 280.875 136.855 L 280.875 136.812 C 280.875 136.548 281.09 136.333 281.354 136.333 Z" style="stroke:none;fill:#734517;stroke-miterlimit:10;"/><path d="M 286.332 133.333 L 387.418 133.333 C 387.67 133.333 387.875 133.538 387.875 133.79 L 387.875 133.876 C 387.875 134.129 387.67 134.333 387.418 134.333 L 286.332 134.333 C 286.08 134.333 285.875 134.129 285.875 133.876 L 285.875 133.79 C 285.875 133.538 286.08 133.333 286.332 133.333 Z" style="stroke:none;fill:#734517;stroke-miterlimit:10;"/><path d="M 286.582 72.333 L 387.668 72.333 C 387.92 72.333 388.125 72.538 388.125 72.79 L 388.125 72.876 C 388.125 73.129 387.92 73.333 387.668 73.333 L 286.582 73.333 C 286.33 73.333 286.125 73.129 286.125 72.876 L 286.125 72.79 C 286.125 72.538 286.33 72.333 286.582 72.333 Z" style="stroke:none;fill:#734517;stroke-miterlimit:10;"/><path d="M 276.375 211.333 L 397.375 211.333 C 397.651 211.333 397.875 211.557 397.875 211.833 L 397.875 211.834 C 397.875 212.109 397.651 212.333 397.375 212.333 L 276.375 212.333 C 276.099 212.333 275.875 212.109 275.875 211.834 L 275.875 211.833 C 275.875 211.557 276.099 211.333 276.375 211.333 Z" style="stroke:none;fill:#734517;stroke-miterlimit:10;"/></g></g><defs><filter id="v06b1v7Wpnai704Rz92wdQwLmOnhmdJD" x="-200%" y="-200%" width="400%" height="400%" filterUnits="objectBoundingBox" color-interpolation-filters="sRGB"><feGaussianBlur xmlns="http://www.w3.org/2000/svg" in="SourceGraphic" stdDeviation="1.7174436251356113"/><feOffset xmlns="http://www.w3.org/2000/svg" dx="0" dy="4" result="pf_100_offsetBlur"/><feFlood xmlns="http://www.w3.org/2000/svg" flood-color="#000000" flood-opacity="0.6"/><feComposite xmlns="http://www.w3.org/2000/svg" in2="pf_100_offsetBlur" operator="in" result="pf_100_dropShadow"/><feBlend xmlns="http://www.w3.org/2000/svg" in="SourceGraphic" in2="pf_100_dropShadow" mode="normal"/></filter></defs><defs><filter id="1Pae1c7Aszkst7CgD51ljWC0xIDqz1FS" x="-200%" y="-200%" width="400%" height="400%" filterUnits="objectBoundingBox" color-interpolation-filters="sRGB"><feGaussianBlur xmlns="http://www.w3.org/2000/svg" in="SourceGraphic" stdDeviation="1.7174436251356113"/><feOffset xmlns="http://www.w3.org/2000/svg" dx="0" dy="-4" result="pf_100_offsetBlur"/><feFlood xmlns="http://www.w3.org/2000/svg" flood-color="#000000" flood-opacity="0.2"/><feComposite xmlns="http://www.w3.org/2000/svg" in2="pf_100_offsetBlur" operator="in" result="pf_100_dropShadow"/><feBlend xmlns="http://www.w3.org/2000/svg" in="SourceGraphic" in2="pf_100_dropShadow" mode="normal"/></filter></defs><g filter="url(#1Pae1c7Aszkst7CgD51ljWC0xIDqz1FS)"><path d=" M 1000 520 L -80 520 Q -80 439 -80 400 C -69.353 400 -36 440 0 440 Q 36 440 80 400 Q 127.419 440 160 440 Q 192.581 440 240 400 Q 287.419 440 320 440 Q 352.581 440 400 400 Q 447.419 440 480 440 Q 512.581 440 560 400 Q 607.419 440 640 440 Q 672.581 440 720 400 Q 767.419 440 800 440 Q 832.581 440 880 400 Q 929 440 960 440 Q 991 440 1000 420 L 1000 520 Z " id="waves-front" fill="rgb(100,150,240)"/></g></g></svg>