<?xml version="1.0" encoding="UTF-8" standalone="no"?>
<!-- Generator: Gravit.io -->
<svg xmlns="http://www.w3.org/2000/svg" xmlns:xlink="http://www.w3.org/1999/xlink" style="isolation:isolate" viewBox="0 0 800 800" width="800" height="800"><ellipse vector-effect="non-scaling-stroke" cx="400" cy="721" rx="175" ry="13" id="shadow" fill="rgb(180,180,180)"/><g id="Group"><g id="left shoe"><rect x="425.478" y="688.526" width="58.949" height="29.974" transform="matrix(1,0,0,1,0,0)" id="Rectangle" fill="rgb(58,58,58)"/><path d=" M 484.427 688.526 L 484.427 688.526 C 503.727 688.526 519.397 695.241 519.397 703.513 L 519.397 703.513 C 519.397 711.785 503.727 718.5 484.427 718.5 L 484.427 718.5 C 465.127 718.5 449.457 711.785 449.457 703.513 L 449.457 703.513 C 449.457 695.241 465.127 688.526 484.427 688.526 Z " id="Path" fill="rgb(58,58,58)"/></g><g id="right shoe"><rect x="315.573" y="688.526" width="58.949" height="29.974" transform="matrix(1,0,0,1,0,0)" id="Rectangle" fill="rgb(58,58,58)"/><path d=" M 316.572 688.526 L 316.572 688.526 C 335.872 688.526 351.542 695.241 351.542 703.513 L 351.542 703.513 C 351.542 711.785 335.872 718.5 316.572 718.5 L 316.572 718.5 C 297.272 718.5 281.602 711.785 281.602 703.513 L 281.602 703.513 C 281.602 695.241 297.272 688.526 316.572 688.526 Z " id="Path" fill="rgb(58,58,58)"/></g><rect x="429.475" y="487.699" width="55.952" height="199.827" transform="matrix(1,0,0,1,0,0)" id="left leg" fill="rgb(80,80,80)"/><rect x="315.573" y="487.699" width="55.952" height="199.827" transform="matrix(1,0,0,1,0,0)" id="right leg" fill="rgb(80,80,80)"/><rect x="315.573" y="436.743" width="169.853" height="49.957" transform="matrix(1,0,0,1,0,0)" id="waist" fill="rgb(80,80,80)"/><g id="belt"><rect x="315.573" y="447.734" width="169.853" height="7.993" transform="matrix(1,0,0,1,0,0)" id="Rectangle" fill="rgb(58,58,58)"/><path d=" M 389.009 446.235 L 401.998 446.235 L 401.998 457.226 L 389.009 457.226 L 389.009 446.235 Z  M 390.009 447.234 L 400.999 447.234 L 400.999 456.226 L 390.009 456.226 L 390.009 447.234 Z " fill-rule="evenodd" id="Compound Path" fill="rgb(185,185,185)"/><path d=" M 395.754 451.231 L 396.253 451.231 L 396.253 452.23 L 395.754 452.23 L 388.51 452.23 L 388.01 452.23 L 388.01 451.231 L 388.51 451.231 L 395.754 451.231 Z " id="Path" fill="rgb(185,185,185)"/></g><g id="shirt"><rect x="309.942" y="220.884" width="179.845" height="219.81" transform="matrix(1,0,0,1,0,0)" id="shirt color" fill="rgb(74,134,232)"/><polygon points="390.872,220.884,412.853,220.9,401.849,239.928" id="neck" fill="rgb(229,191,191)"/><path d=" M 398.361 438.692 L 398.361 439.191 L 397.362 439.191 L 397.362 438.692 L 397.362 238.864 L 397.362 238.365 L 398.361 238.365 L 398.361 238.864 L 398.361 438.692 Z " id="line" fill="rgb(67,121,209)"/><g id="buttons"><circle vector-effect="non-scaling-stroke" cx="403.8606901007065" cy="256.85295029039474" r="3.9965492623259706" id="Ellipse" fill="rgb(52,94,162)"/><circle vector-effect="non-scaling-stroke" cx="403.8606901007065" cy="296.8184429136543" r="3.9965492623259706" id="Ellipse" fill="rgb(52,94,162)"/><circle vector-effect="non-scaling-stroke" cx="403.8606901007065" cy="336.78393553691393" r="3.9965492623259706" id="Ellipse" fill="rgb(52,94,162)"/><circle vector-effect="non-scaling-stroke" cx="403.8606901007065" cy="376.7494281601734" r="3.9965492623259706" id="Ellipse" fill="rgb(52,94,162)"/><circle vector-effect="non-scaling-stroke" cx="403.8606901007065" cy="416.71492078343294" r="3.9965492623259706" id="Ellipse" fill="rgb(52,94,162)"/></g><path d=" M 416.41 220.884 L 418.232 248.154 L 402.546 239.977 L 413.365 220.884 L 416.41 220.884 Z " id="left collar" fill="rgb(67,121,209)" vector-effect="non-scaling-stroke" stroke-width="1" stroke="rgb(67,121,209)" stroke-linejoin="miter" stroke-linecap="square" stroke-miterlimit="3"/><path d=" M 390.345 220.884 L 401.589 239.803 L 386.076 248.303 L 387.338 220.884 L 390.345 220.884 Z " id="right collar" fill="rgb(67,121,209)" vector-effect="non-scaling-stroke" stroke-width="1" stroke="rgb(67,121,209)" stroke-linejoin="miter" stroke-linecap="square" stroke-miterlimit="3"/></g><path d=" M 490.103 440.24 L 423.979 440.24 C 425.196 442.412 425.72 443.449 427.479 446.402 C 429.238 449.354 428.639 448.487 429.866 450.509 Q 431.093 452.531 434.091 455.644 L 436.771 458.724 L 490.103 458.724 L 490.103 440.24 Z " id="left bottom flap" fill="rgb(230,230,230)"/><path d=" M 310.277 440.24 L 376.021 440.24 Q 374.682 443.536 372.922 446.568 C 371.163 449.6 371.762 448.71 370.534 450.787 Q 369.307 452.863 366.308 456.06 L 363.627 459.224 L 310.277 459.224 L 310.277 440.24 Z " id="right bottom flap" fill="rgb(230,230,230)"/><path d=" M 492.056 220.259 L 490.125 442.784 L 425.006 441.952 C 422.146 436.073 420.787 432.403 418.978 425.674 C 417.185 419.009 417.177 418.731 415.819 407.905 C 414.461 397.079 414.309 388.762 415.537 376.756 C 416.527 367.08 417.594 361.636 420.252 352.695 L 475.072 220.424" id="left flap" fill="rgb(230,230,230)"/><path d=" M 308.943 220.163 L 310.326 442.692 L 375.446 442.022 C 378.321 436.149 379.689 432.483 381.515 425.759 C 383.324 419.097 383.333 418.819 384.717 407.997 C 386.102 397.174 386.275 388.858 385.076 376.849 C 384.11 367.171 383.057 361.724 380.42 352.777 L 325.927 220.37" id="right flap" fill="rgb(230,230,230)"/><path d=" M 474.745 220.43 L 489.413 249.975 L 466.133 260.565 L 473.956 273.854 L 426.477 338.548 L 474.745 220.43 Z  M 474.835 222.858 L 488.054 249.495 L 464.714 260.116 L 472.757 273.794 L 430.474 331.414 L 474.835 222.858 Z " id="left lapel border" fill="rgb(210,210,210)"/><path d=" M 474.126 221.429 L 487.834 249.365 L 464.514 260.086 L 472.517 273.884 L 427.976 334.202 L 474.126 221.429 Z  M 474.206 223.857 L 486.485 248.875 L 463.096 259.636 L 471.328 273.814 L 431.942 327.148 L 474.206 223.857 Z " id="left lapel" fill="rgb(224,224,224)"/><path d=" M 374.102 338.798 L 326.923 273.894 L 334.796 260.645 L 311.576 249.945 L 326.374 220.47 L 374.102 338.798 Z  M 370.146 331.654 L 328.112 273.834 L 336.225 260.206 L 312.925 249.475 L 326.274 222.898 L 370.146 331.654 Z " id="right lapel border" fill="rgb(210,210,210)"/><path d=" M 372.084 334.092 L 328.592 273.444 L 336.835 259.906 L 313.275 249.435 L 326.743 222.628 L 372.084 334.092 Z  M 367.978 326.648 L 329.791 273.394 L 338.283 259.456 L 314.634 248.945 L 326.643 225.046 L 367.978 326.648 Z " id="right lapel" fill="rgb(224,224,224)"/><circle vector-effect="non-scaling-stroke" cx="517.398634580825" cy="379.79245001787535" r="19.982746311629768" id="left hand" fill="rgb(229,191,191)"/><rect x="497.416" y="237.915" width="39.965" height="139.879" transform="matrix(1,0,0,1,0,0)" id="left arm" fill="rgb(230,230,230)"/><circle vector-effect="non-scaling-stroke" cx="517.398634580825" cy="238.91408852088526" r="19.982746311629768" id="left shoulder" fill="rgb(230,230,230)"/><circle vector-effect="non-scaling-stroke" cx="282.60136541917495" cy="379.79245001787535" r="19.982746311629796" id="right hand" fill="rgb(229,191,191)"/><rect x="262.619" y="237.915" width="39.965" height="139.879" transform="matrix(1,0,0,1,0,0)" id="right arm" fill="rgb(230,230,230)"/><circle vector-effect="non-scaling-stroke" cx="282.60136541917495" cy="235.91667657414095" r="19.982746311629796" id="right shoulder" fill="rgb(230,230,230)"/><g id="pockets"><rect x="435.833" y="400.729" width="39.965" height="3.997" transform="matrix(1,0,0,1,0,0)" id="left pocket" fill="rgb(228,228,228)" vector-effect="non-scaling-stroke" stroke-width="1" stroke="rgb(220,220,220)" stroke-linejoin="miter" stroke-linecap="square" stroke-miterlimit="2"/><rect x="321.931" y="400.729" width="39.965" height="3.997" transform="matrix(1,0,0,1,0,0)" id="right pocket" fill="rgb(228,228,228)" vector-effect="non-scaling-stroke" stroke-width="1" stroke="rgb(220,220,220)" stroke-linejoin="miter" stroke-linecap="square" stroke-miterlimit="2"/><rect x="455.816" y="300.815" width="19.983" height="1.998" transform="matrix(1,0,0,1,0,0)" id="top pocket" fill="rgb(222,222,222)" vector-effect="non-scaling-stroke" stroke-width="1" stroke="rgb(220,220,220)" stroke-linejoin="miter" stroke-linecap="square" stroke-miterlimit="2"/></g><g id="pens"><g id="black pen"><rect x="461.811" y="292.322" width="1.998" height="7.993" transform="matrix(1,0,0,1,0,0)" id="Rectangle" fill="rgb(80,80,80)"/><rect x="462.31" y="300.315" width="0.999" height="3.997" transform="matrix(1,0,0,1,0,0)" id="Rectangle" fill="rgb(80,80,80)"/></g><g id="green pen"><rect x="465.807" y="292.322" width="1.998" height="7.993" transform="matrix(1,0,0,1,0,0)" id="Rectangle" fill="rgb(0,140,0)"/><rect x="466.307" y="300.315" width="0.999" height="3.997" transform="matrix(1,0,0,1,0,0)" id="Rectangle" fill="rgb(0,140,0)"/></g><g id="red pen"><rect x="470.303" y="300.315" width="0.999" height="3.997" transform="matrix(1,0,0,1,0,0)" id="Rectangle" fill="rgb(180,0,0)"/><rect x="469.804" y="292.322" width="1.998" height="7.993" transform="matrix(1,0,0,1,0,0)" id="Rectangle" fill="rgb(180,0,0)"/></g></g><circle vector-effect="non-scaling-stroke" cx="400.99913731558127" cy="158.48353461657547" r="57.4503956459356" id="face" fill="rgb(229,191,191)"/><g id="mouth"><path d=" M 421.443 189.457 C 421.275 197.752 412.612 204.444 401.966 204.444 C 391.319 204.444 382.656 197.752 382.488 189.457 L 421.443 189.457 L 421.443 189.457 Z " id="Path" fill="rgb(180,100,100)"/><path d=" M 418.318 191.455 C 418.178 197.555 410.984 202.477 402.144 202.477 C 393.304 202.477 386.11 197.555 385.97 191.455 L 418.318 191.455 L 418.318 191.455 Z " id="Path" fill="rgb(248,248,248)"/></g><g id="eyes"><g id="right eye"><path d=" M 364.531 152.988 C 364.531 149.772 366.789 147.993 372.523 147.993 C 378.257 147.993 387.379 149.45 387.509 152.988 C 387.627 156.204 381.254 157.984 375.52 157.984 C 369.787 157.984 364.531 156.205 364.531 152.988 Z " id="Path" fill="rgb(230,230,230)"/><path d=" M 377.519 147.993 C 378.745 148.899 379.518 150.352 379.518 151.989 C 379.518 154.746 377.279 156.985 374.522 156.985 C 371.765 156.985 369.526 154.746 369.526 151.989 C 369.526 150.352 370.315 148.899 371.541 147.993 L 377.519 147.993 Z " id="Path" fill="rgb(170,100,0)"/><circle vector-effect="non-scaling-stroke" cx="374.52199845267216" cy="151.98914206529577" r="0.9991373155814927" id="Ellipse" fill="rgb(128,77,0)"/><circle vector-effect="non-scaling-stroke" cx="377.51941039941653" cy="149.99086743413278" r="0.9991373155814927" id="Ellipse" fill="rgb(230,230,230)"/></g><g id="left eye"><path d=" M 437.468 152.988 C 437.468 149.772 435.209 147.993 429.475 147.993 C 423.741 147.993 414.619 149.45 414.489 152.988 C 414.371 156.204 420.744 157.984 426.478 157.984 C 432.212 157.984 437.468 156.205 437.468 152.988 Z " id="Path" fill="rgb(230,230,230)"/><path d=" M 424.479 147.993 C 423.253 148.899 422.481 150.352 422.481 151.989 C 422.481 154.746 424.719 156.985 427.476 156.985 C 430.233 156.985 432.472 154.746 432.472 151.989 C 432.472 150.352 431.683 148.899 430.457 147.993 L 424.479 147.993 Z " id="Path" fill="rgb(170,100,0)"/><circle vector-effect="non-scaling-stroke" cx="427.4762761784908" cy="151.98914206529577" r="0.9991373155814927" id="Ellipse" fill="rgb(128,77,0)"/><circle vector-effect="non-scaling-stroke" cx="430.4736881252352" cy="149.99086743413278" r="0.9991373155814927" id="Ellipse" fill="rgb(230,230,230)"/></g></g><g id="glasses"><path d=" M 359.755 140.999 L 389.289 140.999 C 390.938 140.999 392.516 141.658 393.685 142.817 C 394.844 143.986 395.504 145.565 395.504 147.213 L 395.504 156.765 C 395.504 158.414 394.844 159.992 393.685 161.161 C 392.516 162.32 390.938 162.98 389.289 162.98 L 359.755 162.98 C 358.106 162.98 356.528 162.32 355.359 161.161 C 354.2 159.992 353.54 158.414 353.54 156.765 L 353.54 147.213 C 353.54 145.565 354.2 143.986 355.359 142.817 C 356.528 141.658 358.106 140.999 359.755 140.999 Z  M 359.755 142.997 L 389.289 142.997 C 390.408 142.997 391.477 143.437 392.267 144.236 C 393.066 145.025 393.506 146.094 393.506 147.213 L 393.506 156.765 C 393.506 157.884 393.066 158.953 392.267 159.742 C 391.477 160.542 390.408 160.981 389.289 160.981 L 359.755 160.981 C 358.636 160.981 357.567 160.542 356.777 159.742 C 355.978 158.953 355.538 157.884 355.538 156.765 L 355.538 147.213 C 355.538 146.094 355.978 145.025 356.777 144.236 C 357.567 143.437 358.636 142.997 359.755 142.997 Z " fill-rule="evenodd" id="Compound Path" fill="rgb(50,50,50)"/><path d=" M 411.71 140.999 L 441.244 140.999 C 442.893 140.999 444.472 141.658 445.641 142.817 C 446.8 143.986 447.459 145.565 447.459 147.213 L 447.459 156.765 C 447.459 158.414 446.8 159.992 445.641 161.161 C 444.472 162.32 442.893 162.98 441.244 162.98 L 411.71 162.98 C 410.061 162.98 408.483 162.32 407.314 161.161 C 406.155 159.992 405.495 158.414 405.495 156.765 L 405.495 147.213 C 405.495 145.565 406.155 143.986 407.314 142.817 C 408.483 141.658 410.061 140.999 411.71 140.999 Z  M 411.71 142.997 L 441.244 142.997 C 442.363 142.997 443.433 143.437 444.222 144.236 C 445.021 145.025 445.461 146.094 445.461 147.213 L 445.461 156.765 C 445.461 157.884 445.021 158.953 444.222 159.742 C 443.433 160.542 442.363 160.981 441.244 160.981 L 411.71 160.981 C 410.591 160.981 409.522 160.542 408.732 159.742 C 407.933 158.953 407.494 157.884 407.494 156.765 L 407.494 147.213 C 407.494 146.094 407.933 145.025 408.732 144.236 C 409.522 143.437 410.591 142.997 411.71 142.997 Z " fill-rule="evenodd" id="Compound Path" fill="rgb(50,50,50)"/><path d=" M 396.073 148.812 L 395.254 149.381 L 394.115 147.743 L 394.934 147.173 C 395.384 146.854 395.844 146.564 396.323 146.284 C 396.703 146.064 397.103 145.864 397.512 145.685 C 397.992 145.475 398.491 145.305 399.001 145.175 C 399.411 145.065 399.84 145.005 400.27 144.995 C 400.709 144.985 401.159 145.025 401.589 145.115 C 402.118 145.225 402.638 145.375 403.137 145.575 C 403.587 145.755 404.037 145.964 404.466 146.204 C 405.006 146.494 405.535 146.814 406.055 147.163 L 406.884 147.723 L 405.765 149.381 L 404.936 148.822 C 404.476 148.512 403.997 148.222 403.507 147.953 C 403.147 147.763 402.778 147.583 402.398 147.433 C 402.008 147.273 401.599 147.153 401.189 147.073 C 400.899 147.013 400.609 146.983 400.32 146.993 C 400.04 147.003 399.76 147.043 399.49 147.113 C 399.081 147.213 398.691 147.343 398.311 147.513 C 397.972 147.663 397.642 147.833 397.322 148.013 C 396.893 148.262 396.483 148.532 396.073 148.812 Z " id="Path" fill="rgb(50,50,50)"/></g><path d=" M 388.18 120.187 L 373.323 136.882 L 377.27 125.282 C 376.88 125.722 376.49 126.151 376.091 126.581 C 375.321 127.41 374.532 128.21 373.713 128.989 C 372.644 130.008 371.525 130.957 370.356 131.847 C 369.546 132.446 368.697 132.986 367.808 133.445 C 367.508 133.605 367.208 133.745 366.909 133.885 C 366.549 134.045 366.179 134.195 365.81 134.334 C 364.76 134.734 363.701 135.074 362.622 135.363 C 360.984 135.793 359.335 136.173 357.677 136.493 C 357.517 136.522 357.357 136.473 357.237 136.363 C 357.117 136.243 357.067 136.083 357.087 135.923 L 358.836 125.472 L 348.035 136.273 C 347.685 137.402 347.365 138.541 347.046 139.68 C 346.876 140.319 346.716 140.959 346.586 141.598 C 346.346 142.737 346.147 143.886 345.997 145.045 C 345.837 146.204 345.707 147.373 345.597 148.542 C 345.597 148.542 345.597 148.542 345.597 148.542 L 345.587 148.582 C 345.587 148.592 345.587 148.592 345.587 148.592 C 345.447 149.881 345.327 151.18 345.217 152.479 C 345.117 153.738 345.057 154.997 345.057 156.255 C 345.057 156.825 345.067 157.394 345.097 157.964 C 345.107 158.334 345.137 158.693 345.167 159.063 C 345.197 159.513 345.247 159.962 345.297 160.412 C 345.447 161.671 345.637 162.92 345.877 164.169 C 346.306 166.467 346.796 168.745 347.355 171.003 C 345.857 170.143 344.398 169.204 342.979 168.215 C 342.13 167.616 341.311 166.976 340.521 166.307 C 339.522 165.458 338.593 164.528 337.734 163.539 C 337.124 162.82 336.595 162.04 336.165 161.211 C 335.965 160.851 335.795 160.472 335.646 160.082 C 335.466 159.633 335.306 159.173 335.166 158.703 C 335.056 158.354 334.966 158.004 334.886 157.654 C 334.786 157.255 334.706 156.855 334.636 156.455 C 334.417 155.286 334.267 154.107 334.187 152.928 C 334.077 151.28 334.037 149.641 334.057 148.003 C 333.967 145.685 333.927 143.367 333.947 141.049 C 333.957 139.22 334.027 137.392 334.137 135.573 C 334.287 133.215 334.557 130.877 334.936 128.559 C 335.206 126.961 335.586 125.392 336.075 123.863 C 336.295 123.204 336.525 122.555 336.785 121.915 C 337.084 121.156 337.414 120.396 337.764 119.657 C 338.024 119.118 338.283 118.578 338.563 118.048 C 338.873 117.449 339.193 116.849 339.522 116.26 C 340.471 114.551 341.501 112.873 342.58 111.234 C 344.038 109.026 345.567 106.858 347.146 104.73 C 347.176 104.69 347.216 104.65 347.256 104.62 L 356.667 98.036 L 345.957 90.542 L 375.501 90.542 L 368.467 81.5 L 391.587 82.549 L 411.57 88.534 L 432.402 85.407 L 429.335 91.541 L 451.436 91.541 L 441.624 96.987 L 456.701 103.821 C 456.761 103.851 456.821 103.891 456.861 103.941 C 457.51 104.62 458.15 105.319 458.779 106.029 C 459.269 106.598 459.758 107.168 460.228 107.757 C 460.817 108.507 461.387 109.276 461.917 110.075 C 462.296 110.625 462.636 111.204 462.936 111.794 C 463.135 112.184 463.315 112.573 463.485 112.973 C 463.675 113.452 463.855 113.942 464.025 114.432 C 464.145 114.791 464.255 115.151 464.354 115.521 C 464.474 115.93 464.584 116.35 464.684 116.76 C 464.974 117.969 465.214 119.187 465.394 120.416 C 465.643 122.095 465.843 123.774 465.993 125.462 C 466.263 127.94 466.503 130.428 466.722 132.916 C 466.842 134.264 466.932 135.623 466.992 136.982 C 467.052 138.391 467.082 139.8 467.082 141.208 C 467.082 143.806 467.052 146.414 466.992 149.002 C 466.952 150.011 466.892 151.01 466.792 152.009 C 466.722 152.788 466.622 153.558 466.483 154.337 C 466.313 155.336 466.073 156.315 465.763 157.285 C 465.553 157.964 465.274 158.613 464.924 159.223 C 464.764 159.523 464.574 159.812 464.374 160.092 C 464.145 160.422 463.905 160.732 463.645 161.031 C 463.455 161.261 463.255 161.471 463.046 161.691 C 462.816 161.921 462.586 162.16 462.336 162.38 C 461.627 163.04 460.877 163.659 460.088 164.219 C 458.719 165.218 457.281 166.127 455.802 166.956 C 456.211 164.898 456.551 162.83 456.811 160.742 C 456.921 159.822 456.991 158.903 457.001 157.974 L 457.001 157.674 C 457.001 156.785 456.941 155.896 456.841 155.017 C 456.741 154.147 456.611 153.278 456.471 152.409 C 456.291 151.29 456.132 150.171 456.002 149.052 C 455.882 147.913 455.792 146.784 455.732 145.655 C 455.692 144.735 455.622 143.816 455.522 142.897 C 455.422 141.958 455.252 141.039 455.012 140.119 C 454.923 139.77 454.823 139.42 454.703 139.07 C 454.563 138.651 454.413 138.231 454.253 137.811 C 453.794 136.632 453.264 135.473 452.675 134.344 C 451.765 132.616 450.796 130.917 449.767 129.259 L 445.641 123.494 L 447.029 130.797 C 447.069 131.007 446.969 131.227 446.78 131.327 C 446.59 131.437 446.36 131.407 446.2 131.257 C 444.202 129.389 442.224 127.49 440.265 125.572 C 439.196 124.523 438.157 123.454 437.148 122.355 C 436.219 121.346 435.32 120.316 434.43 119.277 C 433.371 118.018 432.322 116.76 431.293 115.491 L 434.111 124.343 L 438.886 132.326 L 426.287 125.452 C 426.277 125.442 426.267 125.442 426.257 125.432 C 424.938 124.593 423.64 123.734 422.341 122.874 C 421.631 122.405 420.932 121.915 420.243 121.426 L 419.473 120.876 C 418.344 120.107 417.255 119.277 416.206 118.398 C 415.986 118.208 415.766 118.008 415.557 117.809 C 415.287 117.569 415.037 117.319 414.787 117.059 C 414.078 116.36 413.398 115.631 412.749 114.871 C 412.369 114.432 411.99 113.992 411.62 113.552 L 414.218 121.166 L 416.985 126.791 C 417.075 126.991 417.035 127.231 416.875 127.38 C 416.706 127.53 416.466 127.55 416.276 127.44 C 415.207 126.791 414.158 126.121 413.129 125.432 C 412.309 124.883 411.52 124.303 410.731 123.704 C 409.752 122.944 408.802 122.135 407.903 121.276 C 407.264 120.666 406.684 120.017 406.145 119.317 C 405.955 119.068 405.765 118.808 405.585 118.538 C 405.365 118.218 405.156 117.889 404.956 117.559 C 404.396 116.63 403.887 115.671 403.417 114.681 C 402.858 113.492 402.328 112.283 401.828 111.064 C 400.699 113.003 399.53 114.931 398.331 116.829 C 397.582 118.018 396.783 119.177 395.954 120.316 C 395.284 121.216 394.595 122.105 393.875 122.974 C 392.556 124.553 391.208 126.121 389.849 127.66 C 389.709 127.81 389.509 127.87 389.319 127.81 C 389.129 127.75 388.999 127.58 388.97 127.38 L 388.18 120.187 Z  M 388.93 117.849 L 375.861 132.526 L 379.038 123.174 C 379.118 122.944 379.018 122.694 378.808 122.575 C 378.598 122.465 378.339 122.515 378.179 122.694 C 377.27 123.783 376.33 124.853 375.361 125.902 C 374.602 126.711 373.823 127.5 373.023 128.27 C 371.984 129.249 370.895 130.178 369.746 131.047 C 368.997 131.617 368.187 132.126 367.348 132.566 C 367.068 132.706 366.789 132.836 366.509 132.966 C 366.159 133.115 365.81 133.265 365.45 133.405 C 364.441 133.785 363.412 134.125 362.362 134.394 C 360.984 134.764 359.595 135.094 358.196 135.373 L 360.334 122.555 L 347.236 135.653 C 347.186 135.703 347.136 135.783 347.116 135.853 C 346.756 137.042 346.406 138.231 346.087 139.42 C 345.907 140.069 345.747 140.729 345.607 141.398 C 345.357 142.557 345.157 143.736 344.998 144.915 C 344.848 146.084 344.718 147.263 344.598 148.442 L 344.598 148.482 C 344.448 149.781 344.328 151.09 344.218 152.399 C 344.118 153.678 344.068 154.967 344.058 156.255 C 344.058 156.835 344.068 157.424 344.098 158.004 C 344.108 158.384 344.138 158.763 344.168 159.143 C 344.208 159.603 344.258 160.062 344.308 160.522 C 344.458 161.811 344.658 163.09 344.898 164.358 C 345.177 165.887 345.497 167.406 345.837 168.915 C 345.067 168.425 344.308 167.925 343.559 167.396 C 342.729 166.816 341.93 166.197 341.161 165.537 C 340.212 164.728 339.312 163.839 338.493 162.88 C 337.934 162.23 337.444 161.511 337.044 160.752 C 336.865 160.412 336.715 160.072 336.575 159.712 C 336.405 159.293 336.255 158.853 336.125 158.424 C 336.025 158.094 335.935 157.764 335.855 157.424 C 335.765 157.045 335.686 156.665 335.616 156.275 C 335.406 155.146 335.266 154.007 335.186 152.858 C 335.076 151.24 335.036 149.611 335.056 147.983 C 334.966 145.675 334.926 143.367 334.946 141.059 C 334.956 139.25 335.026 137.442 335.136 135.633 C 335.286 133.315 335.546 131.007 335.925 128.719 C 336.185 127.181 336.555 125.652 337.034 124.163 C 337.234 123.534 337.464 122.904 337.704 122.295 C 338.004 121.545 338.333 120.806 338.673 120.077 C 338.923 119.547 339.183 119.028 339.452 118.508 C 339.752 117.919 340.072 117.329 340.391 116.75 C 341.341 115.061 342.34 113.402 343.409 111.784 C 344.848 109.616 346.346 107.478 347.895 105.389 L 358.406 98.036 L 349.134 91.541 L 377.539 91.541 L 370.585 82.599 L 391.427 83.548 L 411.5 89.553 L 430.644 86.686 L 427.716 92.54 L 447.579 92.54 L 439.406 97.087 L 456.201 104.7 C 456.821 105.349 457.43 106.019 458.02 106.688 C 458.509 107.248 458.989 107.807 459.449 108.387 C 460.028 109.106 460.578 109.856 461.097 110.625 C 461.447 111.154 461.767 111.694 462.046 112.253 C 462.236 112.613 462.406 112.983 462.556 113.353 C 462.746 113.812 462.916 114.282 463.076 114.751 C 463.185 115.091 463.295 115.441 463.395 115.79 C 463.505 116.19 463.615 116.59 463.715 116.999 C 463.995 118.178 464.225 119.367 464.404 120.566 C 464.654 122.225 464.854 123.893 464.994 125.562 C 465.264 128.04 465.513 130.518 465.723 133.006 C 465.843 134.344 465.933 135.683 465.993 137.022 C 466.053 138.421 466.083 139.82 466.083 141.208 C 466.083 143.796 466.053 146.394 465.993 148.982 C 465.953 149.961 465.893 150.94 465.803 151.909 C 465.733 152.669 465.633 153.418 465.503 154.167 C 465.334 155.116 465.104 156.056 464.814 156.985 C 464.624 157.594 464.364 158.184 464.055 158.743 C 463.905 159.003 463.745 159.263 463.565 159.523 C 463.355 159.812 463.125 160.102 462.886 160.382 C 462.706 160.592 462.526 160.792 462.336 160.991 C 462.116 161.221 461.887 161.431 461.657 161.651 C 460.977 162.28 460.258 162.87 459.509 163.409 C 458.749 163.959 457.98 164.478 457.191 164.968 C 457.42 163.609 457.63 162.24 457.8 160.871 C 457.92 159.912 457.98 158.953 458 157.994 C 458 157.994 458 157.984 458 157.984 L 458 157.684 C 458 157.684 458 157.684 458 157.674 C 458 156.745 457.94 155.816 457.83 154.897 C 457.73 154.017 457.6 153.128 457.46 152.249 C 457.281 151.15 457.121 150.041 456.991 148.932 C 456.881 147.823 456.791 146.714 456.731 145.595 C 456.681 144.665 456.611 143.726 456.511 142.787 C 456.401 141.808 456.231 140.829 455.982 139.88 C 455.882 139.5 455.782 139.13 455.652 138.761 C 455.512 138.321 455.352 137.881 455.182 137.452 C 454.713 136.233 454.163 135.044 453.564 133.885 C 452.635 132.126 451.655 130.408 450.606 128.719 C 450.606 128.709 450.596 128.699 450.586 128.699 L 443.802 119.227 L 445.76 129.479 C 444.152 127.96 442.553 126.421 440.965 124.863 C 439.916 123.823 438.886 122.764 437.887 121.675 C 436.968 120.676 436.069 119.667 435.2 118.628 C 433.571 116.71 431.972 114.761 430.394 112.793 C 430.244 112.613 429.984 112.553 429.774 112.673 C 429.564 112.783 429.455 113.033 429.534 113.263 L 433.191 124.753 L 436.149 129.688 L 426.777 124.583 C 425.478 123.744 424.179 122.904 422.89 122.045 C 422.191 121.575 421.501 121.096 420.822 120.606 C 420.822 120.606 420.822 120.606 420.822 120.606 L 420.043 120.057 C 420.043 120.057 420.043 120.057 420.043 120.057 C 418.944 119.297 417.875 118.498 416.855 117.639 C 416.646 117.459 416.436 117.269 416.236 117.079 C 415.986 116.839 415.736 116.6 415.497 116.36 C 414.807 115.671 414.138 114.951 413.508 114.222 C 412.519 113.093 411.57 111.934 410.641 110.765 C 410.491 110.575 410.221 110.515 410.011 110.635 C 409.792 110.745 409.692 111.005 409.772 111.234 L 413.289 121.555 L 415.317 125.662 C 414.767 125.322 414.228 124.962 413.688 124.603 C 412.889 124.063 412.11 123.494 411.34 122.914 C 410.381 122.175 409.462 121.386 408.593 120.546 C 407.993 119.977 407.444 119.367 406.934 118.718 C 406.754 118.478 406.574 118.228 406.414 117.979 C 406.205 117.679 406.005 117.359 405.815 117.049 C 405.265 116.14 404.776 115.211 404.326 114.262 C 403.477 112.463 402.698 110.625 402.008 108.756 C 400.55 111.304 399.041 113.822 397.482 116.3 C 396.743 117.469 395.973 118.608 395.154 119.717 C 394.495 120.616 393.805 121.485 393.106 122.335 C 392.037 123.624 390.948 124.893 389.839 126.151 L 388.93 117.849 Z " id="hair border" fill="rgb(150,90,0)"/><path d=" M 388.931 116.894 L 376.316 131.507 L 379.189 121.266 Q 372.218 129.12 367.324 131.757 Q 364.417 133.322 358.582 135.004 L 360.205 122.515 L 346.592 135.628 Q 345.53 139.575 345.093 141.748 C 344.647 143.968 344.341 145.863 344.094 148.117 C 343.722 151.524 343.527 154.434 343.72 157.859 Q 343.925 161.507 345.343 168.1 Q 339.206 163.942 337.35 160.357 Q 335.31 156.417 335.727 147.993 Q 334.983 132.291 337.475 124.263 Q 339.745 116.95 347.966 105.529 L 359.081 97.661 L 349.59 91.416 L 378.44 91.791 L 371.071 82.549 L 391.304 83.798 L 411.286 89.918 L 430.145 86.795 L 427.522 92.54 L 446.506 92.665 L 439.012 96.912 L 455.873 105.03 Q 460.272 109.411 461.868 112.398 Q 464.146 116.663 464.865 125.762 Q 465.582 132.961 465.739 136.877 Q 465.905 141 465.739 148.617 Q 465.463 155.212 463.741 158.234 Q 462.194 160.948 457.496 164.229 Q 458.33 159.555 458.371 156.985 C 458.418 154.02 457.886 152.126 457.496 148.617 C 457.106 145.108 457.18 142.788 456.372 139.75 Q 455.26 135.565 451.127 128.759 L 444.383 119.767 L 445.257 128.509 Q 440.397 123.816 437.888 121.141 Q 434.679 117.72 429.146 111.025 L 432.518 124.513 L 435.266 128.634 L 427.647 124.513 Q 423.753 122.395 421.777 121.016 C 419.887 119.697 418.391 118.427 416.657 116.894 Q 413.989 114.537 409.538 109.651 L 412.66 120.391 L 414.533 124.763 Q 409.342 121.093 407.165 118.393 Q 404.63 115.25 401.919 108.152 Q 397.578 115.645 394.8 119.392 Q 393.218 121.528 390.055 125.262 L 388.931 116.894 Z  M 412.151 121.738 C 411.821 121.478 411.501 121.218 411.181 120.948 C 410.482 120.369 409.813 119.749 409.163 119.11 C 408.733 118.69 408.324 118.241 407.944 117.761 C 407.734 117.511 407.544 117.252 407.355 116.982 C 407.115 116.652 406.895 116.312 406.685 115.963 C 406.066 114.974 405.516 113.944 405.017 112.885 C 403.928 110.567 402.958 108.199 402.119 105.792 C 400.351 108.909 398.512 111.986 396.594 115.014 C 395.775 116.312 394.905 117.571 393.996 118.8 C 393.477 119.5 392.947 120.189 392.398 120.869 C 391.848 121.538 391.299 122.217 390.739 122.887 L 389.63 114.564 L 378.49 127.463 L 380.148 121.538 C 380.278 121.088 380.078 120.609 379.669 120.389 C 379.259 120.169 378.749 120.259 378.44 120.599 C 377.44 121.728 376.421 122.837 375.372 123.916 C 374.553 124.755 373.704 125.574 372.844 126.374 C 371.725 127.403 370.566 128.372 369.357 129.271 C 368.558 129.871 367.729 130.41 366.85 130.88 C 366.61 131.01 366.37 131.13 366.12 131.25 C 365.821 131.389 365.511 131.529 365.201 131.669 C 364.322 132.049 363.433 132.399 362.523 132.708 C 361.614 133.028 360.695 133.328 359.776 133.608 L 361.564 119.819 L 345.898 134.906 C 345.768 135.036 345.678 135.196 345.628 135.366 C 345.268 136.695 344.929 138.014 344.609 139.353 C 344.429 140.082 344.259 140.811 344.109 141.551 C 343.68 143.689 343.34 145.837 343.1 148.005 C 342.82 150.393 342.671 152.791 342.641 155.189 C 342.641 156.098 342.671 157.007 342.72 157.917 C 342.79 159.165 342.93 160.404 343.12 161.643 C 343.34 163.032 343.59 164.421 343.859 165.81 C 343.67 165.67 343.49 165.53 343.31 165.39 C 342.661 164.891 342.041 164.361 341.432 163.801 C 340.682 163.112 339.983 162.373 339.343 161.583 C 338.924 161.064 338.544 160.494 338.234 159.895 C 338.084 159.595 337.945 159.285 337.825 158.976 C 337.675 158.586 337.545 158.196 337.435 157.797 C 337.345 157.487 337.275 157.187 337.205 156.877 C 337.135 156.528 337.065 156.168 337.005 155.818 C 336.836 154.759 336.736 153.69 336.696 152.631 C 336.636 151.082 336.646 149.534 336.726 147.995 C 336.616 145.707 336.556 143.419 336.556 141.131 C 336.546 139.353 336.596 137.574 336.696 135.796 C 336.816 133.518 337.055 131.25 337.405 129.001 C 337.635 127.493 337.975 126.014 338.434 124.555 C 338.614 123.946 338.834 123.346 339.064 122.747 C 339.343 122.028 339.643 121.308 339.963 120.599 C 340.203 120.079 340.442 119.57 340.702 119.06 C 340.992 118.481 341.282 117.911 341.591 117.342 C 342.491 115.683 343.44 114.064 344.459 112.476 C 345.808 110.358 347.217 108.289 348.675 106.251 L 360.855 97.629 L 352.992 92.463 L 380.538 92.813 L 373.254 83.681 L 391.129 84.79 L 411.221 90.944 L 428.456 88.087 L 425.969 93.532 L 442.764 93.642 L 436.859 96.979 L 455.283 105.851 C 455.883 106.451 456.462 107.06 457.042 107.68 C 457.521 108.199 457.991 108.719 458.441 109.269 C 459.01 109.938 459.55 110.647 460.059 111.367 C 460.399 111.846 460.709 112.346 460.988 112.865 C 461.168 113.205 461.338 113.555 461.488 113.915 C 461.668 114.354 461.838 114.794 461.997 115.243 C 462.107 115.583 462.217 115.913 462.307 116.252 C 462.427 116.642 462.527 117.032 462.627 117.421 C 462.907 118.58 463.137 119.739 463.306 120.908 C 463.556 122.547 463.736 124.196 463.866 125.854 C 464.106 128.242 464.325 130.64 464.515 133.048 C 464.615 134.337 464.685 135.626 464.745 136.915 C 464.795 138.273 464.825 139.642 464.825 141.001 C 464.825 143.529 464.795 146.057 464.745 148.585 C 464.705 149.514 464.635 150.453 464.545 151.372 C 464.465 152.092 464.365 152.801 464.246 153.5 C 464.086 154.4 463.856 155.289 463.576 156.148 C 463.396 156.698 463.156 157.237 462.877 157.737 C 462.757 157.946 462.627 158.146 462.497 158.336 C 462.327 158.576 462.157 158.806 461.967 159.026 C 461.428 159.685 460.829 160.304 460.179 160.864 C 459.749 161.234 459.32 161.603 458.88 161.953 C 458.99 161.184 459.1 160.424 459.19 159.665 C 459.3 158.776 459.36 157.887 459.37 156.997 C 459.37 156.997 459.37 156.997 459.37 156.997 L 459.37 156.628 C 459.37 156.618 459.37 156.618 459.37 156.618 C 459.37 155.748 459.32 154.889 459.23 154.03 C 459.14 153.221 459.03 152.401 458.9 151.592 C 458.75 150.563 458.61 149.534 458.49 148.505 C 458.381 147.525 458.301 146.546 458.221 145.567 C 458.151 144.578 458.061 143.579 457.941 142.59 C 457.811 141.551 457.611 140.512 457.341 139.492 C 457.232 139.113 457.122 138.733 457.002 138.353 C 456.852 137.904 456.692 137.464 456.522 137.025 C 456.043 135.796 455.493 134.597 454.894 133.418 C 453.974 131.659 453.005 129.931 451.976 128.242 C 451.966 128.212 451.946 128.182 451.926 128.162 L 443.034 116.302 L 443.993 125.884 C 443.034 124.945 442.085 124.016 441.145 123.067 C 440.286 122.207 439.447 121.338 438.618 120.459 C 437.559 119.33 436.519 118.171 435.51 117.002 C 433.622 114.824 431.754 112.616 429.915 110.388 C 429.615 110.028 429.106 109.928 428.696 110.128 C 428.277 110.338 428.067 110.817 428.177 111.267 L 431.594 124.925 L 432.203 125.844 L 428.127 123.636 C 426.838 122.937 425.569 122.207 424.31 121.458 C 423.641 121.068 422.991 120.639 422.352 120.199 C 421.472 119.58 420.623 118.94 419.794 118.261 C 418.955 117.571 418.125 116.872 417.316 116.143 C 416.447 115.373 415.608 114.574 414.788 113.745 C 413.26 112.186 411.751 110.597 410.272 108.979 C 409.962 108.639 409.453 108.549 409.053 108.779 C 408.644 109.009 408.454 109.488 408.574 109.928 L 411.721 120.729 L 412.151 121.738 Z " id="hair" fill="rgb(80,50,0)"/><g id="hairs"><path d=" M 382.455 87.545 L 381.966 87.485 L 382.075 86.496 L 382.575 86.546 C 384.324 86.755 386.072 86.995 387.811 87.285 C 388.76 87.445 389.699 87.645 390.638 87.894 C 390.958 87.984 391.288 88.074 391.607 88.174 C 391.997 88.294 392.387 88.424 392.776 88.554 C 393.855 88.924 394.924 89.343 395.983 89.783 C 397.572 90.462 399.151 91.172 400.719 91.921 L 401.169 92.141 L 400.729 93.04 L 400.28 92.82 C 398.741 92.081 397.172 91.381 395.594 90.702 C 394.555 90.272 393.516 89.863 392.447 89.503 C 392.077 89.373 391.697 89.243 391.317 89.123 C 391.008 89.033 390.698 88.944 390.378 88.864 C 389.479 88.624 388.57 88.424 387.641 88.274 C 385.922 87.984 384.194 87.745 382.455 87.545 Z " id="Path" fill="rgb(120,60,0)"/><path d=" M 447.309 105.509 L 446.83 105.359 L 447.129 104.4 L 447.609 104.55 C 448.238 104.75 448.868 104.97 449.487 105.2 C 449.967 105.389 450.446 105.589 450.926 105.809 C 451.526 106.089 452.115 106.418 452.685 106.778 C 453.084 107.038 453.454 107.338 453.804 107.667 C 453.943 107.797 454.073 107.937 454.193 108.087 C 454.343 108.257 454.493 108.427 454.623 108.607 C 455.002 109.116 455.352 109.656 455.652 110.215 C 456.112 111.064 456.531 111.934 456.911 112.823 L 457.111 113.293 L 456.182 113.682 L 455.992 113.223 C 455.622 112.353 455.222 111.514 454.773 110.695 C 454.493 110.175 454.183 109.676 453.824 109.216 C 453.704 109.046 453.574 108.896 453.444 108.746 C 453.334 108.617 453.224 108.497 453.104 108.387 C 452.814 108.097 452.485 107.847 452.145 107.617 C 451.615 107.288 451.066 106.978 450.496 106.718 C 450.047 106.508 449.597 106.309 449.128 106.139 C 448.528 105.909 447.919 105.699 447.309 105.509 Z " id="Path" fill="rgb(120,60,0)"/><path d=" M 403.677 98.885 L 403.207 99.065 L 402.848 98.136 L 403.317 97.956 C 403.997 97.696 404.676 97.466 405.365 97.246 C 405.905 97.077 406.454 96.937 407.004 96.807 C 407.713 96.657 408.433 96.547 409.152 96.497 C 409.672 96.457 410.191 96.467 410.711 96.537 C 410.911 96.567 411.12 96.607 411.33 96.657 C 411.57 96.717 411.8 96.777 412.04 96.857 C 412.699 97.067 413.348 97.336 413.968 97.656 C 414.917 98.146 415.846 98.675 416.736 99.265 L 417.155 99.534 L 416.606 100.374 L 416.186 100.104 C 415.327 99.534 414.428 99.015 413.508 98.545 C 412.939 98.246 412.349 98.006 411.73 97.806 C 411.52 97.736 411.31 97.676 411.1 97.626 C 410.921 97.586 410.751 97.556 410.571 97.536 C 410.121 97.466 409.682 97.456 409.232 97.486 C 408.553 97.536 407.883 97.636 407.214 97.786 C 406.694 97.906 406.175 98.046 405.665 98.206 C 404.996 98.405 404.326 98.635 403.677 98.885 Z " id="Path" fill="rgb(120,60,0)"/><path d=" M 413.658 95.008 L 413.179 95.168 L 412.849 94.229 L 413.318 94.059 C 414.398 93.689 415.477 93.34 416.566 93.01 C 417.165 92.83 417.775 92.68 418.384 92.55 C 419.034 92.411 419.703 92.311 420.362 92.231 C 421.571 92.091 422.79 91.991 424.009 91.911 L 424.509 91.881 L 424.569 92.87 L 424.069 92.91 C 422.87 92.98 421.671 93.09 420.482 93.23 C 419.843 93.3 419.213 93.4 418.584 93.53 C 418.004 93.65 417.425 93.799 416.855 93.969 C 415.776 94.289 414.707 94.629 413.658 95.008 Z " id="Path" fill="rgb(120,60,0)"/><path d=" M 427.556 96.527 L 427.057 96.607 L 426.907 95.618 L 427.396 95.548 L 433.371 94.609 L 438.457 94.539 L 438.956 94.529 L 438.976 95.528 L 438.477 95.538 L 433.451 95.608 L 427.556 96.527 Z " id="Path" fill="rgb(120,60,0)"/><path d=" M 387.341 98.016 L 386.891 98.226 L 386.462 97.326 L 386.911 97.107 C 387.481 96.847 388.05 96.597 388.63 96.357 C 389.089 96.177 389.549 96.007 390.019 95.868 C 390.628 95.678 391.238 95.528 391.867 95.418 C 392.307 95.338 392.766 95.308 393.216 95.328 C 393.456 95.328 393.685 95.348 393.925 95.388 C 394.195 95.418 394.465 95.478 394.725 95.538 C 395.494 95.728 396.233 95.987 396.943 96.317 C 398.052 96.837 399.121 97.436 400.15 98.086 L 400.579 98.355 L 400.04 99.195 L 399.62 98.935 C 398.621 98.296 397.592 97.726 396.523 97.226 C 395.874 96.917 395.194 96.677 394.495 96.507 C 394.255 96.457 394.015 96.407 393.785 96.377 C 393.586 96.347 393.386 96.327 393.186 96.317 C 392.796 96.307 392.417 96.337 392.037 96.407 C 391.457 96.497 390.878 96.637 390.318 96.817 C 389.879 96.957 389.439 97.117 388.999 97.286 C 388.44 97.516 387.89 97.756 387.341 98.016 Z " id="Path" fill="rgb(120,60,0)"/><path d=" M 361.473 95.538 L 360.984 95.478 L 361.094 94.489 L 361.593 94.539 L 370.655 95.548 L 377.809 98.525 L 378.269 98.715 L 377.889 99.634 L 377.429 99.445 L 370.396 96.527 L 361.473 95.538 Z " id="Path" fill="rgb(120,60,0)"/><path d=" M 351.882 109.386 L 351.522 109.736 L 350.832 109.006 L 351.202 108.667 C 352.001 107.897 352.851 107.188 353.74 106.518 C 354.23 106.149 354.769 105.829 355.329 105.579 C 355.508 105.489 355.698 105.419 355.888 105.349 C 356.108 105.269 356.328 105.2 356.557 105.14 C 357.197 104.96 357.846 104.83 358.506 104.75 C 359.505 104.63 360.514 104.56 361.523 104.53 L 362.023 104.52 L 362.043 105.519 L 361.543 105.529 C 360.574 105.549 359.595 105.629 358.626 105.739 C 358.016 105.819 357.417 105.939 356.827 106.099 C 356.617 106.159 356.418 106.219 356.218 106.289 C 356.058 106.349 355.898 106.408 355.748 106.478 C 355.249 106.708 354.769 106.988 354.339 107.318 C 353.48 107.967 352.661 108.657 351.882 109.386 Z " id="Path" fill="rgb(120,60,0)"/></g></g></svg>