<?xml version="1.0" encoding="UTF-8" standalone="no"?>
<!-- Generator: Gravit.io -->
<svg xmlns="http://www.w3.org/2000/svg" xmlns:xlink="http://www.w3.org/1999/xlink" style="isolation:isolate" viewBox="0 0 800 800" width="800" height="800"><g id="Group"><ellipse vector-effect="non-scaling-stroke" cx="413.0441158232844" cy="695" rx="120" ry="13" id="shadow" fill="rgb(180,180,180)"/><g id="Group"><path d=" M 409.018 238.511 C 424.659 250.143 521.369 379.376 473.274 555.841 C 472.891 557.249 466.768 583.647 451.256 624.329" id="Path" fill="none" vector-effect="non-scaling-stroke" stroke-width="17.691" stroke="rgb(74,134,232)" stroke-linejoin="miter" stroke-linecap="square" stroke-miterlimit="3"/><path d=" M 372.386 154.587 C 383.878 152.805 400.022 147.058 409.918 129.519 Q 404.114 170.895 417.068 177.14" id="Path" fill="rgb(74,134,232)"/><polygon points="407.799,229.839,421.941,185.486,390.601,151.062,345.119,160.991,330.976,205.344,362.316,239.768" id="Polygon" fill="rgb(74,134,232)"/><path d=" M 383.754 182.485 C 377.182 178.777 368.835 181.102 365.126 187.674 C 361.418 194.247 363.743 202.594 370.316 206.302 C 376.888 210.011 385.235 207.685 388.944 201.113 C 392.652 194.54 390.327 186.193 383.754 182.485 Z " id="Ellipse" fill="rgb(100,160,250)"/><path d=" M 414.682 208.219 C 409.196 218.412 418.799 241.903 425.901 249.1 C 399.455 243.214 401.482 235.853 382.014 235.5" id="Path" fill="rgb(74,134,232)"/><path d=" M 386.071 235.375 C 372.165 235.673 365.852 243.901 362.332 253.896 Q 361.786 237.907 348.636 225.437" id="Path" fill="rgb(74,134,232)"/><path d=" M 408.93 168.828 C 416.334 179.384 432.771 185.325 443.27 183.89 Q 420.451 193.512 414.87 207.663" id="Path" fill="rgb(74,134,232)"/><path d=" M 349.809 226.631 C 343.188 218.111 322.004 208.644 311.726 211.224 Q 334.054 197.846 338.048 183.168" id="Path" fill="rgb(74,134,232)"/><path d=" M 334.077 195.163 C 343.333 176.882 338.042 151.973 329.729 145.402 Q 358.966 157.646 373.017 154.411" id="Path" fill="rgb(74,134,232)"/><path d=" M 368.366 238.962 C 358.005 256.44 354.707 272.556 357.692 282.374" id="Path" fill="none" vector-effect="non-scaling-stroke" stroke-width="3.538" stroke="rgb(74,134,232)" stroke-linejoin="miter" stroke-linecap="square" stroke-miterlimit="3"/><path d=" M 360.778 237.338 C 364.591 252.247 352.638 271.548 341.812 276.603" id="Path" fill="none" vector-effect="non-scaling-stroke" stroke-width="3.538" stroke="rgb(74,134,232)" stroke-linejoin="miter" stroke-linecap="square" stroke-miterlimit="3"/><path d=" M 322.563 205.677 C 299.62 220.904 274.006 214.956 266.956 206.726" id="Path" fill="none" vector-effect="non-scaling-stroke" stroke-width="3.538" stroke="rgb(74,134,232)" stroke-linejoin="miter" stroke-linecap="square" stroke-miterlimit="3"/><path d=" M 331.532 212.863 C 318.8 207.451 298.953 212.651 284.385 233.303" id="Path" fill="none" vector-effect="non-scaling-stroke" stroke-width="3.538" stroke="rgb(74,134,232)" stroke-linejoin="miter" stroke-linecap="square" stroke-miterlimit="3"/><path d=" M 468.242 210.798 C 455.797 181.983 445.158 179.17 428.729 188.504" id="Path" fill="none" vector-effect="non-scaling-stroke" stroke-width="3.538" stroke="rgb(74,134,232)" stroke-linejoin="miter" stroke-linecap="square" stroke-miterlimit="3"/><path d=" M 490.039 185.357 C 484.682 192.965 467.517 195.812 455.233 189.106" id="Path" fill="none" vector-effect="non-scaling-stroke" stroke-width="3.538" stroke="rgb(74,134,232)" stroke-linejoin="miter" stroke-linecap="square" stroke-miterlimit="3"/><path d=" M 426.169 92.709 C 427.524 113.246 409.815 112.516 406.78 138.379" id="Path" fill="none" vector-effect="non-scaling-stroke" stroke-width="3.538" stroke="rgb(74,134,232)" stroke-linejoin="miter" stroke-linecap="square" stroke-miterlimit="3"/><path d=" M 414.078 92 C 406.303 98.244 421.883 107.244 416.531 115.444" id="Path" fill="none" vector-effect="non-scaling-stroke" stroke-width="2.123" stroke="rgb(74,134,232)" stroke-linejoin="miter" stroke-linecap="square" stroke-miterlimit="3"/><path d=" M 299.743 127.42 C 317.735 128.269 325.304 144.766 335.146 148.99" id="Path" fill="none" vector-effect="non-scaling-stroke" stroke-width="3.538" stroke="rgb(74,134,232)" stroke-linejoin="miter" stroke-linecap="square" stroke-miterlimit="3"/><path d=" M 304.141 138.938 C 318.817 134.594 332.148 145.92 335.937 151.828" id="Path" fill="none" vector-effect="non-scaling-stroke" stroke-width="3.538" stroke="rgb(74,134,232)" stroke-linejoin="miter" stroke-linecap="square" stroke-miterlimit="3"/><path d="M 410.692 257.702 L 437.148 298.96 C 439.502 302.63 444.393 303.699 448.064 301.345 L 454.248 297.38 C 457.918 295.026 458.987 290.135 456.634 286.465 L 430.178 245.207 C 427.824 241.537 422.933 240.468 419.262 242.821 L 413.078 246.787 C 409.408 249.141 408.339 254.032 410.692 257.702 Z" style="stroke:none;fill:#F08C00;stroke-miterlimit:10;opacity:0.6;"/><path d="M 448.155 323.659 L 463.356 370.253 C 464.709 374.398 469.172 376.666 473.317 375.313 L 480.301 373.035 C 484.447 371.682 486.714 367.219 485.362 363.073 L 470.16 316.479 C 468.808 312.334 464.344 310.066 460.199 311.419 L 453.215 313.697 C 449.07 315.05 446.802 319.513 448.155 323.659 Z" style="stroke:none;fill:#F08C00;stroke-miterlimit:10;opacity:0.6;"/><path d="M 470.43 397.584 L 474.796 446.4 C 475.185 450.743 479.026 453.954 483.369 453.565 L 490.686 452.911 C 495.029 452.522 498.24 448.681 497.852 444.338 L 493.485 395.522 C 493.097 391.179 489.255 387.968 484.912 388.357 L 477.595 389.011 C 473.252 389.399 470.042 393.241 470.43 397.584 Z" style="stroke:none;fill:#F08C00;stroke-miterlimit:10;opacity:0.6;"/><path d="M 475.875 472.679 L 469.945 521.33 C 469.417 525.658 472.503 529.601 476.831 530.128 L 484.123 531.017 C 488.452 531.545 492.394 528.459 492.922 524.13 L 498.852 475.479 C 499.38 471.151 496.294 467.209 491.965 466.681 L 484.673 465.792 C 480.345 465.265 476.403 468.35 475.875 472.679 Z" style="stroke:none;fill:#F08C00;stroke-miterlimit:10;opacity:0.6;"/><path d="M 464.121 549.339 L 449.438 596.099 C 448.131 600.259 450.448 604.697 454.609 606.003 L 461.617 608.204 C 465.777 609.511 470.215 607.194 471.522 603.034 L 486.205 556.274 C 487.511 552.114 485.195 547.675 481.034 546.369 L 474.026 544.168 C 469.866 542.862 465.427 545.179 464.121 549.339 Z" style="stroke:none;fill:#F08C00;stroke-miterlimit:10;opacity:0.6;"/><path d=" M 491.49 673.608 C 475.734 669.366 442.278 662.85 454.078 625.921" id="Path" fill="none" vector-effect="non-scaling-stroke" stroke-width="7.077" stroke="rgb(74,134,232)" stroke-linejoin="miter" stroke-linecap="square" stroke-miterlimit="3"/><path d=" M 401.289 670.021 C 428.264 667.434 440.063 640.87 447.638 624.148" id="Path" fill="none" vector-effect="non-scaling-stroke" stroke-width="7.077" stroke="rgb(74,134,232)" stroke-linejoin="miter" stroke-linecap="square" stroke-miterlimit="3"/><path d=" M 403.633 652.208 C 412.849 662.723 422.407 662.269 431.599 652.573" id="Path" fill="none" vector-effect="non-scaling-stroke" stroke-width="3.538" stroke="rgb(74,134,232)" stroke-linejoin="miter" stroke-linecap="square" stroke-miterlimit="3"/><path d=" M 413.322 686.379 C 409.735 681.431 410.237 673.476 423.896 661.515" id="Path" fill="none" vector-effect="non-scaling-stroke" stroke-width="3.538" stroke="rgb(74,134,232)" stroke-linejoin="miter" stroke-linecap="square" stroke-miterlimit="3"/><path d=" M 499.132 653.468 C 485.86 672.88 484.78 669.427 471.273 667.516" id="Path" fill="none" vector-effect="non-scaling-stroke" stroke-width="3.538" stroke="rgb(74,134,232)" stroke-linejoin="miter" stroke-linecap="square" stroke-miterlimit="3"/><path d=" M 488.288 692 C 488.036 689.007 491.847 679.328 472.71 667.795" id="Path" fill="none" vector-effect="non-scaling-stroke" stroke-width="3.538" stroke="rgb(74,134,232)" stroke-linejoin="miter" stroke-linecap="square" stroke-miterlimit="3"/></g></g></svg>