<?xml version="1.0" encoding="UTF-8" standalone="no"?>
<!-- Generator: Gravit.io -->
<svg xmlns="http://www.w3.org/2000/svg" xmlns:xlink="http://www.w3.org/1999/xlink" style="isolation:isolate" viewBox="0 0 800 800" width="800" height="800"><g id="Group"><ellipse vector-effect="non-scaling-stroke" cx="413.0441158232844" cy="695" rx="120" ry="13" id="shadow" fill="rgb(180,180,180)"/><g id="Group"><path d=" M 403.62 245.52 C 401.76 244.08 400.55 241.97 400.25 239.65 C 399.95 237.32 400.58 234.97 402.01 233.11 C 403.44 231.25 405.56 230.04 407.88 229.74 C 410.21 229.44 412.56 230.07 414.42 231.51 C 415.79 232.56 417.09 233.72 418.29 234.97 C 419.82 236.51 421.29 238.12 422.69 239.77 C 424.48 241.86 426.2 243.99 427.87 246.17 C 429.87 248.79 431.82 251.45 433.7 254.16 C 438.34 260.83 442.69 267.71 446.75 274.76 C 451.72 283.38 456.32 292.21 460.52 301.24 C 470.87 323.4 479.01 346.53 484.81 370.29 C 491.84 399.01 495.4 428.47 495.41 458.03 C 495.41 474.25 494.34 490.45 492.23 506.53 C 489.92 523.95 486.45 541.19 481.82 558.13 C 481.77 558.31 481.73 558.48 481.69 558.66 C 479.84 566.03 477.81 573.36 475.59 580.63 C 473.49 587.57 471.28 594.47 468.94 601.34 C 465.97 610.11 462.82 618.83 459.52 627.48 C 458.68 629.67 457.01 631.44 454.87 632.4 C 452.73 633.36 450.29 633.43 448.1 632.59 C 445.91 631.76 444.14 630.08 443.18 627.94 C 442.22 625.8 442.16 623.37 442.99 621.17 C 446.22 612.72 449.28 604.22 452.19 595.65 C 454.46 588.97 456.62 582.25 458.67 575.49 C 460.79 568.52 462.73 561.51 464.5 554.45 C 464.58 554.14 464.65 553.84 464.73 553.54 C 469.16 537.35 472.49 520.87 474.69 504.22 C 476.7 488.91 477.72 473.48 477.72 458.03 C 477.71 429.88 474.32 401.84 467.63 374.5 C 462.1 351.86 454.35 329.83 444.49 308.72 C 440.5 300.15 436.14 291.77 431.42 283.58 C 427.61 276.97 423.53 270.52 419.18 264.25 C 417.45 261.77 415.66 259.33 413.82 256.93 C 412.34 254.99 410.81 253.1 409.23 251.25 C 408.08 249.89 406.88 248.58 405.63 247.32 C 405 246.67 404.33 246.07 403.62 245.52 Z " id="Path" fill="rgb(74,134,232)"/><path d=" M 372.386 154.587 C 383.878 152.805 400.022 147.058 409.918 129.519 Q 404.114 170.895 417.068 177.14" id="Path" fill="rgb(74,134,232)"/><polygon points="407.799,229.839,421.941,185.486,390.601,151.062,345.119,160.991,330.976,205.344,362.316,239.768" id="Polygon" fill="rgb(74,134,232)"/><path d=" M 383.754 182.485 C 377.182 178.777 368.835 181.102 365.126 187.674 C 361.418 194.247 363.743 202.594 370.316 206.302 C 376.888 210.011 385.235 207.685 388.944 201.113 C 392.652 194.54 390.327 186.193 383.754 182.485 Z " id="Ellipse" fill="rgb(100,160,250)"/><path d=" M 414.682 208.219 C 409.872 217.156 411 227.375 421 238.557 C 423.028 240.827 423.017 244.304 425.901 247 C 398.75 251.625 401.482 235.853 382.014 235.5" id="Path" fill="rgb(74,134,232)"/><path d=" M 386.071 235.375 C 372.165 235.673 365.852 243.901 362.332 253.896 Q 361.786 237.907 348.636 225.437" id="Path" fill="rgb(74,134,232)"/><path d=" M 408.93 168.828 C 416.334 179.384 432.771 185.325 443.27 183.89 Q 420.451 193.512 414.87 207.663" id="Path" fill="rgb(74,134,232)"/><path d=" M 349.809 226.631 C 343.188 218.111 322.004 208.644 311.726 211.224 Q 334.054 197.846 338.048 183.168" id="Path" fill="rgb(74,134,232)"/><path d=" M 334.077 195.163 C 343.333 176.882 338.042 151.973 329.729 145.402 Q 358.966 157.646 373.017 154.411" id="Path" fill="rgb(74,134,232)"/><path d=" M 359.39 281.87 L 359.89 283.56 L 356.51 284.58 L 356 282.88 C 355.61 281.58 355.32 280.25 355.15 278.9 C 354.96 277.44 354.86 275.97 354.87 274.5 C 354.89 271.81 355.13 269.13 355.61 266.48 C 356.15 263.48 356.9 260.52 357.84 257.62 C 358.9 254.37 360.15 251.18 361.58 248.08 C 363.16 244.65 364.92 241.3 366.85 238.06 L 367.75 236.54 L 370.79 238.35 L 369.89 239.87 C 368.02 243 366.32 246.24 364.79 249.56 C 363.42 252.54 362.22 255.59 361.21 258.71 C 360.31 261.46 359.61 264.27 359.1 267.11 C 358.65 269.55 358.42 272.03 358.41 274.51 C 358.4 275.83 358.49 277.14 358.66 278.45 C 358.81 279.6 359.05 280.75 359.39 281.87 Z " id="Path" fill="rgb(74,134,232)"/><path d=" M 359.06 237.77 L 358.63 236.05 L 362.06 235.19 L 362.49 236.91 C 363.02 239.01 363.28 241.17 363.27 243.34 C 363.27 245.18 363.1 247.01 362.79 248.82 C 362.46 250.66 362.01 252.47 361.43 254.24 C 360.26 257.8 358.67 261.2 356.7 264.38 C 354.84 267.42 352.63 270.22 350.11 272.73 C 348.96 273.87 347.72 274.93 346.41 275.9 C 345.21 276.79 343.92 277.56 342.57 278.2 L 340.97 278.96 L 339.46 275.76 L 341.05 275.01 C 342.2 274.46 343.29 273.8 344.31 273.05 C 345.48 272.19 346.58 271.24 347.61 270.22 C 349.94 267.91 351.97 265.32 353.68 262.52 C 355.52 259.58 356.99 256.43 358.07 253.14 C 358.6 251.53 359.01 249.88 359.3 248.21 C 359.58 246.6 359.73 244.96 359.73 243.33 C 359.74 241.45 359.52 239.59 359.06 237.77 Z " id="Path" fill="rgb(74,134,232)"/><path d=" M 321.18 204.62 L 322.65 203.64 L 324.62 206.58 L 323.14 207.56 C 318.18 210.87 312.74 213.4 307.01 215.07 C 301.98 216.53 296.76 217.27 291.52 217.27 C 288.66 217.28 285.81 217.05 282.99 216.58 C 280.46 216.17 277.98 215.54 275.57 214.69 C 273.46 213.97 271.45 213.02 269.54 211.87 C 268.71 211.36 267.91 210.79 267.15 210.17 C 266.45 209.6 265.81 208.98 265.22 208.3 L 264.06 206.96 L 266.73 204.64 L 267.89 205.98 C 268.35 206.51 268.85 206.99 269.39 207.43 C 270.02 207.95 270.69 208.42 271.38 208.85 C 273.07 209.87 274.86 210.71 276.73 211.35 C 278.95 212.13 281.24 212.71 283.56 213.09 C 286.19 213.52 288.85 213.74 291.51 213.74 C 296.42 213.73 301.31 213.03 306.03 211.67 C 311.41 210.1 316.52 207.73 321.18 204.62 Z " id="Path" fill="rgb(74,134,232)"/><path d=" M 285.83 234.32 L 284.82 235.77 L 281.92 233.74 L 282.93 232.29 C 285.57 228.52 288.59 225.04 291.95 221.9 C 294.9 219.13 298.17 216.71 301.67 214.68 C 304.79 212.87 308.13 211.46 311.6 210.47 C 314.73 209.58 317.97 209.11 321.22 209.1 C 323.15 209.09 325.07 209.27 326.96 209.64 C 328.76 209.98 330.53 210.52 332.22 211.23 L 333.85 211.92 L 332.47 215.18 L 330.84 214.49 C 329.38 213.87 327.85 213.41 326.29 213.11 C 324.63 212.79 322.93 212.63 321.24 212.64 C 318.3 212.65 315.39 213.07 312.57 213.87 C 309.38 214.78 306.31 216.08 303.44 217.74 C 300.17 219.64 297.12 221.9 294.36 224.48 C 291.19 227.46 288.33 230.75 285.83 234.32 Z " id="Path" fill="rgb(74,134,232)"/><path d=" M 469.87 210.1 L 470.57 211.73 L 467.31 213.12 L 466.62 211.5 C 465.65 209.25 464.62 207.02 463.54 204.83 C 462.6 202.93 461.6 201.07 460.53 199.25 C 459.61 197.69 458.63 196.18 457.57 194.71 C 456.68 193.47 455.7 192.29 454.66 191.17 C 453.78 190.22 452.82 189.35 451.79 188.56 C 450.91 187.89 449.96 187.3 448.96 186.81 C 447.14 185.95 445.16 185.5 443.15 185.5 C 442.13 185.5 441.12 185.6 440.13 185.79 C 439.02 186 437.94 186.29 436.87 186.65 C 435.68 187.06 434.51 187.54 433.37 188.08 C 432.09 188.68 430.84 189.34 429.61 190.04 L 428.07 190.92 L 426.32 187.85 L 427.85 186.97 C 429.16 186.22 430.5 185.52 431.86 184.88 C 433.12 184.29 434.4 183.76 435.72 183.31 C 436.94 182.89 438.2 182.55 439.47 182.31 C 440.68 182.08 441.91 181.96 443.14 181.96 C 445.68 181.96 448.2 182.53 450.49 183.63 C 451.71 184.22 452.87 184.93 453.94 185.76 C 455.13 186.66 456.23 187.66 457.25 188.75 C 458.39 189.98 459.46 191.28 460.44 192.64 C 461.56 194.2 462.61 195.8 463.58 197.46 C 464.69 199.36 465.73 201.29 466.71 203.26 C 467.82 205.51 468.88 207.79 469.87 210.1 Z " id="Path" fill="rgb(74,134,232)"/><path d=" M 488.61 184.32 L 489.64 182.89 L 492.51 184.96 L 491.47 186.39 C 490.47 187.78 489.23 188.98 487.82 189.95 C 486.3 191 484.65 191.86 482.92 192.51 C 481.05 193.23 479.12 193.76 477.14 194.1 C 475.05 194.47 472.93 194.65 470.8 194.65 C 467.98 194.65 465.18 194.33 462.43 193.69 C 459.63 193.05 456.92 192.03 454.39 190.66 L 452.84 189.82 L 454.52 186.71 L 456.07 187.55 C 458.33 188.77 460.73 189.67 463.23 190.25 C 465.71 190.82 468.25 191.11 470.8 191.11 C 472.72 191.11 474.64 190.95 476.54 190.61 C 478.29 190.31 480.01 189.84 481.67 189.21 C 483.14 188.66 484.53 187.93 485.81 187.04 C 486.89 186.3 487.84 185.38 488.61 184.32 Z " id="Path" fill="rgb(74,134,232)"/><path d=" M 408.54 138.58 L 408.34 140.33 L 404.82 139.94 L 405.02 138.18 C 405.36 135.18 405.97 132.21 406.85 129.32 C 407.59 126.92 408.55 124.6 409.72 122.39 C 410.74 120.48 411.9 118.66 413.19 116.92 C 414.34 115.38 415.53 113.88 416.77 112.41 C 417.81 111.17 418.82 109.9 419.79 108.61 C 420.7 107.39 421.52 106.11 422.22 104.76 C 422.94 103.37 423.49 101.9 423.86 100.38 C 424.28 98.58 424.49 96.74 424.47 94.9 C 424.47 94.21 424.45 93.52 424.4 92.83 L 424.29 91.06 L 427.82 90.83 L 427.93 92.59 C 427.99 93.35 428.01 94.12 428.01 94.88 C 428.03 97.01 427.79 99.13 427.3 101.2 C 426.86 103 426.21 104.74 425.36 106.39 C 424.57 107.91 423.65 109.36 422.62 110.74 C 421.61 112.08 420.56 113.4 419.48 114.68 C 418.29 116.1 417.13 117.55 416.03 119.03 C 414.84 120.63 413.78 122.3 412.84 124.05 C 411.78 126.06 410.9 128.17 410.23 130.35 C 409.42 133.03 408.85 135.79 408.54 138.58 Z " id="Path" fill="rgb(74,134,232)"/><path d=" M 413.43 91.16 L 414.27 90.51 L 415.57 92.2 L 414.72 92.84 C 414.14 93.29 413.66 93.86 413.31 94.51 C 413.05 95.03 412.92 95.61 412.92 96.2 C 412.93 96.68 412.99 97.17 413.12 97.64 C 413.26 98.19 413.45 98.73 413.68 99.25 C 414.23 100.48 414.85 101.68 415.53 102.84 C 416.32 104.2 417.04 105.61 417.68 107.06 C 417.99 107.79 418.24 108.54 418.44 109.31 C 418.63 110.07 418.73 110.86 418.74 111.65 C 418.73 113.21 418.27 114.73 417.42 116.03 L 416.83 116.91 L 415.06 115.75 L 415.64 114.86 C 416.27 113.91 416.61 112.79 416.61 111.65 C 416.61 111.04 416.53 110.42 416.38 109.83 C 416.21 109.17 416 108.53 415.73 107.91 C 415.13 106.54 414.45 105.2 413.69 103.91 C 412.98 102.68 412.32 101.41 411.74 100.11 C 411.47 99.49 411.24 98.84 411.07 98.18 C 410.89 97.54 410.8 96.88 410.8 96.21 C 410.79 95.28 411.01 94.37 411.42 93.54 C 411.91 92.61 412.6 91.8 413.43 91.16 Z " id="Path" fill="rgb(74,134,232)"/><path d=" M 299.66 129.19 L 297.89 129.11 L 298.06 125.57 L 299.82 125.65 C 302.68 125.78 305.5 126.32 308.2 127.24 C 310.65 128.09 312.99 129.23 315.18 130.63 C 317.23 131.95 319.17 133.42 321.01 135.03 C 322.72 136.54 324.39 138.08 326.03 139.68 C 326.88 140.5 327.75 141.32 328.62 142.13 C 329.42 142.88 330.25 143.61 331.1 144.31 C 331.87 144.95 332.67 145.54 333.51 146.09 C 334.25 146.58 335.04 147.01 335.85 147.37 L 337.48 148.08 L 336.06 151.32 L 334.44 150.61 C 333.43 150.17 332.47 149.65 331.56 149.05 C 330.62 148.43 329.71 147.76 328.84 147.04 C 327.94 146.29 327.06 145.52 326.21 144.72 C 325.32 143.89 324.44 143.06 323.56 142.22 C 321.97 140.67 320.34 139.16 318.67 137.69 C 316.97 136.2 315.16 134.83 313.26 133.61 C 311.32 132.36 309.23 131.35 307.05 130.59 C 304.66 129.77 302.18 129.3 299.66 129.19 Z " id="Path" fill="rgb(74,134,232)"/><path d=" M 304.64 140.63 L 302.95 141.14 L 301.94 137.74 L 303.64 137.24 C 305.97 136.55 308.4 136.2 310.83 136.2 C 313.92 136.22 316.98 136.75 319.89 137.76 C 322.61 138.7 325.2 139.97 327.6 141.54 C 329.74 142.92 331.74 144.51 333.57 146.29 C 334.34 147.04 335.08 147.83 335.78 148.66 C 336.37 149.36 336.92 150.09 337.42 150.86 L 338.38 152.35 L 335.42 154.28 L 334.45 152.79 C 334.03 152.15 333.57 151.53 333.07 150.94 C 332.45 150.2 331.8 149.5 331.1 148.83 C 329.44 147.21 327.62 145.77 325.67 144.51 C 323.51 143.09 321.18 141.95 318.73 141.1 C 316.19 140.22 313.51 139.76 310.82 139.74 C 308.73 139.74 306.65 140.04 304.64 140.63 Z " id="Path" fill="rgb(74,134,232)"/><path d="M 410.692 257.702 L 437.148 298.96 C 439.502 302.63 444.393 303.699 448.064 301.345 L 454.248 297.38 C 457.918 295.026 458.987 290.135 456.634 286.465 L 430.178 245.207 C 427.824 241.537 422.933 240.468 419.262 242.821 L 413.078 246.787 C 409.408 249.141 408.339 254.032 410.692 257.702 Z" style="stroke:none;fill:#F08C00;stroke-miterlimit:10;opacity:0.6;"/><path d="M 448.155 323.659 L 463.356 370.253 C 464.709 374.398 469.172 376.666 473.317 375.313 L 480.301 373.035 C 484.447 371.682 486.714 367.219 485.362 363.073 L 470.16 316.479 C 468.808 312.334 464.344 310.066 460.199 311.419 L 453.215 313.697 C 449.07 315.05 446.802 319.513 448.155 323.659 Z" style="stroke:none;fill:#F08C00;stroke-miterlimit:10;opacity:0.6;"/><path d="M 470.43 397.584 L 474.796 446.4 C 475.185 450.743 479.026 453.954 483.369 453.565 L 490.686 452.911 C 495.029 452.522 498.24 448.681 497.852 444.338 L 493.485 395.522 C 493.097 391.179 489.255 387.968 484.912 388.357 L 477.595 389.011 C 473.252 389.399 470.042 393.241 470.43 397.584 Z" style="stroke:none;fill:#F08C00;stroke-miterlimit:10;opacity:0.6;"/><path d="M 475.875 472.679 L 469.945 521.33 C 469.417 525.658 472.503 529.601 476.831 530.128 L 484.123 531.017 C 488.452 531.545 492.394 528.459 492.922 524.13 L 498.852 475.479 C 499.38 471.151 496.294 467.209 491.965 466.681 L 484.673 465.792 C 480.345 465.265 476.403 468.35 475.875 472.679 Z" style="stroke:none;fill:#F08C00;stroke-miterlimit:10;opacity:0.6;"/><path d="M 464.121 549.339 L 449.438 596.099 C 448.131 600.259 450.448 604.697 454.609 606.003 L 461.617 608.204 C 465.777 609.511 470.215 607.194 471.522 603.034 L 486.205 556.274 C 487.511 552.114 485.195 547.675 481.034 546.369 L 474.026 544.168 C 469.866 542.862 465.427 545.179 464.121 549.339 Z" style="stroke:none;fill:#F08C00;stroke-miterlimit:10;opacity:0.6;"/><path d=" M 492.41 670.19 C 493.31 670.43 494.08 671.03 494.55 671.84 C 495.02 672.65 495.15 673.62 494.91 674.52 C 494.67 675.43 494.07 676.2 493.26 676.67 C 492.45 677.14 491.48 677.27 490.57 677.03 C 489.71 676.79 488.84 676.56 487.97 676.34 C 486.07 675.85 484.17 675.34 482.28 674.81 C 480.16 674.21 478.06 673.55 475.98 672.83 C 473.76 672.07 471.59 671.2 469.46 670.23 C 467.25 669.23 465.13 668.08 463.09 666.78 C 461 665.46 459.05 663.94 457.26 662.23 C 455.42 660.48 453.81 658.5 452.46 656.34 C 451.03 654.05 449.95 651.56 449.22 648.96 C 448.44 646.08 448.05 643.11 448.07 640.13 C 448.08 637.7 448.3 635.27 448.72 632.87 C 449.19 630.15 449.86 627.46 450.71 624.83 C 451 623.94 451.63 623.2 452.47 622.77 C 453.31 622.34 454.28 622.27 455.17 622.56 C 456.06 622.84 456.8 623.48 457.23 624.31 C 457.66 625.15 457.73 626.12 457.44 627.01 C 456.69 629.33 456.11 631.7 455.69 634.09 C 455.34 636.1 455.15 638.13 455.15 640.17 C 455.13 642.51 455.43 644.83 456.05 647.08 C 456.59 649.03 457.4 650.88 458.46 652.6 C 459.5 654.25 460.73 655.77 462.14 657.11 C 463.6 658.49 465.19 659.73 466.88 660.81 C 468.64 661.93 470.48 662.93 472.38 663.79 C 474.31 664.67 476.28 665.45 478.29 666.14 C 480.24 666.82 482.21 667.43 484.2 667.99 C 486.04 668.51 487.89 669.01 489.74 669.49 C 490.63 669.72 491.52 669.95 492.41 670.19 Z " id="Path" fill="rgb(74,134,232)"/><path d=" M 444.41 622.69 C 444.8 621.83 445.51 621.17 446.39 620.84 C 447.27 620.51 448.24 620.54 449.1 620.92 C 449.95 621.31 450.62 622.02 450.95 622.9 C 451.28 623.78 451.25 624.75 450.86 625.61 L 450.66 626.05 C 449.65 628.29 448.62 630.53 447.57 632.76 C 446.41 635.22 445.19 637.65 443.91 640.06 C 442.55 642.61 441.09 645.11 439.54 647.55 C 437.93 650.08 436.18 652.51 434.3 654.84 C 432.38 657.23 430.29 659.47 428.04 661.54 C 425.73 663.66 423.23 665.56 420.57 667.21 C 417.81 668.91 414.86 670.31 411.78 671.37 C 408.49 672.49 405.08 673.22 401.62 673.54 C 400.69 673.63 399.75 673.34 399.03 672.75 C 398.31 672.15 397.85 671.29 397.77 670.35 C 397.68 669.42 397.97 668.49 398.56 667.76 C 399.16 667.04 400.02 666.59 400.96 666.5 C 403.86 666.23 406.73 665.61 409.49 664.67 C 412.07 663.79 414.53 662.62 416.85 661.19 C 419.13 659.77 421.27 658.15 423.24 656.33 C 425.24 654.5 427.09 652.52 428.79 650.41 C 430.5 648.28 432.1 646.05 433.57 643.75 C 435.02 641.46 436.39 639.12 437.66 636.73 C 438.89 634.43 440.06 632.1 441.17 629.74 C 442.2 627.55 443.22 625.35 444.21 623.14 C 444.21 623.14 444.21 623.14 444.21 623.13 L 444.41 622.69 Z " id="Path" fill="rgb(74,134,232)"/><path d=" M 430.31 651.36 L 431.52 650.07 L 434.1 652.49 L 432.89 653.78 C 431.75 654.99 430.53 656.12 429.23 657.16 C 428.06 658.1 426.8 658.94 425.47 659.65 C 424.24 660.31 422.93 660.84 421.58 661.2 C 420.28 661.56 418.94 661.74 417.59 661.74 C 416.25 661.74 414.91 661.56 413.61 661.2 C 412.26 660.82 410.95 660.29 409.72 659.6 C 408.38 658.85 407.12 657.98 405.95 656.98 C 404.64 655.87 403.42 654.66 402.3 653.37 L 401.14 652.03 L 403.81 649.71 L 404.97 651.05 C 405.98 652.21 407.07 653.29 408.24 654.29 C 409.23 655.13 410.31 655.88 411.45 656.51 C 412.43 657.06 413.47 657.49 414.55 657.79 C 415.54 658.06 416.57 658.2 417.59 658.2 C 418.63 658.2 419.66 658.06 420.65 657.79 C 421.74 657.49 422.8 657.07 423.79 656.54 C 424.93 655.92 426.01 655.21 427.02 654.4 C 428.19 653.46 429.29 652.45 430.31 651.36 Z " id="Path" fill="rgb(74,134,232)"/><path d=" M 414.75 685.33 L 415.79 686.76 L 412.94 688.85 L 411.89 687.42 C 411.2 686.47 410.65 685.43 410.27 684.32 C 409.86 683.12 409.66 681.86 409.66 680.6 C 409.68 679.1 409.93 677.62 410.4 676.21 C 410.97 674.51 411.74 672.89 412.7 671.38 C 413.89 669.49 415.24 667.71 416.73 666.06 C 418.61 663.98 420.62 662.01 422.74 660.18 L 424.08 659.02 L 426.39 661.69 L 425.05 662.85 C 423.04 664.59 421.14 666.46 419.36 668.43 C 418 669.94 416.77 671.55 415.69 673.27 C 414.89 674.54 414.24 675.9 413.76 677.33 C 413.4 678.39 413.21 679.5 413.2 680.62 C 413.2 681.49 413.34 682.35 413.62 683.17 C 413.88 683.94 414.27 684.67 414.75 685.33 Z " id="Path" fill="rgb(74,134,232)"/><path d=" M 498.911 653.728 C 485.639 673.139 484.559 669.686 471.051 667.775" id="Path" fill="none" vector-effect="non-scaling-stroke" stroke-width="3.538" stroke="rgb(74,134,232)" stroke-linejoin="miter" stroke-linecap="square" stroke-miterlimit="3"/><path d=" M 471.8 669.31 L 470.28 668.4 L 472.1 665.37 L 473.62 666.28 C 475.28 667.27 476.9 668.35 478.47 669.49 C 479.8 670.47 481.07 671.51 482.29 672.62 C 483.33 673.57 484.3 674.58 485.21 675.66 C 485.99 676.57 486.7 677.55 487.34 678.57 C 488.39 680.22 489.17 682.02 489.67 683.91 C 490.03 685.35 490.22 686.82 490.21 688.3 C 490.2 689.07 490.17 689.84 490.1 690.61 C 490.07 690.95 490.05 691.3 490.05 691.64 L 490.06 691.93 L 490.12 693.7 L 486.59 693.83 L 486.52 692.07 L 486.51 691.73 C 486.51 691.69 486.51 691.66 486.51 691.63 C 486.51 691.19 486.54 690.74 486.58 690.3 C 486.63 689.63 486.67 688.95 486.67 688.28 C 486.68 687.1 486.53 685.94 486.25 684.8 C 485.84 683.26 485.2 681.8 484.35 680.45 C 483.8 679.57 483.18 678.73 482.51 677.94 C 481.7 676.99 480.83 676.08 479.9 675.24 C 478.78 674.21 477.6 673.25 476.38 672.35 C 474.9 671.27 473.37 670.25 471.8 669.31 Z " id="Path" fill="rgb(74,134,232)"/></g></g></svg>