<?xml version="1.0" encoding="UTF-8" standalone="no"?>
<!-- Generator: Gravit.io -->
<svg xmlns="http://www.w3.org/2000/svg" xmlns:xlink="http://www.w3.org/1999/xlink" style="isolation:isolate" viewBox="0 0 600 600" width="600" height="600"><defs><clipPath id="_clipPath_yS0eyQGH6z3RnOZSyGcWgjClSDck9aPG"><rect width="600" height="600"/></clipPath></defs><g clip-path="url(#_clipPath_yS0eyQGH6z3RnOZSyGcWgjClSDck9aPG)"><g id="Group"><ellipse vector-effect="non-scaling-stroke" cx="300" cy="581.9999999999999" rx="250" ry="13" id="shadow" fill="rgb(180,180,180)"/><g id="Group"><path d=" M 209.49 499.4 C 210.44 501.87 210.38 504.62 209.3 507.05 C 208.23 509.47 206.24 511.37 203.76 512.33 C 201.29 513.28 198.54 513.22 196.11 512.14 C 193.69 511.07 191.79 509.08 190.83 506.6 C 189.14 502.23 187.29 497.91 185.27 493.67 C 183.61 490.17 181.78 486.74 179.79 483.41 C 178.18 480.71 176.41 478.1 174.49 475.61 C 172.96 473.62 171.28 471.75 169.47 470.02 C 168.04 468.64 166.49 467.4 164.84 466.31 C 163.5 465.42 162.07 464.67 160.59 464.07 C 157.94 463.02 155.11 462.49 152.26 462.5 C 150.45 462.51 148.64 462.67 146.85 462.99 C 144.85 463.34 142.88 463.81 140.93 464.39 C 138.8 465.03 136.69 465.75 134.61 466.53 C 132.38 467.37 130.16 468.23 127.95 469.11 C 125.81 469.97 123.67 470.81 121.51 471.62 C 119.3 472.46 117.05 473.23 114.79 473.92 C 112.46 474.64 110.09 475.22 107.7 475.67 C 105.2 476.14 102.66 476.38 100.12 476.39 C 96.1 476.42 92.1 475.71 88.33 474.3 C 86.32 473.53 84.39 472.55 82.57 471.39 C 80.7 470.19 78.94 468.82 77.32 467.29 C 72.21 462.51 68.21 456.67 65.61 450.18 C 64.37 447.08 63.45 443.86 62.86 440.58 C 62.28 437.35 61.99 434.07 62 430.79 C 62.01 426.81 62.4 422.84 63.18 418.94 C 63.95 415.04 65.06 411.22 66.49 407.52 C 69.35 400.08 73.43 393.17 78.56 387.07 C 81.11 384.02 83.93 381.21 86.98 378.67 C 90.04 376.12 93.35 373.89 96.86 372 C 100.41 370.09 104.17 368.6 108.06 367.56 C 112.07 366.49 116.19 365.95 120.34 365.94 C 124.1 365.95 127.85 366.4 131.51 367.28 C 134.09 367.9 136.31 369.53 137.69 371.79 C 139.08 374.05 139.5 376.77 138.88 379.35 C 138.26 381.93 136.63 384.15 134.37 385.53 C 132.11 386.92 129.39 387.34 126.81 386.72 C 124.69 386.21 122.52 385.95 120.34 385.94 C 117.94 385.95 115.55 386.26 113.23 386.88 C 110.83 387.52 108.51 388.44 106.33 389.62 C 104 390.87 101.81 392.35 99.78 394.04 C 97.64 395.82 95.67 397.79 93.88 399.92 C 90.17 404.34 87.22 409.34 85.15 414.72 C 84.13 417.35 83.34 420.06 82.8 422.83 C 82.27 425.47 82.01 428.14 82 430.83 C 82 432.91 82.18 434.99 82.55 437.04 C 82.9 438.99 83.45 440.91 84.18 442.76 C 85.7 446.54 88.03 449.93 91 452.71 C 91.73 453.39 92.51 454.01 93.35 454.54 C 94 454.96 94.7 455.32 95.43 455.6 C 96.89 456.14 98.43 456.41 99.98 456.39 C 101.34 456.39 102.7 456.26 104.04 456.01 C 105.68 455.7 107.3 455.3 108.9 454.81 C 110.77 454.24 112.61 453.6 114.44 452.91 C 116.47 452.14 118.49 451.36 120.51 450.55 C 122.85 449.61 125.21 448.69 127.57 447.81 C 130.08 446.87 132.62 446.01 135.18 445.24 C 137.87 444.43 140.6 443.78 143.37 443.29 C 146.28 442.78 149.23 442.51 152.18 442.5 C 157.6 442.48 162.98 443.5 168.03 445.5 C 170.77 446.61 173.4 447.99 175.88 449.63 C 178.53 451.39 181.02 453.38 183.32 455.58 C 185.85 458.01 188.19 460.62 190.33 463.4 C 192.74 466.52 194.96 469.78 196.97 473.17 C 199.28 477.04 201.41 481.02 203.34 485.1 C 205.57 489.78 207.62 494.55 209.49 499.4 Z " id="Path" fill="rgb(225,225,225)"/><g id="Group"><path d=" M 346.66 586 C 346.793 581.092 396.16 583.976 396.16 579 C 463.66 476.5 369.524 321.402 304.16 321.402 C 238.796 321.402 139.66 483.5 212.16 579 C 212.16 583.976 263.527 581.092 263.66 586 L 422.387 586 L 346.66 586 Z " id="Path" fill="rgb(215,215,215)"/><path d=" M 384.024 586 C 384.112 581.092 384.16 576.15 384.16 571.173 C 384.16 435.838 348.762 321.402 305.16 321.402 C 261.559 321.402 226.16 435.838 226.16 571.173 C 226.16 576.15 226.208 581.092 226.297 586 L 384.024 586 L 384.024 586 Z " id="Path" fill="rgb(225,225,225)"/><path d=" M 116.856 236.548 C 116.645 239.262 116.531 241.994 116.531 244.746 C 116.531 319.574 200.605 382.847 304.16 382.847 C 407.715 382.847 491.789 319.574 491.789 244.746 C 491.789 241.994 491.675 239.262 491.465 236.548 L 116.856 236.548 L 116.856 236.548 Z " id="Path" fill="rgb(235,235,235)"/><g id="Group"><g id="Group"><g id="Group"><g id="Group"><g id="Group"><g id="Group"><g id="Group"><g id="Group"><g id="Group"><g id="Group"><g id="Group"><g id="Group"><g id="Group"><path d=" M 491.465 236.548 C 491.675 233.4 491.789 230.23 491.789 227.039 C 491.789 140.238 407.715 66.841 304.16 66.841 C 200.605 66.841 116.531 140.238 116.531 227.039 C 116.531 230.23 116.645 233.4 116.856 236.548 L 491.465 236.548 L 491.465 236.548 Z " id="Path" fill="rgb(235,235,235)"/><polygon points="429.791,14.731,436.153,116.089,345.194,70.92" id="Polygon" fill="rgb(235,235,235)"/><path d=" M 425.104 24.876 L 427.669 65.738 L 430.233 106.6 Q 409.861 91.529 393.769 83.665 Q 377.676 75.802 356.894 70.92 L 390.999 47.528 L 425.104 24.876 Z " id="Path" fill="rgb(120,120,120)"/><polygon points="180.355,14,173.588,115.331,264.727,70.526" id="Polygon" fill="rgb(235,235,235)"/><path d=" M 185.001 24.163 L 182.273 65.015 L 179.545 105.866 Q 192.514 94.935 212.357 85.128 Q 232.201 75.321 253.03 69.74 L 219.016 46.951 L 185.001 24.163 Z " id="Path" fill="rgb(120,120,120)"/><circle vector-effect="non-scaling-stroke" cx="343.27795899077205" cy="153.157391566461" r="25.60236713519663" id="Ellipse" fill="rgb(0,0,0)"/><circle vector-effect="non-scaling-stroke" cx="350.61025899160103" cy="141.45345230465688" r="7.314962038627584" id="Ellipse" fill="rgb(235,235,235)"/><circle vector-effect="non-scaling-stroke" cx="265.7393613813189" cy="153.157391566461" r="25.602367135196616" id="Ellipse" fill="rgb(0,0,0)"/><circle vector-effect="non-scaling-stroke" cx="273.0716613821474" cy="141.45345230465688" r="7.314962038627584" id="Ellipse" fill="rgb(235,235,235)"/><path d=" M 282.975 214.961 Q 295.83 222.909 304.048 223.022 Q 312.59 223.139 326.042 214.961" id="Path" fill="none" vector-effect="non-scaling-stroke" stroke-width="3" stroke="rgb(0,0,0)" stroke-linejoin="miter" stroke-linecap="square" stroke-miterlimit="3"/><line x1="304.617" y1="221.187" x2="304.617" y2="210.946" id="Path" vector-effect="non-scaling-stroke" stroke-width="3" stroke="rgb(0,0,0)" stroke-linejoin="miter" stroke-linecap="square" stroke-miterlimit="3"/><path d=" M 302.625 212.072 L 299.703 207.011 L 296.89 202.138 C 295.85 200.338 296.694 198.876 298.773 198.876 L 304.617 198.876 L 310.244 198.876 C 312.323 198.876 313.167 200.338 312.127 202.138 L 309.205 207.199 L 306.392 212.072 C 305.353 213.873 303.665 213.873 302.625 212.072 Z " id="Polygon" fill="rgb(0,0,0)"/><path d=" M 397.779 122.545 C 396.179 119.974 400.168 114.597 406.681 110.544 C 413.194 106.492 419.78 105.289 421.38 107.86 C 422.98 110.431 418.991 115.808 412.478 119.861 C 405.965 123.913 399.379 125.116 397.779 122.545 Z " id="Ellipse" fill="rgb(240,140,0)"/><path d=" M 411.919 126.997 C 410.677 125.001 413.774 120.826 418.83 117.68 C 423.886 114.534 428.999 113.6 430.241 115.596 C 431.483 117.592 428.386 121.767 423.33 124.913 C 418.274 128.059 413.161 128.993 411.919 126.997 Z " id="Ellipse" fill="rgb(120,120,120)"/><path d=" M 209.978 122.545 C 211.577 119.974 207.588 114.597 201.076 110.544 C 194.563 106.492 187.976 105.289 186.377 107.86 C 184.777 110.431 188.766 115.808 195.279 119.861 C 201.792 123.913 208.378 125.116 209.978 122.545 Z " id="Ellipse" fill="rgb(240,140,0)"/><path d=" M 194.7 126.997 C 195.941 125.001 192.845 120.826 187.788 117.68 C 182.732 114.534 177.619 113.6 176.377 115.596 C 175.135 117.592 178.232 121.767 183.288 124.913 C 188.344 128.059 193.458 128.993 194.7 126.997 Z " id="Ellipse" fill="rgb(120,120,120)"/></g></g></g></g></g></g></g></g></g></g></g></g></g><line x1="304.16" y1="434" x2="304.16" y2="584" id="Path" vector-effect="non-scaling-stroke" stroke-width="2" stroke="rgb(200,200,200)" stroke-linejoin="miter" stroke-linecap="square" stroke-miterlimit="3"/><path d=" M 231.123 586 C 231.147 585.481 231.16 584.958 231.16 584.431 C 231.16 570.11 221.526 558 209.66 558 C 197.794 558 188.16 570.11 188.16 584.431 C 188.16 584.958 188.173 585.481 188.197 586 L 231.123 586 L 231.123 586 Z " id="Path" fill="rgb(233,233,233)"/><path d=" M 420.123 586 C 420.147 585.481 420.16 584.958 420.16 584.431 C 420.16 570.11 410.526 558 398.66 558 C 386.794 558 377.16 570.11 377.16 584.431 C 377.16 584.958 377.173 585.481 377.197 586 L 420.123 586 L 420.123 586 Z " id="Path" fill="rgb(233,233,233)"/><path d=" M 301.095 586 C 301.138 585.073 301.16 584.139 301.16 583.198 C 301.16 557.625 284.357 536 263.66 536 C 242.963 536 226.16 557.625 226.16 583.198 C 226.16 584.139 226.183 585.073 226.225 586 L 301.095 586 L 301.095 586 Z " id="Path" fill="rgb(235,235,235)"/><path d=" M 384.095 586 C 384.138 585.073 384.16 584.139 384.16 583.198 C 384.16 557.625 367.357 536 346.66 536 C 325.963 536 309.16 557.625 309.16 583.198 C 309.16 584.139 309.183 585.073 309.225 586 L 384.095 586 L 384.095 586 Z " id="Path" fill="rgb(235,235,235)"/><line x1="254.16" y1="571" x2="254.16" y2="585" id="Path" vector-effect="non-scaling-stroke" stroke-width="1" stroke="rgb(200,200,200)" stroke-linejoin="miter" stroke-linecap="square" stroke-miterlimit="3"/><line x1="274.16" y1="571" x2="274.16" y2="585" id="Path" vector-effect="non-scaling-stroke" stroke-width="1" stroke="rgb(200,200,200)" stroke-linejoin="miter" stroke-linecap="square" stroke-miterlimit="3"/><line x1="338.16" y1="571" x2="338.16" y2="585" id="Path" vector-effect="non-scaling-stroke" stroke-width="1" stroke="rgb(200,200,200)" stroke-linejoin="miter" stroke-linecap="square" stroke-miterlimit="3"/><line x1="358.16" y1="571" x2="358.16" y2="585" id="Path" vector-effect="non-scaling-stroke" stroke-width="1" stroke="rgb(200,200,200)" stroke-linejoin="miter" stroke-linecap="square" stroke-miterlimit="3"/><line x1="204.16" y1="576" x2="204.16" y2="585" id="Path" vector-effect="non-scaling-stroke" stroke-width="1" stroke="rgb(200,200,200)" stroke-linejoin="miter" stroke-linecap="square" stroke-miterlimit="3"/><line x1="214.16" y1="576" x2="214.16" y2="585" id="Path" vector-effect="non-scaling-stroke" stroke-width="1" stroke="rgb(200,200,200)" stroke-linejoin="miter" stroke-linecap="square" stroke-miterlimit="3"/><line x1="394.16" y1="576" x2="394.16" y2="585" id="Path" vector-effect="non-scaling-stroke" stroke-width="1" stroke="rgb(200,200,200)" stroke-linejoin="miter" stroke-linecap="square" stroke-miterlimit="3"/><line x1="404.16" y1="576" x2="404.16" y2="585" id="Path" vector-effect="non-scaling-stroke" stroke-width="1" stroke="rgb(200,200,200)" stroke-linejoin="miter" stroke-linecap="square" stroke-miterlimit="3"/></g></g></g></g></svg>