<?xml version="1.0" encoding="UTF-8" standalone="no"?>
<!-- Generator: Gravit.io -->
<svg xmlns="http://www.w3.org/2000/svg" xmlns:xlink="http://www.w3.org/1999/xlink" style="isolation:isolate" viewBox="0 0 112 112" width="112" height="112"><g id="Group"><circle vector-effect="non-scaling-stroke" cx="56" cy="56.00000000000001" r="55" id="Ellipse" fill="rgb(200,200,200)"/><circle vector-effect="non-scaling-stroke" cx="56" cy="55.99999999999999" r="50" id="Ellipse" fill="rgb(80,80,80)"/><clipPath id="_clipPath_Rz2fVUYsDJO09H4wLP26me8HyCdh6svX"><circle vector-effect="non-scaling-stroke" cx="56" cy="55.99999999999999" r="50" id="Ellipse" fill="rgb(80,80,80)"/></clipPath><g clip-path="url(#_clipPath_Rz2fVUYsDJO09H4wLP26me8HyCdh6svX)"><g id="Group"><g id="Group"><path d=" M 32.273 146.35 C 32.51 146.967 32.495 147.655 32.225 148.262 C 31.958 148.867 31.46 149.342 30.84 149.583 C 30.223 149.82 29.535 149.805 28.928 149.535 C 28.323 149.268 27.848 148.77 27.608 148.15 C 27.185 147.057 26.723 145.977 26.218 144.917 C 25.803 144.042 25.345 143.185 24.848 142.352 C 24.445 141.678 24.003 141.025 23.523 140.402 C 23.14 139.905 22.72 139.438 22.268 139.005 C 21.91 138.66 21.523 138.35 21.11 138.077 C 20.775 137.855 20.418 137.667 20.048 137.518 C 19.385 137.255 18.678 137.122 17.965 137.125 C 17.513 137.128 17.06 137.167 16.613 137.247 C 16.113 137.335 15.62 137.452 15.133 137.598 C 14.6 137.758 14.073 137.938 13.553 138.133 C 12.995 138.342 12.44 138.557 11.888 138.777 C 11.353 138.992 10.818 139.202 10.278 139.405 C 9.725 139.615 9.163 139.807 8.598 139.98 C 8.015 140.16 7.423 140.305 6.825 140.417 C 6.2 140.535 5.565 140.595 4.93 140.598 C 3.925 140.605 2.925 140.428 1.983 140.075 C 1.48 139.883 0.998 139.637 0.543 139.348 C 0.075 139.048 -0.365 138.705 -0.77 138.322 C -2.047 137.128 -3.047 135.667 -3.697 134.045 C -4.007 133.27 -4.237 132.465 -4.385 131.645 C -4.53 130.837 -4.602 130.018 -4.6 129.197 C -4.597 128.202 -4.5 127.21 -4.305 126.235 C -4.112 125.26 -3.835 124.305 -3.477 123.38 C -2.762 121.52 -1.742 119.793 -0.46 118.268 C 0.178 117.505 0.883 116.802 1.645 116.168 C 2.41 115.53 3.238 114.973 4.115 114.5 C 5.003 114.022 5.943 113.65 6.915 113.39 C 7.918 113.122 8.948 112.988 9.985 112.985 C 10.925 112.988 11.863 113.1 12.778 113.32 C 13.423 113.475 13.978 113.882 14.323 114.448 C 14.67 115.012 14.775 115.692 14.62 116.338 C 14.465 116.982 14.058 117.537 13.493 117.882 C 12.928 118.23 12.248 118.335 11.603 118.18 C 11.073 118.052 10.53 117.988 9.985 117.985 C 9.385 117.988 8.788 118.065 8.208 118.22 C 7.608 118.38 7.028 118.61 6.483 118.905 C 5.9 119.217 5.353 119.588 4.845 120.01 C 4.31 120.455 3.818 120.948 3.37 121.48 C 2.443 122.585 1.705 123.835 1.188 125.18 C 0.933 125.838 0.735 126.515 0.6 127.207 C 0.468 127.868 0.403 128.535 0.4 129.208 C 0.4 129.727 0.445 130.247 0.538 130.76 C 0.625 131.247 0.763 131.727 0.945 132.19 C 1.325 133.135 1.908 133.982 2.65 134.678 C 2.833 134.848 3.028 135.003 3.238 135.135 C 3.4 135.24 3.575 135.33 3.758 135.4 C 4.123 135.535 4.508 135.602 4.895 135.598 C 5.235 135.598 5.575 135.565 5.91 135.503 C 6.32 135.425 6.725 135.325 7.125 135.202 C 7.593 135.06 8.053 134.9 8.51 134.727 C 9.018 134.535 9.523 134.34 10.028 134.137 C 10.613 133.902 11.203 133.673 11.793 133.452 C 12.42 133.217 13.055 133.003 13.695 132.81 C 14.368 132.607 15.05 132.445 15.743 132.322 C 16.47 132.195 17.208 132.128 17.945 132.125 C 19.3 132.12 20.645 132.375 21.908 132.875 C 22.593 133.152 23.25 133.497 23.87 133.908 C 24.533 134.348 25.155 134.845 25.73 135.395 C 26.363 136.003 26.948 136.655 27.483 137.35 C 28.085 138.13 28.64 138.945 29.143 139.792 C 29.72 140.76 30.253 141.755 30.735 142.775 C 31.293 143.945 31.805 145.137 32.273 146.35 Z " id="Path" fill="rgb(225,225,225)"/><g id="Group"><path d=" M 66.565 168 C 66.598 166.773 78.94 167.494 78.94 166.25 C 95.815 140.625 72.281 101.85 55.94 101.85 C 39.599 101.85 14.815 142.375 32.94 166.25 C 32.94 167.494 45.782 166.773 45.815 168 L 85.497 168 L 66.565 168 Z " id="Path" fill="rgb(215,215,215)"/><path d=" M 75.906 168 C 75.928 166.773 75.94 165.537 75.94 164.293 C 75.94 130.46 67.09 101.85 56.19 101.85 C 45.29 101.85 36.44 130.46 36.44 164.293 C 36.44 165.537 36.452 166.773 36.474 168 L 75.906 168 L 75.906 168 Z " id="Path" fill="rgb(225,225,225)"/><g id="Group"><g id="Group"><g id="Group"><g id="Group"><g id="Group"><g id="Group"><g id="Group"><g id="Group"><g id="Group"><g id="Group"><g id="Group"><g id="Group"><g id="Group"><path d=" M 102.766 80.637 C 102.819 81.315 102.847 81.999 102.847 82.686 C 102.847 101.393 81.829 117.212 55.94 117.212 C 30.051 117.212 9.033 101.393 9.033 82.686 C 9.033 81.999 9.061 81.315 9.114 80.637 L 9.114 80.637 L 9.114 80.637 C 9.061 79.85 9.033 79.058 9.033 78.26 C 9.033 56.559 30.051 38.21 55.94 38.21 C 81.829 38.21 102.847 56.559 102.847 78.26 C 102.847 79.058 102.819 79.85 102.766 80.637 L 102.766 80.637 L 102.766 80.637 Z " fill-rule="evenodd" id="Compound Shape" fill="rgb(235,235,235)"/><polygon points="87.348,25.183,88.938,50.522,66.198,39.23" id="Polygon" fill="rgb(235,235,235)"/><path d=" M 86.176 27.719 L 86.817 37.935 L 87.458 48.15 Q 82.365 44.382 78.342 42.416 Q 74.319 40.45 69.123 39.23 L 77.65 33.382 L 86.176 27.719 Z " id="Path" fill="rgb(120,120,120)"/><polygon points="24.989,25,23.297,50.333,46.082,39.131" id="Polygon" fill="rgb(235,235,235)"/><path d=" M 26.15 27.541 L 25.468 37.754 L 24.786 47.967 Q 28.029 45.234 32.989 42.782 Q 37.95 40.33 43.158 38.935 L 34.654 33.238 L 26.15 27.541 Z " id="Path" fill="rgb(120,120,120)"/><circle vector-effect="non-scaling-stroke" cx="65.71949059707343" cy="59.789347891615286" r="6.400591783799154" id="Ellipse" fill="rgb(0,0,0)"/><circle vector-effect="non-scaling-stroke" cx="67.55256559728066" cy="56.86336307616428" r="1.828740509656896" id="Ellipse" fill="rgb(235,235,235)"/><circle vector-effect="non-scaling-stroke" cx="46.33484119471015" cy="59.789347891615286" r="6.40059178379915" id="Ellipse" fill="rgb(0,0,0)"/><circle vector-effect="non-scaling-stroke" cx="48.16791619491727" cy="56.86336307616428" r="1.8287405096569032" id="Ellipse" fill="rgb(235,235,235)"/><path d=" M 50.644 75.24 Q 53.858 77.227 55.912 77.255 Q 58.047 77.285 61.411 75.24" id="Path" fill="none" vector-effect="non-scaling-stroke" stroke-width="3" stroke="rgb(0,0,0)" stroke-linejoin="miter" stroke-linecap="square" stroke-miterlimit="3"/><line x1="56.054" y1="76.797" x2="56.054" y2="74.236" id="Path" vector-effect="non-scaling-stroke" stroke-width="3" stroke="rgb(0,0,0)" stroke-linejoin="miter" stroke-linecap="square" stroke-miterlimit="3"/><path d=" M 54.826 73.253 L 54.826 73.253 L 54.826 73.253 C 54.178 72.13 54.728 71.219 56.054 71.219 L 56.054 71.219 L 56.054 71.219 C 57.35 71.219 57.864 72.151 57.201 73.3 L 57.201 73.3 L 57.201 73.3 C 56.553 74.422 55.489 74.401 54.826 73.253 Z " id="Polygon" fill="rgb(0,0,0)"/><path d=" M 79.345 52.136 C 78.945 51.494 79.942 50.149 81.57 49.136 C 83.199 48.123 84.845 47.822 85.245 48.465 C 85.645 49.108 84.648 50.452 83.019 51.465 C 81.391 52.478 79.745 52.779 79.345 52.136 Z " id="Ellipse" fill="rgb(240,140,0)"/><path d=" M 82.88 53.249 C 82.569 52.75 83.343 51.707 84.607 50.92 C 85.872 50.133 87.15 49.9 87.46 50.399 C 87.771 50.898 86.997 51.942 85.733 52.728 C 84.468 53.515 83.19 53.748 82.88 53.249 Z " id="Ellipse" fill="rgb(120,120,120)"/><path d=" M 32.394 52.136 C 32.794 51.494 31.797 50.149 30.169 49.136 C 28.541 48.123 26.894 47.822 26.494 48.465 C 26.094 49.108 27.091 50.452 28.72 51.465 C 30.348 52.478 31.995 52.779 32.394 52.136 Z " id="Ellipse" fill="rgb(240,140,0)"/><path d=" M 28.575 53.249 C 28.885 52.75 28.111 51.707 26.847 50.92 C 25.583 50.133 24.305 49.9 23.994 50.399 C 23.684 50.898 24.458 51.942 25.722 52.728 C 26.986 53.515 28.264 53.748 28.575 53.249 Z " id="Ellipse" fill="rgb(120,120,120)"/></g></g></g></g></g></g></g></g></g></g></g></g></g><line x1="55.94" y1="130" x2="55.94" y2="167.5" id="Path" vector-effect="non-scaling-stroke" stroke-width="2" stroke="rgb(200,200,200)" stroke-linejoin="miter" stroke-linecap="square" stroke-miterlimit="3"/><path d=" M 37.681 168 C 37.687 167.87 37.69 167.739 37.69 167.608 C 37.69 164.027 35.282 161 32.315 161 C 29.349 161 26.94 164.027 26.94 167.608 C 26.94 167.739 26.943 167.87 26.949 168 L 37.681 168 L 37.681 168 Z " id="Path" fill="rgb(233,233,233)"/><path d=" M 84.931 168 C 84.937 167.87 84.94 167.739 84.94 167.608 C 84.94 164.027 82.532 161 79.565 161 C 76.599 161 74.19 164.027 74.19 167.608 C 74.19 167.739 74.193 167.87 74.199 168 L 84.931 168 L 84.931 168 Z " id="Path" fill="rgb(233,233,233)"/><path d=" M 55.174 168 C 55.184 167.768 55.19 167.535 55.19 167.3 C 55.19 160.906 50.989 155.5 45.815 155.5 C 40.641 155.5 36.44 160.906 36.44 167.3 C 36.44 167.535 36.446 167.768 36.456 168 L 55.174 168 L 55.174 168 Z " id="Path" fill="rgb(235,235,235)"/><path d=" M 75.924 168 C 75.934 167.768 75.94 167.535 75.94 167.3 C 75.94 160.906 71.739 155.5 66.565 155.5 C 61.391 155.5 57.19 160.906 57.19 167.3 C 57.19 167.535 57.196 167.768 57.206 168 L 75.924 168 L 75.924 168 Z " id="Path" fill="rgb(235,235,235)"/><line x1="43.44" y1="164.25" x2="43.44" y2="167.75" id="Path" vector-effect="non-scaling-stroke" stroke-width="1" stroke="rgb(200,200,200)" stroke-linejoin="miter" stroke-linecap="square" stroke-miterlimit="3"/><line x1="48.44" y1="164.25" x2="48.44" y2="167.75" id="Path" vector-effect="non-scaling-stroke" stroke-width="1" stroke="rgb(200,200,200)" stroke-linejoin="miter" stroke-linecap="square" stroke-miterlimit="3"/><line x1="64.44" y1="164.25" x2="64.44" y2="167.75" id="Path" vector-effect="non-scaling-stroke" stroke-width="1" stroke="rgb(200,200,200)" stroke-linejoin="miter" stroke-linecap="square" stroke-miterlimit="3"/><line x1="69.44" y1="164.25" x2="69.44" y2="167.75" id="Path" vector-effect="non-scaling-stroke" stroke-width="1" stroke="rgb(200,200,200)" stroke-linejoin="miter" stroke-linecap="square" stroke-miterlimit="3"/><line x1="30.94" y1="165.5" x2="30.94" y2="167.75" id="Path" vector-effect="non-scaling-stroke" stroke-width="1" stroke="rgb(200,200,200)" stroke-linejoin="miter" stroke-linecap="square" stroke-miterlimit="3"/><line x1="33.44" y1="165.5" x2="33.44" y2="167.75" id="Path" vector-effect="non-scaling-stroke" stroke-width="1" stroke="rgb(200,200,200)" stroke-linejoin="miter" stroke-linecap="square" stroke-miterlimit="3"/><line x1="78.44" y1="165.5" x2="78.44" y2="167.75" id="Path" vector-effect="non-scaling-stroke" stroke-width="1" stroke="rgb(200,200,200)" stroke-linejoin="miter" stroke-linecap="square" stroke-miterlimit="3"/><line x1="80.94" y1="165.5" x2="80.94" y2="167.75" id="Path" vector-effect="non-scaling-stroke" stroke-width="1" stroke="rgb(200,200,200)" stroke-linejoin="miter" stroke-linecap="square" stroke-miterlimit="3"/></g></g></g></g></g></svg>