<?xml version="1.0" encoding="UTF-8" standalone="no"?>
<!-- Generator: Gravit.io -->
<svg xmlns="http://www.w3.org/2000/svg" xmlns:xlink="http://www.w3.org/1999/xlink" style="isolation:isolate" viewBox="0 0 112 112" width="112" height="112"><g id="Group"><circle vector-effect="non-scaling-stroke" cx="56" cy="56.00000000000001" r="55" id="Ellipse" fill="rgb(200,200,200)"/><circle vector-effect="non-scaling-stroke" cx="56" cy="55.99999999999999" r="50" id="Ellipse" fill="rgb(250,250,250)"/><clipPath id="_clipPath_AK7f7Vf1fXwDmdxwnqKWhmH8RlaqX2l9"><circle vector-effect="non-scaling-stroke" cx="56" cy="55.99999999999999" r="50" id="Ellipse" fill="rgb(250,250,250)"/></clipPath><g clip-path="url(#_clipPath_AK7f7Vf1fXwDmdxwnqKWhmH8RlaqX2l9)"><g id="Group"><g id="Group"><path d=" M 33.373 140.85 C 33.61 141.467 33.595 142.155 33.325 142.762 C 33.058 143.367 32.56 143.842 31.94 144.083 C 31.323 144.32 30.635 144.305 30.028 144.035 C 29.423 143.768 28.948 143.27 28.708 142.65 C 28.285 141.557 27.823 140.477 27.318 139.417 C 26.903 138.542 26.445 137.685 25.948 136.852 C 25.545 136.178 25.103 135.525 24.623 134.902 C 24.24 134.405 23.82 133.937 23.368 133.505 C 23.01 133.16 22.623 132.85 22.21 132.577 C 21.875 132.355 21.518 132.167 21.148 132.018 C 20.485 131.755 19.778 131.622 19.065 131.625 C 18.613 131.628 18.16 131.667 17.713 131.747 C 17.213 131.835 16.72 131.952 16.233 132.098 C 15.7 132.258 15.173 132.437 14.653 132.633 C 14.095 132.842 13.54 133.057 12.988 133.277 C 12.453 133.492 11.918 133.702 11.378 133.905 C 10.825 134.115 10.263 134.307 9.698 134.48 C 9.115 134.66 8.523 134.805 7.925 134.917 C 7.3 135.035 6.665 135.095 6.03 135.098 C 5.025 135.105 4.025 134.928 3.083 134.575 C 2.58 134.383 2.098 134.137 1.643 133.848 C 1.175 133.548 0.735 133.205 0.33 132.822 C -0.947 131.628 -1.947 130.167 -2.597 128.545 C -2.907 127.77 -3.137 126.965 -3.285 126.145 C -3.43 125.337 -3.502 124.518 -3.5 123.697 C -3.497 122.702 -3.4 121.71 -3.205 120.735 C -3.012 119.76 -2.735 118.805 -2.377 117.88 C -1.662 116.02 -0.642 114.293 0.64 112.768 C 1.278 112.005 1.983 111.302 2.745 110.668 C 3.51 110.03 4.338 109.473 5.215 109 C 6.103 108.522 7.043 108.15 8.015 107.89 C 9.018 107.622 10.048 107.488 11.085 107.485 C 12.025 107.488 12.963 107.6 13.878 107.82 C 14.523 107.975 15.078 108.382 15.423 108.948 C 15.77 109.512 15.875 110.192 15.72 110.838 C 15.565 111.482 15.158 112.037 14.593 112.382 C 14.028 112.73 13.348 112.835 12.703 112.68 C 12.173 112.552 11.63 112.488 11.085 112.485 C 10.485 112.488 9.888 112.565 9.308 112.72 C 8.708 112.88 8.128 113.11 7.583 113.405 C 7 113.717 6.453 114.088 5.945 114.51 C 5.41 114.955 4.918 115.448 4.47 115.98 C 3.543 117.085 2.805 118.335 2.288 119.68 C 2.033 120.338 1.835 121.015 1.7 121.707 C 1.568 122.368 1.503 123.035 1.5 123.708 C 1.5 124.227 1.545 124.747 1.638 125.26 C 1.725 125.747 1.863 126.227 2.045 126.69 C 2.425 127.635 3.008 128.482 3.75 129.178 C 3.933 129.348 4.128 129.503 4.338 129.635 C 4.5 129.74 4.675 129.83 4.858 129.9 C 5.223 130.035 5.608 130.102 5.995 130.098 C 6.335 130.098 6.675 130.065 7.01 130.003 C 7.42 129.925 7.825 129.825 8.225 129.702 C 8.693 129.56 9.153 129.4 9.61 129.227 C 10.118 129.035 10.623 128.84 11.128 128.637 C 11.713 128.402 12.303 128.173 12.893 127.952 C 13.52 127.717 14.155 127.503 14.795 127.31 C 15.468 127.107 16.15 126.945 16.843 126.822 C 17.57 126.695 18.308 126.628 19.045 126.625 C 20.4 126.62 21.745 126.875 23.008 127.375 C 23.693 127.652 24.35 127.997 24.97 128.408 C 25.633 128.848 26.255 129.345 26.83 129.895 C 27.463 130.503 28.048 131.155 28.583 131.85 C 29.185 132.63 29.74 133.445 30.243 134.292 C 30.82 135.26 31.353 136.255 31.835 137.275 C 32.393 138.445 32.905 139.637 33.373 140.85 Z " id="Path" fill="rgb(225,225,225)"/><g id="Group"><path d=" M 67.665 162.5 C 67.698 161.273 80.04 161.994 80.04 160.75 C 96.915 135.125 73.381 96.35 57.04 96.35 C 40.699 96.35 15.915 136.875 34.04 160.75 C 34.04 161.994 46.882 161.273 46.915 162.5 L 86.597 162.5 L 67.665 162.5 Z " id="Path" fill="rgb(215,215,215)"/><path d=" M 77.006 162.5 C 77.028 161.273 77.04 160.037 77.04 158.793 C 77.04 124.96 68.19 96.35 57.29 96.35 C 46.39 96.35 37.54 124.96 37.54 158.793 C 37.54 160.037 37.552 161.273 37.574 162.5 L 77.006 162.5 L 77.006 162.5 Z " id="Path" fill="rgb(225,225,225)"/><path d=" M 10.214 75.137 C 10.161 75.815 10.133 76.499 10.133 77.186 C 10.133 95.893 31.151 111.712 57.04 111.712 C 82.929 111.712 103.947 95.893 103.947 77.186 C 103.947 76.499 103.919 75.815 103.866 75.137 L 10.214 75.137 L 10.214 75.137 Z " id="Path" fill="rgb(235,235,235)"/><g id="Group"><g id="Group"><g id="Group"><g id="Group"><g id="Group"><g id="Group"><g id="Group"><g id="Group"><g id="Group"><g id="Group"><g id="Group"><g id="Group"><g id="Group"><path d=" M 103.866 75.137 C 103.919 74.35 103.947 73.558 103.947 72.76 C 103.947 51.059 82.929 32.71 57.04 32.71 C 31.151 32.71 10.133 51.059 10.133 72.76 C 10.133 73.558 10.161 74.35 10.214 75.137 L 103.866 75.137 L 103.866 75.137 Z " id="Path" fill="rgb(235,235,235)"/><polygon points="88.448,19.683,90.038,45.022,67.298,33.73" id="Polygon" fill="rgb(235,235,235)"/><path d=" M 87.276 22.219 L 87.917 32.435 L 88.558 42.65 Q 83.465 38.882 79.442 36.916 Q 75.419 34.95 70.223 33.73 L 78.75 27.882 L 87.276 22.219 Z " id="Path" fill="rgb(120,120,120)"/><polygon points="26.089,19.5,24.397,44.833,47.182,33.631" id="Polygon" fill="rgb(235,235,235)"/><path d=" M 27.25 22.041 L 26.568 32.254 L 25.886 42.467 Q 29.129 39.734 34.089 37.282 Q 39.05 34.83 44.258 33.435 L 35.754 27.738 L 27.25 22.041 Z " id="Path" fill="rgb(120,120,120)"/><circle vector-effect="non-scaling-stroke" cx="66.81948974769301" cy="54.28934789161525" r="6.400591783799154" id="Ellipse" fill="rgb(0,0,0)"/><circle vector-effect="non-scaling-stroke" cx="68.65256474790026" cy="51.36336307616422" r="1.828740509656896" id="Ellipse" fill="rgb(235,235,235)"/><circle vector-effect="non-scaling-stroke" cx="47.43484034532972" cy="54.28934789161525" r="6.40059178379915" id="Ellipse" fill="rgb(0,0,0)"/><circle vector-effect="non-scaling-stroke" cx="49.26791534553684" cy="51.36336307616422" r="1.8287405096569032" id="Ellipse" fill="rgb(235,235,235)"/><path d=" M 51.744 69.74 Q 54.958 71.727 57.012 71.755 Q 59.147 71.785 62.511 69.74" id="Path" fill="none" vector-effect="non-scaling-stroke" stroke-width="3" stroke="rgb(0,0,0)" stroke-linejoin="miter" stroke-linecap="square" stroke-miterlimit="3"/><line x1="57.154" y1="71.297" x2="57.154" y2="68.736" id="Path" vector-effect="non-scaling-stroke" stroke-width="3" stroke="rgb(0,0,0)" stroke-linejoin="miter" stroke-linecap="square" stroke-miterlimit="3"/><path d=" M 55.926 67.753 L 55.926 67.753 L 55.926 67.753 C 55.278 66.63 55.828 65.719 57.154 65.719 L 57.154 65.719 L 57.154 65.719 C 58.45 65.719 58.964 66.651 58.301 67.8 L 58.301 67.8 L 58.301 67.8 C 57.653 68.922 56.589 68.901 55.926 67.753 Z " id="Polygon" fill="rgb(0,0,0)"/><path d=" M 80.445 46.636 C 80.045 45.994 81.042 44.649 82.67 43.636 C 84.299 42.623 85.945 42.322 86.345 42.965 C 86.745 43.608 85.748 44.952 84.119 45.965 C 82.491 46.978 80.845 47.279 80.445 46.636 Z " id="Ellipse" fill="rgb(240,140,0)"/><path d=" M 83.98 47.749 C 83.669 47.25 84.443 46.207 85.707 45.42 C 86.972 44.633 88.25 44.4 88.56 44.899 C 88.871 45.398 88.097 46.442 86.833 47.228 C 85.568 48.015 84.29 48.248 83.98 47.749 Z " id="Ellipse" fill="rgb(120,120,120)"/><path d=" M 33.494 46.636 C 33.894 45.994 32.897 44.649 31.269 43.636 C 29.641 42.623 27.994 42.322 27.594 42.965 C 27.194 43.608 28.191 44.952 29.82 45.965 C 31.448 46.978 33.095 47.279 33.494 46.636 Z " id="Ellipse" fill="rgb(240,140,0)"/><path d=" M 29.675 47.749 C 29.985 47.25 29.211 46.207 27.947 45.42 C 26.683 44.633 25.405 44.4 25.094 44.899 C 24.784 45.398 25.558 46.442 26.822 47.228 C 28.086 48.015 29.364 48.248 29.675 47.749 Z " id="Ellipse" fill="rgb(120,120,120)"/></g></g></g></g></g></g></g></g></g></g></g></g></g><line x1="57.04" y1="124.5" x2="57.04" y2="162" id="Path" vector-effect="non-scaling-stroke" stroke-width="2" stroke="rgb(200,200,200)" stroke-linejoin="miter" stroke-linecap="square" stroke-miterlimit="3"/><path d=" M 38.781 162.5 C 38.787 162.37 38.79 162.239 38.79 162.108 C 38.79 158.527 36.382 155.5 33.415 155.5 C 30.449 155.5 28.04 158.527 28.04 162.108 C 28.04 162.239 28.043 162.37 28.049 162.5 L 38.781 162.5 L 38.781 162.5 Z " id="Path" fill="rgb(233,233,233)"/><path d=" M 86.031 162.5 C 86.037 162.37 86.04 162.239 86.04 162.108 C 86.04 158.527 83.632 155.5 80.665 155.5 C 77.699 155.5 75.29 158.527 75.29 162.108 C 75.29 162.239 75.293 162.37 75.299 162.5 L 86.031 162.5 L 86.031 162.5 Z " id="Path" fill="rgb(233,233,233)"/><path d=" M 56.274 162.5 C 56.284 162.268 56.29 162.035 56.29 161.8 C 56.29 155.406 52.089 150 46.915 150 C 41.741 150 37.54 155.406 37.54 161.8 C 37.54 162.035 37.546 162.268 37.556 162.5 L 56.274 162.5 L 56.274 162.5 Z " id="Path" fill="rgb(235,235,235)"/><path d=" M 77.024 162.5 C 77.034 162.268 77.04 162.035 77.04 161.8 C 77.04 155.406 72.839 150 67.665 150 C 62.491 150 58.29 155.406 58.29 161.8 C 58.29 162.035 58.296 162.268 58.306 162.5 L 77.024 162.5 L 77.024 162.5 Z " id="Path" fill="rgb(235,235,235)"/><line x1="44.54" y1="158.75" x2="44.54" y2="162.25" id="Path" vector-effect="non-scaling-stroke" stroke-width="1" stroke="rgb(200,200,200)" stroke-linejoin="miter" stroke-linecap="square" stroke-miterlimit="3"/><line x1="49.54" y1="158.75" x2="49.54" y2="162.25" id="Path" vector-effect="non-scaling-stroke" stroke-width="1" stroke="rgb(200,200,200)" stroke-linejoin="miter" stroke-linecap="square" stroke-miterlimit="3"/><line x1="65.54" y1="158.75" x2="65.54" y2="162.25" id="Path" vector-effect="non-scaling-stroke" stroke-width="1" stroke="rgb(200,200,200)" stroke-linejoin="miter" stroke-linecap="square" stroke-miterlimit="3"/><line x1="70.54" y1="158.75" x2="70.54" y2="162.25" id="Path" vector-effect="non-scaling-stroke" stroke-width="1" stroke="rgb(200,200,200)" stroke-linejoin="miter" stroke-linecap="square" stroke-miterlimit="3"/><line x1="32.04" y1="160" x2="32.04" y2="162.25" id="Path" vector-effect="non-scaling-stroke" stroke-width="1" stroke="rgb(200,200,200)" stroke-linejoin="miter" stroke-linecap="square" stroke-miterlimit="3"/><line x1="34.54" y1="160" x2="34.54" y2="162.25" id="Path" vector-effect="non-scaling-stroke" stroke-width="1" stroke="rgb(200,200,200)" stroke-linejoin="miter" stroke-linecap="square" stroke-miterlimit="3"/><line x1="79.54" y1="160" x2="79.54" y2="162.25" id="Path" vector-effect="non-scaling-stroke" stroke-width="1" stroke="rgb(200,200,200)" stroke-linejoin="miter" stroke-linecap="square" stroke-miterlimit="3"/><line x1="82.04" y1="160" x2="82.04" y2="162.25" id="Path" vector-effect="non-scaling-stroke" stroke-width="1" stroke="rgb(200,200,200)" stroke-linejoin="miter" stroke-linecap="square" stroke-miterlimit="3"/></g></g></g></g></g></svg>