<?xml version="1.0" encoding="UTF-8" standalone="no"?>
<!-- Generator: Gravit.io -->
<svg xmlns="http://www.w3.org/2000/svg" xmlns:xlink="http://www.w3.org/1999/xlink" style="isolation:isolate" viewBox="0 0 100 100" width="100" height="100"><defs><clipPath id="_clipPath_xr1jPBIsH9obL6EdgmW6PTOJ4l3myH24"><rect width="100" height="100"/></clipPath></defs><g clip-path="url(#_clipPath_xr1jPBIsH9obL6EdgmW6PTOJ4l3myH24)"><g id="Group"><clipPath id="_clipPath_4i0dBEFeBhqOhmLxzbAz4NYibmNN85He"><path d=" M 80.723 37.836 L 92.135 37.836 C 93.394 37.836 94.441 38.858 94.471 40.117 C 94.845 55.951 94.56 69.36 94.417 72.07 C 93.682 86.03 88.426 94.75 78.441 94.893 C 68.456 95.036 32.224 95.036 23.666 94.893 C 15.107 94.75 5.407 85.811 5.407 76.635 C 5.407 74.638 5.265 28.706 5.407 26.424 Q 8.403 9.735 23.666 5.883 C 28.258 4.983 58.186 4.457 67.029 5.883 C 82.292 10.591 80.581 29.277 80.723 37.836 Z " id="Path" fill="rgb(255,255,255)"/></clipPath><g clip-path="url(#_clipPath_4i0dBEFeBhqOhmLxzbAz4NYibmNN85He)"><rect x="-57.159" y="-64.868" width="216.425" height="228.23" transform="matrix(1,0,0,1,0,0)" id="Rectangle" fill="rgb(250,250,250)"/></g><path d=" M 30.5 62.234 L 73 62.234 C 74.38 62.234 75.5 63.355 75.5 64.734 L 75.5 69.734 C 75.5 71.114 74.38 72.234 73 72.234 L 30.5 72.234 C 29.12 72.234 28 71.114 28 69.734 L 28 64.734 C 28 63.355 29.12 62.234 30.5 62.234 Z " id="Path" fill="rgb(100,150,240)" fill-opacity="0.5"/><path d=" M 30.5 28 L 60.5 28 C 61.88 28 63 29.12 63 30.5 L 63 35.5 C 63 36.88 61.88 38 60.5 38 L 30.5 38 C 29.12 38 28 36.88 28 35.5 L 28 30.5 C 28 29.12 29.12 28 30.5 28 Z " id="Path" fill="rgb(100,150,240)" fill-opacity="0.5"/></g></g></svg>