<?xml version="1.0" encoding="UTF-8" standalone="no"?>
<!-- Generator: Gravit.io -->
<svg xmlns="http://www.w3.org/2000/svg" xmlns:xlink="http://www.w3.org/1999/xlink" style="isolation:isolate" viewBox="0 0 100 100" width="100" height="100"><defs><clipPath id="_clipPath_xR28qIrEId3Kl6f0OdN1eN9v5Lcrao4H"><rect width="100" height="100"/></clipPath></defs><g clip-path="url(#_clipPath_xR28qIrEId3Kl6f0OdN1eN9v5Lcrao4H)"><g id="Group"><path d="M 14.501 18 L 85.53 18 C 88.006 18 90.016 20.01 90.016 22.485 L 90.016 77.515 C 90.016 79.99 88.006 82 85.53 82 L 14.501 82 C 12.025 82 10.016 79.99 10.016 77.515 L 10.016 22.485 C 10.016 20.01 12.025 18 14.501 18 Z" style="stroke:none;fill:#FFFFFF;stroke-miterlimit:10;"/><path d=" M 80.97 28.74 L 82.68 27.69 L 84.77 31.11 L 83.06 32.15 L 50.02 52.34 L 16.97 32.15 L 15.27 31.11 L 17.35 27.69 L 19.06 28.74 L 50.02 47.66 L 80.97 28.74 Z " id="Path" fill="rgb(119,164,238)"/></g></g></svg>