<?xml version="1.0" encoding="UTF-8" standalone="no"?>
<!-- Generator: Gravit.io -->
<svg xmlns="http://www.w3.org/2000/svg" xmlns:xlink="http://www.w3.org/1999/xlink" style="isolation:isolate" viewBox="0 0 100 100" width="100" height="100"><g id="Group"><circle vector-effect="non-scaling-stroke" cx="50" cy="50" r="45" id="Ellipse" fill="none" stroke-width="2" stroke="rgb(250,250,250)" stroke-linejoin="miter" stroke-linecap="square" stroke-miterlimit="3"/><path d=" M 36 67 Q 36.925 61.617 40 52 Q 38.125 46.625 39 43 C 39.875 39.375 43.25 37.625 46 38 C 48.75 38.375 51.375 39.5 52 43 C 52.625 46.5 48.563 53.125 48 56 C 47.438 58.875 48 61.938 49 63 C 50 64.063 50.938 64.813 52.187 65 C 53.125 65.313 54.845 64.968 55 65 C 55.155 65.032 57.5 64.5 60 63 C 62.5 61.5 65 58.625 66 56 C 67 53.375 68 51 68 47 C 68 43 67.75 39.375 65 35 C 62.25 30.625 57.572 28.823 54 28 C 50.428 27.177 45.938 27.25 42 29 C 38.063 30.75 36.75 32.313 35 34 C 33.25 35.688 29.75 40.875 30 47 C 30.25 53.125 32.938 55.5 34 57 C 35.063 58.5 35.027 61.276 33 62 C 32.325 62.241 31.675 62.241 31 62 C 25.875 58.375 24.179 48.908 24 46 C 23.821 43.092 24.907 37.862 27 34 C 29.401 29.57 32.58 26.415 37 24 C 41.477 21.554 45.922 20.839 51 21 C 57.432 21.204 61.25 21.875 68 27 C 74.75 32.125 76.772 38.403 77 46 C 77.309 56.284 72.023 66.848 63 70 C 53.977 73.152 48.625 70.125 44 66 C 43.892 70.287 42.625 76 42 78 C 41.375 80 40.188 84.375 38 87 C 35.813 89.625 35.375 88.875 35 88 C 34.625 87.125 34.746 74.298 36 67 Z " id="Path" fill="rgb(250,250,250)"/></g></svg>