<?xml version="1.0" encoding="UTF-8" standalone="no"?>
<!-- Generator: Gravit.io -->
<svg xmlns="http://www.w3.org/2000/svg" xmlns:xlink="http://www.w3.org/1999/xlink" style="isolation:isolate" viewBox="0 0 100 100" width="100" height="100"><clipPath id="_clipPath_9Ez07rlzztHpbxOjipMVndWrJP5ZO6iH"><path d=" M 56.562 6.409 L 56.562 26.129 L 72.057 26.129 C 72.835 26.129 73.466 26.76 73.466 27.538 L 73.466 44.441 C 73.466 45.219 72.835 45.85 72.057 45.85 L 56.562 45.85 C 56.474 57.119 56.494 60.636 56.562 68.388 Q 56.65 78.424 70.703 74.409 C 71.45 74.196 72.273 74.615 72.539 75.346 L 77.21 88.193 C 77.476 88.924 77.151 89.843 76.486 90.245 C 60.788 99.729 33.163 95.375 32.616 74.022 C 32.528 70.589 32.704 61.609 32.616 45.85 L 24.164 45.85 C 23.387 45.85 22.752 45.219 22.747 44.441 Q 22.668 31.94 22.714 30.354 C 22.737 29.577 23.336 28.698 24.05 28.391 Q 32.195 24.895 35.433 20.495 Q 38.854 15.845 39.555 6.405 C 39.612 5.629 40.29 5 41.068 5 L 55.154 5 C 55.931 5 56.562 5.631 56.562 6.409 Z " id="Path" fill="rgb(255,255,255)"/></clipPath><g clip-path="url(#_clipPath_9Ez07rlzztHpbxOjipMVndWrJP5ZO6iH)"><rect x="-20.911" y="-20.355" width="140.862" height="140.862" transform="matrix(1,0,0,1,0,0)" id="Rectangle" fill="rgb(250,250,250)"/></g></svg>