<?xml version="1.0" encoding="UTF-8" standalone="no"?>
<!-- Generator: Gravit.io -->
<svg xmlns="http://www.w3.org/2000/svg" xmlns:xlink="http://www.w3.org/1999/xlink" style="isolation:isolate" viewBox="0 0 800 800" width="800" height="800"><defs><clipPath id="_clipPath_JmJ0abFRRnhUyNn4quvSHthTBOuZ0RzT"><rect width="50" height="50"/></clipPath></defs><g clip-path="url(#_clipPath_JmJ0abFRRnhUyNn4quvSHthTBOuZ0RzT)"><ellipse vector-effect="non-scaling-stroke" cx="400" cy="721" rx="175" ry="13" id="shadow" fill="rgb(180,180,180)"/><g id="Group"><g id="Group"><g id="Group"><g id="Group"><rect x="316" y="442" width="170" height="50" transform="matrix(1,0,0,1,0,0)" id="Rectangle" fill="rgb(80,80,80)"/><circle vector-effect="non-scaling-stroke" cx="401.5" cy="163.5" r="57.5" id="Ellipse" fill="rgb(229,191,191)"/><circle vector-effect="non-scaling-stroke" cx="283" cy="241" r="20" id="Ellipse" fill="rgb(230,230,230)"/><circle vector-effect="non-scaling-stroke" cx="283" cy="385" r="20" id="Ellipse" fill="rgb(229,191,191)"/><rect x="263" y="243" width="40" height="140" transform="matrix(1,0,0,1,0,0)" id="Rectangle" fill="rgb(230,230,230)"/><circle vector-effect="non-scaling-stroke" cx="518" cy="244" r="20" id="Ellipse" fill="rgb(230,230,230)"/><circle vector-effect="non-scaling-stroke" cx="518" cy="385" r="20" id="Ellipse" fill="rgb(229,191,191)"/><g id="Group"><rect x="310.364" y="225.954" width="180" height="220" transform="matrix(1,0,0,1,0,0)" id="Rectangle" fill="rgb(74,134,232)"/><polygon points="391.364,225.954,413.364,225.97,402.35,245.015" id="Polygon" fill="rgb(229,191,191)"/><line x1="398.364" y1="243.954" x2="398.364" y2="443.954" id="Path" vector-effect="non-scaling-stroke" stroke-width="1" stroke="rgb(67,121,209)" stroke-linejoin="miter" stroke-linecap="square" stroke-miterlimit="3"/><g id="Group"><circle vector-effect="non-scaling-stroke" cx="404.36402353360177" cy="261.9543507081098" r="4" id="Ellipse" fill="rgb(52,94,162)"/><circle vector-effect="non-scaling-stroke" cx="404.36402353360177" cy="301.9543507081098" r="4" id="Ellipse" fill="rgb(52,94,162)"/><circle vector-effect="non-scaling-stroke" cx="404.36402353360177" cy="341.9543507081098" r="4" id="Ellipse" fill="rgb(52,94,162)"/><circle vector-effect="non-scaling-stroke" cx="404.36402353360177" cy="381.9543507081098" r="4" id="Ellipse" fill="rgb(52,94,162)"/><circle vector-effect="non-scaling-stroke" cx="404.36402353360177" cy="421.9543507081098" r="4" id="Ellipse" fill="rgb(52,94,162)"/></g></g><path d=" M 416.924 225.954 L 418.748 253.248 L 403.049 245.064 L 413.876 225.954 L 416.924 225.954 Z " id="Path" fill="rgb(67,121,209)" vector-effect="non-scaling-stroke" stroke-width="1" stroke="rgb(67,121,209)" stroke-linejoin="miter" stroke-linecap="square" stroke-miterlimit="3"/><path d=" M 390.837 225.954 L 402.09 244.89 L 386.564 253.397 L 387.828 225.954 L 390.837 225.954 Z " id="Path" fill="rgb(67,121,209)" vector-effect="non-scaling-stroke" stroke-width="1" stroke="rgb(67,121,209)" stroke-linejoin="miter" stroke-linecap="square" stroke-miterlimit="3"/><line x1="326.272" y1="223.954" x2="327.135" y2="225.43" id="Path"/><line x1="475.731" y1="224.008" x2="474.864" y2="225.482" id="Path"/><path d=" M 492.636 225.328 L 490.703 448.046 L 425.528 447.214 C 422.665 441.329 421.305 437.656 419.494 430.922 C 417.7 424.25 417.692 423.972 416.333 413.136 C 414.974 402.301 414.821 393.978 416.051 381.961 C 417.041 372.277 418.109 366.828 420.769 357.88 L 475.637 225.494" id="Path" fill="rgb(230,230,230)"/><path d=" M 429.145 340.265 L 474.065 279.051 L 466.125 265.562 L 489.454 254.943 L 475.499 226.831 L 429.145 340.265 Z " id="Path" fill="rgb(224,224,224)" vector-effect="non-scaling-stroke" stroke-width="1" stroke="rgb(210,210,210)" stroke-linejoin="miter" stroke-linecap="square" stroke-miterlimit="3"/><g id="Group"><path d=" M 309.364 225.233 L 310.748 447.954 L 375.925 447.283 C 378.802 441.405 380.171 437.736 381.999 431.006 C 383.81 424.339 383.818 424.061 385.204 413.229 C 386.59 402.397 386.763 394.074 385.563 382.054 C 384.596 372.367 383.542 366.916 380.904 357.961 L 326.363 225.44" id="Path" fill="rgb(230,230,230)"/><path d=" M 372.27 339.395 L 327.625 277.98 L 335.626 264.527 L 312.345 253.803 L 326.426 225.754 L 372.27 339.395 Z " id="Path" fill="rgb(224,224,224)" vector-effect="non-scaling-stroke" stroke-width="1" stroke="rgb(210,210,210)" stroke-linejoin="miter" stroke-linecap="square" stroke-miterlimit="3"/><rect x="322.364" y="405.954" width="40" height="4" transform="matrix(1,0,0,1,0,0)" id="Rectangle" fill="rgb(228,228,228)" vector-effect="non-scaling-stroke" stroke-width="1" stroke="rgb(220,220,220)" stroke-linejoin="miter" stroke-linecap="square" stroke-miterlimit="2"/></g><rect x="436.364" y="405.954" width="40" height="4" transform="matrix(1,0,0,1,0,0)" id="Rectangle" fill="rgb(228,228,228)" vector-effect="non-scaling-stroke" stroke-width="1" stroke="rgb(220,220,220)" stroke-linejoin="miter" stroke-linecap="square" stroke-miterlimit="2"/><rect x="456.364" y="305.954" width="20" height="2" transform="matrix(1,0,0,1,0,0)" id="Rectangle" fill="rgb(222,222,222)" vector-effect="non-scaling-stroke" stroke-width="1" stroke="rgb(220,220,220)" stroke-linejoin="miter" stroke-linecap="square" stroke-miterlimit="2"/><rect x="462.364" y="297.454" width="2" height="8" transform="matrix(1,0,0,1,0,0)" id="Rectangle" fill="rgb(80,80,80)"/><rect x="462.864" y="305.454" width="1" height="4" transform="matrix(1,0,0,1,0,0)" id="Rectangle" fill="rgb(80,80,80)"/><rect x="466.364" y="297.454" width="2" height="8" transform="matrix(1,0,0,1,0,0)" id="Rectangle" fill="rgb(0,140,0)"/><rect x="466.864" y="305.454" width="1" height="4" transform="matrix(1,0,0,1,0,0)" id="Rectangle" fill="rgb(0,140,0)"/><rect x="470.864" y="305.454" width="1" height="4" transform="matrix(1,0,0,1,0,0)" id="Rectangle" fill="rgb(180,0,0)"/><rect x="470.364" y="297.454" width="2" height="8" transform="matrix(1,0,0,1,0,0)" id="Rectangle" fill="rgb(180,0,0)"/><rect x="498" y="243" width="40" height="140" transform="matrix(1,0,0,1,0,0)" id="Rectangle" fill="rgb(230,230,230)"/><rect x="316" y="493" width="56" height="200" transform="matrix(1,0,0,1,0,0)" id="Rectangle" fill="rgb(80,80,80)"/><rect x="430" y="493" width="56" height="200" transform="matrix(1,0,0,1,0,0)" id="Rectangle" fill="rgb(80,80,80)"/><rect x="316" y="453" width="170" height="8" transform="matrix(1,0,0,1,0,0)" id="Rectangle" fill="rgb(58,58,58)"/><path d=" M 310.7 445.5 L 376.5 445.5 Q 375.16 448.799 373.399 451.833 C 371.638 454.868 372.237 453.977 371.009 456.056 Q 369.78 458.134 366.779 461.333 L 364.096 464.5 L 310.7 464.5 L 310.7 445.5 Z " id="Path" fill="rgb(230,230,230)"/><path d=" M 490.681 445.5 L 424.5 445.5 C 425.718 447.674 426.242 448.712 428.002 451.667 C 429.763 454.622 429.164 453.754 430.392 455.778 Q 431.62 457.802 434.621 460.917 L 437.302 464 L 490.681 464 L 490.681 445.5 Z " id="Path" fill="rgb(230,230,230)"/><rect x="390" y="452" width="12" height="10" transform="matrix(1,0,0,1,0,0)" id="Rectangle" fill="none" vector-effect="non-scaling-stroke" stroke-width="1" stroke="rgb(185,185,185)" stroke-linejoin="miter" stroke-linecap="square" stroke-miterlimit="2"/><line x1="389" y1="457" x2="396.25" y2="457" id="Path" vector-effect="non-scaling-stroke" stroke-width="1" stroke="rgb(185,185,185)" stroke-linejoin="miter" stroke-linecap="square" stroke-miterlimit="3"/><rect x="316" y="694" width="59" height="30" transform="matrix(1,0,0,1,0,0)" id="Rectangle" fill="rgb(58,58,58)"/><rect x="426" y="694" width="59" height="30" transform="matrix(1,0,0,1,0,0)" id="Rectangle" fill="rgb(58,58,58)"/><path d=" M 317 694 L 317 694 C 336.317 694 352 700.721 352 709 L 352 709 C 352 717.279 336.317 724 317 724 L 317 724 C 297.683 724 282 717.279 282 709 L 282 709 C 282 700.721 297.683 694 317 694 Z " id="Path" fill="rgb(58,58,58)"/><path d=" M 485 694 L 485 694 C 504.317 694 520 700.721 520 709 L 520 709 C 520 717.279 504.317 724 485 724 L 485 724 C 465.683 724 450 717.279 450 709 L 450 709 C 450 700.721 465.683 694 485 694 Z " id="Path" fill="rgb(58,58,58)"/></g><path d=" M 385.116 195 L 420.884 195 Q 419.562 198.359 418.417 199.933 C 417.331 201.427 416.172 202.502 414.717 203.634 C 412.407 205.43 410.167 206.646 407.317 207.334 C 404.34 208.052 401.628 208.23 398.683 207.334 C 396.241 206.591 394.51 205.196 392.516 203.634 C 390.582 202.118 389.099 200.634 387.583 198.7 Q 386.618 197.469 385.116 195 Z " id="Path" fill="rgb(248,248,248)" vector-effect="non-scaling-stroke" stroke-width="2" stroke="rgb(180,100,100)" stroke-linejoin="miter" stroke-linecap="square" stroke-miterlimit="3"/><g id="Group"><path d="M 360.217 147 L 389.783 147 C 392.662 147 395 149.338 395 152.217 L 395 161.783 C 395 164.662 392.662 167 389.783 167 L 360.217 167 C 357.338 167 355 164.662 355 161.783 L 355 152.217 C 355 149.338 357.338 147 360.217 147 Z" style="fill:none;stroke:#323232;stroke-width:2;stroke-linecap:square;stroke-miterlimit:2;"/><path d="M 412.217 147 L 441.783 147 C 444.662 147 447 149.338 447 152.217 L 447 161.783 C 447 164.662 444.662 167 441.783 167 L 412.217 167 C 409.338 167 407 164.662 407 161.783 L 407 152.217 C 407 149.338 409.338 147 412.217 147 Z" style="fill:none;stroke:#323232;stroke-width:2;stroke-linecap:square;stroke-miterlimit:2;"/><path d=" M 396 153 Q 398.785 151.052 400.796 151.002 Q 402.951 150.947 406 153" id="Path" fill="none" vector-effect="non-scaling-stroke" stroke-width="2" stroke="rgb(50,50,50)" stroke-linejoin="miter" stroke-linecap="square" stroke-miterlimit="3"/></g></g><path d=" M 389.048 124 L 375.068 139.701 L 379.048 128 Q 372.685 135.594 368.048 138 Q 364.755 139.708 358.048 141 L 360.048 129 L 348.048 141 Q 346.967 144.538 346.548 146.5 C 346.028 148.929 345.805 151.027 345.548 153.5 C 345.201 156.825 344.904 159.655 345.048 163 Q 345.231 167.287 347.048 175 Q 339.332 170.34 337.048 166 Q 334.872 161.866 335 153 Q 334.39 137.097 337 129 Q 339.403 121.544 348 110 L 358 103 L 348 96 L 377 96 L 370 87 L 392 88 L 412.048 94 L 432.048 91 L 429.048 97 L 450.048 97 L 441.048 102 L 457.048 109.25 Q 461.456 113.893 463.048 117 Q 465.273 121.342 466.048 130.5 Q 466.868 137.946 467.048 142 Q 467.234 146.213 467.048 154 Q 466.809 160.846 465.048 164 Q 463.162 167.377 457.048 171 Q 458.009 165.841 458.048 163 C 458.091 159.808 457.438 157.512 457.048 154 C 456.657 150.488 456.846 148.084 456.048 145 Q 454.957 140.783 450.728 133.977 L 445.259 126.345 L 447.082 135.885 Q 441.074 130.281 438.048 127 Q 435.276 123.994 430.533 118.088 L 434.18 129.536 L 438.048 136 L 427.048 130 Q 423.112 127.476 421.048 126 C 419.62 124.979 418.384 124.151 417.048 123 Q 414.558 120.856 410.755 116.046 L 414.265 126.345 L 417.048 132 Q 409.846 127.642 407.048 124 Q 404.865 121.159 402.415 114.897 Q 398.532 121.63 396.048 125 Q 394.057 127.701 389.961 132.319 L 389.048 124 Z " id="Path" fill="rgb(80,50,0)" vector-effect="non-scaling-stroke" stroke-width="1" stroke="rgb(150,90,0)" stroke-linejoin="miter" stroke-linecap="square" stroke-miterlimit="3"/></g><path d=" M 401 97.333 Q 394.669 94.3 391 93.333 Q 388.24 92.606 383 92" id="Path" fill="none" vector-effect="non-scaling-stroke" stroke-width="1" stroke="rgb(120,60,0)" stroke-linejoin="miter" stroke-linecap="square" stroke-miterlimit="3"/><path d=" M 448 110 Q 452.277 111.338 454 113 Q 455.492 114.439 457 118" id="Path" fill="none" vector-effect="non-scaling-stroke" stroke-width="1" stroke="rgb(120,60,0)" stroke-linejoin="miter" stroke-linecap="square" stroke-miterlimit="3"/><path d=" M 416.977 104.647 Q 413.407 102.313 411.147 102 Q 408.567 101.642 404 103.386" id="Path" fill="none" vector-effect="non-scaling-stroke" stroke-width="1" stroke="rgb(120,60,0)" stroke-linejoin="miter" stroke-linecap="square" stroke-miterlimit="3"/><path d=" M 414 99.493 Q 417.203 98.373 419 98 Q 420.927 97.6 424.558 97.368" id="Path" fill="none" vector-effect="non-scaling-stroke" stroke-width="1" stroke="rgb(120,60,0)" stroke-linejoin="miter" stroke-linecap="square" stroke-miterlimit="3"/><path d=" M 428 101 L 433.937 100.07 L 439 100" id="Path" fill="none" vector-effect="non-scaling-stroke" stroke-width="1" stroke="rgb(120,60,0)" stroke-linejoin="miter" stroke-linecap="square" stroke-miterlimit="3"/><path d=" M 387.614 102.526 Q 391.438 100.719 393.695 100.785 Q 396.281 100.86 400.386 103.474" id="Path" fill="none" vector-effect="non-scaling-stroke" stroke-width="1" stroke="rgb(120,60,0)" stroke-linejoin="miter" stroke-linecap="square" stroke-miterlimit="3"/><path d=" M 378.1 103.948 L 371 101 L 362 100" id="Path" fill="none" vector-effect="non-scaling-stroke" stroke-width="1" stroke="rgb(120,60,0)" stroke-linejoin="miter" stroke-linecap="square" stroke-miterlimit="3"/><path d=" M 352 114 Q 354.389 111.735 356 111 Q 357.967 110.102 362 110" id="Path" fill="none" vector-effect="non-scaling-stroke" stroke-width="1" stroke="rgb(120,60,0)" stroke-linejoin="miter" stroke-linecap="square" stroke-miterlimit="3"/><g id="Group"><path d=" M 365 158 C 365 154.78 367.261 153 372.999 153 C 378.738 153 387.868 154.458 387.998 158 C 388.117 161.219 381.738 163 375.999 163 C 370.26 163 365 161.22 365 158 Z " id="Path" fill="rgb(230,230,230)"/><path d=" M 378 153 C 379.227 153.907 380 155.362 380 157 C 380 159.76 377.76 162 375 162 C 372.24 162 370 159.76 370 157 C 370 155.362 370.789 153.907 372.017 153 L 378 153 Z " id="Path" fill="rgb(170,100,0)"/><circle vector-effect="non-scaling-stroke" cx="375" cy="157" r="1" id="Ellipse" fill="rgb(128,77,0)"/><circle vector-effect="non-scaling-stroke" cx="378" cy="155" r="1" id="Ellipse" fill="rgb(230,230,230)"/></g><g id="Group"><path d=" M 438 158 C 438 154.78 435.739 153 430.001 153 C 424.262 153 415.132 154.458 415.002 158 C 414.883 161.219 421.262 163 427.001 163 C 432.74 163 438 161.22 438 158 Z " id="Path" fill="rgb(230,230,230)"/><path d=" M 425 153 C 423.773 153.907 423 155.362 423 157 C 423 159.76 425.24 162 428 162 C 430.76 162 433 159.76 433 157 C 433 155.362 432.211 153.907 430.983 153 L 425 153 Z " id="Path" fill="rgb(170,100,0)"/><circle vector-effect="non-scaling-stroke" cx="427.9999999999999" cy="157.00000000000003" r="1" id="Ellipse" fill="rgb(128,77,0)"/><circle vector-effect="non-scaling-stroke" cx="430.9999999999999" cy="155.00000000000003" r="1" id="Ellipse" fill="rgb(230,230,230)"/></g></g></g></svg>