<?xml version="1.0" encoding="UTF-8" standalone="no"?>
<!-- Generator: Gravit.io -->
<svg xmlns="http://www.w3.org/2000/svg" xmlns:xlink="http://www.w3.org/1999/xlink" style="isolation:isolate" viewBox="0 0 102 102" width="102" height="102"><g id="Group"><g id="left shoe"><rect x="55" y="96.294" width="9.254" height="4.706" transform="matrix(1,0,0,1,0,0)" id="Rectangle" fill="rgb(58,58,58)"/><path d=" M 64.254 96.294 L 64.254 96.294 C 67.284 96.294 69.744 97.349 69.744 98.647 L 69.744 98.647 C 69.744 99.946 67.284 101 64.254 101 L 64.254 101 C 61.224 101 58.764 99.946 58.764 98.647 L 58.764 98.647 C 58.764 97.349 61.224 96.294 64.254 96.294 Z " id="Path" fill="rgb(58,58,58)"/></g><g id="right shoe"><rect x="37.746" y="96.294" width="9.254" height="4.706" transform="matrix(1,0,0,1,0,0)" id="Rectangle" fill="rgb(58,58,58)"/><path d=" M 37.903 96.294 L 37.903 96.294 C 40.933 96.294 43.393 97.349 43.393 98.647 L 43.393 98.647 C 43.393 99.946 40.933 101 37.903 101 L 37.903 101 C 34.873 101 32.413 99.946 32.413 98.647 L 32.413 98.647 C 32.413 97.349 34.873 96.294 37.903 96.294 Z " id="Path" fill="rgb(58,58,58)"/></g><rect x="55.627" y="64.768" width="8.784" height="31.37" transform="matrix(1,0,0,1,0,0)" id="left leg" fill="rgb(80,80,80)"/><rect x="37.746" y="64.768" width="8.784" height="31.37" transform="matrix(1,0,0,1,0,0)" id="right leg" fill="rgb(80,80,80)"/><rect x="37.746" y="56.768" width="26.665" height="7.843" transform="matrix(1,0,0,1,0,0)" id="waist" fill="rgb(80,80,80)"/><g id="belt"><rect x="37.746" y="58.494" width="26.665" height="1.255" transform="matrix(1,0,0,1,0,0)" id="Rectangle" fill="rgb(58,58,58)"/><path d=" M 49.275 58.258 L 51.314 58.258 L 51.314 59.984 L 49.275 59.984 L 49.275 58.258 Z  M 49.431 58.415 L 51.157 58.415 L 51.157 59.827 L 49.431 59.827 L 49.431 58.415 Z " fill-rule="evenodd" id="Compound Path" fill="rgb(185,185,185)"/><path d=" M 50.333 59.043 L 50.412 59.043 L 50.412 59.199 L 50.333 59.199 L 49.196 59.199 L 49.118 59.199 L 49.118 59.043 L 49.196 59.043 L 50.333 59.043 Z " id="Path" fill="rgb(185,185,185)"/></g><g id="shirt"><rect x="36.862" y="22.881" width="28.233" height="34.507" transform="matrix(1,0,0,1,0,0)" id="shirt color" fill="rgb(74,134,232)"/><polygon points="49.567,22.881,53.018,22.884,51.29,25.871" id="neck" fill="rgb(229,191,191)"/><path d=" M 50.743 57.074 L 50.743 57.152 L 50.586 57.152 L 50.586 57.074 L 50.586 25.704 L 50.586 25.626 L 50.743 25.626 L 50.743 25.704 L 50.743 57.074 Z " id="line" fill="rgb(67,121,209)"/><g id="buttons"><circle vector-effect="non-scaling-stroke" cx="51.606073799168996" cy="28.527935681380647" r="0.6274017680260542" id="Ellipse" fill="rgb(52,94,162)"/><circle vector-effect="non-scaling-stroke" cx="51.606073799168996" cy="34.801953361641175" r="0.6274017680260542" id="Ellipse" fill="rgb(52,94,162)"/><circle vector-effect="non-scaling-stroke" cx="51.606073799168996" cy="41.0759710419017" r="0.6274017680260542" id="Ellipse" fill="rgb(52,94,162)"/><circle vector-effect="non-scaling-stroke" cx="51.606073799168996" cy="47.34998872216223" r="0.6274017680260542" id="Ellipse" fill="rgb(52,94,162)"/><circle vector-effect="non-scaling-stroke" cx="51.606073799168996" cy="53.62400640242276" r="0.6274017680260542" id="Ellipse" fill="rgb(52,94,162)"/></g><path d=" M 53.576 22.881 L 53.862 27.162 L 51.4 25.879 L 53.098 22.881 L 53.576 22.881 Z " id="left collar" fill="rgb(67,121,209)" vector-effect="non-scaling-stroke" stroke-width="1" stroke="rgb(67,121,209)" stroke-linejoin="miter" stroke-linecap="square" stroke-miterlimit="3"/><path d=" M 49.484 22.881 L 51.249 25.851 L 48.814 27.186 L 49.012 22.881 L 49.484 22.881 Z " id="right collar" fill="rgb(67,121,209)" vector-effect="non-scaling-stroke" stroke-width="1" stroke="rgb(67,121,209)" stroke-linejoin="miter" stroke-linecap="square" stroke-miterlimit="3"/></g><path d=" M 65.145 57.317 L 54.764 57.317 C 54.955 57.658 55.038 57.821 55.314 58.284 C 55.59 58.748 55.496 58.612 55.689 58.929 Q 55.881 59.247 56.352 59.735 L 56.772 60.219 L 65.145 60.219 L 65.145 57.317 Z " id="left bottom flap" fill="rgb(230,230,230)"/><path d=" M 36.915 57.317 L 47.236 57.317 Q 47.025 57.835 46.749 58.311 C 46.473 58.787 46.567 58.647 46.374 58.973 Q 46.182 59.299 45.711 59.801 L 45.29 60.297 L 36.915 60.297 L 36.915 57.317 Z " id="right bottom flap" fill="rgb(230,230,230)"/><path d=" M 65.452 22.783 L 65.148 57.716 L 54.926 57.586 C 54.477 56.663 54.263 56.087 53.979 55.031 C 53.698 53.984 53.697 53.94 53.483 52.241 C 53.27 50.541 53.246 49.236 53.439 47.351 C 53.595 45.832 53.762 44.977 54.179 43.574 L 62.785 22.809" id="left flap" fill="rgb(230,230,230)"/><path d=" M 36.705 22.768 L 36.922 57.702 L 47.145 57.597 C 47.597 56.675 47.811 56.099 48.098 55.044 C 48.382 53.998 48.383 53.954 48.601 52.255 C 48.818 50.556 48.845 49.251 48.657 47.366 C 48.505 45.846 48.34 44.991 47.926 43.587 L 39.372 22.801" id="right flap" fill="rgb(230,230,230)"/><path d=" M 62.734 22.81 L 65.037 27.448 L 61.382 29.111 L 62.61 31.197 L 55.157 41.353 L 62.734 22.81 Z  M 62.748 23.191 L 64.823 27.373 L 61.159 29.04 L 62.422 31.187 L 55.784 40.233 L 62.748 23.191 Z " id="left lapel border" fill="rgb(210,210,210)"/><path d=" M 62.637 22.967 L 64.789 27.352 L 61.128 29.035 L 62.384 31.202 L 55.392 40.671 L 62.637 22.967 Z  M 62.649 23.348 L 64.577 27.276 L 60.905 28.965 L 62.198 31.191 L 56.015 39.563 L 62.649 23.348 Z " id="left lapel" fill="rgb(224,224,224)"/><path d=" M 46.934 41.392 L 39.528 31.203 L 40.764 29.123 L 37.119 27.443 L 39.442 22.816 L 46.934 41.392 Z  M 46.313 40.271 L 39.715 31.194 L 40.988 29.054 L 37.33 27.37 L 39.426 23.197 L 46.313 40.271 Z " id="right lapel border" fill="rgb(210,210,210)"/><path d=" M 46.618 40.653 L 39.79 31.133 L 41.084 29.007 L 37.385 27.363 L 39.5 23.155 L 46.618 40.653 Z  M 45.973 39.485 L 39.978 31.125 L 41.311 28.937 L 37.599 27.287 L 39.484 23.535 L 45.973 39.485 Z " id="right lapel" fill="rgb(224,224,224)"/><circle vector-effect="non-scaling-stroke" cx="69.42992693576531" cy="47.82770015979204" r="3.137008840130264" id="left hand" fill="rgb(229,191,191)"/><rect x="66.293" y="25.555" width="6.274" height="21.959" transform="matrix(1,0,0,1,0,0)" id="left arm" fill="rgb(230,230,230)"/><circle vector-effect="non-scaling-stroke" cx="69.42992693576531" cy="25.71178783687366" r="3.137008840130264" id="left shoulder" fill="rgb(230,230,230)"/><circle vector-effect="non-scaling-stroke" cx="32.57007306423469" cy="47.82770015979204" r="3.137008840130264" id="right hand" fill="rgb(229,191,191)"/><rect x="29.433" y="25.555" width="6.274" height="21.959" transform="matrix(1,0,0,1,0,0)" id="right arm" fill="rgb(230,230,230)"/><circle vector-effect="non-scaling-stroke" cx="32.57007306423469" cy="25.241236510854144" r="3.137008840130264" id="right shoulder" fill="rgb(230,230,230)"/><g id="pockets"><rect x="56.625" y="51.114" width="6.274" height="0.627" transform="matrix(1,0,0,1,0,0)" id="left pocket" fill="rgb(228,228,228)" vector-effect="non-scaling-stroke" stroke-width="1" stroke="rgb(220,220,220)" stroke-linejoin="miter" stroke-linecap="square" stroke-miterlimit="2"/><rect x="38.744" y="51.114" width="6.274" height="0.627" transform="matrix(1,0,0,1,0,0)" id="right pocket" fill="rgb(228,228,228)" vector-effect="non-scaling-stroke" stroke-width="1" stroke="rgb(220,220,220)" stroke-linejoin="miter" stroke-linecap="square" stroke-miterlimit="2"/><rect x="59.762" y="35.429" width="3.137" height="0.314" transform="matrix(1,0,0,1,0,0)" id="top pocket" fill="rgb(222,222,222)" vector-effect="non-scaling-stroke" stroke-width="1" stroke="rgb(220,220,220)" stroke-linejoin="miter" stroke-linecap="square" stroke-miterlimit="2"/></g><g id="pens"><g id="black pen"><rect x="60.703" y="34.096" width="0.314" height="1.255" transform="matrix(1,0,0,1,0,0)" id="Rectangle" fill="rgb(80,80,80)"/><rect x="60.782" y="35.351" width="0.157" height="0.627" transform="matrix(1,0,0,1,0,0)" id="Rectangle" fill="rgb(80,80,80)"/></g><g id="green pen"><rect x="61.331" y="34.096" width="0.314" height="1.255" transform="matrix(1,0,0,1,0,0)" id="Rectangle" fill="rgb(0,140,0)"/><rect x="61.409" y="35.351" width="0.157" height="0.627" transform="matrix(1,0,0,1,0,0)" id="Rectangle" fill="rgb(0,140,0)"/></g><g id="red pen"><rect x="62.037" y="35.351" width="0.157" height="0.627" transform="matrix(1,0,0,1,0,0)" id="Rectangle" fill="rgb(180,0,0)"/><rect x="61.958" y="34.096" width="0.314" height="1.255" transform="matrix(1,0,0,1,0,0)" id="Rectangle" fill="rgb(180,0,0)"/></g></g><circle vector-effect="non-scaling-stroke" cx="51.15685044200649" cy="13.085327255349364" r="9.01890041537451" id="face" fill="rgb(229,191,191)"/><g id="mouth"><path d=" M 54.366 17.948 C 54.34 19.25 52.98 20.3 51.309 20.3 C 49.637 20.3 48.277 19.25 48.251 17.948 L 54.366 17.948 L 54.366 17.948 Z " id="Path" fill="rgb(180,100,100)"/><path d=" M 53.876 18.261 C 53.854 19.219 52.724 19.992 51.337 19.992 C 49.949 19.992 48.819 19.219 48.798 18.261 L 53.876 18.261 L 53.876 18.261 Z " id="Path" fill="rgb(248,248,248)"/></g><g id="eyes"><g id="right eye"><path d=" M 45.432 12.223 C 45.432 11.718 45.786 11.438 46.687 11.438 C 47.587 11.438 49.019 11.667 49.039 12.223 C 49.058 12.728 48.057 13.007 47.157 13.007 C 46.257 13.007 45.432 12.728 45.432 12.223 Z " id="Path" fill="rgb(230,230,230)"/><path d=" M 47.471 11.438 C 47.663 11.581 47.785 11.809 47.785 12.066 C 47.785 12.499 47.433 12.85 47 12.85 C 46.567 12.85 46.216 12.499 46.216 12.066 C 46.216 11.809 46.34 11.581 46.532 11.438 L 47.471 11.438 Z " id="Path" fill="rgb(170,100,0)"/><circle vector-effect="non-scaling-stroke" cx="47.00031372883393" cy="12.065799382307027" r="0.15685044200651532" id="Ellipse" fill="rgb(128,77,0)"/><circle vector-effect="non-scaling-stroke" cx="47.47086505485345" cy="11.752098498293996" r="0.15685044200651532" id="Ellipse" fill="rgb(230,230,230)"/></g><g id="left eye"><path d=" M 56.882 12.223 C 56.882 11.718 56.527 11.438 55.627 11.438 C 54.727 11.438 53.295 11.667 53.275 12.223 C 53.256 12.728 54.257 13.007 55.157 13.007 C 56.057 13.007 56.882 12.728 56.882 12.223 Z " id="Path" fill="rgb(230,230,230)"/><path d=" M 54.843 11.438 C 54.65 11.581 54.529 11.809 54.529 12.066 C 54.529 12.499 54.881 12.85 55.313 12.85 C 55.746 12.85 56.098 12.499 56.098 12.066 C 56.098 11.809 55.974 11.581 55.781 11.438 L 54.843 11.438 Z " id="Path" fill="rgb(170,100,0)"/><circle vector-effect="non-scaling-stroke" cx="55.3133871551791" cy="12.065799382307027" r="0.15685044200651532" id="Ellipse" fill="rgb(128,77,0)"/><circle vector-effect="non-scaling-stroke" cx="55.78393848119862" cy="11.752098498293996" r="0.15685044200651532" id="Ellipse" fill="rgb(230,230,230)"/></g></g><g id="glasses"><path d=" M 44.682 10.34 L 49.319 10.34 C 49.577 10.34 49.825 10.444 50.009 10.626 C 50.191 10.809 50.294 11.057 50.294 11.316 L 50.294 12.816 C 50.294 13.074 50.191 13.322 50.009 13.506 C 49.825 13.688 49.577 13.791 49.319 13.791 L 44.682 13.791 C 44.423 13.791 44.175 13.688 43.992 13.506 C 43.81 13.322 43.706 13.074 43.706 12.816 L 43.706 11.316 C 43.706 11.057 43.81 10.809 43.992 10.626 C 44.175 10.444 44.423 10.34 44.682 10.34 Z  M 44.682 10.654 L 49.319 10.654 C 49.494 10.654 49.662 10.723 49.786 10.849 C 49.911 10.973 49.98 11.14 49.98 11.316 L 49.98 12.816 C 49.98 12.991 49.911 13.159 49.786 13.283 C 49.662 13.408 49.494 13.477 49.319 13.477 L 44.682 13.477 C 44.506 13.477 44.339 13.408 44.215 13.283 C 44.089 13.159 44.02 12.991 44.02 12.816 L 44.02 11.316 C 44.02 11.14 44.089 10.973 44.215 10.849 C 44.339 10.723 44.506 10.654 44.682 10.654 Z " fill-rule="evenodd" id="Compound Path" fill="rgb(50,50,50)"/><path d=" M 52.838 10.34 L 57.475 10.34 C 57.734 10.34 57.981 10.444 58.165 10.626 C 58.347 10.809 58.45 11.057 58.45 11.316 L 58.45 12.816 C 58.45 13.074 58.347 13.322 58.165 13.506 C 57.981 13.688 57.734 13.791 57.475 13.791 L 52.838 13.791 C 52.579 13.791 52.332 13.688 52.148 13.506 C 51.966 13.322 51.863 13.074 51.863 12.816 L 51.863 11.316 C 51.863 11.057 51.966 10.809 52.148 10.626 C 52.332 10.444 52.579 10.34 52.838 10.34 Z  M 52.838 10.654 L 57.475 10.654 C 57.65 10.654 57.818 10.723 57.942 10.849 C 58.068 10.973 58.137 11.14 58.137 11.316 L 58.137 12.816 C 58.137 12.991 58.068 13.159 57.942 13.283 C 57.818 13.408 57.65 13.477 57.475 13.477 L 52.838 13.477 C 52.663 13.477 52.495 13.408 52.371 13.283 C 52.245 13.159 52.176 12.991 52.176 12.816 L 52.176 11.316 C 52.176 11.14 52.245 10.973 52.371 10.849 C 52.495 10.723 52.663 10.654 52.838 10.654 Z " fill-rule="evenodd" id="Compound Path" fill="rgb(50,50,50)"/><path d=" M 50.384 11.567 L 50.255 11.656 L 50.076 11.399 L 50.205 11.31 C 50.275 11.26 50.348 11.214 50.423 11.17 C 50.482 11.136 50.545 11.104 50.609 11.076 C 50.685 11.043 50.763 11.016 50.843 10.996 C 50.907 10.979 50.975 10.969 51.042 10.968 C 51.111 10.966 51.182 10.973 51.249 10.987 C 51.333 11.004 51.414 11.027 51.493 11.059 C 51.563 11.087 51.634 11.12 51.701 11.158 C 51.786 11.203 51.869 11.253 51.951 11.308 L 52.081 11.396 L 51.905 11.656 L 51.775 11.569 C 51.703 11.52 51.627 11.474 51.551 11.432 C 51.494 11.402 51.436 11.374 51.376 11.351 C 51.315 11.325 51.251 11.307 51.187 11.294 C 51.141 11.285 51.096 11.28 51.05 11.282 C 51.006 11.283 50.962 11.289 50.92 11.3 C 50.856 11.316 50.795 11.336 50.735 11.363 C 50.682 11.387 50.63 11.413 50.58 11.442 C 50.512 11.481 50.448 11.523 50.384 11.567 Z " id="Path" fill="rgb(50,50,50)"/></g><path d=" M 49.144 7.073 L 46.812 9.694 L 47.432 7.873 C 47.37 7.942 47.309 8.01 47.247 8.077 C 47.126 8.207 47.002 8.333 46.873 8.455 C 46.705 8.615 46.53 8.764 46.346 8.904 C 46.219 8.998 46.086 9.083 45.946 9.155 C 45.899 9.18 45.852 9.202 45.805 9.224 C 45.749 9.249 45.691 9.272 45.633 9.294 C 45.468 9.357 45.302 9.41 45.132 9.456 C 44.875 9.523 44.616 9.583 44.356 9.633 C 44.331 9.638 44.306 9.63 44.287 9.613 C 44.268 9.594 44.26 9.569 44.263 9.544 L 44.538 7.903 L 42.842 9.599 C 42.787 9.776 42.737 9.955 42.687 10.133 C 42.66 10.234 42.635 10.334 42.615 10.435 C 42.577 10.613 42.546 10.794 42.522 10.976 C 42.497 11.158 42.477 11.341 42.459 11.525 C 42.459 11.525 42.459 11.525 42.459 11.525 L 42.458 11.531 C 42.458 11.533 42.458 11.533 42.458 11.533 C 42.436 11.735 42.417 11.939 42.4 12.143 C 42.384 12.34 42.375 12.538 42.375 12.736 C 42.375 12.825 42.376 12.914 42.381 13.004 C 42.383 13.062 42.387 13.118 42.392 13.176 C 42.397 13.247 42.405 13.317 42.412 13.388 C 42.436 13.586 42.466 13.782 42.503 13.978 C 42.571 14.339 42.648 14.696 42.736 15.051 C 42.5 14.916 42.271 14.768 42.049 14.613 C 41.915 14.519 41.787 14.419 41.663 14.313 C 41.506 14.18 41.36 14.034 41.225 13.879 C 41.129 13.766 41.046 13.644 40.979 13.514 C 40.947 13.457 40.921 13.397 40.897 13.336 C 40.869 13.266 40.844 13.194 40.822 13.12 C 40.805 13.065 40.791 13.01 40.778 12.955 C 40.762 12.892 40.75 12.83 40.739 12.767 C 40.704 12.583 40.681 12.398 40.668 12.213 C 40.651 11.954 40.645 11.697 40.648 11.44 C 40.634 11.076 40.627 10.712 40.631 10.348 C 40.632 10.061 40.643 9.774 40.66 9.489 C 40.684 9.119 40.726 8.752 40.786 8.388 C 40.828 8.137 40.888 7.89 40.965 7.65 C 40.999 7.547 41.035 7.445 41.076 7.345 C 41.123 7.225 41.175 7.106 41.23 6.99 C 41.271 6.905 41.311 6.821 41.355 6.738 C 41.404 6.643 41.454 6.549 41.506 6.457 C 41.655 6.189 41.816 5.925 41.986 5.668 C 42.215 5.321 42.455 4.981 42.703 4.647 C 42.707 4.64 42.714 4.634 42.72 4.63 L 44.197 3.596 L 42.516 2.419 L 47.154 2.419 L 46.05 1 L 49.679 1.165 L 52.816 2.104 L 56.087 1.613 L 55.605 2.576 L 59.075 2.576 L 57.534 3.431 L 59.901 4.504 C 59.911 4.509 59.92 4.515 59.926 4.523 C 60.028 4.63 60.129 4.739 60.228 4.851 C 60.304 4.94 60.381 5.029 60.455 5.122 C 60.547 5.24 60.637 5.36 60.72 5.486 C 60.78 5.572 60.833 5.663 60.88 5.756 C 60.911 5.817 60.94 5.878 60.966 5.941 C 60.996 6.016 61.024 6.093 61.051 6.17 C 61.07 6.226 61.087 6.283 61.103 6.341 C 61.122 6.405 61.139 6.471 61.154 6.535 C 61.2 6.725 61.238 6.916 61.266 7.109 C 61.305 7.373 61.336 7.636 61.36 7.901 C 61.402 8.29 61.44 8.681 61.474 9.072 C 61.493 9.283 61.507 9.497 61.517 9.71 C 61.526 9.931 61.531 10.152 61.531 10.373 C 61.531 10.781 61.526 11.191 61.517 11.597 C 61.511 11.755 61.501 11.912 61.485 12.069 C 61.474 12.191 61.459 12.312 61.437 12.434 C 61.41 12.591 61.373 12.745 61.324 12.897 C 61.291 13.004 61.247 13.106 61.192 13.201 C 61.167 13.248 61.137 13.294 61.106 13.338 C 61.07 13.39 61.032 13.438 60.991 13.485 C 60.962 13.521 60.93 13.554 60.897 13.589 C 60.861 13.625 60.825 13.663 60.786 13.697 C 60.675 13.801 60.557 13.898 60.433 13.986 C 60.218 14.142 59.992 14.285 59.76 14.415 C 59.824 14.092 59.878 13.768 59.919 13.44 C 59.936 13.296 59.947 13.151 59.948 13.005 L 59.948 12.958 C 59.948 12.819 59.939 12.679 59.923 12.541 C 59.908 12.405 59.887 12.268 59.865 12.132 C 59.837 11.956 59.812 11.78 59.791 11.605 C 59.773 11.426 59.759 11.249 59.749 11.071 C 59.743 10.927 59.732 10.783 59.716 10.638 C 59.7 10.491 59.674 10.347 59.636 10.202 C 59.622 10.148 59.606 10.093 59.588 10.038 C 59.566 9.972 59.542 9.906 59.517 9.84 C 59.445 9.655 59.362 9.473 59.269 9.296 C 59.126 9.024 58.974 8.758 58.813 8.497 L 58.165 7.592 L 58.383 8.739 C 58.389 8.772 58.374 8.806 58.344 8.822 C 58.314 8.839 58.278 8.835 58.253 8.811 C 57.939 8.518 57.629 8.22 57.321 7.919 C 57.153 7.754 56.99 7.586 56.832 7.414 C 56.686 7.255 56.545 7.094 56.405 6.931 C 56.239 6.733 56.074 6.535 55.913 6.336 L 56.355 7.726 L 57.105 8.979 L 55.127 7.9 C 55.125 7.898 55.124 7.898 55.122 7.897 C 54.915 7.765 54.711 7.63 54.507 7.495 C 54.396 7.421 54.286 7.345 54.178 7.268 L 54.057 7.181 C 53.88 7.061 53.709 6.931 53.544 6.792 C 53.51 6.763 53.475 6.731 53.442 6.7 C 53.4 6.662 53.361 6.623 53.321 6.582 C 53.21 6.473 53.103 6.358 53.001 6.239 C 52.942 6.17 52.882 6.101 52.824 6.032 L 53.232 7.227 L 53.666 8.11 C 53.681 8.141 53.674 8.179 53.649 8.203 C 53.623 8.226 53.585 8.229 53.555 8.212 C 53.387 8.11 53.223 8.005 53.061 7.897 C 52.932 7.81 52.808 7.719 52.685 7.625 C 52.531 7.506 52.382 7.379 52.241 7.244 C 52.14 7.149 52.049 7.047 51.965 6.937 C 51.935 6.898 51.905 6.857 51.877 6.814 C 51.842 6.764 51.809 6.712 51.778 6.661 C 51.69 6.515 51.61 6.364 51.536 6.209 C 51.449 6.022 51.365 5.833 51.287 5.641 C 51.11 5.945 50.926 6.248 50.738 6.546 C 50.62 6.733 50.495 6.915 50.365 7.094 C 50.26 7.235 50.151 7.374 50.039 7.511 C 49.831 7.759 49.62 8.005 49.406 8.246 C 49.384 8.27 49.353 8.279 49.323 8.27 C 49.293 8.261 49.273 8.234 49.268 8.203 L 49.144 7.073 Z  M 49.262 6.706 L 47.21 9.01 L 47.709 7.542 C 47.722 7.506 47.706 7.467 47.673 7.448 C 47.64 7.431 47.599 7.439 47.574 7.467 C 47.432 7.638 47.284 7.806 47.132 7.97 C 47.013 8.097 46.891 8.221 46.765 8.342 C 46.602 8.496 46.431 8.642 46.251 8.778 C 46.133 8.868 46.006 8.948 45.874 9.017 C 45.83 9.039 45.786 9.059 45.742 9.079 C 45.687 9.103 45.633 9.126 45.576 9.148 C 45.418 9.208 45.256 9.261 45.091 9.304 C 44.875 9.362 44.657 9.413 44.437 9.457 L 44.773 7.445 L 42.717 9.501 C 42.709 9.509 42.701 9.522 42.698 9.533 C 42.641 9.719 42.587 9.906 42.536 10.093 C 42.508 10.195 42.483 10.298 42.461 10.403 C 42.422 10.585 42.39 10.77 42.365 10.955 C 42.342 11.139 42.321 11.324 42.303 11.509 L 42.303 11.515 C 42.279 11.719 42.26 11.925 42.243 12.13 C 42.227 12.331 42.22 12.533 42.218 12.736 C 42.218 12.827 42.22 12.919 42.224 13.01 C 42.226 13.07 42.23 13.129 42.235 13.189 C 42.241 13.261 42.249 13.333 42.257 13.405 C 42.281 13.608 42.312 13.808 42.35 14.008 C 42.394 14.248 42.444 14.486 42.497 14.723 C 42.376 14.646 42.257 14.568 42.14 14.484 C 42.009 14.393 41.884 14.296 41.763 14.193 C 41.614 14.066 41.473 13.926 41.344 13.775 C 41.256 13.674 41.18 13.561 41.117 13.441 C 41.089 13.388 41.065 13.335 41.043 13.278 C 41.016 13.212 40.993 13.143 40.973 13.076 C 40.957 13.024 40.943 12.972 40.93 12.919 C 40.916 12.859 40.904 12.8 40.893 12.739 C 40.86 12.561 40.838 12.383 40.825 12.202 C 40.808 11.948 40.802 11.692 40.805 11.437 C 40.791 11.075 40.784 10.712 40.787 10.35 C 40.789 10.066 40.8 9.782 40.817 9.498 C 40.841 9.134 40.882 8.772 40.941 8.413 C 40.982 8.171 41.04 7.931 41.115 7.698 C 41.147 7.599 41.183 7.5 41.22 7.404 C 41.267 7.287 41.319 7.17 41.373 7.056 C 41.412 6.973 41.453 6.891 41.495 6.81 C 41.542 6.717 41.592 6.625 41.642 6.534 C 41.791 6.269 41.948 6.008 42.116 5.754 C 42.342 5.414 42.577 5.078 42.82 4.75 L 44.47 3.596 L 43.015 2.576 L 47.474 2.576 L 46.382 1.173 L 49.654 1.322 L 52.805 2.264 L 55.811 1.814 L 55.351 2.733 L 58.469 2.733 L 57.186 3.447 L 59.823 4.642 C 59.92 4.744 60.016 4.849 60.108 4.954 C 60.185 5.042 60.26 5.13 60.333 5.221 C 60.424 5.334 60.51 5.451 60.591 5.572 C 60.646 5.655 60.696 5.74 60.74 5.828 C 60.77 5.884 60.797 5.942 60.82 6 C 60.85 6.073 60.877 6.146 60.902 6.22 C 60.919 6.273 60.936 6.328 60.952 6.383 C 60.969 6.446 60.987 6.509 61.002 6.573 C 61.046 6.758 61.082 6.945 61.111 7.133 C 61.15 7.393 61.181 7.655 61.203 7.917 C 61.245 8.306 61.285 8.695 61.318 9.086 C 61.336 9.296 61.351 9.506 61.36 9.716 C 61.369 9.936 61.374 10.155 61.374 10.373 C 61.374 10.78 61.369 11.187 61.36 11.594 C 61.354 11.747 61.344 11.901 61.33 12.053 C 61.319 12.172 61.304 12.29 61.283 12.408 C 61.256 12.557 61.22 12.704 61.175 12.85 C 61.145 12.946 61.104 13.038 61.056 13.126 C 61.032 13.167 61.007 13.208 60.979 13.248 C 60.946 13.294 60.91 13.339 60.872 13.383 C 60.844 13.416 60.816 13.448 60.786 13.479 C 60.751 13.515 60.715 13.548 60.679 13.583 C 60.573 13.681 60.46 13.774 60.342 13.859 C 60.223 13.945 60.102 14.026 59.978 14.103 C 60.014 13.89 60.047 13.675 60.074 13.46 C 60.093 13.31 60.102 13.159 60.105 13.008 C 60.105 13.008 60.105 13.007 60.105 13.007 L 60.105 12.96 C 60.105 12.96 60.105 12.96 60.105 12.958 C 60.105 12.812 60.096 12.667 60.079 12.522 C 60.063 12.384 60.042 12.245 60.02 12.107 C 59.992 11.934 59.967 11.76 59.947 11.586 C 59.929 11.412 59.915 11.238 59.906 11.062 C 59.898 10.916 59.887 10.769 59.871 10.621 C 59.854 10.467 59.828 10.314 59.788 10.165 C 59.773 10.105 59.757 10.047 59.737 9.989 C 59.715 9.92 59.69 9.851 59.663 9.784 C 59.589 9.592 59.503 9.406 59.409 9.224 C 59.263 8.948 59.109 8.678 58.944 8.413 C 58.944 8.411 58.943 8.41 58.941 8.41 L 57.876 6.923 L 58.184 8.532 C 57.931 8.294 57.68 8.052 57.431 7.807 C 57.266 7.644 57.105 7.478 56.948 7.307 C 56.803 7.15 56.662 6.992 56.526 6.829 C 56.27 6.527 56.019 6.222 55.771 5.913 C 55.748 5.884 55.707 5.875 55.674 5.894 C 55.641 5.911 55.624 5.95 55.636 5.986 L 56.211 7.79 L 56.675 8.565 L 55.204 7.763 C 55 7.632 54.796 7.5 54.593 7.365 C 54.484 7.291 54.375 7.216 54.269 7.139 C 54.269 7.139 54.269 7.139 54.269 7.139 L 54.146 7.053 C 54.146 7.053 54.146 7.053 54.146 7.053 C 53.974 6.934 53.806 6.808 53.646 6.673 C 53.613 6.645 53.58 6.615 53.549 6.585 C 53.51 6.548 53.47 6.51 53.433 6.473 C 53.325 6.364 53.219 6.251 53.121 6.137 C 52.965 5.96 52.816 5.778 52.67 5.594 C 52.647 5.564 52.605 5.555 52.572 5.574 C 52.537 5.591 52.521 5.632 52.534 5.668 L 53.086 7.288 L 53.405 7.933 C 53.318 7.879 53.234 7.823 53.149 7.767 C 53.023 7.682 52.901 7.592 52.78 7.501 C 52.63 7.385 52.485 7.261 52.349 7.13 C 52.255 7.04 52.169 6.945 52.089 6.843 C 52.06 6.805 52.032 6.766 52.007 6.727 C 51.974 6.68 51.943 6.629 51.913 6.581 C 51.827 6.438 51.75 6.292 51.679 6.143 C 51.546 5.861 51.423 5.572 51.315 5.279 C 51.086 5.679 50.849 6.074 50.605 6.463 C 50.489 6.647 50.368 6.825 50.239 7 C 50.136 7.141 50.028 7.277 49.918 7.41 C 49.75 7.613 49.579 7.812 49.405 8.01 L 49.262 6.706 Z " id="hair border" fill="rgb(150,90,0)"/><path d=" M 49.262 6.556 L 47.282 8.85 L 47.733 7.243 Q 46.639 8.476 45.87 8.89 Q 45.414 9.135 44.498 9.399 L 44.753 7.439 L 42.616 9.497 Q 42.449 10.117 42.38 10.458 C 42.31 10.807 42.262 11.104 42.224 11.458 C 42.165 11.993 42.134 12.45 42.165 12.987 Q 42.197 13.56 42.42 14.595 Q 41.456 13.942 41.165 13.379 Q 40.845 12.761 40.91 11.438 Q 40.793 8.974 41.184 7.713 Q 41.541 6.565 42.831 4.772 L 44.576 3.537 L 43.086 2.557 L 47.615 2.616 L 46.459 1.165 L 49.635 1.361 L 52.772 2.321 L 55.732 1.831 L 55.321 2.733 L 58.301 2.753 L 57.124 3.419 L 59.771 4.694 Q 60.462 5.382 60.712 5.851 Q 61.07 6.52 61.183 7.948 Q 61.295 9.079 61.32 9.693 Q 61.346 10.341 61.32 11.536 Q 61.277 12.572 61.006 13.046 Q 60.764 13.472 60.026 13.987 Q 60.157 13.254 60.163 12.85 C 60.171 12.385 60.087 12.087 60.026 11.536 C 59.965 10.986 59.976 10.621 59.85 10.144 Q 59.675 9.487 59.026 8.419 L 57.967 7.007 L 58.105 8.38 Q 57.342 7.643 56.948 7.223 Q 56.444 6.686 55.575 5.635 L 56.105 7.752 L 56.536 8.399 L 55.34 7.752 Q 54.729 7.42 54.419 7.203 C 54.122 6.996 53.887 6.797 53.615 6.556 Q 53.196 6.186 52.497 5.419 L 52.987 7.105 L 53.282 7.792 Q 52.467 7.216 52.125 6.792 Q 51.727 6.298 51.301 5.184 Q 50.62 6.36 50.184 6.949 Q 49.935 7.284 49.439 7.87 L 49.262 6.556 Z  M 52.907 7.317 C 52.856 7.276 52.806 7.235 52.755 7.193 C 52.646 7.102 52.54 7.005 52.438 6.904 C 52.371 6.838 52.307 6.768 52.247 6.692 C 52.214 6.653 52.184 6.613 52.155 6.57 C 52.117 6.518 52.082 6.465 52.049 6.41 C 51.952 6.255 51.866 6.093 51.788 5.927 C 51.617 5.563 51.464 5.191 51.333 4.813 C 51.055 5.303 50.766 5.786 50.465 6.261 C 50.337 6.465 50.2 6.663 50.057 6.856 C 49.976 6.965 49.893 7.074 49.807 7.18 C 49.72 7.285 49.634 7.392 49.546 7.497 L 49.372 6.191 L 47.623 8.216 L 47.884 7.285 C 47.904 7.215 47.873 7.14 47.808 7.105 C 47.744 7.071 47.664 7.085 47.615 7.138 C 47.458 7.315 47.298 7.489 47.134 7.659 C 47.005 7.79 46.872 7.919 46.737 8.045 C 46.561 8.206 46.379 8.358 46.19 8.499 C 46.064 8.594 45.934 8.678 45.796 8.752 C 45.758 8.772 45.721 8.791 45.681 8.81 C 45.634 8.832 45.586 8.854 45.537 8.876 C 45.399 8.935 45.259 8.99 45.117 9.039 C 44.974 9.089 44.83 9.136 44.685 9.18 L 44.966 7.016 L 42.507 9.384 C 42.486 9.404 42.472 9.43 42.464 9.456 C 42.408 9.665 42.355 9.872 42.304 10.082 C 42.276 10.197 42.249 10.311 42.226 10.427 C 42.158 10.763 42.105 11.1 42.068 11.44 C 42.024 11.815 42 12.192 41.995 12.568 C 41.995 12.711 42 12.854 42.008 12.996 C 42.019 13.192 42.041 13.387 42.071 13.581 C 42.105 13.799 42.144 14.017 42.187 14.235 C 42.157 14.213 42.129 14.192 42.1 14.17 C 41.999 14.091 41.901 14.008 41.806 13.92 C 41.688 13.812 41.578 13.696 41.478 13.572 C 41.412 13.49 41.352 13.401 41.304 13.307 C 41.28 13.26 41.258 13.211 41.239 13.163 C 41.216 13.101 41.195 13.04 41.178 12.977 C 41.164 12.929 41.153 12.882 41.142 12.833 C 41.131 12.778 41.12 12.722 41.111 12.667 C 41.084 12.501 41.068 12.333 41.062 12.167 C 41.053 11.923 41.054 11.68 41.067 11.439 C 41.05 11.08 41.04 10.72 41.04 10.361 C 41.039 10.082 41.046 9.803 41.062 9.524 C 41.081 9.166 41.119 8.81 41.173 8.457 C 41.21 8.22 41.263 7.988 41.335 7.759 C 41.363 7.663 41.398 7.569 41.434 7.475 C 41.478 7.362 41.525 7.249 41.575 7.138 C 41.613 7.056 41.65 6.976 41.691 6.896 C 41.737 6.805 41.782 6.716 41.831 6.627 C 41.972 6.366 42.121 6.112 42.281 5.863 C 42.493 5.53 42.714 5.206 42.943 4.886 L 44.855 3.532 L 43.62 2.721 L 47.945 2.776 L 46.801 1.342 L 49.607 1.516 L 52.762 2.483 L 55.467 2.034 L 55.077 2.889 L 57.713 2.906 L 56.786 3.43 L 59.679 4.823 C 59.773 4.917 59.864 5.013 59.955 5.11 C 60.03 5.191 60.104 5.273 60.174 5.359 C 60.264 5.464 60.348 5.576 60.428 5.689 C 60.482 5.764 60.53 5.842 60.574 5.924 C 60.603 5.977 60.629 6.032 60.653 6.089 C 60.681 6.158 60.708 6.227 60.733 6.297 C 60.75 6.351 60.767 6.402 60.781 6.456 C 60.8 6.517 60.816 6.578 60.832 6.639 C 60.875 6.821 60.912 7.003 60.938 7.187 C 60.977 7.444 61.006 7.703 61.026 7.963 C 61.064 8.338 61.098 8.714 61.128 9.092 C 61.144 9.295 61.155 9.497 61.164 9.699 C 61.172 9.913 61.177 10.128 61.177 10.341 C 61.177 10.738 61.172 11.134 61.164 11.531 C 61.158 11.677 61.147 11.825 61.133 11.969 C 61.12 12.082 61.104 12.193 61.086 12.303 C 61.061 12.444 61.024 12.584 60.981 12.719 C 60.952 12.805 60.915 12.89 60.871 12.968 C 60.852 13.001 60.832 13.032 60.811 13.062 C 60.784 13.1 60.758 13.136 60.728 13.17 C 60.643 13.274 60.549 13.371 60.447 13.459 C 60.38 13.517 60.312 13.575 60.243 13.63 C 60.261 13.509 60.278 13.39 60.292 13.271 C 60.309 13.131 60.319 12.992 60.32 12.852 C 60.32 12.852 60.32 12.852 60.32 12.852 L 60.32 12.794 C 60.32 12.792 60.32 12.792 60.32 12.792 C 60.32 12.656 60.312 12.521 60.298 12.386 C 60.284 12.259 60.267 12.13 60.246 12.003 C 60.223 11.842 60.201 11.68 60.182 11.519 C 60.165 11.365 60.152 11.211 60.14 11.058 C 60.129 10.902 60.115 10.746 60.096 10.59 C 60.076 10.427 60.044 10.264 60.002 10.104 C 59.985 10.044 59.967 9.985 59.948 9.925 C 59.925 9.855 59.9 9.786 59.873 9.717 C 59.798 9.524 59.712 9.335 59.618 9.15 C 59.473 8.874 59.321 8.603 59.16 8.338 C 59.158 8.333 59.155 8.328 59.152 8.325 L 57.756 6.463 L 57.906 7.968 C 57.756 7.82 57.607 7.674 57.459 7.525 C 57.324 7.39 57.193 7.254 57.062 7.116 C 56.896 6.939 56.733 6.757 56.575 6.573 C 56.278 6.231 55.985 5.885 55.696 5.535 C 55.649 5.478 55.569 5.463 55.505 5.494 C 55.439 5.527 55.406 5.602 55.423 5.673 L 55.96 7.817 L 56.055 7.961 L 55.415 7.615 C 55.213 7.505 55.014 7.39 54.816 7.273 C 54.711 7.212 54.609 7.144 54.509 7.075 C 54.371 6.978 54.238 6.878 54.107 6.771 C 53.976 6.663 53.845 6.553 53.718 6.438 C 53.582 6.318 53.45 6.192 53.322 6.062 C 53.082 5.817 52.845 5.568 52.613 5.314 C 52.564 5.26 52.484 5.246 52.421 5.282 C 52.357 5.318 52.327 5.394 52.346 5.463 L 52.84 7.158 L 52.907 7.317 Z " id="hair" fill="rgb(80,50,0)"/><g id="hairs"><path d=" M 48.246 1.949 L 48.169 1.94 L 48.186 1.784 L 48.265 1.792 C 48.539 1.825 48.814 1.863 49.086 1.908 C 49.235 1.933 49.383 1.965 49.53 2.004 C 49.581 2.018 49.632 2.032 49.682 2.048 C 49.744 2.067 49.805 2.087 49.866 2.107 C 50.035 2.165 50.203 2.231 50.369 2.3 C 50.619 2.407 50.867 2.518 51.113 2.636 L 51.184 2.67 L 51.115 2.812 L 51.044 2.777 C 50.802 2.661 50.556 2.551 50.308 2.445 C 50.145 2.377 49.982 2.313 49.814 2.256 C 49.756 2.236 49.697 2.216 49.637 2.197 C 49.588 2.183 49.54 2.169 49.49 2.156 C 49.348 2.118 49.206 2.087 49.06 2.063 C 48.79 2.018 48.519 1.98 48.246 1.949 Z " id="Path" fill="rgb(120,60,0)"/><path d=" M 58.427 4.769 L 58.352 4.746 L 58.399 4.595 L 58.474 4.619 C 58.573 4.65 58.672 4.684 58.769 4.72 C 58.844 4.75 58.919 4.782 58.995 4.816 C 59.089 4.86 59.181 4.912 59.271 4.968 C 59.333 5.009 59.391 5.056 59.446 5.108 C 59.468 5.128 59.489 5.15 59.508 5.174 C 59.531 5.2 59.555 5.227 59.575 5.255 C 59.635 5.335 59.69 5.42 59.737 5.508 C 59.809 5.641 59.875 5.778 59.934 5.917 L 59.966 5.991 L 59.82 6.052 L 59.79 5.98 C 59.732 5.844 59.669 5.712 59.599 5.583 C 59.555 5.502 59.506 5.423 59.45 5.351 C 59.431 5.324 59.41 5.301 59.39 5.277 C 59.373 5.257 59.355 5.238 59.337 5.221 C 59.291 5.175 59.239 5.136 59.186 5.1 C 59.103 5.048 59.017 5 58.927 4.959 C 58.857 4.926 58.786 4.895 58.712 4.868 C 58.618 4.832 58.523 4.799 58.427 4.769 Z " id="Path" fill="rgb(120,60,0)"/><path d=" M 51.577 3.729 L 51.503 3.757 L 51.447 3.612 L 51.521 3.583 C 51.627 3.543 51.734 3.506 51.842 3.472 C 51.927 3.445 52.013 3.423 52.1 3.403 C 52.211 3.379 52.324 3.362 52.437 3.354 C 52.518 3.348 52.6 3.35 52.681 3.361 C 52.713 3.365 52.746 3.372 52.779 3.379 C 52.816 3.389 52.852 3.398 52.89 3.411 C 52.994 3.444 53.096 3.486 53.193 3.536 C 53.342 3.613 53.488 3.696 53.627 3.789 L 53.693 3.831 L 53.607 3.963 L 53.541 3.921 C 53.406 3.831 53.265 3.75 53.121 3.676 C 53.031 3.629 52.939 3.591 52.841 3.56 C 52.808 3.549 52.776 3.539 52.743 3.532 C 52.714 3.525 52.688 3.521 52.659 3.517 C 52.589 3.506 52.52 3.505 52.449 3.51 C 52.343 3.517 52.238 3.533 52.132 3.557 C 52.051 3.575 51.969 3.597 51.889 3.623 C 51.784 3.654 51.679 3.69 51.577 3.729 Z " id="Path" fill="rgb(120,60,0)"/><path d=" M 53.144 3.121 L 53.069 3.146 L 53.017 2.998 L 53.091 2.972 C 53.26 2.914 53.43 2.859 53.601 2.807 C 53.695 2.779 53.79 2.755 53.886 2.735 C 53.988 2.713 54.093 2.697 54.197 2.685 C 54.386 2.663 54.578 2.647 54.769 2.634 L 54.848 2.63 L 54.857 2.785 L 54.779 2.791 C 54.59 2.802 54.402 2.819 54.215 2.841 C 54.115 2.852 54.016 2.868 53.917 2.888 C 53.826 2.907 53.735 2.931 53.646 2.957 C 53.477 3.008 53.309 3.061 53.144 3.121 Z " id="Path" fill="rgb(120,60,0)"/><path d=" M 55.326 3.359 L 55.248 3.372 L 55.224 3.216 L 55.301 3.205 L 56.239 3.058 L 57.037 3.047 L 57.116 3.045 L 57.119 3.202 L 57.04 3.204 L 56.251 3.215 L 55.326 3.359 Z " id="Path" fill="rgb(120,60,0)"/><path d=" M 49.013 3.593 L 48.942 3.626 L 48.875 3.485 L 48.945 3.45 C 49.035 3.409 49.124 3.37 49.215 3.332 C 49.287 3.304 49.359 3.277 49.433 3.256 C 49.529 3.226 49.624 3.202 49.723 3.185 C 49.792 3.172 49.864 3.168 49.935 3.171 C 49.973 3.171 50.009 3.174 50.046 3.18 C 50.089 3.185 50.131 3.194 50.172 3.204 C 50.293 3.234 50.409 3.274 50.52 3.326 C 50.694 3.408 50.862 3.502 51.024 3.604 L 51.091 3.646 L 51.006 3.778 L 50.94 3.737 C 50.784 3.637 50.622 3.547 50.454 3.469 C 50.352 3.42 50.246 3.383 50.136 3.356 C 50.098 3.348 50.06 3.34 50.024 3.336 C 49.993 3.331 49.962 3.328 49.93 3.326 C 49.869 3.325 49.81 3.329 49.75 3.34 C 49.659 3.354 49.568 3.376 49.48 3.405 C 49.411 3.426 49.342 3.452 49.273 3.478 C 49.185 3.514 49.099 3.552 49.013 3.593 Z " id="Path" fill="rgb(120,60,0)"/><path d=" M 44.952 3.204 L 44.875 3.194 L 44.892 3.039 L 44.971 3.047 L 46.393 3.205 L 47.516 3.673 L 47.589 3.703 L 47.529 3.847 L 47.457 3.817 L 46.353 3.359 L 44.952 3.204 Z " id="Path" fill="rgb(120,60,0)"/><path d=" M 43.446 5.378 L 43.39 5.433 L 43.281 5.318 L 43.339 5.265 C 43.465 5.144 43.598 5.033 43.738 4.928 C 43.815 4.87 43.899 4.819 43.987 4.78 C 44.015 4.766 44.045 4.755 44.075 4.744 C 44.11 4.731 44.144 4.72 44.18 4.711 C 44.281 4.683 44.382 4.662 44.486 4.65 C 44.643 4.631 44.801 4.62 44.96 4.615 L 45.038 4.614 L 45.041 4.771 L 44.963 4.772 C 44.811 4.775 44.657 4.788 44.505 4.805 C 44.409 4.818 44.315 4.837 44.222 4.862 C 44.19 4.871 44.158 4.88 44.127 4.891 C 44.102 4.901 44.077 4.91 44.053 4.921 C 43.975 4.957 43.899 5.001 43.832 5.053 C 43.697 5.155 43.568 5.263 43.446 5.378 Z " id="Path" fill="rgb(120,60,0)"/></g></g></svg>