<?xml version="1.0" encoding="UTF-8" standalone="no"?>
<!-- Generator: Gravit.io -->
<svg xmlns="http://www.w3.org/2000/svg" xmlns:xlink="http://www.w3.org/1999/xlink" style="isolation:isolate" viewBox="0 0 800 800" width="800" height="800"><defs><clipPath id="_clipPath_U2qtZqA2bwIqWOoEkTMK0gVE8DZM6ta5"><rect width="800" height="800"/></clipPath></defs><g clip-path="url(#_clipPath_U2qtZqA2bwIqWOoEkTMK0gVE8DZM6ta5)"><g id="Group"><g id="Group"><g id="Group"><g id="Group"><rect x="315.5" y="436.5" width="170" height="50" transform="matrix(1,0,0,1,0,0)" id="Rectangle" fill="rgb(80,80,80)"/><circle vector-effect="non-scaling-stroke" cx="401" cy="158" r="57.5" id="Ellipse" fill="rgb(229,191,191)"/><circle vector-effect="non-scaling-stroke" cx="282.5" cy="235.5" r="20" id="Ellipse" fill="rgb(230,230,230)"/><circle vector-effect="non-scaling-stroke" cx="282.5" cy="379.5" r="20" id="Ellipse" fill="rgb(229,191,191)"/><rect x="262.5" y="237.5" width="40" height="140" transform="matrix(1,0,0,1,0,0)" id="Rectangle" fill="rgb(230,230,230)"/><circle vector-effect="non-scaling-stroke" cx="517.5" cy="238.5" r="20" id="Ellipse" fill="rgb(230,230,230)"/><circle vector-effect="non-scaling-stroke" cx="517.5" cy="379.5" r="20" id="Ellipse" fill="rgb(229,191,191)"/><g id="Group"><rect x="309.864" y="220.454" width="180" height="220" transform="matrix(1,0,0,1,0,0)" id="Rectangle" fill="rgb(74,134,232)"/><polygon points="390.864,220.454,412.864,220.47,401.85,239.515" id="Polygon" fill="rgb(229,191,191)"/><line x1="397.864" y1="238.454" x2="397.864" y2="438.454" id="Path" vector-effect="non-scaling-stroke" stroke-width="1" stroke="rgb(67,121,209)" stroke-linejoin="miter" stroke-linecap="square" stroke-miterlimit="3"/><g id="Group"><circle vector-effect="non-scaling-stroke" cx="403.86402353360177" cy="256.4543507081098" r="4" id="Ellipse" fill="rgb(52,94,162)"/><circle vector-effect="non-scaling-stroke" cx="403.86402353360177" cy="296.4543507081098" r="4" id="Ellipse" fill="rgb(52,94,162)"/><circle vector-effect="non-scaling-stroke" cx="403.86402353360177" cy="336.4543507081098" r="4" id="Ellipse" fill="rgb(52,94,162)"/><circle vector-effect="non-scaling-stroke" cx="403.86402353360177" cy="376.4543507081098" r="4" id="Ellipse" fill="rgb(52,94,162)"/><circle vector-effect="non-scaling-stroke" cx="403.86402353360177" cy="416.4543507081098" r="4" id="Ellipse" fill="rgb(52,94,162)"/></g></g><path d=" M 416.424 220.454 L 418.248 247.748 L 402.549 239.564 L 413.376 220.454 L 416.424 220.454 Z " id="Path" fill="rgb(67,121,209)" vector-effect="non-scaling-stroke" stroke-width="1" stroke="rgb(67,121,209)" stroke-linejoin="miter" stroke-linecap="square" stroke-miterlimit="3"/><path d=" M 390.337 220.454 L 401.59 239.39 L 386.064 247.897 L 387.328 220.454 L 390.337 220.454 Z " id="Path" fill="rgb(67,121,209)" vector-effect="non-scaling-stroke" stroke-width="1" stroke="rgb(67,121,209)" stroke-linejoin="miter" stroke-linecap="square" stroke-miterlimit="3"/><line x1="325.772" y1="218.454" x2="326.635" y2="219.93" id="Path"/><line x1="475.231" y1="218.508" x2="474.364" y2="219.982" id="Path"/><path d=" M 492.136 219.828 L 490.203 442.546 L 425.028 441.714 C 422.165 435.829 420.805 432.156 418.994 425.422 C 417.2 418.75 417.192 418.472 415.833 407.636 C 414.474 396.801 414.321 388.478 415.551 376.461 C 416.541 366.777 417.609 361.328 420.269 352.38 L 475.137 219.994" id="Path" fill="rgb(230,230,230)"/><path d=" M 428.645 334.765 L 473.565 273.551 L 465.625 260.062 L 488.954 249.443 L 474.999 221.331 L 428.645 334.765 Z " id="Path" fill="rgb(224,224,224)" vector-effect="non-scaling-stroke" stroke-width="1" stroke="rgb(210,210,210)" stroke-linejoin="miter" stroke-linecap="square" stroke-miterlimit="3"/><g id="Group"><path d=" M 308.864 219.733 L 310.248 442.454 L 375.425 441.783 C 378.302 435.905 379.671 432.236 381.499 425.506 C 383.31 418.839 383.318 418.561 384.704 407.729 C 386.09 396.897 386.263 388.574 385.063 376.554 C 384.096 366.867 383.042 361.416 380.404 352.461 L 325.863 219.94" id="Path" fill="rgb(230,230,230)"/><path d=" M 371.77 333.895 L 327.125 272.48 L 335.126 259.027 L 311.845 248.303 L 325.926 220.254 L 371.77 333.895 Z " id="Path" fill="rgb(224,224,224)" vector-effect="non-scaling-stroke" stroke-width="1" stroke="rgb(210,210,210)" stroke-linejoin="miter" stroke-linecap="square" stroke-miterlimit="3"/><rect x="321.864" y="400.454" width="40" height="4" transform="matrix(1,0,0,1,0,0)" id="Rectangle" fill="rgb(228,228,228)" vector-effect="non-scaling-stroke" stroke-width="1" stroke="rgb(220,220,220)" stroke-linejoin="miter" stroke-linecap="square" stroke-miterlimit="2"/></g><rect x="435.864" y="400.454" width="40" height="4" transform="matrix(1,0,0,1,0,0)" id="Rectangle" fill="rgb(228,228,228)" vector-effect="non-scaling-stroke" stroke-width="1" stroke="rgb(220,220,220)" stroke-linejoin="miter" stroke-linecap="square" stroke-miterlimit="2"/><rect x="455.864" y="300.454" width="20" height="2" transform="matrix(1,0,0,1,0,0)" id="Rectangle" fill="rgb(222,222,222)" vector-effect="non-scaling-stroke" stroke-width="1" stroke="rgb(220,220,220)" stroke-linejoin="miter" stroke-linecap="square" stroke-miterlimit="2"/><rect x="461.864" y="291.954" width="2" height="8" transform="matrix(1,0,0,1,0,0)" id="Rectangle" fill="rgb(80,80,80)"/><rect x="462.364" y="299.954" width="1" height="4" transform="matrix(1,0,0,1,0,0)" id="Rectangle" fill="rgb(80,80,80)"/><rect x="465.864" y="291.954" width="2" height="8" transform="matrix(1,0,0,1,0,0)" id="Rectangle" fill="rgb(0,140,0)"/><rect x="466.364" y="299.954" width="1" height="4" transform="matrix(1,0,0,1,0,0)" id="Rectangle" fill="rgb(0,140,0)"/><rect x="470.364" y="299.954" width="1" height="4" transform="matrix(1,0,0,1,0,0)" id="Rectangle" fill="rgb(180,0,0)"/><rect x="469.864" y="291.954" width="2" height="8" transform="matrix(1,0,0,1,0,0)" id="Rectangle" fill="rgb(180,0,0)"/><rect x="497.5" y="237.5" width="40" height="140" transform="matrix(1,0,0,1,0,0)" id="Rectangle" fill="rgb(230,230,230)"/><rect x="315.5" y="487.5" width="56" height="200" transform="matrix(1,0,0,1,0,0)" id="Rectangle" fill="rgb(80,80,80)"/><rect x="429.5" y="487.5" width="56" height="200" transform="matrix(1,0,0,1,0,0)" id="Rectangle" fill="rgb(80,80,80)"/><rect x="315.5" y="447.5" width="170" height="8" transform="matrix(1,0,0,1,0,0)" id="Rectangle" fill="rgb(58,58,58)"/><path d=" M 310.2 440 L 376 440 Q 374.66 443.299 372.899 446.333 C 371.138 449.368 371.737 448.477 370.509 450.556 Q 369.28 452.634 366.279 455.833 L 363.596 459 L 310.2 459 L 310.2 440 Z " id="Path" fill="rgb(230,230,230)"/><path d=" M 490.181 440 L 424 440 C 425.218 442.174 425.742 443.212 427.502 446.167 C 429.263 449.122 428.664 448.254 429.892 450.278 Q 431.12 452.302 434.121 455.417 L 436.802 458.5 L 490.181 458.5 L 490.181 440 Z " id="Path" fill="rgb(230,230,230)"/><rect x="389.5" y="446.5" width="12" height="10" transform="matrix(1,0,0,1,0,0)" id="Rectangle" fill="none" vector-effect="non-scaling-stroke" stroke-width="1" stroke="rgb(185,185,185)" stroke-linejoin="miter" stroke-linecap="square" stroke-miterlimit="2"/><line x1="388.5" y1="451.5" x2="395.75" y2="451.5" id="Path" vector-effect="non-scaling-stroke" stroke-width="1" stroke="rgb(185,185,185)" stroke-linejoin="miter" stroke-linecap="square" stroke-miterlimit="3"/><rect x="315.5" y="688.5" width="59" height="30" transform="matrix(1,0,0,1,0,0)" id="Rectangle" fill="rgb(58,58,58)"/><rect x="425.5" y="688.5" width="59" height="30" transform="matrix(1,0,0,1,0,0)" id="Rectangle" fill="rgb(58,58,58)"/><path d=" M 316.5 688.5 L 316.5 688.5 C 335.817 688.5 351.5 695.221 351.5 703.5 L 351.5 703.5 C 351.5 711.779 335.817 718.5 316.5 718.5 L 316.5 718.5 C 297.183 718.5 281.5 711.779 281.5 703.5 L 281.5 703.5 C 281.5 695.221 297.183 688.5 316.5 688.5 Z " id="Path" fill="rgb(58,58,58)"/><path d=" M 484.5 688.5 L 484.5 688.5 C 503.817 688.5 519.5 695.221 519.5 703.5 L 519.5 703.5 C 519.5 711.779 503.817 718.5 484.5 718.5 L 484.5 718.5 C 465.183 718.5 449.5 711.779 449.5 703.5 L 449.5 703.5 C 449.5 695.221 465.183 688.5 484.5 688.5 Z " id="Path" fill="rgb(58,58,58)"/></g><path d=" M 384.616 189.5 L 420.384 189.5 Q 419.062 192.859 417.917 194.433 C 416.831 195.927 415.672 197.002 414.217 198.134 C 411.907 199.93 409.667 201.146 406.817 201.834 C 403.84 202.552 401.128 202.73 398.183 201.834 C 395.741 201.091 394.01 199.696 392.016 198.134 C 390.082 196.618 388.599 195.134 387.083 193.2 Q 386.118 191.969 384.616 189.5 Z " id="Path" fill="rgb(248,248,248)" vector-effect="non-scaling-stroke" stroke-width="2" stroke="rgb(180,100,100)" stroke-linejoin="miter" stroke-linecap="square" stroke-miterlimit="3"/><g id="Group"><path d="M 359.717 141.5 L 389.283 141.5 C 392.162 141.5 394.5 143.838 394.5 146.717 L 394.5 156.283 C 394.5 159.162 392.162 161.5 389.283 161.5 L 359.717 161.5 C 356.838 161.5 354.5 159.162 354.5 156.283 L 354.5 146.717 C 354.5 143.838 356.838 141.5 359.717 141.5 Z" style="fill:none;stroke:#323232;stroke-width:2;stroke-linecap:square;stroke-miterlimit:2;"/><path d="M 411.717 141.5 L 441.283 141.5 C 444.162 141.5 446.5 143.838 446.5 146.717 L 446.5 156.283 C 446.5 159.162 444.162 161.5 441.283 161.5 L 411.717 161.5 C 408.838 161.5 406.5 159.162 406.5 156.283 L 406.5 146.717 C 406.5 143.838 408.838 141.5 411.717 141.5 Z" style="fill:none;stroke:#323232;stroke-width:2;stroke-linecap:square;stroke-miterlimit:2;"/><path d=" M 395.5 147.5 Q 398.285 145.552 400.296 145.502 Q 402.451 145.447 405.5 147.5" id="Path" fill="none" vector-effect="non-scaling-stroke" stroke-width="2" stroke="rgb(50,50,50)" stroke-linejoin="miter" stroke-linecap="square" stroke-miterlimit="3"/></g></g><path d=" M 388.548 118.5 L 374.568 134.201 L 378.548 122.5 Q 372.185 130.094 367.548 132.5 Q 364.255 134.208 357.548 135.5 L 359.548 123.5 L 347.548 135.5 Q 346.467 139.038 346.048 141 C 345.528 143.429 345.305 145.527 345.048 148 C 344.701 151.325 344.405 154.155 344.548 157.5 Q 344.731 161.787 346.548 169.5 Q 338.832 164.84 336.548 160.5 Q 334.372 156.366 334.5 147.5 Q 333.89 131.597 336.5 123.5 Q 338.903 116.044 347.5 104.5 L 357.5 97.5 L 347.5 90.5 L 376.5 90.5 L 369.5 81.5 L 391.5 82.5 L 411.548 88.5 L 431.548 85.5 L 428.548 91.5 L 449.548 91.5 L 440.548 96.5 L 456.548 103.75 Q 460.956 108.393 462.548 111.5 Q 464.773 115.842 465.548 125 Q 466.368 132.446 466.548 136.5 Q 466.734 140.713 466.548 148.5 Q 466.309 155.346 464.548 158.5 Q 462.662 161.877 456.548 165.5 Q 457.509 160.341 457.548 157.5 C 457.591 154.308 456.938 152.012 456.548 148.5 C 456.157 144.988 456.346 142.584 455.548 139.5 Q 454.457 135.283 450.228 128.477 L 444.759 120.845 L 446.582 130.385 Q 440.574 124.781 437.548 121.5 Q 434.776 118.494 430.033 112.588 L 433.68 124.036 L 437.548 130.5 L 426.548 124.5 Q 422.612 121.976 420.548 120.5 C 419.12 119.479 417.884 118.651 416.548 117.5 Q 414.058 115.357 410.255 110.546 L 413.765 120.845 L 416.548 126.5 Q 409.346 122.142 406.548 118.5 Q 404.365 115.659 401.915 109.397 Q 398.032 116.13 395.548 119.5 Q 393.557 122.201 389.461 126.819 L 388.548 118.5 Z " id="Path" fill="rgb(80,50,0)" vector-effect="non-scaling-stroke" stroke-width="1" stroke="rgb(150,90,0)" stroke-linejoin="miter" stroke-linecap="square" stroke-miterlimit="3"/></g><path d=" M 400.5 91.833 Q 394.169 88.8 390.5 87.833 Q 387.74 87.106 382.5 86.5" id="Path" fill="none" vector-effect="non-scaling-stroke" stroke-width="1" stroke="rgb(120,60,0)" stroke-linejoin="miter" stroke-linecap="square" stroke-miterlimit="3"/><path d=" M 447.5 104.5 Q 451.777 105.838 453.5 107.5 Q 454.992 108.939 456.5 112.5" id="Path" fill="none" vector-effect="non-scaling-stroke" stroke-width="1" stroke="rgb(120,60,0)" stroke-linejoin="miter" stroke-linecap="square" stroke-miterlimit="3"/><path d=" M 416.477 99.147 Q 412.907 96.813 410.647 96.5 Q 408.067 96.142 403.5 97.886" id="Path" fill="none" vector-effect="non-scaling-stroke" stroke-width="1" stroke="rgb(120,60,0)" stroke-linejoin="miter" stroke-linecap="square" stroke-miterlimit="3"/><path d=" M 413.5 93.993 Q 416.703 92.873 418.5 92.5 Q 420.427 92.1 424.058 91.868" id="Path" fill="none" vector-effect="non-scaling-stroke" stroke-width="1" stroke="rgb(120,60,0)" stroke-linejoin="miter" stroke-linecap="square" stroke-miterlimit="3"/><path d=" M 427.5 95.5 L 433.437 94.57 L 438.5 94.5" id="Path" fill="none" vector-effect="non-scaling-stroke" stroke-width="1" stroke="rgb(120,60,0)" stroke-linejoin="miter" stroke-linecap="square" stroke-miterlimit="3"/><path d=" M 387.114 97.026 Q 390.938 95.219 393.195 95.285 Q 395.781 95.36 399.886 97.974" id="Path" fill="none" vector-effect="non-scaling-stroke" stroke-width="1" stroke="rgb(120,60,0)" stroke-linejoin="miter" stroke-linecap="square" stroke-miterlimit="3"/><path d=" M 377.6 98.448 L 370.5 95.5 L 361.5 94.5" id="Path" fill="none" vector-effect="non-scaling-stroke" stroke-width="1" stroke="rgb(120,60,0)" stroke-linejoin="miter" stroke-linecap="square" stroke-miterlimit="3"/><path d=" M 351.5 108.5 Q 353.889 106.235 355.5 105.5 Q 357.467 104.602 361.5 104.5" id="Path" fill="none" vector-effect="non-scaling-stroke" stroke-width="1" stroke="rgb(120,60,0)" stroke-linejoin="miter" stroke-linecap="square" stroke-miterlimit="3"/><g id="Group"><path d=" M 364.5 152.5 C 364.5 149.28 366.761 147.5 372.499 147.5 C 378.238 147.5 387.368 148.958 387.498 152.5 C 387.617 155.719 381.238 157.5 375.499 157.5 C 369.76 157.5 364.5 155.72 364.5 152.5 Z " id="Path" fill="rgb(230,230,230)"/><path d=" M 377.5 147.5 C 378.727 148.407 379.5 149.862 379.5 151.5 C 379.5 154.26 377.26 156.5 374.5 156.5 C 371.74 156.5 369.5 154.26 369.5 151.5 C 369.5 149.862 370.289 148.407 371.517 147.5 L 377.5 147.5 Z " id="Path" fill="rgb(170,100,0)"/><circle vector-effect="non-scaling-stroke" cx="374.5" cy="151.5" r="1" id="Ellipse" fill="rgb(128,77,0)"/><circle vector-effect="non-scaling-stroke" cx="377.5" cy="149.5" r="1" id="Ellipse" fill="rgb(230,230,230)"/></g><g id="Group"><path d=" M 437.5 152.5 C 437.5 149.28 435.239 147.5 429.501 147.5 C 423.762 147.5 414.632 148.958 414.502 152.5 C 414.383 155.719 420.762 157.5 426.501 157.5 C 432.24 157.5 437.5 155.72 437.5 152.5 Z " id="Path" fill="rgb(230,230,230)"/><path d=" M 424.5 147.5 C 423.273 148.407 422.5 149.862 422.5 151.5 C 422.5 154.26 424.74 156.5 427.5 156.5 C 430.26 156.5 432.5 154.26 432.5 151.5 C 432.5 149.862 431.711 148.407 430.483 147.5 L 424.5 147.5 Z " id="Path" fill="rgb(170,100,0)"/><circle vector-effect="non-scaling-stroke" cx="427.4999999999999" cy="151.50000000000003" r="1" id="Ellipse" fill="rgb(128,77,0)"/><circle vector-effect="non-scaling-stroke" cx="430.4999999999999" cy="149.50000000000003" r="1" id="Ellipse" fill="rgb(230,230,230)"/></g></g></g></svg>