<?xml version="1.0" encoding="UTF-8" standalone="no"?>
<!-- Generator: Gravit.io -->
<svg xmlns="http://www.w3.org/2000/svg" xmlns:xlink="http://www.w3.org/1999/xlink" style="isolation:isolate" viewBox="0 0 400 300" width="400" height="300"><defs><clipPath id="_clipPath_4edBeyIOfnpmMe9FlLKK31H9l1sa7Gyd"><rect width="400" height="300"/></clipPath></defs><g clip-path="url(#_clipPath_4edBeyIOfnpmMe9FlLKK31H9l1sa7Gyd)"><rect width="400" height="300" style="fill:rgb(100,150,240)"/><g><g><g><g><g><g><g><g><g><g><g><g><g><g><g/></g></g></g></g></g></g></g></g></g></g></g></g></g><g/><g><g><g><g><g><path d=" M 89.092 235.124 C 88.948 236.291 88.87 237.465 88.87 238.648 C 88.87 270.807 146.225 298 216.87 298 C 287.516 298 344.87 270.807 344.87 238.648 C 344.87 237.465 344.793 236.291 344.649 235.124 L 89.092 235.124 L 89.092 235.124 Z " fill="rgb(235,235,235)"/><path d=" M 362.87 238.124 L 16.566 238.124 C 16.355 234.976 16.242 231.807 16.242 228.615 C 16.242 141.814 100.315 68.417 203.87 68.417 C 270.852 68.417 329.683 99.125 362.87 144.313 L 362.87 238.124 L 362.87 238.124 Z " fill="rgb(235,235,235)"/><polygon points="329.501,16.308,335.863,117.665,244.904,72.496" fill="rgb(235,235,235)"/><path d=" M 324.814 26.452 L 327.379 67.314 L 329.944 108.177 Q 309.572 93.105 293.479 85.242 Q 277.386 77.378 256.604 72.496 L 290.709 49.105 L 324.814 26.452 Z " fill="rgb(120,120,120)"/><polygon points="80.065,15.576,73.298,116.908,164.437,72.102" fill="rgb(235,235,235)"/><path d=" M 84.712 25.74 L 81.984 66.591 L 79.256 107.443 Q 92.224 96.511 112.068 86.705 Q 131.911 76.898 152.74 71.316 L 118.726 48.528 L 84.712 25.74 Z " fill="rgb(120,120,120)"/><circle vector-effect="non-scaling-stroke" cx="242.98813785733617" cy="154.73379177677728" r="25.6023671351966" fill="rgb(0,0,0)"/><circle vector-effect="non-scaling-stroke" cx="250.32043785816526" cy="143.02985251497316" r="7.314962038627613" fill="rgb(235,235,235)"/><circle vector-effect="non-scaling-stroke" cx="165.449540247883" cy="154.73379177677728" r="25.6023671351966" fill="rgb(0,0,0)"/><circle vector-effect="non-scaling-stroke" cx="172.78184024871152" cy="143.02985251497316" r="7.314962038627613" fill="rgb(235,235,235)"/><path d=" M 182.685 216.537 Q 195.54 224.486 203.759 224.598 Q 212.3 224.716 225.752 216.537" fill="none" vector-effect="non-scaling-stroke" stroke-width="3" stroke="rgb(0,0,0)" stroke-linejoin="miter" stroke-linecap="square" stroke-miterlimit="3"/><line x1="204.328" y1="222.763" x2="204.328" y2="212.522" vector-effect="non-scaling-stroke" stroke-width="3" stroke="rgb(0,0,0)" stroke-linejoin="miter" stroke-linecap="square" stroke-miterlimit="3"/><path d=" M 202.335 213.648 L 199.413 208.587 L 196.6 203.715 C 195.56 201.914 196.404 200.452 198.484 200.452 L 204.328 200.452 L 209.954 200.452 C 212.033 200.452 212.877 201.914 211.838 203.715 L 208.916 208.776 L 206.102 213.648 C 205.063 215.449 203.375 215.449 202.335 213.648 Z " fill="rgb(0,0,0)"/><path d=" M 297.489 124.121 C 295.89 121.55 299.878 116.173 306.391 112.121 C 312.904 108.068 319.491 106.865 321.09 109.436 C 322.69 112.007 318.701 117.384 312.188 121.437 C 305.675 125.489 299.089 126.692 297.489 124.121 Z " fill="rgb(240,140,0)"/><path d=" M 311.629 128.573 C 310.387 126.577 313.484 122.403 318.54 119.256 C 323.596 116.11 328.71 115.176 329.951 117.172 C 331.193 119.168 328.097 123.343 323.04 126.489 C 317.984 129.635 312.871 130.569 311.629 128.573 Z " fill="rgb(120,120,120)"/><path d=" M 109.688 124.121 C 111.288 121.55 107.299 116.173 100.786 112.121 C 94.273 108.068 87.686 106.865 86.087 109.436 C 84.487 112.007 88.476 117.384 94.989 121.437 C 101.502 125.489 108.088 126.692 109.688 124.121 Z " fill="rgb(240,140,0)"/><path d=" M 94.41 128.573 C 95.652 126.577 92.555 122.403 87.499 119.256 C 82.442 116.11 77.329 115.176 76.087 117.172 C 74.845 119.168 77.942 123.343 82.998 126.489 C 88.054 129.635 93.168 130.569 94.41 128.573 Z " fill="rgb(120,120,120)"/><path d=" M 362.87 301 L 362.87 5 L -4.13 5 L -4.13 301 L 362.87 301 L 362.87 301 Z  M 80.331 58.616 L 80.626 49.801 L 77.715 48.026 L 80.692 47.81 L 80.83 43.686 L 78.734 42.377 L 80.921 40.953 L 81.551 22.09 L 84.095 23.828 L 84.095 23.828 L 84.202 22.221 L 96.772 30.64 L 101.117 27.812 L 100.507 33.142 L 118.341 45.086 L 119.281 45.018 L 119.669 45.975 L 137.575 57.969 L 139.686 57.415 L 141.894 60.861 L 152.526 67.982 L 150.32 69.066 L 152.345 70.449 L 158.209 70.025 L 160.694 76.152 L 162.778 77.576 L 161.56 78.288 L 163.017 81.879 L 163.017 81.879 C 166.363 80.959 169.772 80.152 173.237 79.462 L 173.237 79.462 L 182.558 74.937 L 185.107 77.592 C 190.951 76.909 196.925 76.556 203 76.556 C 212.747 76.556 222.236 77.466 231.343 79.187 L 236.281 74.937 L 237.581 80.505 L 237.581 80.505 C 241.037 81.314 244.431 82.241 247.758 83.281 L 247.758 83.281 L 250.072 71.559 L 270.264 69.161 L 290.455 66.764 L 266.734 89.127 L 266.734 89.127 L 270.447 89.274 L 289.861 90.042 L 298.893 106.578 L 300.998 110.43 L 303.932 110.218 L 324.715 108.714 L 332.357 127.557 L 340 146.399 L 312.976 129.915 L 312.976 129.915 C 321.51 142.73 326.76 157.199 327.806 172.575 L 332.357 183.795 L 340 202.638 L 326.442 194.368 L 326.442 194.368 C 325.465 199.362 324.041 204.236 322.204 208.961 L 322.204 208.961 L 322.627 213.168 L 324.715 233.9 L 306.095 242.07 L 295.392 246.765 C 288.697 252.742 281.14 258.067 272.882 262.61 L 272.882 262.61 L 275.506 269.082 L 283.149 287.924 L 255.041 270.779 C 239.193 276.699 221.567 280 203 280 C 198.495 280 194.045 279.806 189.662 279.427 L 170.053 291.856 L 175.849 277.589 L 175.849 277.589 C 166.757 275.948 158.037 273.5 149.807 270.343 L 153.624 279.755 L 125.199 262.416 L 96.773 245.077 L 107.905 244.272 L 107.905 244.272 C 100.682 237.388 94.568 229.711 89.787 221.426 L 89.787 221.426 L 69.983 209.346 L 41.558 192.008 L 55.241 191.018 L 36.149 179.372 L 38.214 179.223 L 37.471 178.769 L 37.471 178.769 L 34.005 179.136 L 36.008 177.877 L 33.915 176.6 L 38.578 176.263 L 48.808 169.837 L 48.808 169.837 L 41.558 165.434 L 53.609 166.821 L 56.595 164.945 L 72.956 154.668 L 72.956 154.668 L 60.217 146.399 L 76.609 141.478 L 88.198 137.997 C 89.267 135.985 90.414 134.006 91.635 132.062 L 91.635 132.062 L 84.804 123.177 L 78.042 127.132 L 78.482 113.949 L 75.861 115.198 L 77.242 97.725 L 75.96 96.93 L 77.361 96.212 L 78.898 76.761 L 77.715 76.04 L 78.962 75.95 L 80.331 58.616 Z " fill-rule="evenodd" fill="rgb(100,150,240)"/><path d=" M 349.88 263.168 C 349.922 262.24 349.945 261.306 349.945 260.366 C 349.945 234.792 333.142 213.168 312.445 213.168 C 291.748 213.168 274.945 234.792 274.945 260.366 C 274.945 261.306 274.968 262.24 275.01 263.168 L 349.88 263.168 L 349.88 263.168 Z " fill="rgb(220,220,220)"/><line x1="303.945" y1="248.168" x2="303.945" y2="262.168" vector-effect="non-scaling-stroke" stroke-width="1" stroke="rgb(200,200,200)" stroke-linejoin="miter" stroke-linecap="square" stroke-miterlimit="3"/><line x1="323.945" y1="248.168" x2="323.945" y2="262.168" vector-effect="non-scaling-stroke" stroke-width="1" stroke="rgb(200,200,200)" stroke-linejoin="miter" stroke-linecap="square" stroke-miterlimit="3"/><path d=" M 153.935 271.337 C 153.977 270.41 154 269.476 154 268.535 C 154 242.962 137.197 221.337 116.5 221.337 C 95.803 221.337 79 242.962 79 268.535 C 79 269.476 79.023 270.41 79.065 271.337 L 153.935 271.337 L 153.935 271.337 Z " fill="rgb(220,220,220)"/><line x1="108" y1="256.337" x2="108" y2="270.337" vector-effect="non-scaling-stroke" stroke-width="1" stroke="rgb(200,200,200)" stroke-linejoin="miter" stroke-linecap="square" stroke-miterlimit="3"/><line x1="128" y1="256.337" x2="128" y2="270.337" vector-effect="non-scaling-stroke" stroke-width="1" stroke="rgb(200,200,200)" stroke-linejoin="miter" stroke-linecap="square" stroke-miterlimit="3"/><path d=" M 357 238.648 L 391.175 238.124 L 391.175 238.124 C 391.386 234.976 391.499 231.807 391.499 228.615 C 391.499 197.959 375.142 166.139 357 141.478 L 357 238.648 L 357 238.648 Z " fill="none"/></g></g></g></g></g></g><rect x="355" y="139" width="15" height="109" transform="matrix(1,0,0,1,0,0)" fill="rgb(100,150,240)"/></g></svg>