<?xml version="1.0" encoding="UTF-8" standalone="no"?>
<!-- Generator: Gravit.io -->
<svg xmlns="http://www.w3.org/2000/svg" xmlns:xlink="http://www.w3.org/1999/xlink" style="isolation:isolate" viewBox="0 0 100 100" width="100" height="100"><g id="Group"><path d=" M 49.124 42.5 L 62.596 42.5 C 63.188 44.903 63.5 47.415 63.5 50 C 63.5 67.385 49.385 81.5 32 81.5 C 14.615 81.5 0.5 67.385 0.5 50 C 0.5 32.615 14.615 18.5 32 18.5 C 40.007 18.5 47.32 21.494 52.877 26.426 C 48.635 30.25 45.148 33.391 43.283 35.067 C 40.158 32.662 36.243 31.25 32 31.25 C 21.652 31.25 13.25 39.652 13.25 50 C 13.25 60.348 21.652 68.75 32 68.75 C 42.348 68.75 50.75 60.348 50.75 50 C 50.75 47.324 50.188 44.777 49.124 42.5 Z " id="Path" fill="rgb(255,255,255)"/><rect x="32" y="42.5" width="30" height="13.5" transform="matrix(1,0,0,1,0,0)" id="Rectangle" fill="rgb(255,255,255)"/><rect x="69.5" y="44" width="30" height="7.5" transform="matrix(1,0,0,1,0,0)" id="Rectangle" fill="rgb(255,255,255)"/><rect x="80" y="32" width="9" height="31.5" transform="matrix(1,0,0,1,0,0)" id="Rectangle" fill="rgb(255,255,255)"/></g></svg>