<?xml version="1.0" encoding="UTF-8" standalone="no"?>
<!-- Generator: Gravit.io -->
<svg xmlns="http://www.w3.org/2000/svg" xmlns:xlink="http://www.w3.org/1999/xlink" style="isolation:isolate" viewBox="0 0 100 100" width="100" height="100"><g id="Group"><path d=" M 2.9 9.436 L 33 24 L 33 91 C 33 91.552 32.602 91.794 32.111 91.541 L 2.889 76.459 C 2.398 76.206 2 75.552 2 75 L 2 10 C 2 9.448 2.403 9.195 2.9 9.436 Z " id="Path" fill="rgb(255,255,255)" vector-effect="non-scaling-stroke" stroke-width="1" stroke="rgb(250,250,250)" stroke-linejoin="miter" stroke-linecap="square" stroke-miterlimit="3"/><path d=" M 37 30 L 37 62 L 65 76 L 37 30 Z " id="Path" fill="rgb(255,255,255)" vector-effect="non-scaling-stroke" stroke-width="1" stroke="rgb(255,255,255)" stroke-linejoin="miter" stroke-linecap="square" stroke-miterlimit="3"/><path d=" M 47 40 L 65.489 8.86 C 65.771 8.385 66.401 8.2 66.894 8.447 L 97.106 23.553 C 97.599 23.8 97.766 24.382 97.478 24.853 L 68 73 L 47 40 Z " id="Path" fill="rgb(255,255,255)" vector-effect="non-scaling-stroke" stroke-width="1" stroke="rgb(255,255,255)" stroke-linejoin="miter" stroke-linecap="square" stroke-miterlimit="3"/><path d=" M 69 78 L 97.099 91.565 C 97.596 91.805 98 91.552 98 91 L 98 30 L 69 78 Z " id="Path" fill="rgb(255,255,255)" vector-effect="non-scaling-stroke" stroke-width="1" stroke="rgb(255,255,255)" stroke-linejoin="miter" stroke-linecap="square" stroke-miterlimit="3"/></g></svg>