<?xml version="1.0" encoding="UTF-8" standalone="no"?>
<!-- Generator: Gravit.io -->
<svg xmlns="http://www.w3.org/2000/svg" xmlns:xlink="http://www.w3.org/1999/xlink" style="isolation:isolate" viewBox="0 0 46 58" width="46" height="58"><path d=" M 16 2 L 16 17 L 6 40 L 40 40 L 30 17 L 30 2 L 16 2 Z " id="Path" fill="rgb(220,220,220)"/><g id="Group"><path d=" M 44.798 55.742 Q 45.173 55.054 44.798 52.742 L 40.798 41.742 Q 40.172 40.141 39.798 39.742 C 36.985 39.179 10.11 39.242 6.798 39.742 Q 6.203 39.922 5.798 40.742 L 1.798 52 Q 0.328 56.172 2 56 C 8.499 56.305 39.735 56.492 44.798 55.742 Z " id="Path" fill="rgb(250,0,250)"/></g><path d=" M 20 19 Q 13.938 32.688 8 53 Q 10.439 53 12 53 Q 17.063 33.938 24 19 Q 21.561 19 20 19 Z " id="Path" fill="rgb(250,250,250)" fill-opacity="0.4"/><path d=" M 20 4 L 20 17 L 23 17 L 23 4 L 20 4 Z " id="Path" fill="rgb(250,250,250)" fill-opacity="0.4"/></svg>