<?xml version="1.0" encoding="UTF-8" standalone="no"?>
<!-- Generator: Gravit.io -->
<svg xmlns="http://www.w3.org/2000/svg" xmlns:xlink="http://www.w3.org/1999/xlink" style="isolation:isolate" viewBox="0 0 740 440" width="740" height="440"><g id="kraken" filter="url(#C6HsQKgspm8kRJoWrK4Ke0U67OHQivqz)"><path d=" M 339.743 302.534 Q 360.41 342.368 339.743 352.534 C 310.619 366.862 267.363 369.403 267.363 402.403 C 267.363 435.403 314.41 432.534 369.743 432.534 C 425.076 432.534 472.363 432.569 472.363 402.403 C 472.363 372.236 431.544 370.354 399.743 352.534 Q 380.41 341.701 399.743 302.534 L 339.743 302.534 Z " id="body" fill="rgb(77,0,0)"/><path d=" M 359.743 312.534 Q 353.993 306.784 339.743 302.534 Q 355.243 212.534 369.743 212.534 Q 384.243 212.534 399.743 302.534 Q 385.118 307.159 379.743 312.534 Q 374.368 317.909 369.743 332.534 Q 365.493 318.284 359.743 312.534 Z " id="head" fill="rgb(50,0,0)"/><g id="eyes"><path d=" M 379.742 289.016 L 381.477 286.604 L 383.212 284.192 C 384.831 281.941 387.29 282.051 388.701 284.437 L 389.413 285.642 L 390.125 286.847 C 391.536 289.233 390.447 291.441 387.695 291.775 L 384.746 292.132 L 381.796 292.489 C 379.044 292.823 378.124 291.266 379.742 289.016 Z " id="Polygon" fill="rgb(180,0,0)"/><path d=" M 360.743 289.016 L 359.009 286.604 L 357.274 284.192 C 355.655 281.941 353.196 282.051 351.785 284.437 L 351.073 285.642 L 350.36 286.847 C 348.95 289.233 350.038 291.441 352.791 291.775 L 355.74 292.132 L 358.69 292.489 C 361.442 292.823 362.362 291.266 360.743 289.016 Z " id="Polygon" fill="rgb(180,0,0)"/></g><g id="tentacle-left"><path d=" M 300.743 369.384 Q 319.511 369.384 360.743 369.384 C 121.487 35.08 376.443 0.195 299.497 110.539 C 406.5 26.062 125.81 -54.636 300.743 369.384 Z " id="Path" fill="rgb(77,0,0)"/><circle vector-effect="non-scaling-stroke" cx="269.24294860380814" cy="69.03444079201168" r="1.5" id="Ellipse" fill="rgb(120,50,50)"/><circle vector-effect="non-scaling-stroke" cx="308.74294860380735" cy="97.78444079200997" r="1" id="Ellipse" fill="rgb(120,50,50)"/><circle vector-effect="non-scaling-stroke" cx="313.2429486038069" cy="313.03444079200995" r="5.5" id="Ellipse" fill="rgb(120,50,50)"/><circle vector-effect="non-scaling-stroke" cx="299.7429486038085" cy="287.53444079201074" r="5" id="Ellipse" fill="rgb(120,50,50)"/><circle vector-effect="non-scaling-stroke" cx="287.24294860380724" cy="262.0344407920112" r="4.5" id="Ellipse" fill="rgb(120,50,50)"/><circle vector-effect="non-scaling-stroke" cx="276.74294860380735" cy="238.53444079201137" r="4" id="Ellipse" fill="rgb(120,50,50)"/><circle vector-effect="non-scaling-stroke" cx="268.2429486038068" cy="216.0344407920116" r="3.5" id="Ellipse" fill="rgb(120,50,50)"/><circle vector-effect="non-scaling-stroke" cx="261.74294860380803" cy="195.53444079201162" r="3" id="Ellipse" fill="rgb(120,50,50)"/><circle vector-effect="non-scaling-stroke" cx="254.24294860380735" cy="159.53444079200992" r="1.9999999999999858" id="Ellipse" fill="rgb(120,50,50)"/><circle vector-effect="non-scaling-stroke" cx="257.24294860380473" cy="176.03444079201063" r="2.5" id="Ellipse" fill="rgb(120,50,50)"/><circle vector-effect="non-scaling-stroke" cx="252.49294860380715" cy="144.53444079200995" r="2" id="Ellipse" fill="rgb(120,50,50)"/><circle vector-effect="non-scaling-stroke" cx="251.94294860380742" cy="129.03444079200975" r="2" id="Ellipse" fill="rgb(120,50,50)"/><circle vector-effect="non-scaling-stroke" cx="252.74294860380715" cy="114.53444079201023" r="2" id="Ellipse" fill="rgb(120,50,50)"/><circle vector-effect="non-scaling-stroke" cx="311.24294860380735" cy="92.78444079200995" r="1" id="Ellipse" fill="rgb(120,50,50)"/><circle vector-effect="non-scaling-stroke" cx="313.24294860380735" cy="87.53444079201068" r="1" id="Ellipse" fill="rgb(120,50,50)"/><circle vector-effect="non-scaling-stroke" cx="314.74294860380735" cy="81.53444079201029" r="1" id="Ellipse" fill="rgb(120,50,50)"/><circle vector-effect="non-scaling-stroke" cx="315.74294860380735" cy="75.53444079201043" r="1" id="Ellipse" fill="rgb(120,50,50)"/><circle vector-effect="non-scaling-stroke" cx="315.74294860380735" cy="67.53444079201047" r="1" id="Ellipse" fill="rgb(120,50,50)"/><circle vector-effect="non-scaling-stroke" cx="313.74294860380735" cy="61.5344407920105" r="1" id="Ellipse" fill="rgb(120,50,50)"/><circle vector-effect="non-scaling-stroke" cx="309.24294860380735" cy="56.03444079201053" r="1" id="Ellipse" fill="rgb(120,50,50)"/><circle vector-effect="non-scaling-stroke" cx="302.74294860380735" cy="53.0344407920106" r="1" id="Ellipse" fill="rgb(120,50,50)"/><circle vector-effect="non-scaling-stroke" cx="295.74294860380735" cy="52.534440792010585" r="1" id="Ellipse" fill="rgb(120,50,50)"/><circle vector-effect="non-scaling-stroke" cx="288.74294860380735" cy="54.03444079201056" r="1" id="Ellipse" fill="rgb(120,50,50)"/><circle vector-effect="non-scaling-stroke" cx="281.74294860380735" cy="57.03444079201046" r="1" id="Ellipse" fill="rgb(120,50,50)"/><circle vector-effect="non-scaling-stroke" cx="275.2429486038078" cy="62.03444079201161" r="1.5" id="Ellipse" fill="rgb(120,50,50)"/><circle vector-effect="non-scaling-stroke" cx="264.2429486038085" cy="76.03444079201152" r="1.5" id="Ellipse" fill="rgb(120,50,50)"/><circle vector-effect="non-scaling-stroke" cx="260.74294860380826" cy="84.03444079201171" r="1.5" id="Ellipse" fill="rgb(120,50,50)"/><circle vector-effect="non-scaling-stroke" cx="257.2429486038084" cy="93.03444079201165" r="1.5" id="Ellipse" fill="rgb(120,50,50)"/><circle vector-effect="non-scaling-stroke" cx="254.7429486038081" cy="103.03444079201182" r="1.4999999999999858" id="Ellipse" fill="rgb(120,50,50)"/><circle vector-effect="non-scaling-stroke" cx="328.7429486038086" cy="338.5344407920122" r="6" id="Ellipse" fill="rgb(120,50,50)"/></g><g id="tentacle-right"><path d=" M 439.796 369.384 Q 421.027 369.384 379.796 369.384 C 619.051 35.08 364.095 0.195 441.042 110.539 C 334.038 26.062 614.729 -54.636 439.796 369.384 Z " id="Path" fill="rgb(77,0,0)"/><circle vector-effect="non-scaling-stroke" cx="471.29561530336025" cy="69.03444079201168" r="1.5" id="Ellipse" fill="rgb(120,50,50)"/><circle vector-effect="non-scaling-stroke" cx="431.7956153033589" cy="97.78444079200997" r="1" id="Ellipse" fill="rgb(120,50,50)"/><circle vector-effect="non-scaling-stroke" cx="427.29561530335866" cy="313.03444079200995" r="5.5" id="Ellipse" fill="rgb(120,50,50)"/><circle vector-effect="non-scaling-stroke" cx="440.795615303359" cy="287.5344407920112" r="5" id="Ellipse" fill="rgb(120,50,50)"/><circle vector-effect="non-scaling-stroke" cx="453.29561530335855" cy="262.0344407920112" r="4.5" id="Ellipse" fill="rgb(120,50,50)"/><circle vector-effect="non-scaling-stroke" cx="463.7956153033589" cy="238.53444079201137" r="4" id="Ellipse" fill="rgb(120,50,50)"/><circle vector-effect="non-scaling-stroke" cx="472.2956153033581" cy="216.0344407920116" r="3.5" id="Ellipse" fill="rgb(120,50,50)"/><circle vector-effect="non-scaling-stroke" cx="478.7956153033592" cy="195.5344407920118" r="3" id="Ellipse" fill="rgb(120,50,50)"/><circle vector-effect="non-scaling-stroke" cx="486.2956153033589" cy="159.53444079200992" r="2" id="Ellipse" fill="rgb(120,50,50)"/><circle vector-effect="non-scaling-stroke" cx="483.2956153033549" cy="176.03444079201063" r="2.5" id="Ellipse" fill="rgb(120,50,50)"/><circle vector-effect="non-scaling-stroke" cx="488.0456153033591" cy="144.53444079200995" r="2" id="Ellipse" fill="rgb(120,50,50)"/><circle vector-effect="non-scaling-stroke" cx="488.59561530335884" cy="129.03444079200975" r="2" id="Ellipse" fill="rgb(120,50,50)"/><circle vector-effect="non-scaling-stroke" cx="487.7956153033591" cy="114.53444079201023" r="2" id="Ellipse" fill="rgb(120,50,50)"/><circle vector-effect="non-scaling-stroke" cx="429.2956153033589" cy="92.78444079200995" r="1" id="Ellipse" fill="rgb(120,50,50)"/><circle vector-effect="non-scaling-stroke" cx="427.2956153033589" cy="87.53444079201063" r="1" id="Ellipse" fill="rgb(120,50,50)"/><circle vector-effect="non-scaling-stroke" cx="425.7956153033589" cy="81.53444079201029" r="1" id="Ellipse" fill="rgb(120,50,50)"/><circle vector-effect="non-scaling-stroke" cx="424.7956153033589" cy="75.53444079201037" r="1" id="Ellipse" fill="rgb(120,50,50)"/><circle vector-effect="non-scaling-stroke" cx="424.7956153033589" cy="67.53444079201047" r="1" id="Ellipse" fill="rgb(120,50,50)"/><circle vector-effect="non-scaling-stroke" cx="426.7956153033589" cy="61.5344407920105" r="1" id="Ellipse" fill="rgb(120,50,50)"/><circle vector-effect="non-scaling-stroke" cx="431.2956153033589" cy="56.03444079201053" r="1" id="Ellipse" fill="rgb(120,50,50)"/><circle vector-effect="non-scaling-stroke" cx="437.7956153033589" cy="53.034440792010486" r="1" id="Ellipse" fill="rgb(120,50,50)"/><circle vector-effect="non-scaling-stroke" cx="444.7956153033589" cy="52.53444079201047" r="1" id="Ellipse" fill="rgb(120,50,50)"/><circle vector-effect="non-scaling-stroke" cx="451.7956153033589" cy="54.03444079201044" r="1" id="Ellipse" fill="rgb(120,50,50)"/><circle vector-effect="non-scaling-stroke" cx="458.7956153033589" cy="57.03444079201046" r="1" id="Ellipse" fill="rgb(120,50,50)"/><circle vector-effect="non-scaling-stroke" cx="465.29561530336036" cy="62.03444079201161" r="1.5" id="Ellipse" fill="rgb(120,50,50)"/><circle vector-effect="non-scaling-stroke" cx="476.2956153033597" cy="76.03444079201152" r="1.5" id="Ellipse" fill="rgb(120,50,50)"/><circle vector-effect="non-scaling-stroke" cx="479.7956153033606" cy="84.03444079201171" r="1.5" id="Ellipse" fill="rgb(120,50,50)"/><circle vector-effect="non-scaling-stroke" cx="483.2956153033597" cy="93.03444079201165" r="1.5" id="Ellipse" fill="rgb(120,50,50)"/><circle vector-effect="non-scaling-stroke" cx="485.7956153033605" cy="103.03444079201182" r="1.5" id="Ellipse" fill="rgb(120,50,50)"/><circle vector-effect="non-scaling-stroke" cx="411.795615303359" cy="338.5344407920122" r="6" id="Ellipse" fill="rgb(120,50,50)"/></g><g id="tentacle-left-1"><path d=" M 305.905 368.358 Q 294.114 378.256 268.211 400.001 C 115.317 -87.374 -76.498 9.393 71.922 88.033 C -71.921 53.193 31.232 -182.027 305.905 368.358 Z " id="Path" fill="rgb(77,0,0)"/><path d=" M 54.228 26.444 C 53.477 25.55 52.445 25.178 51.925 25.614 C 51.405 26.051 51.593 27.132 52.343 28.026 C 53.094 28.921 54.126 29.292 54.646 28.856 C 55.166 28.419 54.979 27.338 54.228 26.444 Z " id="Ellipse" fill="rgb(120,50,50)"/><path d=" M 55.174 78.602 C 54.673 78.006 53.985 77.758 53.639 78.049 C 53.292 78.34 53.417 79.06 53.917 79.657 C 54.418 80.253 55.106 80.501 55.453 80.21 C 55.799 79.919 55.674 79.198 55.174 78.602 Z " id="Ellipse" fill="rgb(120,50,50)"/><path d=" M 250.4 311.167 C 247.647 307.888 243.863 306.525 241.956 308.125 C 240.049 309.726 240.736 313.689 243.489 316.968 C 246.242 320.248 250.026 321.611 251.933 320.01 C 253.84 318.409 253.153 314.447 250.4 311.167 Z " id="Ellipse" fill="rgb(120,50,50)"/><path d=" M 235.439 276.76 C 232.936 273.779 229.497 272.539 227.763 273.995 C 226.029 275.45 226.654 279.052 229.157 282.034 C 231.66 285.015 235.099 286.255 236.833 284.799 C 238.567 283.344 237.942 279.742 235.439 276.76 Z " id="Ellipse" fill="rgb(120,50,50)"/><path d=" M 219.85 242.88 C 217.598 240.197 214.502 239.082 212.942 240.391 C 211.382 241.701 211.944 244.943 214.196 247.627 C 216.449 250.31 219.544 251.425 221.105 250.115 C 222.665 248.806 222.103 245.564 219.85 242.88 Z " id="Ellipse" fill="rgb(120,50,50)"/><path d=" M 204.819 212.216 C 202.817 209.831 200.065 208.839 198.678 210.004 C 197.291 211.168 197.791 214.05 199.793 216.435 C 201.795 218.82 204.547 219.812 205.934 218.647 C 207.321 217.483 206.821 214.601 204.819 212.216 Z " id="Ellipse" fill="rgb(120,50,50)"/><path d=" M 189.438 183.687 C 187.686 181.6 185.278 180.733 184.065 181.751 C 182.851 182.77 183.288 185.292 185.04 187.379 C 186.792 189.466 189.2 190.333 190.414 189.314 C 191.627 188.296 191.19 185.774 189.438 183.687 Z " id="Ellipse" fill="rgb(120,50,50)"/><path d=" M 174.615 158.374 C 173.113 156.585 171.049 155.841 170.009 156.714 C 168.969 157.588 169.343 159.749 170.845 161.538 C 172.347 163.327 174.411 164.07 175.451 163.197 C 176.491 162.324 176.116 160.163 174.615 158.374 Z " id="Ellipse" fill="rgb(120,50,50)"/><path d=" M 146.047 116.05 C 145.046 114.857 143.67 114.361 142.977 114.944 C 142.283 115.526 142.533 116.967 143.534 118.159 C 144.535 119.352 145.911 119.848 146.605 119.265 C 147.298 118.683 147.048 117.242 146.047 116.05 Z " id="Ellipse" fill="rgb(120,50,50)"/><path d=" M 159.442 135.195 C 158.19 133.705 156.47 133.085 155.604 133.813 C 154.737 134.541 155.049 136.342 156.3 137.832 C 157.552 139.323 159.272 139.943 160.138 139.215 C 161.005 138.487 160.693 136.686 159.442 135.195 Z " id="Ellipse" fill="rgb(120,50,50)"/><path d=" M 133.542 98.92 C 132.541 97.728 131.165 97.232 130.472 97.814 C 129.778 98.396 130.028 99.837 131.029 101.03 C 132.03 102.222 133.406 102.718 134.099 102.136 C 134.793 101.554 134.543 100.113 133.542 98.92 Z " id="Ellipse" fill="rgb(120,50,50)"/><path d=" M 119.829 81.883 C 118.828 80.691 117.452 80.195 116.759 80.777 C 116.065 81.359 116.315 82.8 117.316 83.993 C 118.318 85.185 119.693 85.681 120.387 85.099 C 121.08 84.517 120.831 83.076 119.829 81.883 Z " id="Ellipse" fill="rgb(120,50,50)"/><path d=" M 106.176 66.639 C 105.175 65.446 103.799 64.95 103.105 65.533 C 102.412 66.115 102.662 67.556 103.663 68.748 C 104.664 69.941 106.04 70.436 106.733 69.854 C 107.427 69.272 107.177 67.831 106.176 66.639 Z " id="Ellipse" fill="rgb(120,50,50)"/><path d=" M 49.068 74.518 C 48.568 73.922 47.88 73.674 47.533 73.965 C 47.186 74.256 47.311 74.977 47.812 75.573 C 48.312 76.169 49 76.417 49.347 76.126 C 49.694 75.835 49.569 75.114 49.068 74.518 Z " id="Ellipse" fill="rgb(120,50,50)"/><path d=" M 43.05 69.901 C 42.55 69.304 41.862 69.056 41.515 69.348 C 41.168 69.639 41.293 70.359 41.794 70.955 C 42.294 71.552 42.982 71.799 43.329 71.508 C 43.676 71.217 43.551 70.497 43.05 69.901 Z " id="Ellipse" fill="rgb(120,50,50)"/><path d=" M 36.666 64.209 C 36.165 63.613 35.478 63.365 35.131 63.656 C 34.784 63.947 34.909 64.667 35.41 65.264 C 35.91 65.86 36.598 66.108 36.945 65.817 C 37.291 65.526 37.167 64.805 36.666 64.209 Z " id="Ellipse" fill="rgb(120,50,50)"/><path d=" M 30.596 58.254 C 30.095 57.657 29.407 57.41 29.061 57.701 C 28.714 57.992 28.839 58.712 29.339 59.308 C 29.84 59.905 30.528 60.153 30.875 59.862 C 31.221 59.57 31.096 58.85 30.596 58.254 Z " id="Ellipse" fill="rgb(120,50,50)"/><path d=" M 23.34 49.61 C 22.84 49.014 22.152 48.766 21.805 49.057 C 21.458 49.348 21.583 50.069 22.084 50.665 C 22.584 51.261 23.272 51.509 23.619 51.218 C 23.966 50.927 23.841 50.206 23.34 49.61 Z " id="Ellipse" fill="rgb(120,50,50)"/><path d=" M 19.155 42.073 C 18.654 41.476 17.966 41.229 17.62 41.52 C 17.273 41.811 17.398 42.531 17.898 43.127 C 18.399 43.724 19.087 43.972 19.434 43.681 C 19.78 43.389 19.655 42.669 19.155 42.073 Z " id="Ellipse" fill="rgb(120,50,50)"/><path d=" M 16.994 33.757 C 16.493 33.161 15.805 32.913 15.458 33.204 C 15.112 33.495 15.236 34.216 15.737 34.812 C 16.238 35.408 16.926 35.656 17.272 35.365 C 17.619 35.074 17.494 34.353 16.994 33.757 Z " id="Ellipse" fill="rgb(120,50,50)"/><path d=" M 18.356 27.088 C 17.856 26.491 17.168 26.244 16.821 26.535 C 16.474 26.826 16.599 27.546 17.1 28.143 C 17.6 28.739 18.288 28.987 18.635 28.696 C 18.982 28.405 18.857 27.684 18.356 27.088 Z " id="Ellipse" fill="rgb(120,50,50)"/><path d=" M 22.3 22.856 C 21.8 22.26 21.112 22.012 20.765 22.303 C 20.419 22.594 20.543 23.314 21.044 23.911 C 21.545 24.507 22.232 24.755 22.579 24.464 C 22.926 24.173 22.801 23.452 22.3 22.856 Z " id="Ellipse" fill="rgb(120,50,50)"/><path d=" M 28.059 20.785 C 27.558 20.189 26.87 19.941 26.523 20.232 C 26.177 20.523 26.302 21.243 26.802 21.84 C 27.303 22.436 27.991 22.684 28.337 22.393 C 28.684 22.102 28.559 21.381 28.059 20.785 Z " id="Ellipse" fill="rgb(120,50,50)"/><path d=" M 35.177 20.335 C 34.677 19.738 33.989 19.49 33.642 19.782 C 33.295 20.073 33.42 20.793 33.921 21.389 C 34.421 21.986 35.109 22.233 35.456 21.942 C 35.803 21.651 35.678 20.931 35.177 20.335 Z " id="Ellipse" fill="rgb(120,50,50)"/><path d=" M 44.11 22.045 C 43.359 21.151 42.327 20.779 41.807 21.216 C 41.287 21.652 41.474 22.733 42.225 23.627 C 42.976 24.522 44.008 24.893 44.528 24.457 C 45.048 24.02 44.861 22.94 44.11 22.045 Z " id="Ellipse" fill="rgb(120,50,50)"/><path d=" M 63.718 31.37 C 62.967 30.476 61.936 30.104 61.415 30.541 C 60.895 30.977 61.083 32.058 61.834 32.952 C 62.584 33.847 63.616 34.219 64.136 33.782 C 64.656 33.345 64.469 32.265 63.718 31.37 Z " id="Ellipse" fill="rgb(120,50,50)"/><path d=" M 73.173 38.168 C 72.422 37.273 71.39 36.902 70.87 37.338 C 70.35 37.775 70.537 38.856 71.288 39.75 C 72.039 40.645 73.071 41.016 73.591 40.58 C 74.111 40.143 73.924 39.062 73.173 38.168 Z " id="Ellipse" fill="rgb(120,50,50)"/><path d=" M 83.535 46.046 C 82.784 45.152 81.752 44.78 81.232 45.216 C 80.712 45.653 80.899 46.734 81.65 47.628 C 82.401 48.523 83.433 48.894 83.953 48.458 C 84.473 48.021 84.285 46.941 83.535 46.046 Z " id="Ellipse" fill="rgb(120,50,50)"/><path d=" M 94.175 55.532 C 93.424 54.638 92.392 54.266 91.872 54.702 C 91.352 55.139 91.539 56.22 92.29 57.114 C 93.041 58.009 94.073 58.38 94.593 57.944 C 95.113 57.507 94.926 56.427 94.175 55.532 Z " id="Ellipse" fill="rgb(120,50,50)"/><path d=" M 264.104 346.629 C 261.101 343.051 256.973 341.565 254.893 343.311 C 252.812 345.057 253.562 349.38 256.565 352.958 C 259.568 356.536 263.696 358.023 265.776 356.276 C 267.857 354.53 267.107 350.207 264.104 346.629 Z " id="Ellipse" fill="rgb(120,50,50)"/></g><g id="tentacle-right-1"><path d=" M 434.095 367.358 Q 445.886 377.256 471.789 399.001 C 624.683 -88.374 816.498 8.393 668.078 87.033 C 811.921 52.193 708.768 -183.027 434.095 367.358 Z " id="Path" fill="rgb(77,0,0)"/><path d=" M 685.772 25.444 C 686.523 24.55 687.555 24.178 688.075 24.614 C 688.595 25.051 688.407 26.132 687.657 27.026 C 686.906 27.921 685.874 28.292 685.354 27.856 C 684.834 27.419 685.021 26.338 685.772 25.444 Z " id="Ellipse" fill="rgb(120,50,50)"/><path d=" M 684.826 77.602 C 685.327 77.006 686.015 76.758 686.361 77.049 C 686.708 77.34 686.583 78.06 686.083 78.657 C 685.582 79.253 684.894 79.501 684.547 79.21 C 684.201 78.919 684.326 78.198 684.826 77.602 Z " id="Ellipse" fill="rgb(120,50,50)"/><path d=" M 489.6 310.167 C 492.353 306.888 496.137 305.525 498.044 307.125 C 499.951 308.726 499.264 312.689 496.511 315.968 C 493.758 319.248 489.974 320.611 488.067 319.01 C 486.16 317.409 486.847 313.447 489.6 310.167 Z " id="Ellipse" fill="rgb(120,50,50)"/><path d=" M 504.561 275.76 C 507.064 272.779 510.503 271.539 512.237 272.995 C 513.971 274.45 513.346 278.052 510.843 281.034 C 508.34 284.015 504.901 285.255 503.167 283.799 C 501.433 282.344 502.058 278.742 504.561 275.76 Z " id="Ellipse" fill="rgb(120,50,50)"/><path d=" M 520.15 241.88 C 522.402 239.197 525.498 238.082 527.058 239.391 C 528.618 240.701 528.056 243.943 525.804 246.627 C 523.551 249.31 520.456 250.425 518.895 249.115 C 517.335 247.806 517.897 244.564 520.15 241.88 Z " id="Ellipse" fill="rgb(120,50,50)"/><path d=" M 535.181 211.216 C 537.183 208.831 539.935 207.839 541.322 209.004 C 542.709 210.168 542.209 213.05 540.207 215.435 C 538.205 217.82 535.453 218.812 534.066 217.647 C 532.679 216.483 533.179 213.601 535.181 211.216 Z " id="Ellipse" fill="rgb(120,50,50)"/><path d=" M 550.562 182.687 C 552.314 180.6 554.722 179.733 555.935 180.751 C 557.149 181.77 556.712 184.292 554.96 186.379 C 553.208 188.466 550.8 189.333 549.586 188.314 C 548.373 187.296 548.81 184.774 550.562 182.687 Z " id="Ellipse" fill="rgb(120,50,50)"/><path d=" M 565.385 157.374 C 566.887 155.585 568.951 154.841 569.991 155.714 C 571.031 156.588 570.657 158.749 569.155 160.538 C 567.653 162.327 565.589 163.07 564.549 162.197 C 563.509 161.324 563.884 159.163 565.385 157.374 Z " id="Ellipse" fill="rgb(120,50,50)"/><path d=" M 593.953 115.05 C 594.954 113.857 596.33 113.361 597.023 113.944 C 597.717 114.526 597.467 115.967 596.466 117.159 C 595.465 118.352 594.089 118.848 593.395 118.265 C 592.702 117.683 592.952 116.242 593.953 115.05 Z " id="Ellipse" fill="rgb(120,50,50)"/><path d=" M 580.558 134.195 C 581.81 132.705 583.53 132.085 584.396 132.813 C 585.263 133.541 584.951 135.342 583.7 136.832 C 582.448 138.323 580.728 138.943 579.862 138.215 C 578.995 137.487 579.307 135.686 580.558 134.195 Z " id="Ellipse" fill="rgb(120,50,50)"/><path d=" M 606.458 97.92 C 607.459 96.728 608.835 96.232 609.528 96.814 C 610.222 97.396 609.972 98.837 608.971 100.03 C 607.97 101.222 606.594 101.718 605.901 101.136 C 605.207 100.554 605.457 99.113 606.458 97.92 Z " id="Ellipse" fill="rgb(120,50,50)"/><path d=" M 620.171 80.883 C 621.172 79.691 622.548 79.195 623.241 79.777 C 623.935 80.359 623.685 81.8 622.684 82.993 C 621.682 84.185 620.307 84.681 619.613 84.099 C 618.92 83.517 619.169 82.076 620.171 80.883 Z " id="Ellipse" fill="rgb(120,50,50)"/><path d=" M 633.824 65.639 C 634.825 64.446 636.201 63.95 636.895 64.533 C 637.588 65.115 637.338 66.556 636.337 67.748 C 635.336 68.941 633.96 69.436 633.267 68.854 C 632.573 68.272 632.823 66.831 633.824 65.639 Z " id="Ellipse" fill="rgb(120,50,50)"/><path d=" M 690.932 73.518 C 691.432 72.922 692.12 72.674 692.467 72.965 C 692.814 73.256 692.689 73.977 692.188 74.573 C 691.688 75.169 691 75.417 690.653 75.126 C 690.306 74.835 690.431 74.114 690.932 73.518 Z " id="Ellipse" fill="rgb(120,50,50)"/><path d=" M 696.95 68.901 C 697.45 68.304 698.138 68.056 698.485 68.348 C 698.832 68.639 698.707 69.359 698.206 69.955 C 697.706 70.552 697.018 70.799 696.671 70.508 C 696.324 70.217 696.449 69.497 696.95 68.901 Z " id="Ellipse" fill="rgb(120,50,50)"/><path d=" M 703.334 63.209 C 703.835 62.613 704.522 62.365 704.869 62.656 C 705.216 62.947 705.091 63.667 704.59 64.264 C 704.09 64.86 703.402 65.108 703.055 64.817 C 702.709 64.526 702.833 63.805 703.334 63.209 Z " id="Ellipse" fill="rgb(120,50,50)"/><path d=" M 709.404 57.254 C 709.905 56.657 710.593 56.41 710.939 56.701 C 711.286 56.992 711.161 57.712 710.661 58.308 C 710.16 58.905 709.472 59.153 709.125 58.862 C 708.779 58.57 708.904 57.85 709.404 57.254 Z " id="Ellipse" fill="rgb(120,50,50)"/><path d=" M 716.66 48.61 C 717.16 48.014 717.848 47.766 718.195 48.057 C 718.542 48.348 718.417 49.069 717.916 49.665 C 717.416 50.261 716.728 50.509 716.381 50.218 C 716.034 49.927 716.159 49.206 716.66 48.61 Z " id="Ellipse" fill="rgb(120,50,50)"/><path d=" M 720.845 41.073 C 721.346 40.476 722.034 40.229 722.38 40.52 C 722.727 40.811 722.602 41.531 722.102 42.127 C 721.601 42.724 720.913 42.972 720.566 42.681 C 720.22 42.389 720.345 41.669 720.845 41.073 Z " id="Ellipse" fill="rgb(120,50,50)"/><path d=" M 723.006 32.757 C 723.507 32.161 724.195 31.913 724.542 32.204 C 724.888 32.495 724.764 33.216 724.263 33.812 C 723.762 34.408 723.074 34.656 722.728 34.365 C 722.381 34.074 722.506 33.353 723.006 32.757 Z " id="Ellipse" fill="rgb(120,50,50)"/><path d=" M 721.644 26.088 C 722.144 25.491 722.832 25.244 723.179 25.535 C 723.526 25.826 723.401 26.546 722.9 27.143 C 722.4 27.739 721.712 27.987 721.365 27.696 C 721.018 27.405 721.143 26.684 721.644 26.088 Z " id="Ellipse" fill="rgb(120,50,50)"/><path d=" M 717.7 21.856 C 718.2 21.26 718.888 21.012 719.235 21.303 C 719.581 21.594 719.457 22.314 718.956 22.911 C 718.455 23.507 717.768 23.755 717.421 23.464 C 717.074 23.173 717.199 22.452 717.7 21.856 Z " id="Ellipse" fill="rgb(120,50,50)"/><path d=" M 711.941 19.785 C 712.442 19.189 713.13 18.941 713.477 19.232 C 713.823 19.523 713.698 20.243 713.198 20.84 C 712.697 21.436 712.009 21.684 711.663 21.393 C 711.316 21.102 711.441 20.381 711.941 19.785 Z " id="Ellipse" fill="rgb(120,50,50)"/><path d=" M 704.823 19.335 C 705.323 18.738 706.011 18.49 706.358 18.782 C 706.705 19.073 706.58 19.793 706.079 20.389 C 705.579 20.986 704.891 21.233 704.544 20.942 C 704.197 20.651 704.322 19.931 704.823 19.335 Z " id="Ellipse" fill="rgb(120,50,50)"/><path d=" M 695.89 21.045 C 696.641 20.151 697.673 19.779 698.193 20.216 C 698.713 20.652 698.526 21.733 697.775 22.627 C 697.024 23.522 695.992 23.893 695.472 23.457 C 694.952 23.02 695.139 21.94 695.89 21.045 Z " id="Ellipse" fill="rgb(120,50,50)"/><path d=" M 676.282 30.37 C 677.033 29.476 678.064 29.104 678.585 29.541 C 679.105 29.977 678.917 31.058 678.166 31.952 C 677.416 32.847 676.384 33.219 675.864 32.782 C 675.344 32.345 675.531 31.265 676.282 30.37 Z " id="Ellipse" fill="rgb(120,50,50)"/><path d=" M 666.827 37.168 C 667.578 36.273 668.61 35.902 669.13 36.338 C 669.65 36.775 669.463 37.856 668.712 38.75 C 667.961 39.645 666.929 40.016 666.409 39.58 C 665.889 39.143 666.076 38.062 666.827 37.168 Z " id="Ellipse" fill="rgb(120,50,50)"/><path d=" M 656.465 45.046 C 657.216 44.152 658.248 43.78 658.768 44.216 C 659.288 44.653 659.101 45.734 658.35 46.628 C 657.599 47.523 656.567 47.894 656.047 47.458 C 655.527 47.021 655.715 45.941 656.465 45.046 Z " id="Ellipse" fill="rgb(120,50,50)"/><path d=" M 645.825 54.532 C 646.576 53.638 647.608 53.266 648.128 53.702 C 648.648 54.139 648.461 55.22 647.71 56.114 C 646.959 57.009 645.927 57.38 645.407 56.944 C 644.887 56.507 645.074 55.427 645.825 54.532 Z " id="Ellipse" fill="rgb(120,50,50)"/><path d=" M 475.896 345.629 C 478.899 342.051 483.027 340.565 485.107 342.311 C 487.188 344.057 486.438 348.38 483.435 351.958 C 480.432 355.536 476.304 357.023 474.224 355.276 C 472.143 353.53 472.893 349.207 475.896 345.629 Z " id="Ellipse" fill="rgb(120,50,50)"/></g></g><defs><filter id="C6HsQKgspm8kRJoWrK4Ke0U67OHQivqz" x="-200%" y="-200%" width="400%" height="400%" filterUnits="objectBoundingBox" color-interpolation-filters="sRGB"><feGaussianBlur xmlns="http://www.w3.org/2000/svg" in="SourceGraphic" stdDeviation="1.7174436251356113"/><feOffset xmlns="http://www.w3.org/2000/svg" dx="4" dy="0" result="pf_100_offsetBlur"/><feFlood xmlns="http://www.w3.org/2000/svg" flood-color="#000000" flood-opacity="0.8"/><feComposite xmlns="http://www.w3.org/2000/svg" in2="pf_100_offsetBlur" operator="in" result="pf_100_dropShadow"/><feBlend xmlns="http://www.w3.org/2000/svg" in="SourceGraphic" in2="pf_100_dropShadow" mode="normal"/></filter></defs></svg>