<?xml version="1.0" encoding="UTF-8" standalone="no"?>
<!-- Generator: Gravit.io -->
<svg xmlns="http://www.w3.org/2000/svg" xmlns:xlink="http://www.w3.org/1999/xlink" style="isolation:isolate" viewBox="0 0 504 406" width="504" height="406"><g id="ship" filter="url(#gCGi7KxLgsLwx3MFObMgOaKIPm4pqIMz)"><path d="M 365.281 257.645 L 496.923 192.919 C 498.945 191.925 501.392 192.759 502.386 194.781 L 502.581 195.177 C 503.575 197.198 502.741 199.646 500.719 200.639 L 369.077 265.366 C 367.055 266.359 364.608 265.525 363.614 263.504 L 363.419 263.108 C 362.425 261.087 363.259 258.639 365.281 257.645 Z" style="stroke:none;fill:#643C14;stroke-miterlimit:10;"/><path d=" M 108 255.5 L 130 255.5 L 130 285.5 L 288 285.5 L 367.97 285.5 L 367.97 285.5 C 367.989 286.283 368 287.067 368 287.853 C 368 352.784 289.585 405.5 193 405.5 C 96.415 405.5 18 352.784 18 287.853 C 18 287.067 18.011 286.283 18.03 285.5 L 18.03 285.5 L 18 285.5 L 18 255.5 L 18 255.5 L 18 225.5 L 108 225.5 L 108 255.5 Z  M 288 255.5 L 368 255.5 L 368 285.5 L 288 285.5 L 288 285.5 L 288 255.5 L 288 255.5 Z " fill-rule="evenodd" id="body" fill="rgb(100,60,20)"/><g id="cannnons"><g id="cannon"><rect x="63.898" y="304.441" width="22.059" height="22.059" transform="matrix(1,0,0,1,0,0)" id="Rectangle" fill="rgb(50,30,10)"/><circle vector-effect="non-scaling-stroke" cx="74.92744090584648" cy="315.4705882352973" r="9.191176470588232" id="Ellipse" fill="rgb(58,58,58)"/><circle vector-effect="non-scaling-stroke" cx="74.92744090584651" cy="315.47058823529756" r="6.127450980392155" id="Ellipse" fill="rgb(20,20,20)"/><rect x="63.898" y="301.5" width="22.059" height="2.941" transform="matrix(1,0,0,1,0,0)" id="Rectangle" fill="rgb(128,77,25)"/></g><g id="cannon"><rect x="96.839" y="304.441" width="22.059" height="22.059" transform="matrix(1,0,0,1,0,0)" id="Rectangle" fill="rgb(50,30,10)"/><circle vector-effect="non-scaling-stroke" cx="107.86861737643511" cy="315.47058823529756" r="9.191176470588232" id="Ellipse" fill="rgb(58,58,58)"/><circle vector-effect="non-scaling-stroke" cx="107.86861737643457" cy="315.47058823529744" r="6.127450980392155" id="Ellipse" fill="rgb(20,20,20)"/><rect x="96.839" y="301.5" width="22.059" height="2.941" transform="matrix(1,0,0,1,0,0)" id="Rectangle" fill="rgb(128,77,25)"/></g><g id="cannon"><rect x="129.78" y="304.441" width="22.059" height="22.059" transform="matrix(1,0,0,1,0,0)" id="Rectangle" fill="rgb(50,30,10)"/><circle vector-effect="non-scaling-stroke" cx="140.80979384702343" cy="315.47058823529767" r="9.191176470588232" id="Ellipse" fill="rgb(58,58,58)"/><circle vector-effect="non-scaling-stroke" cx="140.80979384702283" cy="315.47058823529756" r="6.127450980392155" id="Ellipse" fill="rgb(20,20,20)"/><rect x="129.78" y="301.5" width="22.059" height="2.941" transform="matrix(1,0,0,1,0,0)" id="Rectangle" fill="rgb(128,77,25)"/></g><g id="cannon"><rect x="162.698" y="304.441" width="22.059" height="22.059" transform="matrix(1,0,0,1,0,0)" id="Rectangle" fill="rgb(50,30,10)"/><circle vector-effect="non-scaling-stroke" cx="173.72744090584672" cy="315.47058823529767" r="9.191176470588232" id="Ellipse" fill="rgb(58,58,58)"/><circle vector-effect="non-scaling-stroke" cx="173.72744090584638" cy="315.47058823529756" r="6.127450980392155" id="Ellipse" fill="rgb(20,20,20)"/><rect x="162.698" y="301.5" width="22.059" height="2.941" transform="matrix(1,0,0,1,0,0)" id="Rectangle" fill="rgb(128,77,25)"/></g><g id="cannon"><rect x="195.598" y="304.441" width="22.059" height="22.059" transform="matrix(1,0,0,1,0,0)" id="Rectangle" fill="rgb(50,30,10)"/><circle vector-effect="non-scaling-stroke" cx="206.62744090584664" cy="315.47058823529767" r="9.191176470588232" id="Ellipse" fill="rgb(58,58,58)"/><circle vector-effect="non-scaling-stroke" cx="206.62744090584647" cy="315.47058823529756" r="6.127450980392155" id="Ellipse" fill="rgb(20,20,20)"/><rect x="195.598" y="301.5" width="22.059" height="2.941" transform="matrix(1,0,0,1,0,0)" id="Rectangle" fill="rgb(128,77,25)"/></g><g id="cannon"><rect x="162.698" y="334.441" width="22.059" height="22.059" transform="matrix(1,0,0,1,0,0)" id="Rectangle" fill="rgb(50,30,10)"/><circle vector-effect="non-scaling-stroke" cx="173.7274409058461" cy="345.4705882352972" r="9.191176470588232" id="Ellipse" fill="rgb(58,58,58)"/><circle vector-effect="non-scaling-stroke" cx="173.7274409058457" cy="345.4705882352969" r="6.127450980392155" id="Ellipse" fill="rgb(20,20,20)"/><rect x="162.698" y="331.5" width="22.059" height="2.941" transform="matrix(1,0,0,1,0,0)" id="Rectangle" fill="rgb(128,77,25)"/></g><g id="cannon"><rect x="195.616" y="334.441" width="22.059" height="22.059" transform="matrix(1,0,0,1,0,0)" id="Rectangle" fill="rgb(50,30,10)"/><circle vector-effect="non-scaling-stroke" cx="206.64508796466907" cy="345.4705882352972" r="9.191176470588232" id="Ellipse" fill="rgb(58,58,58)"/><circle vector-effect="non-scaling-stroke" cx="206.64508796466913" cy="345.4705882352969" r="6.127450980392155" id="Ellipse" fill="rgb(20,20,20)"/><rect x="195.616" y="331.5" width="22.059" height="2.941" transform="matrix(1,0,0,1,0,0)" id="Rectangle" fill="rgb(128,77,25)"/></g><g id="cannon"><rect x="96.839" y="334.441" width="22.059" height="22.059" transform="matrix(1,0,0,1,0,0)" id="Rectangle" fill="rgb(50,30,10)"/><circle vector-effect="non-scaling-stroke" cx="107.86861737643511" cy="345.4705882352978" r="9.191176470588232" id="Ellipse" fill="rgb(58,58,58)"/><circle vector-effect="non-scaling-stroke" cx="107.86861737643443" cy="345.4705882352979" r="6.127450980392155" id="Ellipse" fill="rgb(20,20,20)"/><rect x="96.839" y="331.5" width="22.059" height="2.941" transform="matrix(1,0,0,1,0,0)" id="Rectangle" fill="rgb(128,77,25)"/></g><g id="cannon"><rect x="129.78" y="334.441" width="22.059" height="22.059" transform="matrix(1,0,0,1,0,0)" id="Rectangle" fill="rgb(50,30,10)"/><circle vector-effect="non-scaling-stroke" cx="140.80979384702312" cy="345.4705882352978" r="9.191176470588232" id="Ellipse" fill="rgb(58,58,58)"/><circle vector-effect="non-scaling-stroke" cx="140.80979384702306" cy="345.4705882352979" r="6.127450980392155" id="Ellipse" fill="rgb(20,20,20)"/><rect x="129.78" y="331.5" width="22.059" height="2.941" transform="matrix(1,0,0,1,0,0)" id="Rectangle" fill="rgb(128,77,25)"/></g><g id="cannon"><rect x="228.533" y="304.441" width="22.059" height="22.059" transform="matrix(1,0,0,1,0,0)" id="Rectangle" fill="rgb(50,30,10)"/><circle vector-effect="non-scaling-stroke" cx="239.56273502349399" cy="315.47058823529767" r="9.191176470588232" id="Ellipse" fill="rgb(58,58,58)"/><circle vector-effect="non-scaling-stroke" cx="239.5627350234936" cy="315.47058823529756" r="6.127450980392155" id="Ellipse" fill="rgb(20,20,20)"/><rect x="228.533" y="301.5" width="22.059" height="2.941" transform="matrix(1,0,0,1,0,0)" id="Rectangle" fill="rgb(128,77,25)"/></g><g id="cannon"><rect x="228.551" y="334.441" width="22.059" height="22.059" transform="matrix(1,0,0,1,0,0)" id="Rectangle" fill="rgb(50,30,10)"/><circle vector-effect="non-scaling-stroke" cx="239.5803820823162" cy="345.4705882352972" r="9.191176470588232" id="Ellipse" fill="rgb(58,58,58)"/><circle vector-effect="non-scaling-stroke" cx="239.58038208231608" cy="345.4705882352969" r="6.127450980392155" id="Ellipse" fill="rgb(20,20,20)"/><rect x="228.551" y="331.5" width="22.059" height="2.941" transform="matrix(1,0,0,1,0,0)" id="Rectangle" fill="rgb(128,77,25)"/></g><g id="cannon"><rect x="261.469" y="304.441" width="22.059" height="22.059" transform="matrix(1,0,0,1,0,0)" id="Rectangle" fill="rgb(50,30,10)"/><circle vector-effect="non-scaling-stroke" cx="272.49802914114156" cy="315.47058823529767" r="9.191176470588232" id="Ellipse" fill="rgb(58,58,58)"/><circle vector-effect="non-scaling-stroke" cx="272.49802914114093" cy="315.47058823529756" r="6.127450980392155" id="Ellipse" fill="rgb(20,20,20)"/><rect x="261.469" y="301.5" width="22.059" height="2.941" transform="matrix(1,0,0,1,0,0)" id="Rectangle" fill="rgb(128,77,25)"/></g><g id="cannon"><rect x="261.486" y="334.441" width="22.059" height="22.059" transform="matrix(1,0,0,1,0,0)" id="Rectangle" fill="rgb(50,30,10)"/><circle vector-effect="non-scaling-stroke" cx="272.5156761999636" cy="345.4705882352972" r="9.191176470588232" id="Ellipse" fill="rgb(58,58,58)"/><circle vector-effect="non-scaling-stroke" cx="272.51567619996325" cy="345.4705882352969" r="6.127450980392155" id="Ellipse" fill="rgb(20,20,20)"/><rect x="261.486" y="331.5" width="22.059" height="2.941" transform="matrix(1,0,0,1,0,0)" id="Rectangle" fill="rgb(128,77,25)"/></g><g id="cannon"><rect x="294.404" y="304.441" width="22.059" height="22.059" transform="matrix(1,0,0,1,0,0)" id="Rectangle" fill="rgb(50,30,10)"/><circle vector-effect="non-scaling-stroke" cx="305.4333232587887" cy="315.47058823529767" r="9.191176470588232" id="Ellipse" fill="rgb(58,58,58)"/><circle vector-effect="non-scaling-stroke" cx="305.4333232587882" cy="315.47058823529756" r="6.127450980392155" id="Ellipse" fill="rgb(20,20,20)"/><rect x="294.404" y="301.5" width="22.059" height="2.941" transform="matrix(1,0,0,1,0,0)" id="Rectangle" fill="rgb(128,77,25)"/></g><g id="cannon"><rect x="32.545" y="262.441" width="22.059" height="22.059" transform="matrix(1,0,0,1,0,0)" id="Rectangle" fill="rgb(50,30,10)"/><circle vector-effect="non-scaling-stroke" cx="43.57449972937661" cy="273.4705882352979" r="9.191176470588232" id="Ellipse" fill="rgb(58,58,58)"/><circle vector-effect="non-scaling-stroke" cx="43.574499729376356" cy="273.47058823529744" r="6.127450980392155" id="Ellipse" fill="rgb(20,20,20)"/><rect x="32.545" y="259.5" width="22.059" height="2.941" transform="matrix(1,0,0,1,0,0)" id="Rectangle" fill="rgb(128,77,25)"/></g><g id="cannon"><rect x="64.604" y="262.441" width="22.059" height="22.059" transform="matrix(1,0,0,1,0,0)" id="Rectangle" fill="rgb(50,30,10)"/><circle vector-effect="non-scaling-stroke" cx="75.63332325878852" cy="273.4705882352979" r="9.191176470588232" id="Ellipse" fill="rgb(58,58,58)"/><circle vector-effect="non-scaling-stroke" cx="75.63332325878801" cy="273.47058823529744" r="6.127450980392155" id="Ellipse" fill="rgb(20,20,20)"/><rect x="64.604" y="259.5" width="22.059" height="2.941" transform="matrix(1,0,0,1,0,0)" id="Rectangle" fill="rgb(128,77,25)"/></g><g id="cannon"><rect x="96.663" y="262.441" width="22.059" height="22.059" transform="matrix(1,0,0,1,0,0)" id="Rectangle" fill="rgb(50,30,10)"/><circle vector-effect="non-scaling-stroke" cx="107.69214678820026" cy="273.4705882352979" r="9.191176470588232" id="Ellipse" fill="rgb(58,58,58)"/><circle vector-effect="non-scaling-stroke" cx="107.69214678819978" cy="273.47058823529744" r="6.127450980392155" id="Ellipse" fill="rgb(20,20,20)"/><rect x="96.663" y="259.5" width="22.059" height="2.941" transform="matrix(1,0,0,1,0,0)" id="Rectangle" fill="rgb(128,77,25)"/></g><g id="cannon"><rect x="300.192" y="262.441" width="22.059" height="22.059" transform="matrix(1,0,0,1,0,0)" id="Rectangle" fill="rgb(50,30,10)"/><circle vector-effect="non-scaling-stroke" cx="311.2215585529062" cy="273.47058823529767" r="9.191176470588232" id="Ellipse" fill="rgb(58,58,58)"/><circle vector-effect="non-scaling-stroke" cx="311.2215585529055" cy="273.4705882352972" r="6.127450980392155" id="Ellipse" fill="rgb(20,20,20)"/><rect x="300.192" y="259.5" width="22.059" height="2.941" transform="matrix(1,0,0,1,0,0)" id="Rectangle" fill="rgb(128,77,25)"/></g><g id="cannon"><rect x="330.663" y="262.441" width="22.059" height="22.059" transform="matrix(1,0,0,1,0,0)" id="Rectangle" fill="rgb(50,30,10)"/><circle vector-effect="non-scaling-stroke" cx="341.69214678820015" cy="273.47058823529767" r="9.191176470588232" id="Ellipse" fill="rgb(58,58,58)"/><circle vector-effect="non-scaling-stroke" cx="341.6921467881998" cy="273.4705882352972" r="6.127450980392155" id="Ellipse" fill="rgb(20,20,20)"/><rect x="330.663" y="259.5" width="22.059" height="2.941" transform="matrix(1,0,0,1,0,0)" id="Rectangle" fill="rgb(128,77,25)"/></g></g><g id="windows"><path d=" M 100.228 251.007 C 99.968 239.322 95.139 229.993 89.228 229.993 C 83.317 229.993 78.488 239.322 78.228 251.007 L 100.228 251.007 L 100.228 251.007 Z " id="window" fill="rgb(50,30,10)"/><path d=" M 73.228 251.007 C 72.968 239.322 68.139 229.993 62.228 229.993 C 56.317 229.993 51.488 239.322 51.228 251.007 L 73.228 251.007 L 73.228 251.007 Z " id="window" fill="rgb(50,30,10)"/><path d=" M 46.228 251.007 C 45.968 239.322 41.139 229.993 35.228 229.993 C 29.317 229.993 24.488 239.322 24.228 251.007 L 46.228 251.007 L 46.228 251.007 Z " id="window" fill="rgb(50,30,10)"/></g><rect x="230" y="0.5" width="12" height="285.167" transform="matrix(1,0,0,1,0,0)" id="mast1" fill="rgb(100,60,20)"/><g id="backsail" filter="url(#VR6RrGG43AVdGQz4NO5AgMGFnj40cxnM)"><path d=" M 136.958 131.508 C 136.958 139.996 138.099 147.987 138.063 162.05 Q 138.026 176.113 136.813 192.862 Q 59.856 193.258 10.813 192.737 C 12.219 178.626 14.007 164.029 14.938 142.925 Q 15.868 121.821 15.625 96.175 Q 89.606 117.719 136.958 131.508 Z " id="backsail3" fill="rgb(50,50,50)"/><path d="M 3.467 191.925 L 136.533 191.925 C 137.894 191.925 139 192.597 139 193.425 L 139 193.425 C 139 194.253 137.894 194.925 136.533 194.925 L 3.467 194.925 C 2.106 194.925 1 194.253 1 193.425 L 1 193.425 C 1 192.597 2.106 191.925 3.467 191.925 Z" style="stroke:none;fill:#643C14;stroke-miterlimit:10;"/><path d="M 8.958 92.228 L 136.869 128.905 C 138.178 129.281 139.055 130.231 138.827 131.027 L 138.827 131.027 C 138.599 131.823 137.351 132.164 136.042 131.789 L 8.131 95.111 C 6.822 94.736 5.945 93.785 6.173 92.989 L 6.173 92.989 C 6.401 92.194 7.649 91.852 8.958 92.228 Z" style="stroke:none;fill:#643C14;stroke-miterlimit:10;"/></g><defs><filter id="VR6RrGG43AVdGQz4NO5AgMGFnj40cxnM" x="-200%" y="-200%" width="400%" height="400%" filterUnits="objectBoundingBox" color-interpolation-filters="sRGB"><feGaussianBlur xmlns="http://www.w3.org/2000/svg" in="SourceGraphic" stdDeviation="1.7174436251356113"/><feOffset xmlns="http://www.w3.org/2000/svg" dx="-1" dy="0" result="pf_100_offsetBlur"/><feFlood xmlns="http://www.w3.org/2000/svg" flood-color="#000000" flood-opacity="0.4"/><feComposite xmlns="http://www.w3.org/2000/svg" in2="pf_100_offsetBlur" operator="in" result="pf_100_dropShadow"/><feBlend xmlns="http://www.w3.org/2000/svg" in="SourceGraphic" in2="pf_100_dropShadow" mode="normal"/></filter></defs><rect x="138" y="38.667" width="12" height="247.333" transform="matrix(1,0,0,1,0,0)" id="mast2" fill="rgb(100,60,20)"/><g id="rails"><rect x="17.228" y="210.5" width="90" height="5" transform="matrix(1,0,0,1,0,0)" id="Rectangle" fill="rgb(128,77,25)"/><rect x="108" y="240.5" width="22.265" height="5" transform="matrix(1,0,0,1,0,0)" id="Rectangle" fill="rgb(128,77,25)"/><rect x="129.493" y="270.5" width="158.735" height="5" transform="matrix(1,0,0,1,0,0)" id="Rectangle" fill="rgb(128,77,25)"/><rect x="287.228" y="240.5" width="80.772" height="5" transform="matrix(1,0,0,1,0,0)" id="Rectangle" fill="rgb(128,77,25)"/><rect x="24.228" y="215.5" width="4" height="10" transform="matrix(1,0,0,1,0,0)" id="Rectangle" fill="rgb(115,69,23)"/><rect x="37.228" y="215.5" width="4" height="10" transform="matrix(1,0,0,1,0,0)" id="Rectangle" fill="rgb(115,69,23)"/><rect x="49.228" y="215.5" width="4" height="10" transform="matrix(1,0,0,1,0,0)" id="Rectangle" fill="rgb(115,69,23)"/><rect x="61.228" y="215.5" width="4" height="10" transform="matrix(1,0,0,1,0,0)" id="Rectangle" fill="rgb(115,69,23)"/><rect x="73.228" y="215.5" width="4" height="10" transform="matrix(1,0,0,1,0,0)" id="Rectangle" fill="rgb(115,69,23)"/><rect x="85.228" y="215.5" width="4" height="10" transform="matrix(1,0,0,1,0,0)" id="Rectangle" fill="rgb(115,69,23)"/><rect x="97.228" y="215.5" width="4" height="10" transform="matrix(1,0,0,1,0,0)" id="Rectangle" fill="rgb(115,69,23)"/><rect x="112.228" y="245.5" width="4" height="10" transform="matrix(1,0,0,1,0,0)" id="Rectangle" fill="rgb(115,69,23)"/><rect x="121.228" y="245.5" width="4" height="10" transform="matrix(1,0,0,1,0,0)" id="Rectangle" fill="rgb(115,69,23)"/><rect x="37.228" y="215.5" width="4" height="10" transform="matrix(1,0,0,1,0,0)" id="Rectangle" fill="rgb(115,69,23)"/><rect x="135.228" y="275.5" width="4" height="10" transform="matrix(1,0,0,1,0,0)" id="Rectangle" fill="rgb(115,69,23)"/><rect x="147.228" y="275.5" width="4" height="10" transform="matrix(1,0,0,1,0,0)" id="Rectangle" fill="rgb(115,69,23)"/><rect x="159.228" y="275.5" width="4" height="10" transform="matrix(1,0,0,1,0,0)" id="Rectangle" fill="rgb(115,69,23)"/><rect x="171.228" y="275.5" width="4" height="10" transform="matrix(1,0,0,1,0,0)" id="Rectangle" fill="rgb(115,69,23)"/><rect x="183.228" y="275.5" width="4" height="10" transform="matrix(1,0,0,1,0,0)" id="Rectangle" fill="rgb(115,69,23)"/><rect x="195.228" y="275.5" width="4" height="10" transform="matrix(1,0,0,1,0,0)" id="Rectangle" fill="rgb(115,69,23)"/><rect x="207.228" y="275.5" width="4" height="10" transform="matrix(1,0,0,1,0,0)" id="Rectangle" fill="rgb(115,69,23)"/><rect x="219.228" y="275.5" width="4" height="10" transform="matrix(1,0,0,1,0,0)" id="Rectangle" fill="rgb(115,69,23)"/><rect x="231.228" y="275.5" width="4" height="10" transform="matrix(1,0,0,1,0,0)" id="Rectangle" fill="rgb(115,69,23)"/><rect x="243.228" y="275.5" width="4" height="10" transform="matrix(1,0,0,1,0,0)" id="Rectangle" fill="rgb(115,69,23)"/><rect x="255.228" y="275.5" width="4" height="10" transform="matrix(1,0,0,1,0,0)" id="Rectangle" fill="rgb(115,69,23)"/><rect x="267.228" y="275.5" width="4" height="10" transform="matrix(1,0,0,1,0,0)" id="Rectangle" fill="rgb(115,69,23)"/><rect x="279.228" y="275.5" width="4" height="10" transform="matrix(1,0,0,1,0,0)" id="Rectangle" fill="rgb(115,69,23)"/><rect x="290.228" y="245.5" width="4" height="10" transform="matrix(1,0,0,1,0,0)" id="Rectangle" fill="rgb(115,69,23)"/><rect x="302.228" y="245.5" width="4" height="10" transform="matrix(1,0,0,1,0,0)" id="Rectangle" fill="rgb(115,69,23)"/><rect x="314.228" y="245.5" width="4" height="10" transform="matrix(1,0,0,1,0,0)" id="Rectangle" fill="rgb(115,69,23)"/><rect x="326.228" y="245.5" width="4" height="10" transform="matrix(1,0,0,1,0,0)" id="Rectangle" fill="rgb(115,69,23)"/><rect x="338.228" y="245.5" width="4" height="10" transform="matrix(1,0,0,1,0,0)" id="Rectangle" fill="rgb(115,69,23)"/><rect x="350.228" y="245.5" width="4" height="10" transform="matrix(1,0,0,1,0,0)" id="Rectangle" fill="rgb(115,69,23)"/><rect x="362.228" y="245.5" width="4" height="10" transform="matrix(1,0,0,1,0,0)" id="Rectangle" fill="rgb(115,69,23)"/></g><g id="sailback1" filter="url(#dd3eJhvtrV1J0r0rtJQ49GiSvm8P4CSQ)"><path d=" M 75 132.167 Q 90.667 164.333 90.667 179 Q 90.667 193.667 75 202.167 L 195 202.167 Q 208.667 193.667 208.667 179.333 Q 208.667 165 195 132.167 L 75 132.167 Z " id="sail3" fill="rgb(50,50,50)"/><path d="M 74.5 131.667 L 195.5 131.667 C 195.776 131.667 196 131.891 196 132.166 L 196 132.167 C 196 132.443 195.776 132.667 195.5 132.667 L 74.5 132.667 C 74.224 132.667 74 132.443 74 132.167 L 74 132.166 C 74 131.891 74.224 131.667 74.5 131.667 Z" style="stroke:none;fill:#734517;stroke-miterlimit:10;"/><path d="M 74.5 201.667 L 195.5 201.667 C 195.776 201.667 196 201.891 196 202.166 L 196 202.167 C 196 202.443 195.776 202.667 195.5 202.667 L 74.5 202.667 C 74.224 202.667 74 202.443 74 202.167 L 74 202.166 C 74 201.891 74.224 201.667 74.5 201.667 Z" style="stroke:none;fill:#734517;stroke-miterlimit:10;"/></g><defs><filter id="dd3eJhvtrV1J0r0rtJQ49GiSvm8P4CSQ" x="-200%" y="-200%" width="400%" height="400%" filterUnits="objectBoundingBox" color-interpolation-filters="sRGB"><feGaussianBlur xmlns="http://www.w3.org/2000/svg" in="SourceGraphic" stdDeviation="1.7174436251356113"/><feOffset xmlns="http://www.w3.org/2000/svg" dx="-1" dy="0" result="pf_100_offsetBlur"/><feFlood xmlns="http://www.w3.org/2000/svg" flood-color="#000000" flood-opacity="0.4"/><feComposite xmlns="http://www.w3.org/2000/svg" in2="pf_100_offsetBlur" operator="in" result="pf_100_dropShadow"/><feBlend xmlns="http://www.w3.org/2000/svg" in="SourceGraphic" in2="pf_100_dropShadow" mode="normal"/></filter></defs><g id="sailback2"><defs><filter id="AFRv2hLqXPYeMbkwR2Hoeq1KPIdgUzik" x="-200%" y="-200%" width="400%" height="400%" filterUnits="objectBoundingBox" color-interpolation-filters="sRGB"><feGaussianBlur xmlns="http://www.w3.org/2000/svg" in="SourceGraphic" stdDeviation="1.7174436251356113"/><feOffset xmlns="http://www.w3.org/2000/svg" dx="-1" dy="0" result="pf_100_offsetBlur"/><feFlood xmlns="http://www.w3.org/2000/svg" flood-color="#000000" flood-opacity="0.4"/><feComposite xmlns="http://www.w3.org/2000/svg" in2="pf_100_offsetBlur" operator="in" result="pf_100_dropShadow"/><feBlend xmlns="http://www.w3.org/2000/svg" in="SourceGraphic" in2="pf_100_dropShadow" mode="normal"/></filter></defs><g filter="url(#AFRv2hLqXPYeMbkwR2Hoeq1KPIdgUzik)"><path d=" M 85 49.667 Q 97 82.333 97 98 Q 97 113.667 85 119.667 L 195 119.667 Q 208 111.667 208 96.667 Q 208 81.667 195 49.667 L 85 49.667 Z " id="sail4" fill="rgb(50,50,50)"/></g><path d="M 84.479 119.667 L 195.521 119.667 C 195.785 119.667 196 119.881 196 120.145 L 196 120.188 C 196 120.452 195.785 120.667 195.521 120.667 L 84.479 120.667 C 84.215 120.667 84 120.452 84 120.188 L 84 120.145 C 84 119.881 84.215 119.667 84.479 119.667 Z" style="stroke:none;fill:#734517;stroke-miterlimit:10;"/><path d="M 84.479 48.667 L 195.521 48.667 C 195.785 48.667 196 48.881 196 49.145 L 196 49.188 C 196 49.452 195.785 49.667 195.521 49.667 L 84.479 49.667 C 84.215 49.667 84 49.452 84 49.188 L 84 49.145 C 84 48.881 84.215 48.667 84.479 48.667 Z" style="stroke:none;fill:#734517;stroke-miterlimit:10;"/></g><path d=" M 442.699 218.5 L 442.699 218.5 Q 455.223 209.076 463.135 205.167 Q 471.046 201.257 486 197.101 Q 467.253 177.917 453.135 168.5 Q 439.016 159.083 405.635 143.5 Q 423.325 167.876 430.635 182.667 Q 437.944 197.458 442.699 218.5 L 442.699 218.5 Z " id="sail1" fill="rgb(50,50,50)"/><path d=" M 385.477 246.5 L 385.477 246.5 Q 400.506 235.192 410 230.5 Q 419.494 225.808 437.438 220.821 Q 414.942 197.8 398 186.5 Q 381.058 175.2 341 156.5 Q 362.229 185.751 371 203.5 Q 379.771 221.249 385.477 246.5 L 385.477 246.5 Z " id="sail2" fill="rgb(50,50,50)"/><defs><filter id="MvUO7OrSH36TlvKT3XaDnDZv6Cdib1Lq" x="-200%" y="-200%" width="400%" height="400%" filterUnits="objectBoundingBox" color-interpolation-filters="sRGB"><feGaussianBlur xmlns="http://www.w3.org/2000/svg" in="SourceGraphic" stdDeviation="1.7174436251356113"/><feOffset xmlns="http://www.w3.org/2000/svg" dx="-1" dy="0" result="pf_100_offsetBlur"/><feFlood xmlns="http://www.w3.org/2000/svg" flood-color="#000000" flood-opacity="0.4"/><feComposite xmlns="http://www.w3.org/2000/svg" in2="pf_100_offsetBlur" operator="in" result="pf_100_dropShadow"/><feBlend xmlns="http://www.w3.org/2000/svg" in="SourceGraphic" in2="pf_100_dropShadow" mode="normal"/></filter></defs><g filter="url(#MvUO7OrSH36TlvKT3XaDnDZv6Cdib1Lq)"><path d=" M 179.228 168.5 Q 194.895 200.667 194.895 215.333 Q 194.895 230 179.228 238.5 L 299.228 238.5 Q 312.895 230 312.895 215.667 Q 312.895 201.333 299.228 168.5 L 179.228 168.5 Z " id="sail3" fill="rgb(50,50,50)"/></g><defs><filter id="boU0F0kkyt3ZpVdjdnAVk7pZSyXCgIge" x="-200%" y="-200%" width="400%" height="400%" filterUnits="objectBoundingBox" color-interpolation-filters="sRGB"><feGaussianBlur xmlns="http://www.w3.org/2000/svg" in="SourceGraphic" stdDeviation="1.7174436251356113"/><feOffset xmlns="http://www.w3.org/2000/svg" dx="-1" dy="0" result="pf_100_offsetBlur"/><feFlood xmlns="http://www.w3.org/2000/svg" flood-color="#000000" flood-opacity="0.4"/><feComposite xmlns="http://www.w3.org/2000/svg" in2="pf_100_offsetBlur" operator="in" result="pf_100_dropShadow"/><feBlend xmlns="http://www.w3.org/2000/svg" in="SourceGraphic" in2="pf_100_dropShadow" mode="normal"/></filter></defs><g filter="url(#boU0F0kkyt3ZpVdjdnAVk7pZSyXCgIge)"><path d=" M 184.561 85.333 Q 196.561 118 196.561 133.667 Q 196.561 149.333 184.561 155.333 L 294.561 155.333 Q 307.561 147.333 307.561 132.333 Q 307.561 117.333 294.561 85.333 L 184.561 85.333 Z " id="sail4" fill="rgb(50,50,50)"/></g><defs><filter id="z70QjwNyVt2wzd468HXv0Oz7xxU10fdn" x="-200%" y="-200%" width="400%" height="400%" filterUnits="objectBoundingBox" color-interpolation-filters="sRGB"><feGaussianBlur xmlns="http://www.w3.org/2000/svg" in="SourceGraphic" stdDeviation="1.7174436251356113"/><feOffset xmlns="http://www.w3.org/2000/svg" dx="-1" dy="0" result="pf_100_offsetBlur"/><feFlood xmlns="http://www.w3.org/2000/svg" flood-color="#000000" flood-opacity="0.4"/><feComposite xmlns="http://www.w3.org/2000/svg" in2="pf_100_offsetBlur" operator="in" result="pf_100_dropShadow"/><feBlend xmlns="http://www.w3.org/2000/svg" in="SourceGraphic" in2="pf_100_dropShadow" mode="normal"/></filter></defs><g filter="url(#z70QjwNyVt2wzd468HXv0Oz7xxU10fdn)"><path d=" M 189.228 12.5 Q 198.895 36.5 198.895 52.5 Q 198.895 68.5 189.228 72.5 L 289.228 72.5 Q 299.561 68.167 299.561 53.167 Q 299.561 39.833 289.228 12.5 L 189.228 12.5 Z " id="sail5" fill="rgb(50,50,50)"/></g><g id="boons"><path d="M 178.728 238 L 299.728 238 C 300.004 238 300.228 238.224 300.228 238.5 L 300.228 238.5 C 300.228 238.776 300.004 239 299.728 239 L 178.728 239 C 178.452 239 178.228 238.776 178.228 238.5 L 178.228 238.5 C 178.228 238.224 178.452 238 178.728 238 Z" style="stroke:none;fill:#734517;stroke-miterlimit:10;"/><path d="M 183.707 154.5 L 294.749 154.5 C 295.014 154.5 295.228 154.715 295.228 154.979 L 295.228 155.021 C 295.228 155.285 295.014 155.5 294.749 155.5 L 183.707 155.5 C 183.443 155.5 183.228 155.285 183.228 155.021 L 183.228 154.979 C 183.228 154.715 183.443 154.5 183.707 154.5 Z" style="stroke:none;fill:#734517;stroke-miterlimit:10;"/><path d="M 183.707 84.5 L 294.749 84.5 C 295.014 84.5 295.228 84.715 295.228 84.979 L 295.228 85.021 C 295.228 85.285 295.014 85.5 294.749 85.5 L 183.707 85.5 C 183.443 85.5 183.228 85.285 183.228 85.021 L 183.228 84.979 C 183.228 84.715 183.443 84.5 183.707 84.5 Z" style="stroke:none;fill:#734517;stroke-miterlimit:10;"/><path d="M 188.685 72.5 L 289.771 72.5 C 290.023 72.5 290.228 72.705 290.228 72.957 L 290.228 73.043 C 290.228 73.295 290.023 73.5 289.771 73.5 L 188.685 73.5 C 188.433 73.5 188.228 73.295 188.228 73.043 L 188.228 72.957 C 188.228 72.705 188.433 72.5 188.685 72.5 Z" style="stroke:none;fill:#734517;stroke-miterlimit:10;"/><path d="M 188.935 11.5 L 290.021 11.5 C 290.273 11.5 290.478 11.705 290.478 11.957 L 290.478 12.043 C 290.478 12.295 290.273 12.5 290.021 12.5 L 188.935 12.5 C 188.683 12.5 188.478 12.295 188.478 12.043 L 188.478 11.957 C 188.478 11.705 188.683 11.5 188.935 11.5 Z" style="stroke:none;fill:#734517;stroke-miterlimit:10;"/><path d="M 178.728 168 L 299.728 168 C 300.004 168 300.228 168.224 300.228 168.5 L 300.228 168.5 C 300.228 168.776 300.004 169 299.728 169 L 178.728 169 C 178.452 169 178.228 168.776 178.228 168.5 L 178.228 168.5 C 178.228 168.224 178.452 168 178.728 168 Z" style="stroke:none;fill:#734517;stroke-miterlimit:10;"/></g></g><defs><filter id="gCGi7KxLgsLwx3MFObMgOaKIPm4pqIMz" x="-200%" y="-200%" width="400%" height="400%" filterUnits="objectBoundingBox" color-interpolation-filters="sRGB"><feGaussianBlur xmlns="http://www.w3.org/2000/svg" in="SourceGraphic" stdDeviation="1.7174436251356113"/><feOffset xmlns="http://www.w3.org/2000/svg" dx="0" dy="4" result="pf_100_offsetBlur"/><feFlood xmlns="http://www.w3.org/2000/svg" flood-color="#000000" flood-opacity="0.5"/><feComposite xmlns="http://www.w3.org/2000/svg" in2="pf_100_offsetBlur" operator="in" result="pf_100_dropShadow"/><feBlend xmlns="http://www.w3.org/2000/svg" in="SourceGraphic" in2="pf_100_dropShadow" mode="normal"/></filter></defs></svg>