<?xml version="1.0" encoding="UTF-8" standalone="no"?>
<!-- Generator: Gravit.io -->
<svg xmlns="http://www.w3.org/2000/svg" xmlns:xlink="http://www.w3.org/1999/xlink" style="isolation:isolate" viewBox="0 0 1080 150" width="1080" height="150"><defs><filter id="OAQelHF2jeNNcvEmixGabBDcVQyx0NDK" x="-200%" y="-200%" width="400%" height="400%" filterUnits="objectBoundingBox" color-interpolation-filters="sRGB"><feGaussianBlur xmlns="http://www.w3.org/2000/svg" in="SourceGraphic" stdDeviation="1.7174436251356113"/><feOffset xmlns="http://www.w3.org/2000/svg" dx="0" dy="-4" result="pf_100_offsetBlur"/><feFlood xmlns="http://www.w3.org/2000/svg" flood-color="#000000" flood-opacity="0.2"/><feComposite xmlns="http://www.w3.org/2000/svg" in2="pf_100_offsetBlur" operator="in" result="pf_100_dropShadow"/><feBlend xmlns="http://www.w3.org/2000/svg" in="SourceGraphic" in2="pf_100_dropShadow" mode="normal"/></filter></defs><g filter="url(#OAQelHF2jeNNcvEmixGabBDcVQyx0NDK)"><path d=" M 1080 150 L 0 150 Q 0 89 0 50 Q 24 50 80 10 Q 127.419 50 160 50 Q 192.581 50 240 10 Q 287.419 50 320 50 Q 352.581 50 400 10 Q 447.419 50 480 50 Q 512.581 50 560 10 Q 607.419 50 640 50 Q 672.581 50 720 10 Q 767.419 50 800 50 Q 832.581 50 880 10 Q 927.419 50 960 50 Q 992.581 50 1040 10 Q 1077.539 50 1080 50 Q 1082.461 50 1080 50 L 1080 50 L 1080 50 L 1080 150 Z " id="waves-middle" fill="rgb(86,127,204)"/></g></svg>