<?xml version="1.0" encoding="UTF-8" standalone="no"?>
<!-- Generator: Gravit.io -->
<svg xmlns="http://www.w3.org/2000/svg" xmlns:xlink="http://www.w3.org/1999/xlink" style="isolation:isolate" viewBox="0 0 1080 130" width="1080" height="130"><defs><filter id="reYAnu9egYUKpy6fhPNfKcRggUqLo7Cc" x="-200%" y="-200%" width="400%" height="400%" filterUnits="objectBoundingBox" color-interpolation-filters="sRGB"><feGaussianBlur xmlns="http://www.w3.org/2000/svg" in="SourceGraphic" stdDeviation="1.7174436251356113"/><feOffset xmlns="http://www.w3.org/2000/svg" dx="0" dy="-4" result="pf_100_offsetBlur"/><feFlood xmlns="http://www.w3.org/2000/svg" flood-color="#000000" flood-opacity="0.2"/><feComposite xmlns="http://www.w3.org/2000/svg" in2="pf_100_offsetBlur" operator="in" result="pf_100_dropShadow"/><feBlend xmlns="http://www.w3.org/2000/svg" in="SourceGraphic" in2="pf_100_dropShadow" mode="normal"/></filter></defs><g filter="url(#reYAnu9egYUKpy6fhPNfKcRggUqLo7Cc)"><path d=" M 1080 130 L 0 130 Q 0 49 0 10 C 10.647 10 44 50 80 50 Q 116 50 160 10 Q 207.419 50 240 50 Q 272.581 50 320 10 Q 367.419 50 400 50 Q 432.581 50 480 10 Q 527.419 50 560 50 Q 592.581 50 640 10 Q 687.419 50 720 50 Q 752.581 50 800 10 Q 847.419 50 880 50 Q 912.581 50 960 10 Q 1009 50 1040 50 Q 1071 50 1080 30 L 1080 130 Z " id="waves-front" fill="rgb(100,150,240)"/></g></svg>