<?xml version="1.0" encoding="UTF-8" standalone="no"?>
<!-- Generator: Gravit.io -->
<svg xmlns="http://www.w3.org/2000/svg" xmlns:xlink="http://www.w3.org/1999/xlink" style="isolation:isolate" viewBox="0 0 1080 170" width="1080" height="170"><defs><filter id="ADuE1BF7ezBgR8yWFmccU7GItbi3Fmwy" x="-200%" y="-200%" width="400%" height="400%" filterUnits="objectBoundingBox" color-interpolation-filters="sRGB"><feGaussianBlur xmlns="http://www.w3.org/2000/svg" in="SourceGraphic" stdDeviation="1.7174436251356113"/><feOffset xmlns="http://www.w3.org/2000/svg" dx="0" dy="-4" result="pf_100_offsetBlur"/><feFlood xmlns="http://www.w3.org/2000/svg" flood-color="#000000" flood-opacity="0.3"/><feComposite xmlns="http://www.w3.org/2000/svg" in2="pf_100_offsetBlur" operator="in" result="pf_100_dropShadow"/><feBlend xmlns="http://www.w3.org/2000/svg" in="SourceGraphic" in2="pf_100_dropShadow" mode="normal"/></filter></defs><g filter="url(#ADuE1BF7ezBgR8yWFmccU7GItbi3Fmwy)"><path d=" M 1080 170 L 0 170 Q 0 49 0 10 C 10.647 10 48.5 50 84.5 50 Q 120.5 50 164.5 10 Q 211.919 50 244.5 50 Q 277.081 50 324.5 10 Q 371.919 50 404.5 50 Q 437.081 50 484.5 10 Q 531.919 50 564.5 50 Q 597.081 50 644.5 10 Q 691.919 50 724.5 50 Q 757.081 50 804.5 10 Q 851.919 50 884.5 50 Q 917.081 50 964.5 10 Q 1013.5 50 1044.5 50 Q 1075.5 50 1080 30 L 1080 170 Z " id="waves-back" fill="rgb(70,103,166)"/></g></svg>